<svg width="162" height="53" viewBox="0 0 162 53" fill="none" xmlns="http://www.w3.org/2000/svg">
<path d="M53.5623 28.1271C53.5964 27.5574 53.615 26.9845 53.615 26.4023C53.6405 22.9262 52.9649 19.4808 51.629 16.2736C50.293 13.0664 48.3243 10.1637 45.8414 7.74017C43.3405 5.27108 40.3768 3.32398 37.1217 2.0114C30.5213 -0.670467 23.1403 -0.670467 16.5399 2.0114C13.3065 3.32517 10.3664 5.27271 7.89153 7.74017C5.36727 10.1417 3.36124 13.0378 1.99773 16.2493C-0.665911 22.7496 -0.665911 30.0425 1.99773 36.5428C3.35867 39.7593 5.36493 42.6601 7.89153 45.0644C10.3664 47.5318 13.3065 49.4794 16.5399 50.7931C19.5135 52.0132 22.6814 52.6871 25.8924 52.7826C26.2026 52.7982 26.5128 52.8013 26.823 52.8013H44.796V52.8449H53.7112V29.2698C53.7131 28.8839 53.663 28.4995 53.5623 28.1271ZM36.3183 43.3208L32.0468 38.6506C28.5746 39.9368 24.749 39.8747 21.3201 38.4763C19.5614 37.7636 17.9624 36.705 16.6175 35.3628C15.2472 34.0536 14.1596 32.4756 13.4224 30.7269C11.9707 27.1899 11.9707 23.2204 13.4224 19.6834C14.1629 17.9392 15.2501 16.3649 16.6175 15.0568C17.9642 13.7168 19.5627 12.6585 21.3201 11.9433C24.9097 10.4817 28.9256 10.4817 32.5152 11.9433C34.2844 12.6571 35.8953 13.7153 37.2551 15.0568C38.606 16.3751 39.6771 17.9543 40.4038 19.6992C41.1304 21.4442 41.4975 23.3187 41.4831 25.2098C41.5057 27.1021 41.1423 28.9791 40.4151 30.7252C39.688 32.4712 38.6126 34.0495 37.2551 35.3628C37.1341 35.4811 37.01 35.5963 36.8828 35.7146L43.8375 43.3053L36.3183 43.3208Z" fill="#FF7A22"/>
<path d="M103.094 13.9899C101.389 10.3802 98.7586 7.28546 95.4697 5.01979C92.7586 3.15713 89.7083 1.84362 86.4914 1.15361C83.0857 0.390773 77.2759 0.00623576 69.0622 0H58.043V52.8449H71.4839C78.3682 52.8449 83.4497 52.4666 86.7286 51.71C89.8592 51.0143 92.8261 49.7217 95.4666 47.9031C98.7549 45.6354 101.385 42.5398 103.09 38.9298C104.826 35.2881 105.692 31.131 105.69 26.4583C105.688 21.7857 104.822 17.6295 103.094 13.9899ZM87.128 37.5237C84.5233 39.8475 80.3914 41.0084 74.7325 41.0063H72.2984V11.8043H74.7201C80.381 11.8043 84.5129 12.9849 87.1155 15.3462C89.7182 17.7075 91.0206 21.4125 91.0227 26.4614C91.0227 31.5166 89.7245 35.204 87.128 37.5237Z" fill="#FF7A22"/>
<path d="M159.992 16.2409C158.653 13.0499 156.688 10.1612 154.214 7.74656C151.708 5.27511 148.738 3.32635 145.476 2.01306C138.862 -0.671021 131.465 -0.671021 124.851 2.01306C121.611 3.32754 118.664 5.27673 116.185 7.74656C113.662 10.1511 111.659 13.0484 110.297 16.2596C107.62 22.7647 107.62 30.0678 110.297 36.573C111.657 39.7905 113.661 42.6943 116.185 45.1047C118.665 47.5736 121.611 49.5217 124.851 50.8351C131.449 53.5149 138.828 53.5149 145.426 50.8351C148.695 49.5085 151.679 47.5629 154.214 45.1047C157.925 41.4111 160.456 36.6942 161.485 31.5543C162.514 26.4144 161.994 21.0839 159.992 16.2409ZM144.587 37.0217C142.102 39.8282 138.961 41.2315 135.165 41.2315C131.298 41.2315 128.141 39.8459 125.693 37.0747C123.246 34.3035 122.021 30.7585 122.019 26.4396C122.019 22.1998 123.263 18.6735 125.749 15.8607C128.236 13.048 131.375 11.6374 135.165 11.6291C138.895 11.6291 142.018 13.0397 144.534 15.8607C147.05 18.6818 148.309 22.2018 148.311 26.4209C148.311 30.6858 147.069 34.2193 144.587 37.0217Z" fill="#FF7A22"/>
<path d="M34.6531 25.1266C34.6531 27.372 33.9574 29.2322 32.5661 30.707C31.897 31.4023 31.0813 31.9583 30.1712 32.3393C29.2611 32.7203 28.2766 32.918 27.2809 32.9197C26.2851 32.9214 25.2999 32.7271 24.3883 32.3492C23.4768 31.9713 22.6589 31.4181 21.9872 30.7251C20.6172 29.2643 19.93 27.3982 19.9258 25.1266C19.9258 22.8893 20.6214 21.0322 22.0128 19.5554C22.6734 18.8544 23.4841 18.2933 24.3914 17.9091C25.2987 17.5248 26.282 17.3262 27.2766 17.3262C28.2712 17.3262 29.2545 17.5248 30.1618 17.9091C31.0691 18.2933 31.8798 18.8544 32.5405 19.5554C33.9457 21.0493 34.6531 22.8993 34.6531 25.1266Z" fill="#FF7A22"/>
</svg>
