<svg width="133" height="66" viewBox="0 0 133 66" fill="none" xmlns="http://www.w3.org/2000/svg">
<path d="M0.445312 61.1292L1.375 55.2542H0.0625L0.382812 53.2385H1.69531L1.82031 52.4417C1.83594 52.3739 1.85417 52.2724 1.875 52.137C2.03646 51.0693 2.27083 50.3427 2.57812 49.9573C2.86458 49.5979 3.23177 49.3193 3.67969 49.1213C4.13281 48.9234 4.63021 48.8245 5.17188 48.8245C5.42188 48.8245 5.68229 48.8531 5.95312 48.9104C6.22917 48.9625 6.51562 49.0458 6.8125 49.1604L6.46094 51.4182C6.3099 51.3453 6.15885 51.2906 6.00781 51.2542C5.86198 51.2125 5.72656 51.1917 5.60156 51.1917C5.29427 51.1917 5.0625 51.288 4.90625 51.4807C4.75521 51.6734 4.64062 52.025 4.5625 52.5354L4.44531 53.2385H6.17969L5.85938 55.2542H4.14062L3.21875 61.1292H0.445312ZM10.75 55.2385C10.2083 55.2385 9.7474 55.4677 9.36719 55.926C8.99219 56.3792 8.80469 56.9338 8.80469 57.5901C8.80469 58.0745 8.94271 58.4599 9.21875 58.7463C9.49479 59.0328 9.86198 59.176 10.3203 59.176C10.8984 59.176 11.3724 58.9573 11.7422 58.5198C12.1172 58.0771 12.3047 57.512 12.3047 56.8245C12.3047 56.3349 12.1641 55.9495 11.8828 55.6682C11.6068 55.3818 11.2292 55.2385 10.75 55.2385ZM6.13281 57.5588C6.13281 56.2203 6.57031 55.1213 7.44531 54.262C8.32031 53.4026 9.4401 52.9729 10.8047 52.9729C12.0651 52.9729 13.0729 53.3297 13.8281 54.0432C14.5833 54.7568 14.9609 55.7099 14.9609 56.9026C14.9609 58.2255 14.5182 59.314 13.6328 60.1682C12.7474 61.0224 11.6068 61.4495 10.2109 61.4495C8.97656 61.4495 7.98698 61.0953 7.24219 60.387C6.5026 59.6786 6.13281 58.7359 6.13281 57.5588ZM15.8125 61.1292L17.0625 53.2385H19.7344L19.5391 54.5823C19.7839 54.0823 20.112 53.7021 20.5234 53.4417C20.9349 53.1812 21.4141 53.051 21.9609 53.051C22.0182 53.051 22.0833 53.0562 22.1562 53.0667C22.2292 53.0719 22.3438 53.0875 22.5 53.1135L21.9453 55.5901C21.763 55.5484 21.599 55.5172 21.4531 55.4963C21.3073 55.4755 21.1667 55.4651 21.0312 55.4651C20.4948 55.4651 20.0703 55.6344 19.7578 55.9729C19.4505 56.3062 19.2396 56.8245 19.125 57.5276L18.5625 61.1292H15.8125ZM34.2422 56.887C34.2422 56.3818 34.0859 55.9755 33.7734 55.6682C33.4661 55.3609 33.0625 55.2073 32.5625 55.2073C32.0052 55.2073 31.5417 55.4208 31.1719 55.8479C30.8073 56.2698 30.625 56.8036 30.625 57.4495C30.625 57.939 30.7786 58.3375 31.0859 58.6448C31.3932 58.9469 31.7943 59.0979 32.2891 59.0979C32.8568 59.0979 33.3229 58.8896 33.6875 58.4729C34.0573 58.0562 34.2422 57.5276 34.2422 56.887ZM31.4219 53.1448C31.401 53.3062 31.3646 53.4833 31.3125 53.676C31.2604 53.8635 31.1901 54.0823 31.1016 54.3323C31.5495 53.8896 32.0078 53.5614 32.4766 53.3479C32.9453 53.1292 33.4271 53.0198 33.9219 53.0198C34.8333 53.0198 35.5807 53.3609 36.1641 54.0432C36.7474 54.7255 37.0391 55.6057 37.0391 56.6838C37.0391 58.0484 36.6458 59.1812 35.8594 60.0823C35.0781 60.9833 34.0964 61.4338 32.9141 61.4338C32.3932 61.4338 31.9167 61.3219 31.4844 61.0979C31.0521 60.8739 30.6328 60.5224 30.2266 60.0432L30.0469 61.1292H27.4531L29.375 49.0198H32.0781L31.4219 53.1448ZM39.1719 53.2385H41.9375L41.4219 56.5042C41.3594 56.9364 41.3099 57.2984 41.2734 57.5901C41.237 57.8765 41.2188 58.064 41.2188 58.1526C41.2188 58.5276 41.3073 58.814 41.4844 59.012C41.6667 59.2099 41.9297 59.3088 42.2734 59.3088C43.0755 59.3088 43.6172 58.4 43.8984 56.5823C43.9141 56.4833 43.9271 56.4078 43.9375 56.3557L44.4297 53.2385H47.2031L46.6406 56.8088L46.6172 56.9729C46.3411 58.6656 45.9115 59.7958 45.3281 60.3635C44.9583 60.7177 44.5052 60.9833 43.9688 61.1604C43.4375 61.3427 42.8359 61.4338 42.1641 61.4338C41.0026 61.4338 40.0859 61.1708 39.4141 60.6448C38.7474 60.1187 38.4141 59.4052 38.4141 58.5042C38.4141 58.2958 38.4323 58.0354 38.4688 57.7229C38.5052 57.4052 38.5781 56.9182 38.6875 56.262L39.1719 53.2385ZM54.4531 53.8167L53.6406 55.5901C53.2812 55.3349 52.9505 55.15 52.6484 55.0354C52.3464 54.9156 52.0469 54.8557 51.75 54.8557C51.5 54.8557 51.2917 54.913 51.125 55.0276C50.9635 55.1422 50.8828 55.2828 50.8828 55.4495C50.8828 55.689 51.1536 55.913 51.6953 56.1213C51.9349 56.2099 52.1224 56.2854 52.2578 56.3479C53.013 56.676 53.5417 57.0172 53.8438 57.3713C54.1458 57.7203 54.2969 58.1578 54.2969 58.6838C54.2969 59.512 53.9766 60.1786 53.3359 60.6838C52.6953 61.1838 51.8411 61.4338 50.7734 61.4338C50.1693 61.4338 49.5911 61.3531 49.0391 61.1917C48.4922 61.0354 47.9609 60.7958 47.4453 60.4729L48.375 58.5823C48.9062 58.9104 49.3516 59.1422 49.7109 59.2776C50.0703 59.413 50.4089 59.4807 50.7266 59.4807C51.0026 59.4807 51.224 59.4208 51.3906 59.301C51.5573 59.176 51.6406 59.0172 51.6406 58.8245C51.6406 58.5276 51.2578 58.2229 50.4922 57.9104C50.263 57.8167 50.0859 57.7437 49.9609 57.6917C49.3516 57.4208 48.9193 57.1265 48.6641 56.8088C48.4089 56.4911 48.2812 56.0953 48.2812 55.6213C48.2812 54.8661 48.5964 54.2385 49.2266 53.7385C49.8568 53.2385 50.6667 52.9885 51.6562 52.9885C52.1562 52.9885 52.6432 53.0588 53.1172 53.1995C53.5911 53.3401 54.0365 53.5458 54.4531 53.8167ZM56.7734 50.887C56.7734 50.4807 56.9167 50.1318 57.2031 49.8401C57.4948 49.5484 57.8464 49.4026 58.2578 49.4026C58.6901 49.4026 59.0495 49.5432 59.3359 49.8245C59.6224 50.1057 59.7656 50.4599 59.7656 50.887C59.7656 51.3088 59.6198 51.6656 59.3281 51.9573C59.0365 52.2489 58.6797 52.3948 58.2578 52.3948C57.8464 52.3948 57.4948 52.2489 57.2031 51.9573C56.9167 51.6604 56.7734 51.3036 56.7734 50.887ZM55.3203 61.1292L56.5625 53.2385H59.3672L58.1172 61.1292H55.3203ZM60.1875 61.1292L61.4375 53.2385H64.1094L63.9141 54.4729C64.3464 53.9521 64.776 53.5745 65.2031 53.3401C65.6302 53.1057 66.0964 52.9885 66.6016 52.9885C67.4193 52.9885 68.0521 53.2099 68.5 53.6526C68.9531 54.0901 69.1797 54.7047 69.1797 55.4963C69.1797 55.7672 69.1328 56.2177 69.0391 56.8479C69.0339 56.9052 69.0286 56.9521 69.0234 56.9885L68.3672 61.1292H65.5781L66.2344 56.9495C66.2552 56.8297 66.2708 56.7125 66.2812 56.5979C66.2969 56.4833 66.3047 56.3844 66.3047 56.301C66.3047 55.9573 66.2135 55.6969 66.0312 55.5198C65.849 55.3427 65.5807 55.2542 65.2266 55.2542C64.7422 55.2542 64.362 55.4286 64.0859 55.7776C63.8151 56.1265 63.6198 56.6838 63.5 57.4495L62.9375 61.1292H60.1875ZM76.4297 56.2463C76.4036 55.8193 76.2604 55.4807 76 55.2307C75.7396 54.9807 75.3958 54.8557 74.9688 54.8557C74.5833 54.8557 74.237 54.9781 73.9297 55.2229C73.6276 55.4677 73.3984 55.8088 73.2422 56.2463H76.4297ZM73.0547 57.8479V58.0276C73.0547 58.5276 73.1823 58.9078 73.4375 59.1682C73.6927 59.4286 74.0651 59.5588 74.5547 59.5588C74.8984 59.5588 75.2214 59.4885 75.5234 59.3479C75.8307 59.2021 76.1589 58.9703 76.5078 58.6526L78.0078 60.1682C77.5599 60.5953 77.0417 60.9156 76.4531 61.1292C75.8698 61.3427 75.2161 61.4495 74.4922 61.4495C73.2057 61.4495 72.2057 61.1083 71.4922 60.426C70.7839 59.7385 70.4297 58.7776 70.4297 57.5432C70.4297 56.1943 70.8516 55.0979 71.6953 54.2542C72.5443 53.4104 73.6406 52.9885 74.9844 52.9885C76.2031 52.9885 77.1823 53.3609 77.9219 54.1057C78.6667 54.8505 79.0391 55.8375 79.0391 57.0667C79.0391 57.176 79.0234 57.3739 78.9922 57.6604C78.9818 57.7489 78.974 57.8114 78.9688 57.8479H73.0547ZM86.4375 53.8167L85.625 55.5901C85.2656 55.3349 84.9349 55.15 84.6328 55.0354C84.3307 54.9156 84.0312 54.8557 83.7344 54.8557C83.4844 54.8557 83.276 54.913 83.1094 55.0276C82.9479 55.1422 82.8672 55.2828 82.8672 55.4495C82.8672 55.689 83.138 55.913 83.6797 56.1213C83.9193 56.2099 84.1068 56.2854 84.2422 56.3479C84.9974 56.676 85.526 57.0172 85.8281 57.3713C86.1302 57.7203 86.2812 58.1578 86.2812 58.6838C86.2812 59.512 85.9609 60.1786 85.3203 60.6838C84.6797 61.1838 83.8255 61.4338 82.7578 61.4338C82.1536 61.4338 81.5755 61.3531 81.0234 61.1917C80.4766 61.0354 79.9453 60.7958 79.4297 60.4729L80.3594 58.5823C80.8906 58.9104 81.3359 59.1422 81.6953 59.2776C82.0547 59.413 82.3932 59.4807 82.7109 59.4807C82.987 59.4807 83.2083 59.4208 83.375 59.301C83.5417 59.176 83.625 59.0172 83.625 58.8245C83.625 58.5276 83.2422 58.2229 82.4766 57.9104C82.2474 57.8167 82.0703 57.7437 81.9453 57.6917C81.3359 57.4208 80.9036 57.1265 80.6484 56.8088C80.3932 56.4911 80.2656 56.0953 80.2656 55.6213C80.2656 54.8661 80.5807 54.2385 81.2109 53.7385C81.8411 53.2385 82.651 52.9885 83.6406 52.9885C84.1406 52.9885 84.6276 53.0588 85.1016 53.1995C85.5755 53.3401 86.0208 53.5458 86.4375 53.8167ZM93.7812 53.8167L92.9688 55.5901C92.6094 55.3349 92.2786 55.15 91.9766 55.0354C91.6745 54.9156 91.375 54.8557 91.0781 54.8557C90.8281 54.8557 90.6198 54.913 90.4531 55.0276C90.2917 55.1422 90.2109 55.2828 90.2109 55.4495C90.2109 55.689 90.4818 55.913 91.0234 56.1213C91.263 56.2099 91.4505 56.2854 91.5859 56.3479C92.3411 56.676 92.8698 57.0172 93.1719 57.3713C93.474 57.7203 93.625 58.1578 93.625 58.6838C93.625 59.512 93.3047 60.1786 92.6641 60.6838C92.0234 61.1838 91.1693 61.4338 90.1016 61.4338C89.4974 61.4338 88.9193 61.3531 88.3672 61.1917C87.8203 61.0354 87.2891 60.7958 86.7734 60.4729L87.7031 58.5823C88.2344 58.9104 88.6797 59.1422 89.0391 59.2776C89.3984 59.413 89.737 59.4807 90.0547 59.4807C90.3307 59.4807 90.5521 59.4208 90.7188 59.301C90.8854 59.176 90.9688 59.0172 90.9688 58.8245C90.9688 58.5276 90.5859 58.2229 89.8203 57.9104C89.5911 57.8167 89.4141 57.7437 89.2891 57.6917C88.6797 57.4208 88.2474 57.1265 87.9922 56.8088C87.737 56.4911 87.6094 56.0953 87.6094 55.6213C87.6094 54.8661 87.9245 54.2385 88.5547 53.7385C89.1849 53.2385 89.9948 52.9885 90.9844 52.9885C91.4844 52.9885 91.9714 53.0588 92.4453 53.1995C92.9193 53.3401 93.3646 53.5458 93.7812 53.8167Z" fill="#FF7A22"/>
<path d="M43.878 23.0416C43.906 22.5749 43.9212 22.1056 43.9212 21.6287C43.9421 18.781 43.3887 15.9586 42.2943 13.3313C41.1999 10.704 39.5871 8.32606 37.5531 6.34072C35.5044 4.31805 33.0766 2.72299 30.41 1.64773C25.0029 -0.549244 18.9565 -0.549244 13.5494 1.64773C10.9006 2.72397 8.4921 4.31939 6.46472 6.34072C4.39685 8.30801 2.75352 10.6806 1.63654 13.3113C-0.545512 18.6364 -0.545512 24.6107 1.63654 29.9358C2.75141 32.5707 4.39494 34.947 6.46472 36.9166C8.4921 38.9379 10.9006 40.5333 13.5494 41.6096C15.9854 42.609 18.5805 43.1611 21.211 43.2394C21.4651 43.2521 21.7192 43.2547 21.9733 43.2547H36.6967V43.2904H44V23.9777C44.0016 23.6616 43.9606 23.3467 43.878 23.0416ZM29.7518 35.4883L26.2526 31.6625C23.4082 32.7161 20.2743 32.6652 17.4653 31.5196C16.0246 30.9358 14.7148 30.0686 13.613 28.9691C12.4904 27.8966 11.5995 26.6039 10.9956 25.1714C9.80633 22.2739 9.80633 19.0221 10.9956 16.1246C11.6022 14.6957 12.4928 13.4061 13.613 12.3345C14.7162 11.2368 16.0257 10.3698 17.4653 9.78395C20.406 8.58655 23.6957 8.58655 26.6363 9.78395C28.0856 10.3687 29.4053 11.2355 30.5192 12.3345C31.6259 13.4145 32.5034 14.7081 33.0986 16.1376C33.6939 17.567 33.9946 19.1026 33.9828 20.6518C34.0013 22.202 33.7036 23.7396 33.1079 25.1699C32.5123 26.6003 31.6313 27.8932 30.5192 28.9691C30.4201 29.066 30.3185 29.1604 30.2143 29.2573L35.9115 35.4755L29.7518 35.4883Z" fill="#FF7A22"/>
<path d="M84.4522 11.4605C83.0557 8.50345 80.901 5.96823 78.2067 4.11219C75.9858 2.58631 73.487 1.51029 70.8517 0.945037C68.0618 0.32012 63.3024 0.00510831 56.5738 0H47.5469V43.2904H58.5576C64.1972 43.2904 68.36 42.9805 71.046 42.3607C73.6106 41.7907 76.0411 40.7318 78.2042 39.242C80.8979 37.3844 83.0525 34.8485 84.4496 31.8912C85.871 28.9079 86.5809 25.5024 86.5792 21.6746C86.5775 17.8467 85.8685 14.442 84.4522 11.4605ZM71.3732 30.7393C69.2394 32.643 65.8547 33.594 61.2189 33.5923H59.2249V9.67003H61.2087C65.8461 9.67003 69.2309 10.6372 71.363 12.5716C73.4951 14.5059 74.562 17.5411 74.5637 21.6771C74.5637 25.8183 73.5002 28.839 71.3732 30.7393Z" fill="#FF7A22"/>
<path d="M131.062 13.3045C129.965 10.6904 128.356 8.32406 126.328 6.34596C124.276 4.32135 121.843 2.72494 119.17 1.64909C113.752 -0.549698 107.693 -0.549698 102.275 1.64909C99.62 2.72591 97.2065 4.32268 95.1751 6.34596C93.1088 8.31571 91.4674 10.6892 90.3521 13.3198C88.1587 18.6488 88.1587 24.6315 90.3521 29.9605C91.4661 32.5963 93.1076 34.975 95.1751 36.9496C97.2066 38.9721 99.6202 40.568 102.275 41.6439C107.679 43.8392 113.725 43.8392 119.13 41.6439C121.808 40.5572 124.252 38.9634 126.328 36.9496C129.369 33.9238 131.442 30.0598 132.285 25.8492C133.128 21.6386 132.702 17.2718 131.062 13.3045ZM118.442 30.328C116.407 32.6271 113.834 33.7767 110.724 33.7767C107.556 33.7767 104.97 32.6416 102.965 30.3714C100.96 28.1013 99.9564 25.1972 99.9547 21.6593C99.9547 18.186 100.973 15.2972 103.01 12.993C105.048 10.6889 107.619 9.53336 110.724 9.52655C113.779 9.52655 116.338 10.682 118.399 12.993C120.46 15.304 121.491 18.1877 121.493 21.6439C121.493 25.1377 120.476 28.0324 118.442 30.328Z" fill="#FF7A22"/>
<path d="M28.3888 20.5835C28.3888 22.4229 27.8189 23.9467 26.6791 25.1549C26.131 25.7245 25.4627 26.1799 24.7172 26.4921C23.9717 26.8042 23.1652 26.9662 22.3495 26.9676C21.5337 26.969 20.7267 26.8098 19.9799 26.5002C19.2332 26.1906 18.5632 25.7374 18.0129 25.1697C16.8906 23.9731 16.3277 22.4443 16.3242 20.5835C16.3242 18.7506 16.8941 17.2293 18.0339 16.0195C18.5751 15.4453 19.2392 14.9856 19.9824 14.6709C20.7257 14.3561 21.5312 14.1934 22.346 14.1934C23.1608 14.1934 23.9663 14.3561 24.7096 14.6709C25.4528 14.9856 26.1169 15.4453 26.6581 16.0195C27.8093 17.2433 28.3888 18.7589 28.3888 20.5835Z" fill="#FF7A22"/>
</svg>
