<svg width="125" height="63" viewBox="0 0 125 63" fill="none" xmlns="http://www.w3.org/2000/svg">
<path d="M0.445312 58.4492L1.375 52.5742H0.0625L0.382812 50.5586H1.69531L1.82031 49.7617C1.83594 49.694 1.85417 49.5924 1.875 49.457C2.03646 48.3893 2.27083 47.6628 2.57812 47.2773C2.86458 46.918 3.23177 46.6393 3.67969 46.4414C4.13281 46.2435 4.63021 46.1445 5.17188 46.1445C5.42188 46.1445 5.68229 46.1732 5.95312 46.2305C6.22917 46.2826 6.51562 46.3659 6.8125 46.4805L6.46094 48.7383C6.3099 48.6654 6.15885 48.6107 6.00781 48.5742C5.86198 48.5326 5.72656 48.5117 5.60156 48.5117C5.29427 48.5117 5.0625 48.6081 4.90625 48.8008C4.75521 48.9935 4.64062 49.3451 4.5625 49.8555L4.44531 50.5586H6.17969L5.85938 52.5742H4.14062L3.21875 58.4492H0.445312ZM10.75 52.5586C10.2083 52.5586 9.7474 52.7878 9.36719 53.2461C8.99219 53.6992 8.80469 54.2539 8.80469 54.9102C8.80469 55.3945 8.94271 55.7799 9.21875 56.0664C9.49479 56.3529 9.86198 56.4961 10.3203 56.4961C10.8984 56.4961 11.3724 56.2773 11.7422 55.8398C12.1172 55.3971 12.3047 54.832 12.3047 54.1445C12.3047 53.6549 12.1641 53.2695 11.8828 52.9883C11.6068 52.7018 11.2292 52.5586 10.75 52.5586ZM6.13281 54.8789C6.13281 53.5404 6.57031 52.4414 7.44531 51.582C8.32031 50.7227 9.4401 50.293 10.8047 50.293C12.0651 50.293 13.0729 50.6497 13.8281 51.3633C14.5833 52.0768 14.9609 53.0299 14.9609 54.2227C14.9609 55.5456 14.5182 56.6341 13.6328 57.4883C12.7474 58.3424 11.6068 58.7695 10.2109 58.7695C8.97656 58.7695 7.98698 58.4154 7.24219 57.707C6.5026 56.9987 6.13281 56.056 6.13281 54.8789ZM15.8125 58.4492L17.0625 50.5586H19.7344L19.5391 51.9023C19.7839 51.4023 20.112 51.0221 20.5234 50.7617C20.9349 50.5013 21.4141 50.3711 21.9609 50.3711C22.0182 50.3711 22.0833 50.3763 22.1562 50.3867C22.2292 50.3919 22.3438 50.4076 22.5 50.4336L21.9453 52.9102C21.763 52.8685 21.599 52.8372 21.4531 52.8164C21.3073 52.7956 21.1667 52.7852 21.0312 52.7852C20.4948 52.7852 20.0703 52.9544 19.7578 53.293C19.4505 53.6263 19.2396 54.1445 19.125 54.8477L18.5625 58.4492H15.8125ZM34.2422 54.207C34.2422 53.7018 34.0859 53.2956 33.7734 52.9883C33.4661 52.681 33.0625 52.5273 32.5625 52.5273C32.0052 52.5273 31.5417 52.7409 31.1719 53.168C30.8073 53.5898 30.625 54.1237 30.625 54.7695C30.625 55.2591 30.7786 55.6576 31.0859 55.9648C31.3932 56.2669 31.7943 56.418 32.2891 56.418C32.8568 56.418 33.3229 56.2096 33.6875 55.793C34.0573 55.3763 34.2422 54.8477 34.2422 54.207ZM31.4219 50.4648C31.401 50.6263 31.3646 50.8034 31.3125 50.9961C31.2604 51.1836 31.1901 51.4023 31.1016 51.6523C31.5495 51.2096 32.0078 50.8815 32.4766 50.668C32.9453 50.4492 33.4271 50.3398 33.9219 50.3398C34.8333 50.3398 35.5807 50.681 36.1641 51.3633C36.7474 52.0456 37.0391 52.9258 37.0391 54.0039C37.0391 55.3685 36.6458 56.5013 35.8594 57.4023C35.0781 58.3034 34.0964 58.7539 32.9141 58.7539C32.3932 58.7539 31.9167 58.6419 31.4844 58.418C31.0521 58.194 30.6328 57.8424 30.2266 57.3633L30.0469 58.4492H27.4531L29.375 46.3398H32.0781L31.4219 50.4648ZM39.1719 50.5586H41.9375L41.4219 53.8242C41.3594 54.2565 41.3099 54.6185 41.2734 54.9102C41.237 55.1966 41.2188 55.3841 41.2188 55.4727C41.2188 55.8477 41.3073 56.1341 41.4844 56.332C41.6667 56.5299 41.9297 56.6289 42.2734 56.6289C43.0755 56.6289 43.6172 55.7201 43.8984 53.9023C43.9141 53.8034 43.9271 53.7279 43.9375 53.6758L44.4297 50.5586H47.2031L46.6406 54.1289L46.6172 54.293C46.3411 55.9857 45.9115 57.1159 45.3281 57.6836C44.9583 58.0378 44.5052 58.3034 43.9688 58.4805C43.4375 58.6628 42.8359 58.7539 42.1641 58.7539C41.0026 58.7539 40.0859 58.4909 39.4141 57.9648C38.7474 57.4388 38.4141 56.7253 38.4141 55.8242C38.4141 55.6159 38.4323 55.3555 38.4688 55.043C38.5052 54.7253 38.5781 54.2383 38.6875 53.582L39.1719 50.5586ZM54.4531 51.1367L53.6406 52.9102C53.2812 52.6549 52.9505 52.4701 52.6484 52.3555C52.3464 52.2357 52.0469 52.1758 51.75 52.1758C51.5 52.1758 51.2917 52.2331 51.125 52.3477C50.9635 52.4622 50.8828 52.6029 50.8828 52.7695C50.8828 53.0091 51.1536 53.2331 51.6953 53.4414C51.9349 53.5299 52.1224 53.6055 52.2578 53.668C53.013 53.9961 53.5417 54.3372 53.8438 54.6914C54.1458 55.0404 54.2969 55.4779 54.2969 56.0039C54.2969 56.832 53.9766 57.4987 53.3359 58.0039C52.6953 58.5039 51.8411 58.7539 50.7734 58.7539C50.1693 58.7539 49.5911 58.6732 49.0391 58.5117C48.4922 58.3555 47.9609 58.1159 47.4453 57.793L48.375 55.9023C48.9062 56.2305 49.3516 56.4622 49.7109 56.5977C50.0703 56.7331 50.4089 56.8008 50.7266 56.8008C51.0026 56.8008 51.224 56.7409 51.3906 56.6211C51.5573 56.4961 51.6406 56.3372 51.6406 56.1445C51.6406 55.8477 51.2578 55.543 50.4922 55.2305C50.263 55.1367 50.0859 55.0638 49.9609 55.0117C49.3516 54.7409 48.9193 54.4466 48.6641 54.1289C48.4089 53.8112 48.2812 53.4154 48.2812 52.9414C48.2812 52.1862 48.5964 51.5586 49.2266 51.0586C49.8568 50.5586 50.6667 50.3086 51.6562 50.3086C52.1562 50.3086 52.6432 50.3789 53.1172 50.5195C53.5911 50.6602 54.0365 50.8659 54.4531 51.1367ZM56.7734 48.207C56.7734 47.8008 56.9167 47.4518 57.2031 47.1602C57.4948 46.8685 57.8464 46.7227 58.2578 46.7227C58.6901 46.7227 59.0495 46.8633 59.3359 47.1445C59.6224 47.4258 59.7656 47.7799 59.7656 48.207C59.7656 48.6289 59.6198 48.9857 59.3281 49.2773C59.0365 49.569 58.6797 49.7148 58.2578 49.7148C57.8464 49.7148 57.4948 49.569 57.2031 49.2773C56.9167 48.9805 56.7734 48.6237 56.7734 48.207ZM55.3203 58.4492L56.5625 50.5586H59.3672L58.1172 58.4492H55.3203ZM60.1875 58.4492L61.4375 50.5586H64.1094L63.9141 51.793C64.3464 51.2721 64.776 50.8945 65.2031 50.6602C65.6302 50.4258 66.0964 50.3086 66.6016 50.3086C67.4193 50.3086 68.0521 50.5299 68.5 50.9727C68.9531 51.4102 69.1797 52.0247 69.1797 52.8164C69.1797 53.0872 69.1328 53.5378 69.0391 54.168C69.0339 54.2253 69.0286 54.2721 69.0234 54.3086L68.3672 58.4492H65.5781L66.2344 54.2695C66.2552 54.1497 66.2708 54.0326 66.2812 53.918C66.2969 53.8034 66.3047 53.7044 66.3047 53.6211C66.3047 53.2773 66.2135 53.0169 66.0312 52.8398C65.849 52.6628 65.5807 52.5742 65.2266 52.5742C64.7422 52.5742 64.362 52.7487 64.0859 53.0977C63.8151 53.4466 63.6198 54.0039 63.5 54.7695L62.9375 58.4492H60.1875ZM76.4297 53.5664C76.4036 53.1393 76.2604 52.8008 76 52.5508C75.7396 52.3008 75.3958 52.1758 74.9688 52.1758C74.5833 52.1758 74.237 52.2982 73.9297 52.543C73.6276 52.7878 73.3984 53.1289 73.2422 53.5664H76.4297ZM73.0547 55.168V55.3477C73.0547 55.8477 73.1823 56.2279 73.4375 56.4883C73.6927 56.7487 74.0651 56.8789 74.5547 56.8789C74.8984 56.8789 75.2214 56.8086 75.5234 56.668C75.8307 56.5221 76.1589 56.2904 76.5078 55.9727L78.0078 57.4883C77.5599 57.9154 77.0417 58.2357 76.4531 58.4492C75.8698 58.6628 75.2161 58.7695 74.4922 58.7695C73.2057 58.7695 72.2057 58.4284 71.4922 57.7461C70.7839 57.0586 70.4297 56.0977 70.4297 54.8633C70.4297 53.5143 70.8516 52.418 71.6953 51.5742C72.5443 50.7305 73.6406 50.3086 74.9844 50.3086C76.2031 50.3086 77.1823 50.681 77.9219 51.4258C78.6667 52.1706 79.0391 53.1576 79.0391 54.3867C79.0391 54.4961 79.0234 54.694 78.9922 54.9805C78.9818 55.069 78.974 55.1315 78.9688 55.168H73.0547ZM86.4375 51.1367L85.625 52.9102C85.2656 52.6549 84.9349 52.4701 84.6328 52.3555C84.3307 52.2357 84.0312 52.1758 83.7344 52.1758C83.4844 52.1758 83.276 52.2331 83.1094 52.3477C82.9479 52.4622 82.8672 52.6029 82.8672 52.7695C82.8672 53.0091 83.138 53.2331 83.6797 53.4414C83.9193 53.5299 84.1068 53.6055 84.2422 53.668C84.9974 53.9961 85.526 54.3372 85.8281 54.6914C86.1302 55.0404 86.2812 55.4779 86.2812 56.0039C86.2812 56.832 85.9609 57.4987 85.3203 58.0039C84.6797 58.5039 83.8255 58.7539 82.7578 58.7539C82.1536 58.7539 81.5755 58.6732 81.0234 58.5117C80.4766 58.3555 79.9453 58.1159 79.4297 57.793L80.3594 55.9023C80.8906 56.2305 81.3359 56.4622 81.6953 56.5977C82.0547 56.7331 82.3932 56.8008 82.7109 56.8008C82.987 56.8008 83.2083 56.7409 83.375 56.6211C83.5417 56.4961 83.625 56.3372 83.625 56.1445C83.625 55.8477 83.2422 55.543 82.4766 55.2305C82.2474 55.1367 82.0703 55.0638 81.9453 55.0117C81.3359 54.7409 80.9036 54.4466 80.6484 54.1289C80.3932 53.8112 80.2656 53.4154 80.2656 52.9414C80.2656 52.1862 80.5807 51.5586 81.2109 51.0586C81.8411 50.5586 82.651 50.3086 83.6406 50.3086C84.1406 50.3086 84.6276 50.3789 85.1016 50.5195C85.5755 50.6602 86.0208 50.8659 86.4375 51.1367ZM93.7812 51.1367L92.9688 52.9102C92.6094 52.6549 92.2786 52.4701 91.9766 52.3555C91.6745 52.2357 91.375 52.1758 91.0781 52.1758C90.8281 52.1758 90.6198 52.2331 90.4531 52.3477C90.2917 52.4622 90.2109 52.6029 90.2109 52.7695C90.2109 53.0091 90.4818 53.2331 91.0234 53.4414C91.263 53.5299 91.4505 53.6055 91.5859 53.668C92.3411 53.9961 92.8698 54.3372 93.1719 54.6914C93.474 55.0404 93.625 55.4779 93.625 56.0039C93.625 56.832 93.3047 57.4987 92.6641 58.0039C92.0234 58.5039 91.1693 58.7539 90.1016 58.7539C89.4974 58.7539 88.9193 58.6732 88.3672 58.5117C87.8203 58.3555 87.2891 58.1159 86.7734 57.793L87.7031 55.9023C88.2344 56.2305 88.6797 56.4622 89.0391 56.5977C89.3984 56.7331 89.737 56.8008 90.0547 56.8008C90.3307 56.8008 90.5521 56.7409 90.7188 56.6211C90.8854 56.4961 90.9688 56.3372 90.9688 56.1445C90.9688 55.8477 90.5859 55.543 89.8203 55.2305C89.5911 55.1367 89.4141 55.0638 89.2891 55.0117C88.6797 54.7409 88.2474 54.4466 87.9922 54.1289C87.737 53.8112 87.6094 53.4154 87.6094 52.9414C87.6094 52.1862 87.9245 51.5586 88.5547 51.0586C89.1849 50.5586 89.9948 50.3086 90.9844 50.3086C91.4844 50.3086 91.9714 50.3789 92.4453 50.5195C92.9193 50.6602 93.3646 50.8659 93.7812 51.1367Z" fill="white"/>
<path d="M41.3289 21.703C41.3552 21.2634 41.3696 20.8214 41.3696 20.3721C41.3893 17.6899 40.868 15.0315 39.8372 12.5568C38.8064 10.0821 37.2873 7.84235 35.3714 5.97236C33.4417 4.06719 31.155 2.5648 28.6433 1.55201C23.5503 -0.517336 17.8552 -0.517336 12.7623 1.55201C10.2673 2.56572 7.99875 4.06845 6.08915 5.97236C4.14141 7.82535 2.59355 10.0601 1.54146 12.538C-0.51382 17.5537 -0.51382 23.1809 1.54146 28.1966C2.59157 30.6785 4.13961 32.9167 6.08915 34.7719C7.99875 36.6758 10.2673 38.1785 12.7623 39.1922C15.0567 40.1336 17.5011 40.6536 19.9787 40.7273C20.2181 40.7394 20.4574 40.7418 20.6968 40.7418H34.5648V40.7754H41.4438V22.5847C41.4453 22.287 41.4067 21.9904 41.3289 21.703ZM28.0233 33.4266L24.7275 29.823C22.0483 30.8155 19.0964 30.7675 16.4507 29.6885C15.0936 29.1386 13.8599 28.3218 12.8221 27.2861C11.7648 26.2759 10.9257 25.0583 10.3568 23.709C9.23662 20.9799 9.23662 17.917 10.3568 15.1878C10.9282 13.842 11.767 12.6273 12.8221 11.6179C13.8613 10.584 15.0947 9.76737 16.4507 9.21555C19.2205 8.0877 22.3191 8.0877 25.0889 9.21555C26.454 9.76629 27.697 10.5828 28.7462 11.6179C29.7886 12.6351 30.6151 13.8537 31.1757 15.2C31.7364 16.5464 32.0197 17.9928 32.0086 19.452C32.026 20.9121 31.7456 22.3604 31.1845 23.7077C30.6235 25.055 29.7937 26.2728 28.7462 27.2861C28.6528 27.3774 28.5571 27.4663 28.459 27.5576L33.8252 33.4146L28.0233 33.4266Z" fill="white"/>
<path d="M79.5464 10.7947C78.2311 8.00944 76.2015 5.6215 73.6638 3.87329C71.5719 2.43606 69.2183 1.42255 66.7361 0.890134C64.1082 0.301522 59.6254 0.00481154 53.2877 0H44.7852V40.7754H55.1562C60.4682 40.7754 64.3891 40.4835 66.9191 39.8997C69.3347 39.3629 71.624 38.3655 73.6614 36.9622C76.1987 35.2125 78.2281 32.824 79.544 30.0384C80.8829 27.2285 81.5515 24.0208 81.5499 20.4154C81.5483 16.8099 80.8804 13.603 79.5464 10.7947ZM67.2273 28.9534C65.2175 30.7465 62.0293 31.6423 57.6629 31.6407H55.7847V9.10825H57.6533C62.0213 9.10825 65.2095 10.0192 67.2177 11.8412C69.2259 13.6632 70.2309 16.522 70.2325 20.4178C70.2325 24.3183 69.2307 27.1636 67.2273 28.9534Z" fill="white"/>
<path d="M123.449 12.5315C122.416 10.0694 120.9 7.84047 118.99 5.97728C117.057 4.0703 114.765 2.56663 112.248 1.55329C107.145 -0.517763 101.438 -0.517763 96.334 1.55329C93.8337 2.56755 91.5603 4.07155 89.647 5.97728C87.7008 7.8326 86.1547 10.0682 85.1042 12.546C83.0382 17.5654 83.0382 23.2005 85.1042 28.2199C86.1534 30.7026 87.6996 32.9431 89.647 34.803C91.5604 36.708 93.8338 38.2112 96.334 39.2246C101.425 41.2923 107.119 41.2923 112.21 39.2246C114.732 38.201 117.034 36.6998 118.99 34.803C121.854 31.953 123.807 28.3134 124.601 24.3475C125.395 20.3815 124.994 16.2684 123.449 12.5315ZM111.562 28.5661C109.645 30.7316 107.222 31.8144 104.292 31.8144C101.309 31.8144 98.8724 30.7453 96.984 28.607C95.0956 26.4687 94.1506 23.7334 94.149 20.401C94.149 17.1294 95.1084 14.4085 97.0272 12.2382C98.946 10.0679 101.368 8.97951 104.292 8.9731C107.17 8.9731 109.58 10.0615 111.521 12.2382C113.463 14.4149 114.434 17.131 114.436 20.3865C114.436 23.6773 113.478 26.4038 111.562 28.5661Z" fill="white"/>
<path d="M26.7386 19.388C26.7386 21.1206 26.2019 22.5559 25.1283 23.6938C24.612 24.2304 23.9826 24.6594 23.2804 24.9534C22.5782 25.2474 21.8186 25.3999 21.0502 25.4012C20.2819 25.4025 19.5217 25.2526 18.8183 24.961C18.115 24.6694 17.4839 24.2426 16.9656 23.7078C15.9085 22.5807 15.3783 21.1408 15.375 19.388C15.375 17.6617 15.9118 16.2287 16.9853 15.0892C17.4951 14.5483 18.1206 14.1154 18.8207 13.8189C19.5208 13.5224 20.2795 13.3691 21.0469 13.3691C21.8144 13.3691 22.5731 13.5224 23.2732 13.8189C23.9733 14.1154 24.5988 14.5483 25.1086 15.0892C26.1928 16.2419 26.7386 17.6694 26.7386 19.388Z" fill="white"/>
</svg>
