<?xml version="1.0" standalone="no"?>
<!DOCTYPE svg PUBLIC "-//W3C//DTD SVG 20010904//EN"
 "http://www.w3.org/TR/2001/REC-SVG-20010904/DTD/svg10.dtd">
<svg version="1.0" xmlns="http://www.w3.org/2000/svg"
 width="203.000000pt" height="205.000000pt" viewBox="0 0 203.000000 205.000000"
 preserveAspectRatio="xMidYMid meet">

<g transform="translate(0.000000,205.000000) scale(0.100000,-0.100000)"
fill="#000000" stroke="none">
<path d="M826 1974 c-137 -27 -275 -86 -391 -169 -83 -59 -201 -186 -257 -275
-242 -388 -179 -904 149 -1221 131 -127 270 -203 463 -255 103 -28 338 -26
455 5 279 72 515 262 642 516 114 228 134 505 53 744 -117 348 -418 603 -780
660 -88 15 -250 12 -334 -5z m55 -817 c43 -29 59 -60 59 -120 0 -122 -101
-193 -201 -142 -67 35 -93 151 -49 223 38 61 130 80 191 39z m277 12 c51 -17
85 -89 43 -89 -11 0 -22 8 -26 18 -6 22 -45 42 -79 42 -13 0 -35 -12 -50 -26
-22 -23 -26 -35 -26 -86 0 -49 4 -63 25 -83 42 -43 119 -26 139 29 8 24 -8 36
-51 36 -23 0 -33 5 -33 15 0 12 14 15 65 15 l65 0 0 -75 c0 -58 -3 -75 -14
-75 -8 0 -16 5 -18 12 -3 9 -14 7 -40 -5 -98 -46 -188 17 -188 133 0 109 88
174 188 139z m305 2 c88 -34 112 -168 43 -247 -59 -68 -175 -55 -215 25 -34
65 -25 139 22 190 37 39 97 52 150 32z m-953 -121 l0 -120 70 0 c63 0 70 -2
70 -20 0 -19 -7 -20 -95 -20 l-95 0 0 133 c0 74 3 137 7 140 3 4 15 7 25 7 16
0 18 -10 18 -120z"/>
<path d="M753 1116 c-54 -46 -51 -155 5 -185 83 -44 165 44 132 143 -14 43
-29 55 -72 62 -27 5 -41 1 -65 -20z"/>
<path d="M1373 1130 c-39 -16 -56 -54 -51 -116 6 -65 31 -93 85 -94 53 0 85
36 91 101 4 48 1 59 -19 82 -26 30 -72 42 -106 27z"/>
</g>
</svg>
