<svg width="41" height="41" viewBox="0 0 41 41" fill="none" xmlns="http://www.w3.org/2000/svg">
<circle cx="20.5" cy="20.5" r="20.5" fill="#FFD5DC"/>
<path d="M29.5577 14.9522V15.4626C29.4551 16.0627 29.0851 16.4821 28.6834 16.8956C25.8603 19.7937 23.0421 22.6963 20.2287 25.6035C19.7618 26.0847 19.2987 26.5693 18.8313 27.0496C18.0563 27.8445 16.9595 27.8567 16.185 27.0622C14.7852 25.6273 13.3908 24.1867 12.0018 22.7404C11.49 22.2091 11.3166 21.5666 11.5321 20.8496C11.7428 20.1492 12.2201 19.7099 12.9209 19.5711C13.5622 19.4435 14.1175 19.6432 14.5801 20.1215C15.5041 21.0768 16.4293 22.0305 17.3555 22.9825C17.4028 23.0312 17.45 23.0736 17.5351 23.1584C17.5711 23.0928 17.6128 23.0309 17.6598 22.9733C20.5671 19.9739 23.4751 16.9748 26.3839 13.9761C26.745 13.6035 27.1622 13.3692 27.6773 13.3512C28.1054 13.3332 28.5257 13.4725 28.8633 13.7443C29.2009 14.0162 29.4338 14.4028 29.5204 14.8353C29.5307 14.8749 29.5432 14.9139 29.5577 14.9522Z" fill="#FE3152"/>
</svg>
