<svg width="180" height="144" viewBox="0 0 180 144" fill="none" xmlns="http://www.w3.org/2000/svg">
<rect width="180" height="144" rx="4" fill="#F1F4FF"/>
<path d="M58.836 81.636L55.68 90H54.42L51.264 81.636H52.428L55.056 88.848L57.684 81.636H58.836ZM60.5974 82.356C60.3894 82.356 60.2134 82.284 60.0694 82.14C59.9254 81.996 59.8534 81.82 59.8534 81.612C59.8534 81.404 59.9254 81.228 60.0694 81.084C60.2134 80.94 60.3894 80.868 60.5974 80.868C60.7974 80.868 60.9654 80.94 61.1014 81.084C61.2454 81.228 61.3174 81.404 61.3174 81.612C61.3174 81.82 61.2454 81.996 61.1014 82.14C60.9654 82.284 60.7974 82.356 60.5974 82.356ZM61.1254 83.424V90H60.0334V83.424H61.1254ZM68.9865 86.46C68.9865 86.668 68.9745 86.888 68.9505 87.12H63.6945C63.7345 87.768 63.9545 88.276 64.3545 88.644C64.7625 89.004 65.2545 89.184 65.8305 89.184C66.3025 89.184 66.6945 89.076 67.0065 88.86C67.3265 88.636 67.5505 88.34 67.6785 87.972H68.8545C68.6785 88.604 68.3265 89.12 67.7985 89.52C67.2705 89.912 66.6145 90.108 65.8305 90.108C65.2065 90.108 64.6465 89.968 64.1505 89.688C63.6625 89.408 63.2785 89.012 62.9985 88.5C62.7185 87.98 62.5785 87.38 62.5785 86.7C62.5785 86.02 62.7145 85.424 62.9865 84.912C63.2585 84.4 63.6385 84.008 64.1265 83.736C64.6225 83.456 65.1905 83.316 65.8305 83.316C66.4545 83.316 67.0065 83.452 67.4865 83.724C67.9665 83.996 68.3345 84.372 68.5905 84.852C68.8545 85.324 68.9865 85.86 68.9865 86.46ZM67.8585 86.232C67.8585 85.816 67.7665 85.46 67.5825 85.164C67.3985 84.86 67.1465 84.632 66.8265 84.48C66.5145 84.32 66.1665 84.24 65.7825 84.24C65.2305 84.24 64.7585 84.416 64.3665 84.768C63.9825 85.12 63.7625 85.608 63.7065 86.232H67.8585ZM79.1879 83.424L77.1359 90H76.0079L74.4239 84.78L72.8399 90H71.7119L69.6479 83.424H70.7639L72.2759 88.944L73.9079 83.424H75.0239L76.6199 88.956L78.1079 83.424H79.1879ZM83.0629 86.688C83.0629 86.016 83.1989 85.428 83.4709 84.924C83.7429 84.412 84.1149 84.016 84.5869 83.736C85.0669 83.456 85.5989 83.316 86.1829 83.316C86.7589 83.316 87.2589 83.44 87.6829 83.688C88.1069 83.936 88.4229 84.248 88.6309 84.624V83.424H89.7349V90H88.6309V88.776C88.4149 89.16 88.0909 89.48 87.6589 89.736C87.2349 89.984 86.7389 90.108 86.1709 90.108C85.5869 90.108 85.0589 89.964 84.5869 89.676C84.1149 89.388 83.7429 88.984 83.4709 88.464C83.1989 87.944 83.0629 87.352 83.0629 86.688ZM88.6309 86.7C88.6309 86.204 88.5309 85.772 88.3309 85.404C88.1309 85.036 87.8589 84.756 87.5149 84.564C87.1789 84.364 86.8069 84.264 86.3989 84.264C85.9909 84.264 85.6189 84.36 85.2829 84.552C84.9469 84.744 84.6789 85.024 84.4789 85.392C84.2789 85.76 84.1789 86.192 84.1789 86.688C84.1789 87.192 84.2789 87.632 84.4789 88.008C84.6789 88.376 84.9469 88.66 85.2829 88.86C85.6189 89.052 85.9909 89.148 86.3989 89.148C86.8069 89.148 87.1789 89.052 87.5149 88.86C87.8589 88.66 88.1309 88.376 88.3309 88.008C88.5309 87.632 88.6309 87.196 88.6309 86.7ZM92.6723 81.12V90H91.5803V81.12H92.6723ZM95.6254 81.12V90H94.5334V81.12H95.6254ZM103.554 90.108C102.938 90.108 102.378 89.968 101.874 89.688C101.378 89.408 100.986 89.012 100.698 88.5C100.418 87.98 100.278 87.38 100.278 86.7C100.278 86.028 100.422 85.436 100.71 84.924C101.006 84.404 101.406 84.008 101.91 83.736C102.414 83.456 102.978 83.316 103.602 83.316C104.226 83.316 104.79 83.456 105.294 83.736C105.798 84.008 106.194 84.4 106.482 84.912C106.778 85.424 106.926 86.02 106.926 86.7C106.926 87.38 106.774 87.98 106.47 88.5C106.174 89.012 105.77 89.408 105.258 89.688C104.746 89.968 104.178 90.108 103.554 90.108ZM103.554 89.148C103.946 89.148 104.314 89.056 104.658 88.872C105.002 88.688 105.278 88.412 105.486 88.044C105.702 87.676 105.81 87.228 105.81 86.7C105.81 86.172 105.706 85.724 105.498 85.356C105.29 84.988 105.018 84.716 104.682 84.54C104.346 84.356 103.982 84.264 103.59 84.264C103.19 84.264 102.822 84.356 102.486 84.54C102.158 84.716 101.894 84.988 101.694 85.356C101.494 85.724 101.394 86.172 101.394 86.7C101.394 87.236 101.49 87.688 101.682 88.056C101.882 88.424 102.146 88.7 102.474 88.884C102.802 89.06 103.162 89.148 103.554 89.148ZM111.038 84.324H109.658V90H108.566V84.324H107.714V83.424H108.566V82.956C108.566 82.22 108.754 81.684 109.13 81.348C109.514 81.004 110.126 80.832 110.965 80.832V81.744C110.486 81.744 110.146 81.84 109.946 82.032C109.754 82.216 109.658 82.524 109.658 82.956V83.424H111.038V84.324ZM114.987 84.324H113.607V90H112.515V84.324H111.663V83.424H112.515V82.956C112.515 82.22 112.703 81.684 113.079 81.348C113.463 81.004 114.075 80.832 114.915 80.832V81.744C114.435 81.744 114.095 81.84 113.895 82.032C113.703 82.216 113.607 82.524 113.607 82.956V83.424H114.987V84.324ZM122.26 86.46C122.26 86.668 122.248 86.888 122.224 87.12H116.968C117.008 87.768 117.228 88.276 117.628 88.644C118.036 89.004 118.528 89.184 119.104 89.184C119.576 89.184 119.968 89.076 120.28 88.86C120.6 88.636 120.824 88.34 120.952 87.972H122.128C121.952 88.604 121.6 89.12 121.072 89.52C120.544 89.912 119.888 90.108 119.104 90.108C118.48 90.108 117.92 89.968 117.424 89.688C116.936 89.408 116.552 89.012 116.272 88.5C115.992 87.98 115.852 87.38 115.852 86.7C115.852 86.02 115.988 85.424 116.26 84.912C116.532 84.4 116.912 84.008 117.4 83.736C117.896 83.456 118.464 83.316 119.104 83.316C119.728 83.316 120.28 83.452 120.76 83.724C121.24 83.996 121.608 84.372 121.864 84.852C122.128 85.324 122.26 85.86 122.26 86.46ZM121.132 86.232C121.132 85.816 121.04 85.46 120.856 85.164C120.672 84.86 120.42 84.632 120.1 84.48C119.788 84.32 119.44 84.24 119.056 84.24C118.504 84.24 118.032 84.416 117.64 84.768C117.256 85.12 117.036 85.608 116.98 86.232H121.132ZM124.793 84.492C124.985 84.116 125.257 83.824 125.609 83.616C125.969 83.408 126.405 83.304 126.917 83.304V84.432H126.629C125.405 84.432 124.793 85.096 124.793 86.424V90H123.701V83.424H124.793V84.492ZM130.506 90.108C130.002 90.108 129.55 90.024 129.15 89.856C128.75 89.68 128.434 89.44 128.202 89.136C127.97 88.824 127.842 88.468 127.818 88.068H128.946C128.978 88.396 129.13 88.664 129.402 88.872C129.682 89.08 130.046 89.184 130.494 89.184C130.91 89.184 131.238 89.092 131.478 88.908C131.718 88.724 131.838 88.492 131.838 88.212C131.838 87.924 131.71 87.712 131.454 87.576C131.198 87.432 130.802 87.292 130.266 87.156C129.778 87.028 129.378 86.9 129.066 86.772C128.762 86.636 128.498 86.44 128.274 86.184C128.058 85.92 127.95 85.576 127.95 85.152C127.95 84.816 128.05 84.508 128.25 84.228C128.45 83.948 128.734 83.728 129.102 83.568C129.47 83.4 129.89 83.316 130.362 83.316C131.09 83.316 131.678 83.5 132.126 83.868C132.574 84.236 132.814 84.74 132.846 85.38H131.754C131.73 85.036 131.59 84.76 131.334 84.552C131.086 84.344 130.75 84.24 130.326 84.24C129.934 84.24 129.622 84.324 129.39 84.492C129.158 84.66 129.042 84.88 129.042 85.152C129.042 85.368 129.11 85.548 129.246 85.692C129.39 85.828 129.566 85.94 129.774 86.028C129.99 86.108 130.286 86.2 130.662 86.304C131.134 86.432 131.518 86.56 131.814 86.688C132.11 86.808 132.362 86.992 132.57 87.24C132.786 87.488 132.898 87.812 132.906 88.212C132.906 88.572 132.806 88.896 132.606 89.184C132.406 89.472 132.122 89.7 131.754 89.868C131.394 90.028 130.978 90.108 130.506 90.108Z" fill="#FF7A22"/>
<g clip-path="url(#clip0_904_6830)">
<g clip-path="url(#clip1_904_6830)">
<path d="M76.9999 55.7501H95.981L89.1147 48.8848L89.1146 48.8847C88.8801 48.6502 88.7484 48.3322 88.7484 48.0005C88.7484 47.6688 88.8801 47.3508 89.1146 47.1163C89.3491 46.8818 89.6672 46.75 89.9989 46.75C90.3305 46.75 90.6486 46.8818 90.8831 47.1163L99.8822 56.1157C99.9985 56.2318 100.091 56.3696 100.154 56.5213C100.216 56.6731 100.249 56.8357 100.249 57C100.249 57.1643 100.216 57.3269 100.154 57.4787C100.091 57.6304 99.9985 57.7682 99.8822 57.8843L90.8831 66.8837C90.6486 67.1182 90.3305 67.25 89.9989 67.25C89.6672 67.25 89.3491 67.1182 89.1146 66.8837C88.8801 66.6492 88.7484 66.3312 88.7484 65.9995C88.7484 65.6678 88.8801 65.3498 89.1146 65.1153L89.1147 65.1152L95.981 58.2499H76.9999C76.6684 58.2499 76.3505 58.1183 76.1161 57.8838C75.8817 57.6494 75.75 57.3315 75.75 57C75.75 56.6685 75.8817 56.3506 76.1161 56.1162C76.3505 55.8817 76.6684 55.7501 76.9999 55.7501Z" fill="#FF7A22" stroke="#FF7A22" stroke-width="0.5"/>
</g>
</g>
<defs>
<clipPath id="clip0_904_6830">
<rect x="75" y="43" width="29" height="29" rx="14.5" fill="white"/>
</clipPath>
<clipPath id="clip1_904_6830">
<rect width="22" height="26" fill="white" transform="matrix(0 1 1 0 75 46)"/>
</clipPath>
</defs>
</svg>
