<svg width="40" height="40" viewBox="0 0 40 40" fill="none" xmlns="http://www.w3.org/2000/svg">
<g id="Group 335">
<path id="Vector" d="M29 31.9386H21.8L13.79 37.5697C13.5197 37.7602 13.2055 37.8695 12.881 37.886C12.5565 37.9025 12.2338 37.8257 11.9474 37.6636C11.661 37.5015 11.4216 37.2603 11.2548 36.9657C11.0879 36.671 10.9999 36.3341 11 35.9907V31.9386C5.6 31.9386 2 28.1338 2 22.4265V11.0121C2 5.30482 5.6 1.5 11 1.5H29C34.4 1.5 38 5.30482 38 11.0121V22.4265C38 28.1338 34.4 31.9386 29 31.9386Z" stroke="#0078C9" stroke-width="3" stroke-miterlimit="10" stroke-linecap="round" stroke-linejoin="round"/>
<path id="Vector_2" d="M20.0036 18.4876V18.0881C20.0036 16.7945 20.7596 16.1096 21.5156 15.5579C22.2536 15.0252 22.9916 14.3404 22.9916 13.0848C22.9916 11.3345 21.6596 9.92676 20.0036 9.92676C18.3476 9.92676 17.0156 11.3345 17.0156 13.0848M19.9946 23.0344H20.0126" stroke="#0078C9" stroke-width="3" stroke-linecap="round" stroke-linejoin="round"/>
</g>
</svg>
