<svg width="24" height="24" viewBox="0 0 24 24" fill="none" xmlns="http://www.w3.org/2000/svg">
<path d="M23.2666 2.39027V21.9838C23.2666 22.4318 23.0909 22.8614 22.7783 23.1782C22.4656 23.495 22.0416 23.6729 21.5994 23.6729H2.26087C1.81872 23.6729 1.39468 23.495 1.08204 23.1782C0.769392 22.8614 0.59375 22.4318 0.59375 21.9838L0.59375 2.39027C0.59375 1.94229 0.769392 1.51267 1.08204 1.1959C1.39468 0.87913 1.81872 0.701172 2.26087 0.701172L21.5994 0.701172C22.0416 0.701172 22.4656 0.87913 22.7783 1.1959C23.0909 1.51267 23.2666 1.94229 23.2666 2.39027V2.39027ZM7.26222 9.48449H3.92799V20.2947H7.26222V9.48449ZM7.5623 5.76847C7.56406 5.51294 7.51612 5.25955 7.42123 5.02279C7.32633 4.78603 7.18634 4.57052 7.00924 4.38858C6.83214 4.20664 6.6214 4.06182 6.38906 3.96239C6.15672 3.86297 5.90733 3.81088 5.65512 3.80911H5.5951C5.08221 3.80911 4.59033 4.01555 4.22766 4.383C3.86499 4.75045 3.66125 5.24882 3.66125 5.76847C3.66125 6.28812 3.86499 6.78649 4.22766 7.15394C4.59033 7.52139 5.08221 7.72782 5.5951 7.72783V7.72783C5.84733 7.73411 6.09831 7.68998 6.33369 7.59796C6.56908 7.50594 6.78426 7.36783 6.96695 7.19152C7.14964 7.0152 7.29625 6.80415 7.3984 6.57041C7.50055 6.33667 7.55625 6.08483 7.5623 5.82928V5.76847ZM19.9323 13.7275C19.9323 10.4777 17.8918 9.21423 15.8646 9.21423C15.2008 9.18056 14.5399 9.3238 13.9479 9.62966C13.3558 9.93552 12.8532 10.3933 12.4903 10.9574H12.3969V9.48449H9.26276V20.2947H12.597V14.545C12.5488 13.9562 12.7319 13.3718 13.1065 12.9189C13.481 12.466 14.0169 12.1812 14.5975 12.1262H14.7242C15.7845 12.1262 16.5714 12.8019 16.5714 14.5045V20.2947H19.9056L19.9323 13.7275Z" fill="white"/>
</svg>
