<svg width="27" height="22" viewBox="0 0 27 22" fill="none" xmlns="http://www.w3.org/2000/svg">
<path d="M26.0023 3.16205C25.3159 4.17706 24.4506 5.07238 23.4692 5.78886L23.4416 5.80904L23.4438 5.8432C23.4587 6.06939 23.4587 6.29591 23.4587 6.51972C23.4587 13.508 18.2 21.5729 8.59219 21.5729C5.72531 21.5729 3.06448 20.7523 0.786226 19.3359C1.11714 19.3653 1.44824 19.3813 1.77949 19.3813C4.23537 19.3813 6.52487 18.528 8.32519 17.0923L8.4604 16.9845L8.28749 16.9814C6.04541 16.9419 4.15749 15.4686 3.46534 13.4309C3.75575 13.4801 4.04746 13.5048 4.35117 13.5048C4.83269 13.5048 5.3045 13.4432 5.75134 13.3197L5.74712 13.1987C3.38209 12.7195 1.6043 10.6157 1.5862 8.08252C2.27893 8.45295 3.06285 8.67547 3.8978 8.70498L4.11392 8.71262L3.93492 8.59128C2.5428 7.64762 1.62616 6.04132 1.62616 4.2138C1.62616 3.26736 1.86217 2.40137 2.2847 1.64691C4.88163 4.83041 8.74297 6.93298 13.0909 7.14058L13.1722 7.14446L13.1546 7.06501C13.0703 6.68295 13.0208 6.28113 13.0208 5.86451C13.0208 2.9675 15.3447 0.613987 18.2072 0.613987C19.7028 0.613987 21.045 1.25615 21.9914 2.28026L22.0152 2.30602L22.0496 2.29899C23.1936 2.06521 24.2783 1.65492 25.2597 1.0946C24.8546 2.25095 24.057 3.22094 23.0324 3.84576L23.0724 3.96065C24.1036 3.83252 25.0833 3.56174 26.0023 3.16205Z" fill="white" stroke="#FF7A22" stroke-width="0.124458"/>
</svg>
