<svg width="28" height="33" viewBox="0 0 28 33" fill="none" xmlns="http://www.w3.org/2000/svg">
<g id="&#240;&#159;&#166;&#134; icon &#34;download&#34;">
<path id="Vector" d="M8.6463 20.461H10.5013V27.0519C10.5013 27.7769 11.0263 28.3701 11.668 28.3701H16.3346C16.9763 28.3701 17.5013 27.7769 17.5013 27.0519V20.461H19.3563C20.3946 20.461 20.9196 19.0374 20.1846 18.2069L14.8296 12.1565C14.3746 11.6424 13.6396 11.6424 13.1846 12.1565L7.82963 18.2069C7.09463 19.0374 7.60797 20.461 8.6463 20.461ZM22.168 7.27921C22.168 6.55421 21.643 5.96103 21.0013 5.96103L7.0013 5.96103C6.35963 5.96103 5.83463 6.55421 5.83463 7.27921C5.83463 8.00421 6.35963 8.59739 7.0013 8.59739L21.0013 8.59739C21.643 8.59739 22.168 8.00421 22.168 7.27921Z" fill="black"/>
</g>
</svg>
