<svg width="146" height="146" viewBox="0 0 146 146" fill="none" xmlns="http://www.w3.org/2000/svg">
<g id="Frame 805">
<g clip-path="url(#clip0_904_18401)">
<g id="Group 35556">
<path id="Vector" d="M152.875 -6.875H-8.65039V154.65H152.875V-6.875Z" fill="black"/>
<path id="Vector_2" d="M152.875 -6.875H-8.65039V154.65H152.875V-6.875Z" fill="black"/>
<path id="Vector_3" d="M93.1975 72.1034V65.3048C93.2065 64.9784 93.129 64.6556 92.9727 64.3689C92.8165 64.0822 92.5871 63.8419 92.308 63.6725C92.0288 63.5032 91.7098 63.4107 91.3834 63.4046C91.0569 63.3985 90.7347 63.4789 90.4494 63.6377C90.237 63.7147 90.0546 63.857 89.9282 64.0442C89.8018 64.2314 89.7381 64.454 89.7461 64.6797C89.7461 65.4481 89.7461 66.2035 89.7461 66.9719C89.7461 67.9878 89.6159 68.105 88.587 68.105C85.344 68.105 82.0749 68.105 78.8579 68.105C77.3624 68.1424 75.8726 68.3036 74.4037 68.5869C73.2094 68.7411 72.1145 69.3323 71.3304 70.2463C70.5464 71.1602 70.1286 72.3323 70.1578 73.5361C70.1578 75.594 70.0927 77.6387 70.1578 79.6835C70.2295 80.3868 70.4905 81.0574 70.9132 81.6241C71.5202 82.3667 72.2915 82.958 73.1663 83.3513C74.041 83.7446 74.9952 83.9291 75.9536 83.8902C78.7277 84.0596 81.5149 83.8902 84.302 84.0335C86.2841 84.1172 88.2599 83.7568 90.0847 82.9786C91.0066 82.6791 91.8074 82.0902 92.3681 81.2996C92.9289 80.5089 93.2197 79.5586 93.1975 78.5895C93.1323 76.4015 93.1975 74.2784 93.1975 72.1034ZM87.1413 80.9989C86.5105 81.1204 85.869 81.1772 85.2267 81.1683C82.2051 81.1683 79.1705 81.1682 76.1098 81.077C75.7571 81.0957 75.4047 81.0362 75.0777 80.9027C74.7506 80.7693 74.4571 80.5654 74.2182 80.3053C73.9792 80.0452 73.8008 79.7354 73.6955 79.3983C73.5902 79.0611 73.5607 78.7049 73.6092 78.355C73.6939 76.9279 73.6939 75.4971 73.6092 74.07C73.5311 72.2206 74.1562 71.348 76.3834 71.1396C78.6105 70.9312 80.6162 71.1396 82.7391 71.1396V71.0355H88.6651C89.6028 71.0355 89.681 71.1267 89.694 72.0514C89.694 74.031 89.6159 75.9585 89.694 77.9773C89.7722 79.996 89.0428 80.5561 87.1934 80.9989H87.1413Z" fill="white"/>
<path id="Vector_4" d="M42 83.2644C41.8958 84.0329 41.44 84.3584 40.5934 84.3715H31.8673C28.4419 84.3715 25.0036 84.3715 21.5782 84.3715C20.4712 84.3715 19.1557 83.4989 19.2599 82.4439C19.2793 82.161 19.3678 81.8872 19.5176 81.6465C19.6675 81.4057 19.8742 81.2055 20.1195 81.0633L29.002 75.3848L34.8758 71.6078C34.993 71.5296 35.0842 71.4255 35.3447 71.2041C35.0135 71.1369 34.6787 71.089 34.3419 71.0609H21.1094C20.8017 71.0871 20.4923 71.0871 20.1846 71.0609C19.8296 70.9953 19.5102 70.8037 19.2853 70.5213C19.0603 70.2389 18.9449 69.8847 18.9604 69.5239C18.9604 69.1785 19.0976 68.8474 19.3418 68.6031C19.5861 68.3589 19.9173 68.2215 20.2628 68.2215C21.4349 68.2215 22.5941 68.2215 23.7663 68.2215H39.0696C39.5179 68.1647 39.9733 68.2168 40.3972 68.3732C40.8211 68.5296 41.2012 68.7859 41.5051 69.1203C41.6272 69.2414 41.7241 69.3854 41.7902 69.5441C41.8563 69.7029 41.8903 69.873 41.8903 70.0449C41.8903 70.2169 41.8563 70.387 41.7902 70.5458C41.7241 70.7045 41.6272 70.8485 41.5051 70.9696C40.5682 71.6925 39.5944 72.3664 38.5877 72.9884C35.6963 74.8639 32.7789 76.7003 29.8746 78.5497C28.7154 79.2921 27.5433 80.0084 26.3841 80.7638C26.1548 80.9797 25.9496 81.22 25.772 81.4802C26.2148 81.4802 26.4492 81.5843 26.6706 81.5843H40.385C41.7526 81.441 42.1693 81.9751 42 83.2644Z" fill="white"/>
<path id="Vector_5" d="M125.202 72.8591C125.143 72.0641 124.903 71.2933 124.499 70.6059C124.028 69.8661 123.377 69.2573 122.607 68.8361C121.838 68.4149 120.974 68.1948 120.097 68.1963C117.01 68.014 113.911 67.9881 110.811 67.9881C108.971 67.9107 107.141 68.3052 105.497 69.1342C104.67 69.4822 103.965 70.0675 103.471 70.8164C102.978 71.5653 102.717 72.4439 102.723 73.3409C102.723 75.2555 102.723 77.157 102.723 79.0716C102.717 79.6425 102.837 80.2078 103.073 80.7276C103.309 81.2474 103.656 81.709 104.09 82.0801C105.44 83.2001 107.118 83.8494 108.87 83.9296C110.668 84.0858 112.491 83.9296 114.301 83.9296C115.447 83.9296 116.594 83.9296 117.727 83.9296C119.424 84.0221 121.116 83.672 122.637 82.9136C123.418 82.5768 124.083 82.0162 124.546 81.3023C125.01 80.5885 125.252 79.7534 125.242 78.9023C125.255 76.9617 125.307 74.9038 125.202 72.8591ZM121.569 73.367C121.465 75.2164 121.569 77.0788 121.569 78.9412C121.6 79.126 121.595 79.3154 121.553 79.4981C121.511 79.6809 121.434 79.8535 121.325 80.0061C121.216 80.1587 121.078 80.2881 120.918 80.387C120.759 80.4859 120.582 80.5523 120.397 80.5823C119.506 80.8979 118.578 81.0951 117.635 81.1685C114.887 81.1685 112.152 81.1683 109.417 81.0642C108.707 81.0224 108.012 80.8411 107.372 80.5303C107.022 80.3995 106.722 80.1618 106.514 79.8509C106.306 79.5401 106.201 79.1718 106.213 78.798C106.213 77.2221 106.304 75.6461 106.213 74.0833C106.083 72.1687 107.112 71.4785 108.818 71.1008C109.711 70.9727 110.612 70.9161 111.514 70.9315C112.426 70.9315 113.324 70.9315 114.236 70.9315V71.0748C115.994 71.0748 117.766 70.9966 119.511 71.0748C119.807 71.0569 120.102 71.1059 120.376 71.2183C120.65 71.3308 120.895 71.5037 121.093 71.7241C121.291 71.9444 121.437 72.2065 121.519 72.491C121.601 72.7755 121.618 73.075 121.569 73.367Z" fill="white"/>
<path id="Vector_6" d="M67.2159 79.6179C67.1453 80.3932 66.8448 81.1297 66.3529 81.7331C65.8609 82.3364 65.2 82.779 64.4548 83.0042C61.5374 84.3066 58.4506 84.0722 55.3379 84.0592C54.1266 84.0592 52.9154 84.0592 51.7041 84.0592C49.6678 84.1493 47.6506 83.6325 45.9084 82.5744C45.4008 82.2579 44.981 81.8189 44.6874 81.2978C44.3938 80.7766 44.236 80.19 44.2283 79.5919C44.2283 76.1665 44.2283 72.7283 44.2283 69.3029C44.1999 69.1443 44.2064 68.9812 44.2475 68.8254C44.2886 68.6695 44.3632 68.5244 44.4661 68.4004C44.5691 68.2763 44.6979 68.1763 44.8435 68.1072C44.9892 68.0381 45.1481 68.0018 45.3093 68.0005C45.8993 67.9492 46.4937 67.9977 47.0676 68.1438C47.2215 68.2332 47.3538 68.3553 47.4551 68.5017C47.5564 68.648 47.6242 68.8149 47.6537 68.9904C47.6994 69.6799 47.6994 70.3716 47.6537 71.0612C47.6537 73.4837 47.7188 75.9191 47.6537 78.3416C47.6537 80.0868 48.2528 80.5557 49.998 80.9464C50.6522 81.088 51.3219 81.1449 51.9907 81.1157C54.9211 81.1157 57.8385 81.1158 60.7689 81.0246C61.0583 81.0337 61.3475 81.0029 61.6285 80.9334C63.3477 80.3994 63.6603 80.0868 63.6212 78.5109C63.5561 75.5805 63.6212 72.6501 63.6212 69.7196C63.6104 69.4361 63.6581 69.1533 63.7611 68.8889C63.8642 68.6246 64.0205 68.3842 64.2203 68.1827C64.5927 67.9615 65.0179 67.8447 65.4511 67.8447C65.8843 67.8447 66.3095 67.9615 66.6819 68.1827C66.8343 68.3068 66.9593 68.4611 67.049 68.636C67.1386 68.8109 67.191 69.0025 67.2028 69.1986C67.268 72.7021 67.3201 76.1665 67.2159 79.6179Z" fill="white"/>
<path id="Vector_7" d="M99.8615 76.1025V82.5233C99.8615 83.6954 99.5229 84.0211 98.3768 84.0211C96.5274 84.0211 96.3711 83.8908 96.3711 82.0674C96.3711 77.9909 96.4492 73.9274 96.3711 69.8639C96.3711 67.7019 97.934 67.5066 99.2624 68.1448C99.4966 68.2622 99.6857 68.4531 99.801 68.6883C99.9162 68.9235 99.9512 69.1902 99.9006 69.4472C99.8485 71.6352 99.8615 73.8623 99.8615 76.1025Z" fill="white"/>
<path id="Vector_8" d="M100.337 65.6427C100.339 65.9557 100.247 66.2622 100.073 66.5223C99.8988 66.7823 99.6505 66.9841 99.3603 67.1014C98.9397 67.3035 98.479 67.4084 98.0123 67.4084C97.5457 67.4084 97.085 67.3035 96.6643 67.1014C96.3667 66.9681 96.1192 66.7436 95.9577 66.4602C95.7961 66.1769 95.7289 65.8496 95.7657 65.5256C95.8461 65.1405 96.0386 64.7878 96.3191 64.512C96.5995 64.2362 96.9553 64.0496 97.3416 63.9756C97.5743 63.936 97.8091 63.91 98.0449 63.8976V63.8193C98.488 63.9444 98.9229 64.0966 99.3473 64.2751C99.6317 64.3756 99.8787 64.5603 100.056 64.8046C100.232 65.0489 100.331 65.3412 100.337 65.6427Z" fill="white"/>
</g>
</g>
<rect x="1.25" y="1.25" width="143.5" height="143.5" rx="71.75" stroke="#FF7A22" stroke-width="1.5"/>
</g>
<defs>
<clipPath id="clip0_904_18401">
<rect x="2" y="2" width="142" height="142" rx="71" fill="white"/>
</clipPath>
</defs>
</svg>
