<svg width="17" height="15" viewBox="0 0 17 15" fill="none" xmlns="http://www.w3.org/2000/svg">
<g id="Group">
<path id="Vector" d="M8.37061 4.6469L10.8041 7.08044L10.8157 6.95297C10.8157 5.67439 9.77666 4.63531 8.49808 4.63531L8.37061 4.6469Z" fill="#7B8389"/>
<path id="Vector_2" d="M8.49807 3.09023C10.6303 3.09023 12.3608 4.82075 12.3608 6.953C12.3608 7.45129 12.2604 7.92641 12.0866 8.36289L14.3463 10.6226C15.5128 9.64919 16.4322 8.38994 17 6.953C15.6597 3.56151 12.3647 1.15886 8.4981 1.15886C7.41652 1.15886 6.38132 1.35199 5.41949 1.69963L7.08821 3.36447C7.52465 3.19452 7.99977 3.09023 8.49807 3.09023Z" fill="#7B8389"/>
<path id="Vector_3" d="M0.77254 0.985003L2.53396 2.74642L2.88548 3.09794C1.61077 4.09454 0.60259 5.41947 0 6.95297C1.33653 10.3445 4.63531 12.7471 8.49808 12.7471C9.69555 12.7471 10.8389 12.5153 11.8857 12.0943L12.2141 12.4226L14.4661 14.6785L15.4511 13.6973L1.75754 0L0.77254 0.985003ZM5.04477 5.25336L6.23837 6.44696C6.2036 6.61307 6.18043 6.77914 6.18043 6.95297C6.18043 8.23155 7.2195 9.27062 8.49808 9.27062C8.6719 9.27062 8.83801 9.24744 9.00025 9.21268L10.1938 10.4063C9.68008 10.6612 9.10842 10.8157 8.49808 10.8157C6.36584 10.8157 4.63531 9.08521 4.63531 6.95297C4.63531 6.34266 4.78983 5.77096 5.04477 5.25336Z" fill="#7B8389"/>
</g>
</svg>
