<svg width="22" height="22" viewBox="0 0 22 22" fill="none" xmlns="http://www.w3.org/2000/svg">
<path d="M21.1541 18.2949C21.5232 18.7051 21.5232 19.3203 21.113 19.6895L19.9646 20.8379C19.5955 21.248 18.9802 21.248 18.5701 20.8379L14.5095 16.7773C14.3044 16.5723 14.2224 16.3262 14.2224 16.0801V15.3828C12.7458 16.5312 10.9412 17.1875 8.97241 17.1875C4.25562 17.1875 0.441162 13.373 0.441162 8.65625C0.441162 3.98047 4.25562 0.125 8.97241 0.125C13.6482 0.125 17.5037 3.98047 17.5037 8.65625C17.5037 10.666 16.8064 12.4707 15.699 13.9062H16.3552C16.6013 13.9062 16.8474 14.0293 17.0525 14.1934L21.1541 18.2949ZM8.97241 13.9062C11.8435 13.9062 14.2224 11.5684 14.2224 8.65625C14.2224 5.78516 11.8435 3.40625 8.97241 3.40625C6.0603 3.40625 3.72241 5.78516 3.72241 8.65625C3.72241 11.5684 6.0603 13.9062 8.97241 13.9062Z" fill="white"/>
</svg>
