<svg width="24" height="24" viewBox="0 0 24 24" fill="none" xmlns="http://www.w3.org/2000/svg">
<g id="ArrowDown">
<path id="Vector" d="M12.7042 6.04621L12.7042 6.04623L17.5342 10.8754H3.75C3.45163 10.8754 3.16548 10.9939 2.95451 11.2049C2.74353 11.4159 2.625 11.702 2.625 12.0004C2.625 12.2988 2.74353 12.5849 2.95451 12.7959C3.16548 13.0069 3.45163 13.1254 3.75 13.1254L17.5342 13.1254L12.7042 17.9546L12.7042 17.9546C12.4932 18.1657 12.3746 18.4519 12.3746 18.7504C12.3746 19.0489 12.4932 19.3352 12.7042 19.5462C12.9153 19.7573 13.2015 19.8758 13.5 19.8758C13.7985 19.8758 14.0847 19.7573 14.2958 19.5462L21.0456 12.7964L21.0458 12.7962L20.7806 12.531C20.8504 12.4614 20.9057 12.3787 20.9434 12.2876C20.9812 12.1966 21.0006 12.099 21.0006 12.0004C21.0006 11.9019 20.9812 11.8043 20.9434 11.7132C20.9057 11.6222 20.8504 11.5394 20.7806 11.4698L12.7042 6.04621ZM12.7042 6.04621C12.4932 5.83515 12.3746 5.5489 12.3746 5.25042C12.3746 4.95194 12.4932 4.66568 12.7042 4.45463C12.9153 4.24357 13.2015 4.125 13.5 4.125C13.7985 4.125 14.0847 4.24357 14.2958 4.45463L14.0318 4.71866L14.2958 4.45463L21.0456 11.2045M12.7042 6.04621L21.0456 11.2045M21.0456 11.2045C21.0457 11.2045 21.0457 11.2046 21.0458 11.2046L21.0456 11.2045Z" fill="#FF7A22" stroke="#FF7A22" stroke-width="0.75"/>
</g>
</svg>
