<svg width="31" height="31" viewBox="0 0 31 31" fill="none" xmlns="http://www.w3.org/2000/svg">
<g id="Layer_1">
<mask id="mask0_904_4194" style="mask-type:alpha" maskUnits="userSpaceOnUse" x="1" y="1" width="29" height="29">
<circle id="Ellipse 50" cx="15.6227" cy="15.6227" r="14.3727" fill="#D9D9D9"/>
</mask>
<g mask="url(#mask0_904_4194)">
<path id="Vector" d="M31 0H0V31H31V0Z" fill="black"/>
<path id="Vector_2" d="M19.5484 15.1573V13.8525C19.5502 13.7899 19.5353 13.7279 19.5053 13.6729C19.4753 13.6179 19.4313 13.5718 19.3777 13.5393C19.3241 13.5068 19.2629 13.489 19.2003 13.4879C19.1376 13.4867 19.0758 13.5021 19.021 13.5326C18.9803 13.5474 18.9452 13.5747 18.921 13.6106C18.8967 13.6465 18.8845 13.6892 18.886 13.7326C18.886 13.88 18.886 14.025 18.886 14.1725C18.886 14.3675 18.861 14.39 18.6636 14.39C18.0412 14.39 17.4138 14.39 16.7964 14.39C16.5094 14.3971 16.2234 14.4281 15.9415 14.4824C15.7123 14.512 15.5022 14.6255 15.3517 14.8009C15.2012 14.9763 15.121 15.2013 15.1266 15.4323C15.1266 15.8272 15.1142 16.2197 15.1266 16.6121C15.1404 16.7471 15.1905 16.8758 15.2716 16.9845C15.3881 17.1271 15.5361 17.2406 15.704 17.316C15.8719 17.3915 16.055 17.4269 16.239 17.4195C16.7714 17.452 17.3063 17.4195 17.8412 17.447C18.2216 17.463 18.6008 17.3939 18.951 17.2445C19.128 17.187 19.2816 17.074 19.3893 16.9223C19.4969 16.7705 19.5527 16.5881 19.5484 16.4021C19.5359 15.9822 19.5484 15.5748 19.5484 15.1573ZM18.3861 16.8646C18.2651 16.8879 18.1419 16.8988 18.0187 16.8971C17.4388 16.8971 16.8564 16.897 16.269 16.8796C16.2013 16.8831 16.1336 16.8717 16.0709 16.8461C16.0081 16.8205 15.9518 16.7814 15.9059 16.7314C15.8601 16.6815 15.8258 16.6221 15.8056 16.5574C15.7854 16.4927 15.7797 16.4243 15.789 16.3571C15.8053 16.0833 15.8053 15.8086 15.789 15.5348C15.774 15.1798 15.894 15.0124 16.3215 14.9724C16.7489 14.9324 17.1338 14.9724 17.5413 14.9724V14.9524H18.6786C18.8585 14.9524 18.8735 14.9699 18.876 15.1473C18.876 15.5273 18.861 15.8972 18.876 16.2846C18.891 16.6721 18.7511 16.7796 18.3961 16.8646H18.3861Z" fill="white"/>
<path id="Vector_3" d="M9.72283 17.2995C9.70283 17.447 9.61535 17.5095 9.45288 17.512H7.77815C7.12075 17.512 6.46086 17.512 5.80347 17.512C5.591 17.512 5.33854 17.3445 5.35854 17.1421C5.36225 17.0878 5.37923 17.0352 5.408 16.989C5.43676 16.9428 5.47643 16.9044 5.52351 16.8771L7.22824 15.7873L8.35555 15.0624C8.37805 15.0474 8.39555 15.0274 8.44554 14.9849C8.38198 14.972 8.31771 14.9628 8.25307 14.9574H5.71348C5.65443 14.9624 5.59506 14.9624 5.53601 14.9574C5.46787 14.9448 5.40658 14.908 5.3634 14.8539C5.32023 14.7997 5.29808 14.7317 5.30104 14.6624C5.30104 14.5962 5.32738 14.5326 5.37426 14.4857C5.42114 14.4388 5.48471 14.4125 5.551 14.4125C5.77597 14.4125 5.99843 14.4125 6.2234 14.4125H9.16042C9.24646 14.4016 9.33386 14.4116 9.41522 14.4416C9.49658 14.4716 9.56952 14.5208 9.62785 14.585C9.65128 14.6082 9.66987 14.6359 9.68256 14.6663C9.69525 14.6968 9.70179 14.7294 9.70179 14.7624C9.70179 14.7954 9.69525 14.8281 9.68256 14.8586C9.66987 14.889 9.65128 14.9167 9.62785 14.9399C9.44805 15.0786 9.26115 15.208 9.06794 15.3273C8.51303 15.6873 7.95312 16.0397 7.39571 16.3947C7.17324 16.5372 6.94828 16.6746 6.72582 16.8196C6.68181 16.8611 6.64242 16.9072 6.60834 16.9571C6.69332 16.9571 6.73832 16.9771 6.78081 16.9771H9.41288C9.67534 16.9496 9.75533 17.0521 9.72283 17.2995Z" fill="white"/>
<path id="Vector_4" d="M25.6874 15.3024C25.6761 15.1498 25.6299 15.0019 25.5524 14.87C25.4619 14.728 25.337 14.6111 25.1893 14.5303C25.0416 14.4495 24.8759 14.4072 24.7075 14.4075C24.1151 14.3725 23.5202 14.3676 22.9253 14.3676C22.5722 14.3527 22.2211 14.4284 21.9055 14.5875C21.7468 14.6543 21.6115 14.7667 21.5167 14.9104C21.422 15.0541 21.372 15.2227 21.3731 15.3949C21.3731 15.7623 21.3731 16.1273 21.3731 16.4947C21.372 16.6043 21.3949 16.7128 21.4403 16.8125C21.4856 16.9123 21.5523 17.0009 21.6355 17.0721C21.8946 17.2871 22.2166 17.4117 22.5529 17.4271C22.8978 17.4571 23.2478 17.4271 23.5952 17.4271C23.8152 17.4271 24.0352 17.4271 24.2526 17.4271C24.5783 17.4448 24.903 17.3776 25.195 17.2321C25.345 17.1674 25.4725 17.0598 25.5615 16.9228C25.6505 16.7858 25.6969 16.6256 25.6949 16.4622C25.6974 16.0898 25.7074 15.6948 25.6874 15.3024ZM24.99 15.3999C24.97 15.7548 24.99 16.1123 24.99 16.4697C24.9961 16.5052 24.9951 16.5415 24.987 16.5766C24.979 16.6117 24.9641 16.6448 24.9432 16.6741C24.9222 16.7034 24.8957 16.7282 24.8652 16.7472C24.8346 16.7662 24.8006 16.7789 24.765 16.7846C24.5941 16.8452 24.4159 16.8831 24.2351 16.8971C23.7077 16.8971 23.1828 16.8971 22.6579 16.8771C22.5216 16.8691 22.3882 16.8343 22.2654 16.7747C22.1982 16.7496 22.1405 16.7039 22.1006 16.6443C22.0607 16.5846 22.0405 16.5139 22.043 16.4422C22.043 16.1398 22.0605 15.8373 22.043 15.5373C22.018 15.1699 22.2154 15.0374 22.5429 14.965C22.7142 14.9404 22.8873 14.9295 23.0603 14.9325C23.2353 14.9325 23.4078 14.9325 23.5827 14.9325V14.96C23.9202 14.96 24.2601 14.945 24.5951 14.96C24.6518 14.9565 24.7086 14.9659 24.7612 14.9875C24.8137 15.0091 24.8608 15.0423 24.8988 15.0846C24.9367 15.1269 24.9647 15.1772 24.9805 15.2318C24.9963 15.2864 24.9995 15.3439 24.99 15.3999Z" fill="white"/>
<path id="Vector_5" d="M14.5597 16.5999C14.5461 16.7486 14.4884 16.89 14.394 17.0058C14.2996 17.1216 14.1728 17.2065 14.0297 17.2497C13.4698 17.4997 12.8774 17.4547 12.28 17.4522C12.0476 17.4522 11.8151 17.4522 11.5826 17.4522C11.1918 17.4695 10.8047 17.3703 10.4703 17.1673C10.3729 17.1065 10.2923 17.0223 10.236 16.9223C10.1796 16.8222 10.1493 16.7096 10.1479 16.5949C10.1479 15.9375 10.1479 15.2776 10.1479 14.6202C10.1424 14.5897 10.1437 14.5584 10.1515 14.5285C10.1594 14.4986 10.1737 14.4708 10.1935 14.447C10.2133 14.4232 10.238 14.404 10.2659 14.3907C10.2939 14.3774 10.3244 14.3705 10.3553 14.3702C10.4686 14.3604 10.5826 14.3697 10.6928 14.3977C10.7223 14.4149 10.7477 14.4383 10.7671 14.4664C10.7866 14.4945 10.7996 14.5265 10.8053 14.5602C10.814 14.6925 10.814 14.8253 10.8053 14.9576C10.8053 15.4226 10.8178 15.89 10.8053 16.3549C10.8053 16.6898 10.9202 16.7798 11.2552 16.8548C11.3807 16.882 11.5093 16.8929 11.6376 16.8873C12.2 16.8873 12.7599 16.8873 13.3224 16.8698C13.3779 16.8716 13.4334 16.8657 13.4873 16.8523C13.8173 16.7498 13.8773 16.6898 13.8698 16.3874C13.8573 15.825 13.8698 15.2626 13.8698 14.7002C13.8677 14.6457 13.8768 14.5915 13.8966 14.5407C13.9164 14.49 13.9464 14.4439 13.9847 14.4052C14.0562 14.3627 14.1378 14.3403 14.221 14.3403C14.3041 14.3403 14.3857 14.3627 14.4572 14.4052C14.4864 14.429 14.5104 14.4586 14.5276 14.4922C14.5448 14.5258 14.5549 14.5625 14.5572 14.6002C14.5697 15.2726 14.5797 15.9375 14.5597 16.5999Z" fill="white"/>
<path id="Vector_6" d="M20.8261 15.925V17.1573C20.8261 17.3823 20.7611 17.4447 20.5412 17.4447C20.1862 17.4447 20.1562 17.4198 20.1562 17.0698C20.1562 16.2874 20.1712 15.5076 20.1562 14.7277C20.1562 14.3128 20.4562 14.2753 20.7112 14.3978C20.7561 14.4203 20.7924 14.4569 20.8145 14.5021C20.8366 14.5472 20.8434 14.5984 20.8336 14.6477C20.8236 15.0676 20.8261 15.4951 20.8261 15.925Z" fill="white"/>
<path id="Vector_7" d="M20.9164 13.9178C20.9167 13.9779 20.8991 14.0367 20.8656 14.0866C20.8322 14.1365 20.7846 14.1752 20.7289 14.1978C20.6482 14.2366 20.5597 14.2567 20.4702 14.2567C20.3806 14.2567 20.2922 14.2366 20.2115 14.1978C20.1543 14.1722 20.1069 14.1291 20.0758 14.0747C20.0448 14.0203 20.0319 13.9575 20.039 13.8953C20.0544 13.8214 20.0914 13.7537 20.1452 13.7008C20.199 13.6479 20.2673 13.6121 20.3414 13.5979C20.3861 13.5903 20.4312 13.5853 20.4764 13.5829V13.5679C20.5615 13.5919 20.6449 13.6211 20.7264 13.6554C20.781 13.6746 20.8284 13.7101 20.8623 13.757C20.8962 13.8038 20.9151 13.86 20.9164 13.9178Z" fill="white"/>
</g>
</g>
</svg>
