<svg width="16" height="16" viewBox="0 0 16 16" fill="none" xmlns="http://www.w3.org/2000/svg">
<g id="Cards">
<path id="Vector" d="M11.25 4.5H2.25C1.91848 4.5 1.60054 4.6317 1.36612 4.86612C1.1317 5.10054 1 5.41848 1 5.75V12.75C1 13.0815 1.1317 13.3995 1.36612 13.6339C1.60054 13.8683 1.91848 14 2.25 14H11.25C11.5815 14 11.8995 13.8683 12.1339 13.6339C12.3683 13.3995 12.5 13.0815 12.5 12.75V5.75C12.5 5.41848 12.3683 5.10054 12.1339 4.86612C11.8995 4.6317 11.5815 4.5 11.25 4.5ZM11 12.5H2.5V6H11V12.5ZM15 3.25V11C15 11.1989 14.921 11.3897 14.7803 11.5303C14.6397 11.671 14.4489 11.75 14.25 11.75C14.0511 11.75 13.8603 11.671 13.7197 11.5303C13.579 11.3897 13.5 11.1989 13.5 11V3.5H4C3.80109 3.5 3.61032 3.42098 3.46967 3.28033C3.32902 3.13968 3.25 2.94891 3.25 2.75C3.25 2.55109 3.32902 2.36032 3.46967 2.21967C3.61032 2.07902 3.80109 2 4 2H13.75C14.0815 2 14.3995 2.1317 14.6339 2.36612C14.8683 2.60054 15 2.91848 15 3.25Z" fill="#FF7A22"/>
</g>
</svg>
