<svg width="24" height="24" viewBox="0 0 24 24" fill="none" xmlns="http://www.w3.org/2000/svg">
<path d="M11.2958 5.54621L11.2958 5.54623L6.46575 10.3754H20.25C20.5484 10.3754 20.8345 10.4939 21.0455 10.7049C21.2565 10.9159 21.375 11.202 21.375 11.5004C21.375 11.7988 21.2565 12.0849 21.0455 12.2959C20.8345 12.5069 20.5484 12.6254 20.25 12.6254L6.46575 12.6254L11.2958 17.4546L11.2958 17.4546C11.5068 17.6657 11.6254 17.9519 11.6254 18.2504C11.6254 18.5489 11.5068 18.8352 11.2958 19.0462C11.0847 19.2573 10.7985 19.3758 10.5 19.3758C10.2015 19.3758 9.91527 19.2573 9.70421 19.0462L2.95436 12.2964L2.95421 12.2962L3.21938 12.031C3.14964 11.9614 3.09432 11.8787 3.05658 11.7876C3.01884 11.6966 2.99941 11.599 2.99941 11.5004C2.99941 11.4019 3.01884 11.3043 3.05658 11.2132C3.09432 11.1222 3.14964 11.0394 3.21938 10.9698L11.2958 5.54621ZM11.2958 5.54621C11.5068 5.33515 11.6254 5.0489 11.6254 4.75042C11.6254 4.45194 11.5068 4.16568 11.2958 3.95463C11.0847 3.74357 10.7985 3.625 10.5 3.625C10.2015 3.625 9.91527 3.74357 9.70421 3.95463L9.96824 4.21866L9.70421 3.95463L2.95436 10.7045M11.2958 5.54621L2.95436 10.7045M2.95436 10.7045C2.95431 10.7045 2.95426 10.7046 2.95421 10.7046L2.95436 10.7045Z" fill="#FF7A22" stroke="#FF7A22" stroke-width="0.75"/>
</svg>
