<svg width="20" height="20" viewBox="0 0 20 20" fill="none" xmlns="http://www.w3.org/2000/svg">
<g id="&#240;&#159;&#166;&#134; icon &#34;more horiz&#34;">
<path id="Vector" d="M8.33398 15.0003C8.33398 15.917 9.08398 16.667 10.0007 16.667C10.9173 16.667 11.6673 15.917 11.6673 15.0003C11.6673 14.0837 10.9173 13.3337 10.0007 13.3337C9.08398 13.3337 8.33398 14.0837 8.33398 15.0003ZM8.33398 5.00033C8.33398 5.91699 9.08398 6.66699 10.0007 6.66699C10.9173 6.66699 11.6673 5.91699 11.6673 5.00033C11.6673 4.08366 10.9173 3.33366 10.0007 3.33366C9.08398 3.33366 8.33398 4.08366 8.33398 5.00033ZM8.33398 10.0003C8.33398 10.917 9.08398 11.667 10.0007 11.667C10.9173 11.667 11.6673 10.917 11.6673 10.0003C11.6673 9.08366 10.9173 8.33366 10.0007 8.33366C9.08398 8.33366 8.33398 9.08366 8.33398 10.0003Z" fill="black"/>
</g>
</svg>
