<svg width="18" height="19" viewBox="0 0 18 19" fill="none" xmlns="http://www.w3.org/2000/svg">
<path id="Vector" d="M17.7957 13.8797C17.2753 13.0064 16.5018 10.5354 16.5018 7.30801C16.5018 5.3698 15.7115 3.51098 14.3047 2.14047C12.8979 0.769949 10.9899 0 9.00047 0C7.011 0 5.10302 0.769949 3.69625 2.14047C2.28949 3.51098 1.49917 5.3698 1.49917 7.30801C1.49917 10.5363 0.724663 13.0064 0.204261 13.8797C0.0713668 14.1018 0.000914497 14.354 8.84306e-06 14.611C-0.000896811 14.868 0.0677764 15.1207 0.199103 15.3436C0.330429 15.5665 0.519765 15.7517 0.748016 15.8806C0.976267 16.0095 1.23536 16.0774 1.49917 16.0776H5.32577C5.49884 16.9027 5.95909 17.6441 6.62868 18.1766C7.29828 18.7091 8.13611 19 9.00047 19C9.86483 19 10.7027 18.7091 11.3723 18.1766C12.0418 17.6441 12.5021 16.9027 12.6752 16.0776H16.5018C16.7655 16.0773 17.0245 16.0092 17.2526 15.8803C17.4807 15.7513 17.6699 15.5661 17.8011 15.3432C17.9323 15.1203 18.0009 14.8677 18 14.6108C17.999 14.3538 17.9286 14.1017 17.7957 13.8797ZM9.00047 17.5392C8.53522 17.5391 8.08145 17.3985 7.70162 17.1367C7.32178 16.875 7.03456 16.505 6.87948 16.0776H11.1215C10.9664 16.505 10.6792 16.875 10.2993 17.1367C9.91949 17.3985 9.46572 17.5391 9.00047 17.5392Z" fill="#FF7A22"/>
</svg>
