<svg width="16" height="16" viewBox="0 0 16 16" fill="none" xmlns="http://www.w3.org/2000/svg">
<g id="Percent">
<path id="Vector" d="M13.0295 4.02938L4.02947 13.0294C3.95971 13.0991 3.87688 13.1545 3.78573 13.1922C3.69458 13.23 3.59688 13.2494 3.49822 13.2494C3.39956 13.2494 3.30186 13.23 3.21071 13.1922C3.11956 13.1545 3.03673 13.0991 2.96697 13.0294C2.89721 12.9596 2.84187 12.8768 2.80411 12.7856C2.76635 12.6945 2.74692 12.5968 2.74692 12.4981C2.74692 12.3995 2.76635 12.3018 2.80411 12.2106C2.84187 12.1195 2.89721 12.0366 2.96697 11.9669L11.967 2.96688C12.1079 2.82598 12.299 2.74682 12.4982 2.74682C12.6975 2.74682 12.8886 2.82598 13.0295 2.96688C13.1704 3.10777 13.2495 3.29887 13.2495 3.49813C13.2495 3.69738 13.1704 3.88848 13.0295 4.02938ZM2.98135 6.51688C2.57257 6.10769 2.31832 5.56943 2.26192 4.9938C2.20552 4.41817 2.35045 3.8408 2.67202 3.36005C2.99359 2.8793 3.4719 2.52492 4.02546 2.3573C4.57902 2.18967 5.17358 2.21917 5.70783 2.44077C6.24208 2.66236 6.68297 3.06235 6.95537 3.57256C7.22777 4.08278 7.31484 4.67167 7.20174 5.23889C7.08863 5.8061 6.78235 6.31656 6.33508 6.68327C5.88781 7.04998 5.32723 7.25027 4.74885 7.25C4.42038 7.25081 4.09502 7.18642 3.79162 7.06058C3.48822 6.93473 3.21281 6.74993 2.98135 6.51688ZM3.74885 4.75C3.74874 4.98136 3.82886 5.2056 3.97555 5.38451C4.12225 5.56342 4.32644 5.68593 4.55333 5.73117C4.78023 5.7764 5.01579 5.74156 5.21988 5.63258C5.42396 5.5236 5.58395 5.34723 5.67257 5.13351C5.7612 4.9198 5.77297 4.68197 5.7059 4.46054C5.63882 4.23912 5.49704 4.0478 5.30472 3.9192C5.11239 3.79059 4.88143 3.73265 4.65117 3.75525C4.42092 3.77784 4.20562 3.87958 4.04197 4.04313C3.94874 4.13567 3.87481 4.24581 3.82449 4.36716C3.77417 4.4885 3.74846 4.61864 3.74885 4.75ZM13.7488 11.25C13.7488 11.8284 13.5483 12.3888 13.1814 12.8359C12.8144 13.283 12.3039 13.589 11.7366 13.7019C11.1693 13.8147 10.5805 13.7274 10.0704 13.4548C9.56034 13.1821 9.16056 12.7411 8.9392 12.2067C8.71784 11.6724 8.68859 11.0779 8.85644 10.5244C9.02428 9.97091 9.37884 9.49275 9.8597 9.17138C10.3406 8.85001 10.918 8.7053 11.4936 8.76192C12.0692 8.81853 12.6073 9.07297 13.0163 9.48188C13.2494 9.71344 13.4341 9.98897 13.5599 10.2925C13.6856 10.596 13.7499 10.9215 13.7488 11.25ZM12.2488 11.25C12.2493 11.1185 12.2236 10.9883 12.1733 10.8668C12.123 10.7454 12.049 10.6351 11.9557 10.5425C11.7921 10.379 11.5768 10.2772 11.3466 10.2546C11.1164 10.232 10.8854 10.2899 10.6931 10.4185C10.5008 10.547 10.359 10.7383 10.2919 10.9597C10.2247 11.1811 10.2365 11.4189 10.325 11.6326C10.4135 11.8463 10.5734 12.0227 10.7775 12.1318C10.9815 12.2408 11.217 12.2758 11.4439 12.2306C11.6708 12.1855 11.875 12.0631 12.0218 11.8843C12.1686 11.7055 12.2488 11.4813 12.2488 11.25Z" fill="#FF7A22"/>
</g>
</svg>
