<svg width="16" height="16" viewBox="0 0 16 16" fill="none" xmlns="http://www.w3.org/2000/svg">
<g id="Presentation">
<path id="Vector" d="M13.5 2.25H8.75V1.5C8.75 1.30109 8.67098 1.11032 8.53033 0.96967C8.38968 0.829018 8.19891 0.75 8 0.75C7.80109 0.75 7.61032 0.829018 7.46967 0.96967C7.32902 1.11032 7.25 1.30109 7.25 1.5V2.25H2.5C2.16848 2.25 1.85054 2.3817 1.61612 2.61612C1.3817 2.85054 1.25 3.16848 1.25 3.5V11C1.25 11.3315 1.3817 11.6495 1.61612 11.8839C1.85054 12.1183 2.16848 12.25 2.5 12.25H4.4375L3.4125 13.5312C3.28818 13.6866 3.23065 13.8849 3.25257 14.0826C3.27449 14.2804 3.37406 14.4613 3.52938 14.5856C3.68469 14.7099 3.88303 14.7675 4.08077 14.7456C4.2785 14.7236 4.45943 14.6241 4.58375 14.4688L6.35875 12.25H9.6375L11.4125 14.4688C11.4741 14.5457 11.5502 14.6097 11.6365 14.6572C11.7228 14.7047 11.8176 14.7347 11.9155 14.7456C12.0134 14.7564 12.1125 14.7479 12.2071 14.7204C12.3017 14.693 12.39 14.6472 12.4669 14.5856C12.5438 14.5241 12.6078 14.448 12.6553 14.3617C12.7028 14.2754 12.7328 14.1806 12.7437 14.0826C12.7545 13.9847 12.746 13.8856 12.7186 13.791C12.6911 13.6964 12.6453 13.6082 12.5837 13.5312L11.5625 12.25H13.5C13.8315 12.25 14.1495 12.1183 14.3839 11.8839C14.6183 11.6495 14.75 11.3315 14.75 11V3.5C14.75 3.16848 14.6183 2.85054 14.3839 2.61612C14.1495 2.3817 13.8315 2.25 13.5 2.25ZM13.25 10.75H2.75V3.75H13.25V10.75Z" fill="#FF7A22"/>
</g>
</svg>
