<svg width="19" height="19" viewBox="0 0 19 19" fill="none" xmlns="http://www.w3.org/2000/svg">
<path id="Vector" d="M9.5 0C7.62108 0 5.78435 0.557165 4.22209 1.60104C2.65982 2.64491 1.44218 4.12861 0.723149 5.86451C0.0041162 7.6004 -0.184015 9.51054 0.182544 11.3534C0.549104 13.1962 1.45389 14.8889 2.78249 16.2175C4.11109 17.5461 5.80383 18.4509 7.64665 18.8175C9.48946 19.184 11.3996 18.9959 13.1355 18.2769C14.8714 17.5578 16.3551 16.3402 17.399 14.7779C18.4428 13.2156 19 11.3789 19 9.5C18.9973 6.98126 17.9956 4.56644 16.2146 2.78542C14.4336 1.0044 12.0187 0.00265983 9.5 0ZM9.5 15.3462C9.2832 15.3462 9.07127 15.2819 8.89101 15.1614C8.71075 15.041 8.57025 14.8698 8.48729 14.6695C8.40432 14.4692 8.38262 14.2488 8.42491 14.0361C8.46721 13.8235 8.5716 13.6282 8.72491 13.4749C8.8782 13.3216 9.07352 13.2172 9.28615 13.1749C9.49879 13.1326 9.71919 13.1543 9.91948 13.2373C10.1198 13.3202 10.291 13.4607 10.4114 13.641C10.5319 13.8213 10.5962 14.0332 10.5962 14.25C10.5962 14.5407 10.4807 14.8195 10.2751 15.0251C10.0695 15.2307 9.79072 15.3462 9.5 15.3462ZM10.2308 10.8958V10.9615C10.2308 11.1553 10.1538 11.3412 10.0167 11.4783C9.87969 11.6153 9.69381 11.6923 9.5 11.6923C9.30619 11.6923 9.12032 11.6153 8.98327 11.4783C8.84622 11.3412 8.76923 11.1553 8.76923 10.9615V10.2308C8.76923 10.037 8.84622 9.85108 8.98327 9.71404C9.12032 9.57699 9.30619 9.5 9.5 9.5C10.7085 9.5 11.6923 8.67788 11.6923 7.67308C11.6923 6.66827 10.7085 5.84615 9.5 5.84615C8.29149 5.84615 7.3077 6.66827 7.3077 7.67308V8.03846C7.3077 8.23227 7.2307 8.41815 7.09366 8.55519C6.95661 8.69224 6.77074 8.76923 6.57693 8.76923C6.38311 8.76923 6.19724 8.69224 6.06019 8.55519C5.92315 8.41815 5.84616 8.23227 5.84616 8.03846V7.67308C5.84616 5.85985 7.48491 4.38461 9.5 4.38461C11.5151 4.38461 13.1538 5.85985 13.1538 7.67308C13.1538 9.26067 11.8969 10.5898 10.2308 10.8958Z" fill="#FF7A22"/>
</svg>
