<svg width="33" height="38" viewBox="0 0 33 38" fill="none" xmlns="http://www.w3.org/2000/svg">
<g id="Layer_1" clip-path="url(#clip0_904_15435)">
<path id="Vector" d="M32.4959 35.3418C31.9096 34.7506 31.3121 34.1706 30.7368 33.5938C30.7527 33.5513 30.7712 33.5099 30.7924 33.4698C30.848 33.3888 30.9052 33.3109 30.9609 33.233C32.5309 31.0591 33.1522 28.6437 32.7677 25.9867C32.5152 24.2396 31.7979 22.5925 30.6909 21.2176C29.5839 19.8426 28.1279 18.7903 26.475 18.1707C24.8221 17.551 23.0331 17.3868 21.2951 17.6953C19.557 18.0037 17.9338 18.7734 16.595 19.9239C15.2563 21.0744 14.2512 22.5634 13.6849 24.2353C13.1186 25.9072 13.0118 27.7005 13.3758 29.4278C13.7398 31.1551 14.5611 32.7528 15.754 34.054C16.9468 35.3552 18.4673 36.312 20.1565 36.8244C20.8224 37.0246 21.5216 37.12 22.2049 37.2646H23.8067C24.3867 37.1534 24.9747 37.0723 25.5547 36.9277C26.7628 36.6201 27.8974 36.0745 28.8918 35.3227C28.9777 35.2575 29.0682 35.1987 29.1922 35.1129C29.6975 35.6215 30.1901 36.1363 30.7066 36.6289C30.9561 36.8657 31.2485 37.0596 31.5202 37.2725H32.0303C32.2703 37.0803 32.569 36.9293 32.7375 36.6877C33.0315 36.2714 32.9139 35.7645 32.4959 35.3418ZM28.2355 33.0042C27.8278 31.8221 27.0398 30.8084 25.9949 30.1215C27.7127 28.0303 27.058 25.6037 25.6771 24.3928C24.9423 23.7549 24.0019 23.4036 23.0288 23.4036C22.0557 23.4036 21.1154 23.7549 20.3806 24.3928C19.1093 25.4941 18.2448 27.8618 20.0039 30.0643C19.5701 30.4982 19.0902 30.8923 18.7184 31.3722C18.3465 31.8521 18.0827 32.4194 17.7649 32.9438C16.0804 31.566 14.7456 28.4832 15.6434 25.2541C16.4793 22.2682 19.3445 19.9385 22.5259 19.7478C24.1232 19.649 25.7117 20.0496 27.071 20.8942C28.4304 21.7387 29.4933 22.9853 30.1123 24.4611C31.3295 27.436 30.5572 31.0114 28.2355 33.0042Z" fill="#FF7A22"/>
<path id="Vector_2" d="M10.9528 12.7433C10.9274 13.4521 10.5095 13.8795 9.80072 13.8811C6.92655 13.8917 4.05132 13.8917 1.17503 13.8811C0.434504 13.8811 0.00385757 13.4234 0.00544668 12.6845C0.00544668 11.6691 -0.0612873 10.6489 0.272426 9.6652C0.628915 8.56055 1.32661 7.59745 2.26516 6.91446C2.34143 6.85884 2.40978 6.79527 2.50036 6.72058C1.67084 5.69879 1.28628 4.5594 1.54689 3.25951C1.71761 2.34315 2.20949 1.5177 2.93418 0.931463C3.66322 0.323506 4.58537 -0.00415107 5.53456 0.00750263C6.48376 0.0191563 7.3976 0.369354 8.11149 0.995026C8.51987 1.34114 8.85254 1.76769 9.08876 2.24807C9.32498 2.72845 9.4597 3.25235 9.48449 3.78709C9.54964 4.89947 9.17779 5.85293 8.44997 6.73171C9.3272 7.30988 10.0261 8.12098 10.4682 9.07405C10.7848 9.77336 10.9515 10.5312 10.9576 11.2988C10.9592 11.7724 10.9703 12.2586 10.9528 12.7433Z" fill="#FF7A22"/>
<path id="Vector_3" d="M28.4949 12.7239C28.4695 13.4518 28.0515 13.8792 27.3237 13.8824C24.4633 13.8898 21.6003 13.8898 18.7346 13.8824C17.9734 13.8824 17.5428 13.4311 17.5443 12.6699C17.5443 11.6656 17.4792 10.6565 17.8066 9.67763C18.1626 8.55985 18.8685 7.58606 19.82 6.89986C19.8883 6.8506 19.9503 6.79498 20.044 6.71871C19.1859 5.66195 18.8045 4.47806 19.1096 3.12891C19.307 2.21899 19.824 1.40996 20.5668 0.848538C21.2937 0.277366 22.197 -0.0224408 23.1212 0.00076442C24.0453 0.0239696 24.9324 0.368732 25.6297 0.975665C26.0413 1.3185 26.377 1.7432 26.6156 2.22278C26.8541 2.70236 26.9903 3.22633 27.0154 3.76137C27.0726 4.7784 26.9693 5.06762 26.062 6.6599C26.5562 7.18272 27.0822 7.65469 27.5017 8.2077C28.212 9.14368 28.4965 10.2418 28.5028 11.4129C28.4997 11.8468 28.5092 12.2869 28.4949 12.7239Z" fill="#FF7A22"/>
<path id="Vector_4" d="M10.9531 30.2804C10.9277 30.9876 10.5113 31.4166 9.801 31.4198C6.92683 31.4304 4.0516 31.4304 1.17531 31.4198C0.433196 31.4198 0.00413852 30.9653 0.00572762 30.2264C0.00572762 29.2094 -0.0625955 28.1892 0.272706 27.1976C0.628701 26.0931 1.32653 25.1303 2.26544 24.4484C2.34012 24.3928 2.41006 24.3276 2.50064 24.2529C1.67113 23.2311 1.28815 22.0933 1.54717 20.7919C1.71734 19.8757 2.20867 19.0502 2.93287 18.4638C3.66191 17.8559 4.58406 17.5282 5.53325 17.5399C6.48245 17.5515 7.39629 17.9017 8.11018 18.5274C8.51892 18.8733 8.85195 19.2998 9.08846 19.7802C9.32497 20.2606 9.45987 20.7846 9.48477 21.3194C9.54992 22.4318 9.17807 23.3853 8.45025 24.2625C9.3276 24.8412 10.0264 25.6528 10.4684 26.6064C10.7847 27.3058 10.9514 28.0636 10.9579 28.8312C10.9595 29.3142 10.9706 29.8037 10.9531 30.2804Z" fill="#FF7A22"/>
</g>
<defs>
<clipPath id="clip0_904_15435">
<rect width="32.9009" height="37.2725" fill="white"/>
</clipPath>
</defs>
</svg>
