<svg width="38" height="38" viewBox="0 0 38 38" fill="none" xmlns="http://www.w3.org/2000/svg">
<g id="Group 379">
<path id="Vector" d="M17.3489 5.2722C17.2355 5.57157 17.1369 5.83002 17.0235 6.12567L14.2344 5.07324C14.3422 4.78875 14.4408 4.5154 14.5579 4.2179L17.3489 5.2722Z" fill="#FF7A22"/>
<path id="Vector_2" d="M14.5128 9.74037C14.5128 15.4426 14.5128 21.1393 14.5128 26.8304C14.5128 27.4347 14.2209 27.7192 13.6184 27.7229C12.6875 27.7229 11.7578 27.7229 10.8293 27.7229C10.1896 27.7229 9.92188 27.457 9.92188 26.8155C9.92188 23.9644 9.92188 21.1096 9.92188 18.251C9.92188 15.4482 9.92188 12.6448 9.92188 9.84078C9.92188 9.0747 10.1655 8.82739 10.9204 8.82739C11.8129 8.82739 12.7054 8.82739 13.5961 8.82739C14.2153 8.83111 14.5128 9.12118 14.5128 9.74037Z" fill="#FF7A22"/>
<path id="Vector_3" d="M28.8368 19.5843C28.8368 19.6568 28.8257 19.7293 28.8164 19.8409C27.3872 19.1795 25.7816 19.0013 24.2422 19.3332V18.8777C24.2422 14.8489 24.2422 10.8201 24.2422 6.79138C24.2422 6.00856 24.4895 5.7594 25.2705 5.7594C26.1741 5.7594 27.0797 5.7594 27.9852 5.7594C28.543 5.7594 28.8331 6.06062 28.8331 6.61659C28.8381 10.9392 28.8393 15.2617 28.8368 19.5843Z" fill="#FF7A22"/>
<path id="Vector_4" d="M7.34279 15.3056V26.769C7.34279 27.4551 7.08061 27.7136 6.39262 27.7173C5.47593 27.7173 4.55737 27.7173 3.64067 27.7173C3.03263 27.7173 2.75186 27.4328 2.75 26.8267C2.75 24.8891 2.75 22.9516 2.75 21.0141C2.75 19.115 2.75 17.2159 2.75 15.3168C2.75 14.6176 3.01962 14.3443 3.72062 14.3406C4.61129 14.3406 5.50382 14.3406 6.39634 14.3406C7.07318 14.3499 7.34093 14.6251 7.34279 15.3056Z" fill="#FF7A22"/>
<path id="Vector_5" d="M21.6703 20.2071C21.6627 20.3766 21.5909 20.5368 21.4695 20.6552C19.3293 22.4514 18.4572 24.7237 18.883 27.4849C18.8923 27.5463 18.883 27.6095 18.8942 27.7192C18.5018 27.7192 18.1504 27.7359 17.7915 27.7192C17.6236 27.7162 17.4623 27.6529 17.3371 27.541C17.2118 27.429 17.1309 27.2759 17.1091 27.1093C17.0844 26.9588 17.0744 26.8062 17.0794 26.6537C17.0794 22.1031 17.0794 17.5543 17.0794 13.0074C17.0794 12.1334 17.3155 11.8917 18.195 11.8917H20.7183C21.4044 11.8917 21.6833 12.1595 21.6833 12.8214C21.6846 15.2858 21.6802 17.7477 21.6703 20.2071Z" fill="#FF7A22"/>
<path id="Vector_6" d="M20.1804 30.4879H0.790258C0.0799555 30.4879 0 30.408 0 29.6995V1.19259C0 0.634758 0.122722 0.415347 0.442544 0.404191C0.762366 0.393034 0.916699 0.625457 0.916699 1.20002V29.5582H1.41503C7.27967 29.5582 13.1437 29.5545 19.0071 29.547C19.4366 29.547 19.7397 29.6158 19.9052 30.0416C19.9825 30.1988 20.0746 30.3483 20.1804 30.4879Z" fill="#FF7A22"/>
<path id="Vector_7" d="M31.3091 30.5381C30.8126 30.0528 30.7866 29.8352 31.1231 29.2365C31.7016 28.2072 31.9708 27.0329 31.8985 25.8544C31.8262 24.6759 31.4154 23.5433 30.7154 22.5924C30.0154 21.6416 29.056 20.9129 27.9522 20.4938C26.8484 20.0746 25.6471 19.9828 24.4924 20.2294C21.1733 20.9211 19.0331 24.3332 19.8438 27.6393C20.0638 28.5595 20.4941 29.4161 21.1009 30.142C21.7078 30.8679 22.4746 31.4433 23.3412 31.8229C24.2079 32.2025 25.1507 32.3761 26.0957 32.3299C27.0407 32.2838 27.9621 32.0193 28.7877 31.5571C29.4403 31.1963 29.6319 31.2187 30.1544 31.743C30.4723 32.0703 30.7717 32.4143 31.0636 32.7322L32.3187 31.4771C31.9933 31.1778 31.6438 30.8598 31.3091 30.5381ZM25.807 31.2651C24.8061 31.2674 23.827 30.9725 22.9937 30.4179C22.1604 29.8634 21.5105 29.074 21.1261 28.1499C20.7416 27.2257 20.6401 26.2082 20.8343 25.2263C21.0285 24.2444 21.5097 23.3421 22.2169 22.6338C22.9242 21.9255 23.8257 21.443 24.8073 21.2474C25.789 21.0518 26.8066 21.1518 27.7313 21.5348C28.6561 21.9179 29.4464 22.5667 30.0022 23.3992C30.558 24.2316 30.8542 25.2103 30.8535 26.2112C30.8516 27.5497 30.3195 28.8329 29.3737 29.7801C28.4279 30.7272 27.1455 31.2612 25.807 31.2651Z" fill="#FF7A22"/>
<path id="Vector_8" d="M37.2413 36.2522C37.2155 36.5169 37.1205 36.7702 36.9658 36.9866C36.8111 37.2031 36.6021 37.3749 36.3599 37.485C36.1191 37.5933 35.8504 37.6234 35.5915 37.5711C35.3327 37.5187 35.0968 37.3865 34.917 37.193C34.0356 36.3265 33.1654 35.447 32.2915 34.5731C32.1576 34.4373 32.0163 34.3072 31.8899 34.164C31.83 34.1062 31.7826 34.0368 31.7505 33.9601C31.7184 33.8833 31.7023 33.8008 31.7032 33.7176C31.704 33.6344 31.7219 33.5523 31.7556 33.4762C31.7893 33.4001 31.8381 33.3317 31.8992 33.2752C32.2153 32.9405 32.5388 32.6151 32.8735 32.3027C32.9288 32.244 32.9955 32.1973 33.0695 32.1653C33.1435 32.1333 33.2233 32.1168 33.304 32.1168C33.3846 32.1168 33.4644 32.1333 33.5384 32.1653C33.6124 32.1973 33.6791 32.244 33.7344 32.3027C34.7776 33.331 35.8188 34.3611 36.8322 35.4191C37.0461 35.6311 37.1093 35.9677 37.2413 36.2522Z" fill="#FF7A22"/>
<path id="Vector_9" d="M26.9821 1.13118C26.941 1.67664 26.8646 2.21887 26.7534 2.75446C26.7498 2.81338 26.7322 2.8706 26.7021 2.92137C26.672 2.97215 26.6302 3.01503 26.5803 3.04646C26.5303 3.07789 26.4736 3.09698 26.4148 3.10214C26.356 3.1073 26.2968 3.0984 26.2421 3.07615C26.0707 2.97264 25.9396 2.81397 25.8702 2.62616C25.8219 2.51831 25.8925 2.35655 25.9186 2.1483C24.431 3.27883 22.9788 4.37961 21.5266 5.47667L20.9688 4.75707L25.3905 1.39708C25.1748 1.35803 25.0372 1.34316 24.9052 1.30597C24.8479 1.2975 24.793 1.2775 24.7437 1.24717C24.6944 1.21684 24.6517 1.17682 24.6184 1.12954C24.585 1.08225 24.5615 1.02868 24.5495 0.972067C24.5374 0.915459 24.537 0.856996 24.5482 0.800208C24.55 0.741936 24.5643 0.684732 24.5901 0.632435C24.6158 0.580138 24.6525 0.533949 24.6976 0.496973C24.7427 0.459996 24.7951 0.433088 24.8514 0.41804C24.9078 0.402992 24.9667 0.400151 25.0242 0.409721C25.5689 0.461228 26.1098 0.546932 26.6437 0.666323C26.7348 0.708902 26.8136 0.773869 26.8728 0.85516C26.932 0.936452 26.9696 1.03141 26.9821 1.13118Z" fill="#FF7A22"/>
<path id="Vector_10" d="M20.8092 6.51986C20.8092 6.80174 20.7258 7.07732 20.5694 7.31187C20.4131 7.54642 20.1908 7.72946 19.9306 7.83792C19.6704 7.94637 19.384 7.9754 19.1073 7.92134C18.8307 7.86729 18.5762 7.73257 18.376 7.53416C18.1758 7.33574 18.0387 7.0825 17.9822 6.80635C17.9256 6.5302 17.952 6.24349 18.0581 5.98233C18.1642 5.72118 18.3452 5.49726 18.5784 5.33879C18.8115 5.18033 19.0863 5.09439 19.3682 5.09182C19.5566 5.09084 19.7433 5.12701 19.9178 5.19827C20.0922 5.26953 20.2509 5.37448 20.3847 5.50711C20.5186 5.63974 20.6249 5.79746 20.6978 5.97123C20.7706 6.14501 20.8085 6.33143 20.8092 6.51986Z" fill="#FF7A22"/>
<path id="Vector_11" d="M13.6485 3.81435C13.6489 4.09805 13.565 4.37549 13.4077 4.61153C13.2503 4.84758 13.0264 5.03162 12.7644 5.14035C12.5023 5.24909 12.2139 5.27763 11.9356 5.22237C11.6574 5.16712 11.4018 5.03054 11.2011 4.82993C11.0005 4.62933 10.864 4.37371 10.8087 4.09545C10.7534 3.81718 10.782 3.52876 10.8907 3.26673C10.9995 3.00469 11.1835 2.78081 11.4196 2.62343C11.6556 2.46604 11.933 2.38222 12.2167 2.38259C12.405 2.3816 12.5917 2.41797 12.7658 2.48958C12.94 2.56118 13.0982 2.6666 13.2313 2.79975C13.3645 2.93289 13.4699 3.09112 13.5415 3.26527C13.6131 3.43943 13.6495 3.62605 13.6485 3.81435Z" fill="#FF7A22"/>
<path id="Vector_12" d="M6.48358 8.70282C6.4869 8.98836 6.4053 9.26844 6.24915 9.50753C6.093 9.74662 5.86933 9.93394 5.60654 10.0457C5.34375 10.1574 5.05368 10.1886 4.77315 10.1352C4.49263 10.0818 4.23429 9.94624 4.03093 9.74576C3.82757 9.54528 3.68836 9.2889 3.63097 9.00916C3.57357 8.72942 3.60059 8.43894 3.70858 8.17459C3.81657 7.91023 4.00066 7.68392 4.2375 7.52437C4.47434 7.36483 4.75324 7.27924 5.03881 7.27849C5.22723 7.27702 5.41409 7.3127 5.58871 7.38351C5.76333 7.45432 5.92228 7.55885 6.05646 7.69114C6.19065 7.82342 6.29744 7.98087 6.37073 8.15446C6.44402 8.32806 6.48237 8.51439 6.48358 8.70282Z" fill="#FF7A22"/>
<path id="Vector_13" d="M10.5343 5.51015L7.23567 7.76378L6.71875 7.00885L8.38108 5.87274L10.0174 4.75708L10.5343 5.51015Z" fill="#FF7A22"/>
<path id="Vector_14" d="M29.9344 26.2113C29.9344 27.0304 29.6914 27.8311 29.2361 28.512C28.7808 29.1929 28.1337 29.7234 27.3767 30.0363C26.6197 30.3493 25.7869 30.4306 24.9837 30.27C24.1805 30.1094 23.443 29.714 22.8646 29.1341C22.2862 28.5541 21.8929 27.8155 21.7344 27.0119C21.576 26.2082 21.6595 25.3757 21.9745 24.6195C22.2895 23.8634 22.8218 23.2178 23.5039 22.7643C24.1861 22.3108 24.9874 22.07 25.8065 22.0722C26.3495 22.0722 26.8872 22.1793 27.3888 22.3874C27.8903 22.5956 28.3459 22.9006 28.7293 23.2851C29.1128 23.6696 29.4166 24.126 29.6234 24.6281C29.8302 25.1303 29.9359 25.6682 29.9344 26.2113Z" fill="#FF7A22"/>
</g>
</svg>
