<svg width="35" height="38" viewBox="0 0 35 38" fill="none" xmlns="http://www.w3.org/2000/svg">
<g id="Group 377">
<path id="Vector" d="M34.0046 27.0377L28.012 30.7644C26.5742 31.6578 25.1096 32.5089 23.7063 33.4483C23.0755 33.8914 22.3537 34.1882 21.5935 34.3169C20.8334 34.4455 20.0541 34.4029 19.3125 34.1921C16.483 33.502 13.6305 32.9153 10.7856 32.3057C10.5699 32.2684 10.3479 32.3021 10.153 32.4016C9.7082 32.6201 9.28645 32.8885 8.80336 33.1684C7.52661 30.9101 6.26524 28.6864 5 26.4588C5.02684 26.4166 5.03831 26.3744 5.06515 26.3591C7.03969 25.2089 9.01043 24.0587 10.9926 22.9621C11.5534 22.6357 12.1814 22.4417 12.8287 22.3952C13.4759 22.3487 14.1253 22.4508 14.727 22.6937C16.644 23.3839 18.6262 23.959 20.5816 24.5763C20.8423 24.6568 21.1184 24.6836 21.3829 24.7526C21.7445 24.8385 22.0578 25.0631 22.2551 25.3781C22.4524 25.693 22.5178 26.073 22.4373 26.4358C22.4016 26.6175 22.328 26.7896 22.2212 26.9409C22.1145 27.0922 21.977 27.2192 21.8177 27.3137C21.6585 27.4081 21.4811 27.4679 21.2971 27.4891C21.1132 27.5102 20.9268 27.4923 20.7503 27.4365C19.301 27.0799 17.8632 26.6697 16.4178 26.3093L16.1648 26.2441C16.0878 26.2188 16.0065 26.2093 15.9257 26.2161C15.845 26.223 15.7664 26.2461 15.6948 26.284C15.6232 26.322 15.56 26.374 15.509 26.437C15.458 26.5 15.4202 26.5726 15.398 26.6505C15.3699 26.7292 15.3591 26.813 15.3663 26.8962C15.3734 26.9794 15.3984 27.0601 15.4395 27.1328C15.4806 27.2055 15.5368 27.2686 15.6044 27.3177C15.672 27.3667 15.7494 27.4007 15.8312 27.4173C16.5367 27.6167 17.246 27.8033 17.9591 27.9771C19.2052 28.2761 20.4436 28.5982 21.7011 28.8359C22.8566 29.0366 24.0454 28.8045 25.0406 28.1841C26.7812 27.1719 28.4912 26.1329 30.2741 25.159C30.9839 24.8038 31.7196 24.5026 32.4748 24.258C32.7245 24.1906 32.9842 24.1685 33.2416 24.1929C33.5563 24.1806 33.8654 24.2779 34.1164 24.4681C34.3674 24.6582 34.5447 24.9295 34.6181 25.2357C34.7257 25.5619 34.724 25.9143 34.6133 26.2395C34.5026 26.5647 34.2889 26.8449 34.0046 27.0377Z" fill="#FF7A22"/>
<path id="Vector_2" d="M22.5719 19.3582C22.536 19.6531 22.4038 19.9279 22.1959 20.14C21.9879 20.3521 21.7158 20.4897 21.4217 20.5314C21.2486 20.5518 21.0744 20.5608 20.9002 20.5583H17.3116C16.1038 20.5583 14.8961 20.5583 13.6845 20.5583C12.6186 20.5583 12.1164 20.0138 12.0781 18.9403C12.0001 17.9454 12.2166 16.9495 12.7006 16.0769C13.1847 15.2042 13.9149 14.4933 14.8002 14.0327C15.5409 13.6219 16.3699 13.3961 17.2166 13.3746C18.0633 13.3531 18.9027 13.5366 19.6632 13.9093C20.4238 14.2821 21.083 14.8331 21.5848 15.5155C22.0865 16.1978 22.416 16.9913 22.5451 17.8284C22.6077 18.336 22.6167 18.8488 22.5719 19.3582Z" fill="#FF7A22"/>
<path id="Vector_3" d="M8.54558 35.2005L5.6815 30.1357C4.75366 28.4986 3.83349 26.8614 2.90181 25.232C2.78751 25.0761 2.65917 24.9311 2.51841 24.7987C2.37275 24.8448 2.23054 24.9012 2.09283 24.9674C1.50622 25.2933 0.91963 25.623 0.340687 25.9566C-0.0427187 26.179 -0.0887424 26.34 0.133633 26.7541C2.03533 30.1204 3.93958 33.4854 5.84639 36.8491C6.06493 37.2326 6.22977 37.2824 6.64002 37.06L8.3002 36.1245C8.79096 35.8446 8.8293 35.6989 8.54558 35.2005ZM1.96249 27.5324C1.77366 27.5254 1.59524 27.4441 1.46601 27.3063C1.33677 27.1684 1.26715 26.9851 1.27234 26.7962C1.28976 26.6172 1.37459 26.4515 1.50958 26.3326C1.64457 26.2138 1.81967 26.1506 1.99946 26.156C2.17925 26.1613 2.3503 26.2348 2.47797 26.3615C2.60564 26.4882 2.6804 26.6587 2.68713 26.8384C2.67819 27.0235 2.59755 27.1979 2.46229 27.3245C2.32703 27.4512 2.14777 27.5203 1.96249 27.5171V27.5324Z" fill="#FF7A22"/>
<path id="Vector_4" d="M20.0239 10.2216C20.0239 10.7524 19.8665 11.2713 19.5716 11.7126C19.2767 12.154 18.8576 12.498 18.3672 12.7011C17.8768 12.9042 17.3371 12.9574 16.8165 12.8538C16.2959 12.7503 15.8177 12.4947 15.4423 12.1193C15.067 11.744 14.8114 11.2658 14.7078 10.7452C14.6043 10.2245 14.6574 9.68491 14.8605 9.1945C15.0637 8.70409 15.4077 8.28493 15.8491 7.99003C16.2904 7.69512 16.8093 7.53772 17.3401 7.53772C18.0519 7.53772 18.7346 7.82048 19.2379 8.3238C19.7412 8.82711 20.0239 9.50976 20.0239 10.2216Z" fill="#FF7A22"/>
<path id="Vector_5" d="M11.9348 15.0794C11.3576 15.9692 11.0014 16.984 10.8958 18.0393C10.7808 18.0393 10.6619 18.0623 10.5392 18.0623H6.57868C5.76586 18.0623 5.3786 17.5064 5.64698 16.7434C5.85103 16.1692 6.18493 15.65 6.62263 15.2261C7.06033 14.8022 7.59001 14.4851 8.17038 14.2996C8.75076 14.1141 9.36616 14.0651 9.96858 14.1564C10.571 14.2478 11.1442 14.4771 11.6435 14.8263C11.7316 14.9184 11.816 14.9912 11.9348 15.0794Z" fill="#FF7A22"/>
<path id="Vector_6" d="M28.1525 18.0738H24.1191C24.0232 18.0738 23.9235 18.0738 23.8085 18.0508C23.7019 16.9963 23.3443 15.9827 22.7656 15.0947C23.4745 14.4641 24.3934 14.1209 25.3421 14.1324C26.1573 14.1327 26.9524 14.3858 27.6178 14.8569C28.2831 15.3279 28.7861 15.9937 29.0573 16.7625C29.3334 17.5063 28.95 18.0699 28.1525 18.0738Z" fill="#FF7A22"/>
<path id="Vector_7" d="M18.9765 4.34399C19.1643 4.94594 19.3138 5.56322 19.4902 6.20734C19.4672 6.24952 19.4404 6.35304 19.3982 6.3607C19.3172 6.3747 19.234 6.35831 19.1643 6.31469C18.6506 5.98496 18.1368 5.65524 17.6307 5.31017C17.5513 5.24163 17.4499 5.20392 17.3451 5.20392C17.2402 5.20392 17.1388 5.24163 17.0594 5.31017C16.5725 5.6514 16.0664 5.97346 15.5603 6.29169C15.4755 6.33072 15.3848 6.35534 15.2919 6.36454C15.2609 6.26805 15.2479 6.16667 15.2536 6.06548C15.3993 5.47503 15.5488 4.88076 15.7252 4.29798C15.7614 4.21435 15.7665 4.12057 15.7398 4.03345C15.7131 3.94633 15.6563 3.87156 15.5795 3.82256C15.1143 3.46471 14.658 3.09664 14.2107 2.71835C14.1247 2.63186 14.0511 2.53378 13.9922 2.42696C14.1143 2.37178 14.2433 2.3331 14.3756 2.31194C14.9354 2.2736 15.499 2.23526 16.0588 2.23526C16.1682 2.24579 16.2776 2.21507 16.3655 2.1491C16.4535 2.08314 16.5136 1.9867 16.5342 1.87869C16.7259 1.32658 16.9406 0.782149 17.1553 0.237713C17.2109 0.148882 17.2794 0.0687757 17.3585 0C17.4275 0.0805152 17.5234 0.145695 17.5579 0.237713C17.7688 0.759144 17.9796 1.27674 18.1521 1.80968C18.1738 1.94297 18.2472 2.06236 18.3562 2.14201C18.4653 2.22165 18.6013 2.25515 18.7349 2.23526C19.2794 2.23526 19.8315 2.27743 20.3759 2.31194C20.4903 2.33584 20.6012 2.3745 20.7056 2.42696C20.6613 2.53383 20.599 2.63236 20.5216 2.71835C20.073 3.10175 19.6167 3.48516 19.1528 3.81872C19.0655 3.8708 18.9998 3.95238 18.9675 4.04872C18.9351 4.14506 18.9383 4.2498 18.9765 4.34399Z" fill="#FF7A22"/>
<path id="Vector_8" d="M10.5392 5.91595C10.7156 6.49872 10.8651 7.093 11.0147 7.67961C11.0204 7.78081 11.0074 7.88219 10.9763 7.97867C10.884 7.97105 10.7934 7.94906 10.7079 7.91349C10.2057 7.59143 9.70342 7.26937 9.20883 6.92814C9.13105 6.85941 9.03083 6.82147 8.92703 6.82147C8.82323 6.82147 8.72302 6.85941 8.64523 6.92814C8.14681 7.28087 7.62921 7.60293 7.11161 7.93266C7.07757 7.95692 7.03884 7.97388 6.99793 7.98245C6.95702 7.99103 6.91477 7.99105 6.87385 7.9825C6.82401 7.9595 6.80485 7.85215 6.78184 7.80997C6.96204 7.16202 7.1116 6.56007 7.28796 5.96196C7.33106 5.86684 7.3377 5.7592 7.30659 5.65952C7.27548 5.55984 7.20878 5.47508 7.11924 5.42136C6.65404 5.06862 6.19781 4.70183 5.7505 4.32098C5.67559 4.23385 5.6148 4.13553 5.57031 4.02959C5.6667 3.9838 5.76843 3.95031 5.87317 3.92991C6.45595 3.8954 7.02341 3.86473 7.62536 3.84556C7.72968 3.85642 7.83432 3.82838 7.91923 3.76682C8.00414 3.70526 8.06332 3.61451 8.08543 3.51199C8.27713 2.95989 8.488 2.41545 8.70655 1.87102C8.74872 1.77133 8.85611 1.70232 8.93279 1.61414C9.00674 1.68897 9.07114 1.77267 9.12449 1.86335C9.33153 2.39628 9.54622 2.92922 9.73026 3.46982C9.75782 3.59035 9.82916 3.69633 9.93048 3.76718C10.0318 3.83803 10.1558 3.8687 10.2785 3.85323C10.8383 3.85323 11.398 3.8954 11.9578 3.92991C12.0612 3.95091 12.1616 3.98439 12.2569 4.02959C12.2165 4.13588 12.1581 4.23444 12.0844 4.32098C11.6281 4.70439 11.1604 5.08779 10.6888 5.44819C10.613 5.49634 10.5566 5.56952 10.5293 5.65499C10.5019 5.74046 10.5055 5.83281 10.5392 5.91595Z" fill="#FF7A22"/>
<path id="Vector_9" d="M27.415 5.93507C27.5837 6.49485 27.7332 7.06229 27.8789 7.62589C27.8959 7.74157 27.8959 7.85911 27.8789 7.97479C27.7621 7.95849 27.6484 7.92489 27.5415 7.87511C27.0507 7.56455 26.5561 7.24632 26.0769 6.91276C26.0054 6.84365 25.9098 6.80502 25.8104 6.80502C25.711 6.80502 25.6154 6.84365 25.5439 6.91276C25.0532 7.25399 24.5471 7.57605 24.0448 7.89428C23.9478 7.932 23.8458 7.95526 23.742 7.96329C23.725 7.86304 23.725 7.76065 23.742 7.6604C23.8838 7.09296 24.0295 6.51018 24.1982 5.96575C24.2438 5.86505 24.2507 5.75106 24.2174 5.64562C24.1842 5.54019 24.1132 5.45076 24.018 5.39447C23.5502 5.04557 23.1016 4.66984 22.6492 4.29793C22.5825 4.21764 22.5271 4.12864 22.4844 4.03338C22.5717 3.97914 22.6676 3.94023 22.7681 3.91836C23.3624 3.88002 23.9605 3.84935 24.5586 3.83018C24.6569 3.83735 24.7544 3.80925 24.8339 3.75093C24.9133 3.6926 24.9693 3.60787 24.9919 3.51195C25.1912 2.94834 25.4059 2.38857 25.6283 1.83647C25.6825 1.74773 25.7497 1.66761 25.8277 1.59875C25.9058 1.66744 25.973 1.74759 26.027 1.83647C26.2494 2.3924 26.468 2.94834 26.6673 3.51195C26.6892 3.60825 26.745 3.69345 26.8246 3.75191C26.9041 3.81037 27.0022 3.83816 27.1006 3.83018C27.6949 3.83018 28.293 3.88002 28.8911 3.91453C28.9977 3.93539 29.1018 3.96752 29.2017 4.01038L29.2975 4.17908C29.1904 4.21672 29.0876 4.26556 28.9908 4.32477C28.5268 4.68517 28.0821 5.06091 27.6182 5.41748C27.5255 5.46248 27.4531 5.5407 27.4155 5.63659C27.3778 5.73249 27.3777 5.83904 27.415 5.93507Z" fill="#FF7A22"/>
<path id="Vector_10" d="M27.3233 11.5904C27.3256 11.985 27.2107 12.3714 26.9932 12.7007C26.7757 13.03 26.4653 13.2874 26.1014 13.4401C25.7376 13.5929 25.3366 13.6343 24.9492 13.5589C24.5618 13.4836 24.2055 13.295 23.9253 13.0171C23.6452 12.7391 23.4539 12.3842 23.3756 11.9974C23.2973 11.6106 23.3355 11.2093 23.4855 10.8443C23.6354 10.4792 23.8904 10.1669 24.218 9.94685C24.5456 9.7268 24.9311 9.60893 25.3258 9.60817C25.5877 9.60511 25.8475 9.65419 26.0903 9.75253C26.333 9.85087 26.5537 9.99652 26.7396 10.181C26.9255 10.3655 27.0729 10.5851 27.1731 10.827C27.2733 11.069 27.3244 11.3285 27.3233 11.5904Z" fill="#FF7A22"/>
<path id="Vector_11" d="M11.3624 11.6286C11.3593 12.0231 11.2393 12.4078 11.0175 12.734C10.7958 13.0603 10.4822 13.3134 10.1165 13.4614C9.75085 13.6093 9.3495 13.6455 8.96326 13.5653C8.57703 13.4851 8.22327 13.2921 7.94676 13.0107C7.67025 12.7294 7.48345 12.3723 7.40994 11.9848C7.33642 11.5972 7.3795 11.1965 7.53378 10.8335C7.68805 10.4704 7.94659 10.1613 8.27662 9.94522C8.60665 9.72914 8.99335 9.61582 9.38781 9.6196C9.64945 9.6216 9.90814 9.67519 10.1491 9.77728C10.39 9.87938 10.6083 10.028 10.7917 10.2146C10.9751 10.4012 11.12 10.6222 11.2179 10.8648C11.3158 11.1074 11.3649 11.367 11.3624 11.6286Z" fill="#FF7A22"/>
</g>
</svg>
