<svg width="33" height="38" viewBox="0 0 33 38" fill="none" xmlns="http://www.w3.org/2000/svg">
<g id="Group 378">
<path id="Vector" d="M19.6096 33.2859C19.9343 33.5484 20.1777 33.8977 20.3114 34.2933C20.445 34.6888 20.4635 35.1142 20.3645 35.5198C20.2655 35.9254 20.0533 36.2945 19.7525 36.584C19.4517 36.8736 19.0747 37.0716 18.6656 37.155C18.6441 37.1647 18.624 37.1772 18.6059 37.1923H17.8597C17.2472 37 16.6989 36.6439 16.274 36.1625C14.7817 34.6963 13.2893 33.2449 11.7969 31.8085L14.8824 28.7267L17.0202 30.7937C17.5724 30.2564 18.1396 29.7602 18.6395 29.208C18.7286 29.1068 18.7966 28.989 18.8396 28.8613C18.8826 28.7336 18.8997 28.5986 18.89 28.4641C18.8803 28.3297 18.8439 28.1986 18.7829 28.0784C18.722 27.9582 18.6377 27.8514 18.535 27.7641C18.1209 27.3388 17.6881 26.9358 17.2068 26.4732L19.0275 25.089C19.5928 25.6613 20.1177 26.2721 20.5983 26.9172C20.9692 27.5074 21.1314 28.2049 21.059 28.8982C20.9866 29.5915 20.6838 30.2405 20.199 30.7414C19.6991 31.2824 19.1432 31.7712 18.6096 32.286C18.9827 32.6554 19.2738 32.9912 19.6096 33.2859Z" fill="#FF7A22"/>
<path id="Vector_2" d="M26.6093 19.6045C22.6038 20.3769 18.8722 22.1899 15.7895 24.8614L7.89844 16.9518C10.5507 13.8439 12.3426 10.0955 13.0957 6.07971L26.6093 19.6045Z" fill="#FF7A22"/>
<path id="Vector_3" d="M6.32312 18.7166L6.15147 18.8807C4.45263 20.5746 2.75632 22.2684 1.06245 23.9623C0.727722 24.2679 0.460337 24.6398 0.277409 25.0545C0.0944814 25.4692 0 25.9174 0 26.3706C0 26.8239 0.0944814 27.2721 0.277409 27.6868C0.460337 28.1015 0.727722 28.4734 1.06245 28.779C2.00266 29.7242 2.94534 30.6656 3.89052 31.6033C5.38291 33.0957 7.32675 33.0957 8.83406 31.6033L13.7925 26.6486C13.8746 26.5628 13.953 26.4733 14.0127 26.4136L6.32312 18.7166ZM8.67734 25.5927C8.17988 26.1151 7.66625 26.63 7.13645 27.1374C6.98415 27.2959 6.78603 27.4028 6.56988 27.4429C6.35373 27.4831 6.13043 27.4545 5.93135 27.3612C5.72937 27.2651 5.55657 27.1171 5.43068 26.9322C5.3048 26.7473 5.2304 26.5322 5.21503 26.3091C5.32428 26.0447 5.46455 25.7942 5.6329 25.5629C6.103 25.048 6.61042 24.5593 7.12529 24.0705C7.2251 23.9644 7.34506 23.8793 7.47821 23.8203C7.61136 23.7612 7.755 23.7293 7.90063 23.7266C8.04627 23.7238 8.19098 23.7501 8.32629 23.8041C8.4616 23.858 8.58476 23.9384 8.68855 24.0407C8.79256 24.1417 8.87504 24.2628 8.93103 24.3966C8.98701 24.5303 9.01533 24.6741 9.01428 24.8191C9.01323 24.9641 8.98283 25.1074 8.92492 25.2404C8.86702 25.3733 8.78281 25.4932 8.67734 25.5927Z" fill="#FF7A22"/>
<path id="Vector_4" d="M32.3003 17.6271C32.1954 17.9637 32.0102 18.2696 31.7605 18.5185C31.5109 18.7674 31.2044 18.9518 30.8676 19.0557C30.5308 19.1597 30.1737 19.1801 29.8272 19.1151C29.4808 19.0502 29.1553 18.9019 28.879 18.683C28.7485 18.5741 28.6239 18.4583 28.5059 18.336C23.78 13.6101 19.0541 8.88421 14.3282 4.1583C13.6305 3.46061 13.347 2.66591 13.6753 1.71824C13.8337 1.28455 14.1248 0.911882 14.5073 0.653303C14.8898 0.394725 15.3442 0.263419 15.8057 0.278085C16.399 0.316817 16.9541 0.584337 17.354 1.02428C19.1126 2.79276 20.8761 4.55752 22.6446 6.31854C25.6492 9.32322 28.6551 12.3291 31.6623 15.3363C31.9811 15.6139 32.2115 15.9788 32.3249 16.386C32.4383 16.7932 32.4298 17.2247 32.3003 17.6271Z" fill="#FF7A22"/>
<path id="Vector_5" d="M30.345 4.02021C29.6212 4.76641 28.8849 5.50141 28.1362 6.22522C27.9824 6.38355 27.7812 6.48741 27.563 6.52108C27.3449 6.55474 27.1218 6.51637 26.9274 6.41177C26.5132 6.2103 26.3305 5.86705 26.2969 5.29248C26.3907 5.0645 26.5163 4.85096 26.67 4.65821C27.3565 3.91202 28.0728 3.22552 28.7929 2.52409C28.8919 2.41661 29.0116 2.33029 29.1448 2.27034C29.278 2.21038 29.422 2.17804 29.5681 2.17525C29.7142 2.17246 29.8594 2.19928 29.9948 2.25411C30.1302 2.30893 30.2531 2.39062 30.3561 2.49424C30.4571 2.59436 30.537 2.71364 30.5911 2.84507C30.6453 2.9765 30.6727 3.11743 30.6717 3.25958C30.6706 3.40174 30.6412 3.54225 30.5851 3.67287C30.529 3.80349 30.4474 3.92158 30.345 4.02021Z" fill="#FF7A22"/>
<path id="Vector_6" d="M24.113 3.31879C24.09 3.59712 23.9607 3.85589 23.7519 4.04133C23.5431 4.22678 23.2708 4.32462 22.9917 4.31453C22.7126 4.30444 22.4482 4.1872 22.2533 3.98717C22.0584 3.78714 21.9481 3.5197 21.9453 3.24044C21.9453 2.86735 21.9453 2.51663 21.9453 2.15473C21.9453 1.79282 21.9453 1.43092 21.9453 1.06528C21.9506 0.786738 22.0627 0.520867 22.2585 0.322678C22.4543 0.124488 22.7187 0.00914822 22.9972 0.000521201C23.2757 -0.00810582 23.5468 0.0906387 23.7545 0.276328C23.9622 0.462017 24.0905 0.720439 24.113 0.998126C24.1428 1.77044 24.1428 2.54648 24.113 3.31879Z" fill="#FF7A22"/>
<path id="Vector_7" d="M32.8478 9.79578C32.8393 10.0817 32.7217 10.3535 32.5191 10.5554C32.3165 10.7573 32.0443 10.874 31.7584 10.8815C31.5084 10.8815 31.2621 10.8815 31.0122 10.8815H30.6391H30.0123C29.8705 10.8815 29.7287 10.8815 29.5907 10.8815C29.4425 10.8902 29.2941 10.8685 29.1546 10.8178C29.0151 10.767 28.8874 10.6883 28.7794 10.5865C28.6715 10.4846 28.5854 10.3618 28.5266 10.2255C28.4678 10.0892 28.4375 9.94235 28.4375 9.79391C28.4375 9.64548 28.4678 9.49861 28.5266 9.36232C28.5854 9.22603 28.6715 9.10319 28.7794 9.00135C28.8874 8.89951 29.0151 8.8208 29.1546 8.77007C29.2941 8.71934 29.4425 8.69765 29.5907 8.70633C30.3145 8.70633 31.042 8.70633 31.7658 8.70633C32.0532 8.70927 32.3278 8.82523 32.5303 9.02912C32.7328 9.23301 32.8468 9.50843 32.8478 9.79578Z" fill="#FF7A22"/>
</g>
</svg>
