<svg width="37" height="34" viewBox="0 0 37 34" fill="none" xmlns="http://www.w3.org/2000/svg">
<g id="Group 376">
<path id="Vector" d="M4.70525 0.819336C8.1441 0.819336 10.5314 3.19598 10.4674 6.05576C10.3909 7.03774 10.1089 7.99269 9.63972 8.8587C8.44999 11.2846 7.04965 13.6015 5.45483 15.7826C5.29852 16.0028 5.22037 16.0917 5.02143 15.8075C3.35175 13.3988 1.73888 10.9618 0.559438 8.26188C-0.0977794 6.76271 -0.254089 5.2671 0.516809 3.76793C1.49731 1.84957 3.09596 0.886834 4.70525 0.819336ZM2.32148 5.79287C2.32289 6.36877 2.49519 6.9313 2.81654 7.4092C3.13789 7.88711 3.59386 8.25891 4.12667 8.4775C4.65947 8.69609 5.24512 8.75165 5.80952 8.63714C6.37392 8.52262 6.89166 8.24319 7.29714 7.83423C7.70262 7.42527 7.97759 6.90517 8.08727 6.33981C8.19694 5.77445 8.13639 5.18926 7.91324 4.65835C7.69009 4.12744 7.31442 3.67469 6.83378 3.35745C6.35313 3.0402 5.78913 2.87274 5.21324 2.87625C4.82968 2.87762 4.45022 2.95501 4.09674 3.10394C3.74327 3.25286 3.42278 3.47038 3.15388 3.7439C2.88498 4.01743 2.67299 4.34154 2.53011 4.6975C2.38723 5.05346 2.31631 5.43421 2.32148 5.81774V5.79287Z" fill="#FF7A22"/>
<path id="Vector_2" d="M30.4929 0.819336C33.9317 0.819336 36.319 3.19598 36.2586 6.05576C36.1808 7.03797 35.8976 7.99288 35.4274 8.8587C34.2376 11.2846 32.8373 13.6015 31.2425 15.7826C31.0897 16.0028 31.008 16.0917 30.8091 15.8075C29.1394 13.3988 27.5265 10.9618 26.3471 8.26188C25.6899 6.76271 25.5371 5.2671 26.3045 3.76793C27.2885 1.84957 28.8836 0.886834 30.4929 0.819336ZM28.1127 5.79287C28.1141 6.36892 28.2865 6.93158 28.608 7.40957C28.9295 7.88755 29.3857 8.25934 29.9187 8.47782C30.4517 8.6963 31.0376 8.75165 31.6021 8.63685C32.1666 8.52204 32.6843 8.24225 33.0896 7.83294C33.4949 7.42362 33.7696 6.90319 33.8789 6.3376C33.9882 5.77201 33.9271 5.18671 33.7034 4.65586C33.4797 4.12502 33.1035 3.67253 32.6224 3.35571C32.1413 3.0389 31.5769 2.87203 31.0009 2.87625C30.6175 2.87762 30.2382 2.95503 29.8849 3.104C29.5316 3.25297 29.2114 3.47054 28.9428 3.74411C28.6742 4.01768 28.4625 4.34182 28.32 4.69777C28.1775 5.05371 28.107 5.43438 28.1127 5.81774V5.79287Z" fill="#FF7A22"/>
<path id="Vector_3" d="M14.4304 18.0135C17.8692 18.0135 20.2565 20.3902 20.1961 23.2535C20.1178 24.2345 19.8346 25.1882 19.3648 26.0529C18.1751 28.4789 16.7748 30.7957 15.18 32.9768C15.0272 33.1971 14.9455 33.2859 14.7465 33.0017C13.0768 30.5931 11.464 28.156 10.2846 25.4561C9.62737 23.9569 9.47461 22.4613 10.242 20.9621C11.226 19.0438 12.814 18.081 14.4304 18.0135ZM12.0502 22.9871C12.0509 23.5633 12.2227 24.1263 12.5438 24.6048C12.8649 25.0832 13.3208 25.4555 13.8537 25.6746C14.3867 25.8936 14.9727 25.9495 15.5374 25.8351C16.1021 25.7206 16.6202 25.4411 17.0258 25.032C17.4315 24.6228 17.7066 24.1024 17.8161 23.5367C17.9257 22.971 17.8648 22.3855 17.6412 21.8544C17.4177 21.3234 17.0414 20.8707 16.5602 20.5537C16.079 20.2368 15.5146 20.0698 14.9384 20.074C14.5562 20.0754 14.178 20.1524 13.8257 20.3004C13.4734 20.4485 13.1538 20.6648 12.8854 20.9369C12.6169 21.2089 12.405 21.5314 12.2616 21.8857C12.1183 22.24 12.0464 22.6191 12.0502 23.0013V22.9871Z" fill="#FF7A22"/>
<path id="Vector_4" d="M7.25781 9.8783H27.5996" stroke="#FF7A22" stroke-width="2" stroke-miterlimit="10"/>
<path id="Vector_5" d="M24.827 9.8783V32.7282H14.9688" stroke="#FF7A22" stroke-width="2" stroke-miterlimit="10"/>
</g>
</svg>
