<svg width="33" height="39" viewBox="0 0 33 39" fill="none" xmlns="http://www.w3.org/2000/svg">
<g id="Layer_1" clip-path="url(#clip0_1750_1134)">
<path id="Vector" d="M32.4959 36.103C31.9096 35.5119 31.3121 34.9318 30.7368 34.355C30.7527 34.3125 30.7712 34.2711 30.7924 34.231C30.848 34.15 30.9052 34.0721 30.9609 33.9942C32.5309 31.8203 33.1522 29.4049 32.7677 26.7479C32.5152 25.0009 31.7979 23.3538 30.6909 21.9788C29.5839 20.6038 28.1279 19.5515 26.475 18.9319C24.8221 18.3123 23.0331 18.1481 21.2951 18.4565C19.557 18.7649 17.9338 19.5346 16.595 20.6851C15.2563 21.8356 14.2512 23.3246 13.6849 24.9965C13.1186 26.6684 13.0118 28.4618 13.3758 30.189C13.7398 31.9163 14.5611 33.514 15.754 34.8152C16.9468 36.1164 18.4673 37.0732 20.1565 37.5856C20.8224 37.7859 21.5216 37.8812 22.2049 38.0258H23.8067C24.3867 37.9146 24.9747 37.8335 25.5547 37.6889C26.7628 37.3813 27.8974 36.8357 28.8918 36.0839C28.9777 36.0188 29.0682 35.96 29.1922 35.8742C29.6975 36.3827 30.1901 36.8976 30.7066 37.3902C30.9561 37.627 31.2485 37.8208 31.5202 38.0338H32.0303C32.2703 37.8415 32.569 37.6905 32.7375 37.449C33.0315 37.0326 32.9139 36.5257 32.4959 36.103ZM28.2355 33.7654C27.8278 32.5833 27.0398 31.5696 25.9949 30.8828C27.7127 28.7915 27.058 26.3649 25.6771 25.154C24.9423 24.5161 24.0019 24.1648 23.0288 24.1648C22.0557 24.1648 21.1154 24.5161 20.3806 25.154C19.1093 26.2553 18.2448 28.6231 20.0039 30.8256C19.5701 31.2594 19.0902 31.6535 18.7184 32.1334C18.3465 32.6133 18.0827 33.1806 17.7649 33.705C16.0804 32.3273 14.7456 29.2444 15.6434 26.0153C16.4793 23.0294 19.3445 20.6998 22.5259 20.5091C24.1232 20.4102 25.7117 20.8109 27.071 21.6554C28.4304 22.5 29.4933 23.7466 30.1123 25.2224C31.3295 28.1972 30.5572 31.7727 28.2355 33.7654Z" fill="#FF7A22"/>
<path id="Vector_2" d="M10.9528 13.5047C10.9274 14.2134 10.5095 14.6409 9.80072 14.6425C6.92655 14.6531 4.05132 14.6531 1.17503 14.6425C0.434504 14.6425 0.00385757 14.1848 0.00544668 13.4459C0.00544668 12.4304 -0.0612873 11.4102 0.272426 10.4266C0.628915 9.3219 1.32661 8.3588 2.26516 7.67581C2.34143 7.62019 2.40978 7.55663 2.50036 7.48194C1.67084 6.46014 1.28628 5.32075 1.54689 4.02086C1.71761 3.1045 2.20949 2.27905 2.93418 1.69282C3.66322 1.08486 4.58537 0.757201 5.53456 0.768855C6.48376 0.780509 7.3976 1.13071 8.11149 1.75638C8.51987 2.10249 8.85254 2.52904 9.08876 3.00942C9.32498 3.4898 9.4597 4.0137 9.48449 4.54844C9.54964 5.66082 9.17779 6.61429 8.44997 7.49306C9.3272 8.07124 10.0261 8.88233 10.4682 9.83541C10.7848 10.5347 10.9515 11.2925 10.9576 12.0602C10.9592 12.5337 10.9703 13.02 10.9528 13.5047Z" fill="#FF7A22"/>
<path id="Vector_3" d="M28.4949 13.4852C28.4695 14.213 28.0515 14.6405 27.3237 14.6436C24.4633 14.6511 21.6003 14.6511 18.7346 14.6436C17.9734 14.6436 17.5428 14.1923 17.5443 13.4311C17.5443 12.4268 17.4792 11.4177 17.8066 10.4389C18.1626 9.32108 18.8685 8.34729 19.82 7.66109C19.8883 7.61183 19.9503 7.55621 20.044 7.47994C19.1859 6.42318 18.8045 5.23929 19.1096 3.89014C19.307 2.98022 19.824 2.17119 20.5668 1.60977C21.2937 1.0386 22.197 0.73879 23.1212 0.761995C24.0453 0.7852 24.9324 1.12996 25.6297 1.7369C26.0413 2.07973 26.377 2.50443 26.6156 2.98401C26.8541 3.46359 26.9903 3.98756 27.0154 4.5226C27.0726 5.53963 26.9693 5.82885 26.062 7.42113C26.5562 7.94395 27.0822 8.41592 27.5017 8.96893C28.212 9.90491 28.4965 11.003 28.5028 12.1742C28.4997 12.608 28.5092 13.0482 28.4949 13.4852Z" fill="#FF7A22"/>
<path id="Vector_4" d="M10.9531 31.0417C10.9277 31.7488 10.5113 32.1779 9.801 32.181C6.92683 32.1916 4.0516 32.1916 1.17531 32.181C0.433196 32.181 0.00413852 31.7266 0.00572762 30.9876C0.00572762 29.9706 -0.0625955 28.9504 0.272706 27.9588C0.628701 26.8543 1.32653 25.8916 2.26544 25.2096C2.34012 25.154 2.41006 25.0889 2.50064 25.0142C1.67113 23.9924 1.28815 22.8546 1.54717 21.5531C1.71734 20.6369 2.20867 19.8114 2.93287 19.225C3.66191 18.6171 4.58406 18.2894 5.53325 18.3011C6.48245 18.3127 7.39629 18.6629 8.11018 19.2886C8.51892 19.6345 8.85195 20.061 9.08846 20.5414C9.32497 21.0218 9.45987 21.5458 9.48477 22.0807C9.54992 23.193 9.17807 24.1465 8.45025 25.0237C9.3276 25.6024 10.0264 26.4141 10.4684 27.3676C10.7847 28.0671 10.9514 28.8248 10.9579 29.5924C10.9595 30.0755 10.9706 30.5649 10.9531 31.0417Z" fill="#FF7A22"/>
</g>
<defs>
<clipPath id="clip0_1750_1134">
<rect width="32.9009" height="37.2725" fill="white" transform="translate(0 0.76123)"/>
</clipPath>
</defs>
</svg>
