<svg width="38" height="38" viewBox="0 0 38 38" fill="none" xmlns="http://www.w3.org/2000/svg">
<g id="Group 379">
<path id="Vector" d="M17.3489 5.6295C17.2355 5.92887 17.1369 6.18732 17.0235 6.48297L14.2344 5.43054C14.3422 5.14605 14.4408 4.8727 14.5579 4.5752L17.3489 5.6295Z" fill="#FF7A22"/>
<path id="Vector_2" d="M14.5128 10.0978C14.5128 15.8 14.5128 21.4967 14.5128 27.1878C14.5128 27.7921 14.2209 28.0766 13.6184 28.0803C12.6875 28.0803 11.7578 28.0803 10.8293 28.0803C10.1896 28.0803 9.92188 27.8144 9.92188 27.1729C9.92188 24.3218 9.92188 21.467 9.92188 18.6084C9.92188 15.8056 9.92188 13.0022 9.92188 10.1982C9.92188 9.43212 10.1655 9.18481 10.9204 9.18481C11.8129 9.18481 12.7054 9.18481 13.5961 9.18481C14.2153 9.18853 14.5128 9.4786 14.5128 10.0978Z" fill="#FF7A22"/>
<path id="Vector_3" d="M28.8368 19.9416C28.8368 20.0141 28.8257 20.0866 28.8164 20.1982C27.3872 19.5368 25.7816 19.3586 24.2422 19.6905V19.235C24.2422 15.2062 24.2422 11.1774 24.2422 7.14868C24.2422 6.36586 24.4895 6.1167 25.2705 6.1167C26.1741 6.1167 27.0797 6.1167 27.9852 6.1167C28.543 6.1167 28.8331 6.41792 28.8331 6.97389C28.8381 11.2965 28.8393 15.619 28.8368 19.9416Z" fill="#FF7A22"/>
<path id="Vector_4" d="M7.34279 15.663V27.1264C7.34279 27.8126 7.08061 28.071 6.39262 28.0747C5.47593 28.0747 4.55737 28.0747 3.64067 28.0747C3.03263 28.0747 2.75186 27.7903 2.75 27.1841C2.75 25.2466 2.75 23.309 2.75 21.3715C2.75 19.4724 2.75 17.5733 2.75 15.6742C2.75 14.9751 3.01962 14.7017 3.72062 14.698C4.61129 14.698 5.50382 14.698 6.39634 14.698C7.07318 14.7073 7.34093 14.9825 7.34279 15.663Z" fill="#FF7A22"/>
<path id="Vector_5" d="M21.6703 20.5646C21.6627 20.7341 21.5909 20.8943 21.4695 21.0128C19.3293 22.809 18.4572 25.0812 18.883 27.8425C18.8923 27.9038 18.883 27.967 18.8942 28.0767C18.5018 28.0767 18.1504 28.0935 17.7915 28.0767C17.6236 28.0737 17.4623 28.0105 17.3371 27.8985C17.2118 27.7866 17.1309 27.6334 17.1091 27.4669C17.0844 27.3163 17.0744 27.1638 17.0794 27.0113C17.0794 22.4606 17.0794 17.9119 17.0794 13.3649C17.0794 12.491 17.3155 12.2493 18.195 12.2493H20.7183C21.4044 12.2493 21.6833 12.517 21.6833 13.179C21.6846 15.6433 21.6802 18.1052 21.6703 20.5646Z" fill="#FF7A22"/>
<path id="Vector_6" d="M20.1804 30.8453H0.790258C0.0799555 30.8453 0 30.7654 0 30.0569V1.55001C0 0.99218 0.122722 0.772769 0.442544 0.761613C0.762366 0.750456 0.916699 0.982879 0.916699 1.55744V29.9156H1.41503C7.27967 29.9156 13.1437 29.9119 19.0071 29.9045C19.4366 29.9045 19.7397 29.9733 19.9052 30.3991C19.9825 30.5563 20.0746 30.7057 20.1804 30.8453Z" fill="#FF7A22"/>
<path id="Vector_7" d="M31.3091 30.8957C30.8126 30.4103 30.7866 30.1928 31.1231 29.5941C31.7016 28.5648 31.9708 27.3904 31.8985 26.2119C31.8262 25.0334 31.4154 23.9008 30.7154 22.95C30.0154 21.9992 29.056 21.2705 27.9522 20.8513C26.8484 20.4322 25.6471 20.3404 24.4924 20.587C21.1733 21.2787 19.0331 24.6907 19.8438 27.9968C20.0638 28.917 20.4941 29.7737 21.1009 30.4996C21.7078 31.2255 22.4746 31.8008 23.3412 32.1804C24.2079 32.56 25.1507 32.7336 26.0957 32.6875C27.0407 32.6414 27.9621 32.3768 28.7877 31.9146C29.4403 31.5539 29.6319 31.5762 30.1544 32.1006C30.4723 32.4278 30.7717 32.7718 31.0636 33.0898L32.3187 31.8347C31.9933 31.5353 31.6438 31.2173 31.3091 30.8957ZM25.807 31.6227C24.8061 31.6249 23.827 31.3301 22.9937 30.7755C22.1604 30.2209 21.5105 29.4316 21.1261 28.5074C20.7416 27.5832 20.6401 26.5658 20.8343 25.5838C21.0285 24.6019 21.5097 23.6997 22.2169 22.9914C22.9242 22.2831 23.8257 21.8006 24.8073 21.6049C25.789 21.4093 26.8066 21.5093 27.7313 21.8924C28.6561 22.2754 29.4464 22.9243 30.0022 23.7567C30.558 24.5892 30.8542 25.5678 30.8535 26.5688C30.8516 27.9073 30.3195 29.1905 29.3737 30.1376C28.4279 31.0848 27.1455 31.6188 25.807 31.6227Z" fill="#FF7A22"/>
<path id="Vector_8" d="M37.2413 36.6095C37.2155 36.8742 37.1205 37.1275 36.9658 37.3439C36.8111 37.5604 36.6021 37.7322 36.3599 37.8423C36.1191 37.9506 35.8504 37.9807 35.5915 37.9284C35.3327 37.876 35.0968 37.7438 34.917 37.5503C34.0356 36.6838 33.1654 35.8043 32.2915 34.9304C32.1576 34.7946 32.0163 34.6645 31.8899 34.5213C31.83 34.4635 31.7826 34.3941 31.7505 34.3174C31.7184 34.2406 31.7023 34.1581 31.7032 34.0749C31.704 33.9917 31.7219 33.9096 31.7556 33.8335C31.7893 33.7574 31.8381 33.689 31.8992 33.6325C32.2153 33.2978 32.5388 32.9724 32.8735 32.66C32.9288 32.6013 32.9955 32.5546 33.0695 32.5226C33.1435 32.4906 33.2233 32.4741 33.304 32.4741C33.3846 32.4741 33.4644 32.4906 33.5384 32.5226C33.6124 32.5546 33.6791 32.6013 33.7344 32.66C34.7776 33.6883 35.8188 34.7184 36.8322 35.7764C37.0461 35.9884 37.1093 36.325 37.2413 36.6095Z" fill="#FF7A22"/>
<path id="Vector_9" d="M26.9821 1.48873C26.941 2.03419 26.8646 2.57641 26.7534 3.112C26.7498 3.17093 26.7322 3.22814 26.7021 3.27892C26.672 3.32969 26.6302 3.37257 26.5803 3.404C26.5303 3.43544 26.4736 3.45452 26.4148 3.45968C26.356 3.46485 26.2968 3.45594 26.2421 3.43369C26.0707 3.33019 25.9396 3.17151 25.8702 2.9837C25.8219 2.87586 25.8925 2.7141 25.9186 2.50584C24.431 3.63637 22.9788 4.73715 21.5266 5.83421L20.9688 5.11461L25.3905 1.75462C25.1748 1.71557 25.0372 1.7007 24.9052 1.66351C24.8479 1.65504 24.793 1.63504 24.7437 1.60471C24.6944 1.57439 24.6517 1.53437 24.6184 1.48708C24.585 1.43979 24.5615 1.38622 24.5495 1.32961C24.5374 1.273 24.537 1.21454 24.5482 1.15775C24.55 1.09948 24.5643 1.04228 24.5901 0.989979C24.6158 0.937682 24.6525 0.891493 24.6976 0.854517C24.7427 0.81754 24.7951 0.790632 24.8514 0.775584C24.9078 0.760536 24.9667 0.757695 25.0242 0.767265C25.5689 0.818772 26.1098 0.904476 26.6437 1.02387C26.7348 1.06645 26.8136 1.13141 26.8728 1.2127C26.932 1.294 26.9696 1.38896 26.9821 1.48873Z" fill="#FF7A22"/>
<path id="Vector_10" d="M20.8092 6.87728C20.8092 7.15916 20.7258 7.43475 20.5694 7.6693C20.4131 7.90385 20.1908 8.08688 19.9306 8.19534C19.6704 8.30379 19.384 8.33282 19.1073 8.27876C18.8307 8.22471 18.5762 8.08999 18.376 7.89158C18.1758 7.69316 18.0387 7.43993 17.9822 7.16378C17.9256 6.88762 17.952 6.60091 18.0581 6.33975C18.1642 6.0786 18.3452 5.85469 18.5784 5.69622C18.8115 5.53775 19.0863 5.45181 19.3682 5.44924C19.5566 5.44826 19.7433 5.48443 19.9178 5.55569C20.0922 5.62695 20.2509 5.7319 20.3847 5.86453C20.5186 5.99717 20.6249 6.15488 20.6978 6.32865C20.7706 6.50243 20.8085 6.68886 20.8092 6.87728Z" fill="#FF7A22"/>
<path id="Vector_11" d="M13.6485 4.17177C13.6489 4.45548 13.565 4.73291 13.4077 4.96895C13.2503 5.205 13.0264 5.38904 12.7644 5.49778C12.5023 5.60651 12.2139 5.63505 11.9356 5.5798C11.6574 5.52454 11.4018 5.38796 11.2011 5.18736C11.0005 4.98675 10.864 4.73114 10.8087 4.45287C10.7534 4.1746 10.782 3.88618 10.8907 3.62415C10.9995 3.36211 11.1835 3.13824 11.4196 2.98085C11.6556 2.82346 11.933 2.73964 12.2167 2.74001C12.405 2.73902 12.5917 2.77539 12.7658 2.847C12.94 2.9186 13.0982 3.02402 13.2313 3.15717C13.3645 3.29032 13.4699 3.44854 13.5415 3.62269C13.6131 3.79685 13.6495 3.98348 13.6485 4.17177Z" fill="#FF7A22"/>
<path id="Vector_12" d="M6.48358 9.06036C6.4869 9.34591 6.4053 9.62599 6.24915 9.86508C6.093 10.1042 5.86933 10.2915 5.60654 10.4032C5.34375 10.515 5.05368 10.5461 4.77315 10.4927C4.49263 10.4393 4.23429 10.3038 4.03093 10.1033C3.82757 9.90283 3.68836 9.64644 3.63097 9.36671C3.57357 9.08697 3.60059 8.79649 3.70858 8.53213C3.81657 8.26777 4.00066 8.04146 4.2375 7.88192C4.47434 7.72237 4.75324 7.63679 5.03881 7.63603C5.22723 7.63456 5.41409 7.67025 5.58871 7.74105C5.76333 7.81186 5.92228 7.9164 6.05646 8.04868C6.19065 8.18097 6.29744 8.33842 6.37073 8.51201C6.44402 8.6856 6.48237 8.87194 6.48358 9.06036Z" fill="#FF7A22"/>
<path id="Vector_13" d="M10.5343 5.86757L7.23567 8.1212L6.71875 7.36627L8.38108 6.23016L10.0174 5.1145L10.5343 5.86757Z" fill="#FF7A22"/>
<path id="Vector_14" d="M29.9344 26.5686C29.9344 27.3877 29.6914 28.1884 29.2361 28.8693C28.7808 29.5502 28.1337 30.0807 27.3767 30.3936C26.6197 30.7066 25.7869 30.7879 24.9837 30.6273C24.1805 30.4667 23.443 30.0713 22.8646 29.4914C22.2862 28.9114 21.8929 28.1728 21.7344 27.3692C21.576 26.5655 21.6595 25.733 21.9745 24.9768C22.2895 24.2207 22.8218 23.5751 23.5039 23.1216C24.1861 22.6681 24.9874 22.4273 25.8065 22.4295C26.3495 22.4295 26.8872 22.5366 27.3888 22.7447C27.8903 22.9529 28.3459 23.2579 28.7293 23.6424C29.1128 24.0269 29.4166 24.4833 29.6234 24.9854C29.8302 25.4876 29.9359 26.0255 29.9344 26.5686Z" fill="#FF7A22"/>
</g>
</svg>
