<svg width="35" height="38" viewBox="0 0 35 38" fill="none" xmlns="http://www.w3.org/2000/svg">
<g id="Group 377">
<path id="Vector" d="M34.0046 27.799L28.012 31.5257C26.5742 32.419 25.1096 33.2702 23.7063 34.2095C23.0755 34.6527 22.3537 34.9494 21.5935 35.0781C20.8334 35.2068 20.0541 35.1641 19.3125 34.9533C16.483 34.2632 13.6305 33.6766 10.7856 33.067C10.5699 33.0297 10.3479 33.0633 10.153 33.1628C9.7082 33.3814 9.28645 33.6497 8.80336 33.9296C7.52661 31.6714 6.26524 29.4476 5 27.22C5.02684 27.1779 5.03831 27.1357 5.06515 27.1203C7.03969 25.9701 9.01043 24.8199 10.9926 23.7234C11.5534 23.3969 12.1814 23.203 12.8287 23.1565C13.4759 23.1099 14.1253 23.2121 14.727 23.455C16.644 24.1451 18.6262 24.7202 20.5816 25.3375C20.8423 25.418 21.1184 25.4449 21.3829 25.5139C21.7445 25.5997 22.0578 25.8244 22.2551 26.1393C22.4524 26.4543 22.5178 26.8342 22.4373 27.197C22.4016 27.3787 22.328 27.5508 22.2212 27.7021C22.1145 27.8534 21.977 27.9804 21.8177 28.0749C21.6585 28.1694 21.4811 28.2291 21.2971 28.2503C21.1132 28.2715 20.9268 28.2535 20.7503 28.1977C19.301 27.8411 17.8632 27.4309 16.4178 27.0705L16.1648 27.0053C16.0878 26.98 16.0065 26.9705 15.9257 26.9774C15.845 26.9842 15.7664 27.0073 15.6948 27.0453C15.6232 27.0832 15.56 27.1352 15.509 27.1982C15.458 27.2612 15.4202 27.3338 15.398 27.4117C15.3699 27.4904 15.3591 27.5742 15.3663 27.6574C15.3735 27.7406 15.3984 27.8213 15.4395 27.894C15.4806 27.9668 15.5368 28.0298 15.6044 28.0789C15.672 28.128 15.7494 28.162 15.8312 28.1785C16.5367 28.3779 17.246 28.5645 17.9591 28.7383C19.2052 29.0374 20.4436 29.3594 21.7011 29.5971C22.8566 29.7978 24.0454 29.5658 25.0406 28.9454C26.7812 27.9332 28.4912 26.8941 30.2741 25.9203C30.9839 25.565 31.7196 25.2638 32.4748 25.0193C32.7245 24.9518 32.9842 24.9297 33.2416 24.9541C33.5563 24.9419 33.8654 25.0391 34.1164 25.2293C34.3674 25.4194 34.5447 25.6907 34.6181 25.997C34.7257 26.3232 34.724 26.6756 34.6133 27.0007C34.5026 27.3259 34.2889 27.6061 34.0046 27.799Z" fill="#FF7A22"/>
<path id="Vector_2" d="M22.5719 20.1193C22.536 20.4142 22.4038 20.689 22.1959 20.9011C21.9879 21.1132 21.7158 21.2508 21.4217 21.2925C21.2486 21.3129 21.0744 21.3219 20.9002 21.3194H17.3116C16.1038 21.3194 14.8961 21.3194 13.6845 21.3194C12.6186 21.3194 12.1164 20.7749 12.0781 19.7014C12.0001 18.7065 12.2166 17.7107 12.7006 16.838C13.1847 15.9653 13.9149 15.2544 14.8002 14.7938C15.5409 14.383 16.3699 14.1572 17.2166 14.1357C18.0633 14.1142 18.9027 14.2977 19.6632 14.6704C20.4238 15.0432 21.083 15.5942 21.5848 16.2766C22.0865 16.9589 22.416 17.7524 22.5451 18.5895C22.6077 19.0971 22.6167 19.6099 22.5719 20.1193Z" fill="#FF7A22"/>
<path id="Vector_3" d="M8.54558 35.9616L5.6815 30.8968C4.75366 29.2597 3.83349 27.6225 2.90181 25.9931C2.78751 25.8372 2.65917 25.6922 2.51841 25.5598C2.37275 25.6059 2.23054 25.6623 2.09283 25.7285C1.50622 26.0544 0.91963 26.3841 0.340687 26.7177C-0.0427187 26.9401 -0.0887424 27.1011 0.133633 27.5152C2.03533 30.8815 3.93958 34.2465 5.84639 37.6103C6.06493 37.9937 6.22977 38.0435 6.64002 37.8211L8.3002 36.8856C8.79096 36.6057 8.8293 36.46 8.54558 35.9616ZM1.96249 28.2935C1.77366 28.2865 1.59524 28.2052 1.46601 28.0674C1.33677 27.9295 1.26715 27.7462 1.27234 27.5574C1.28976 27.3783 1.37459 27.2126 1.50958 27.0938C1.64457 26.9749 1.81967 26.9117 1.99946 26.9171C2.17925 26.9225 2.3503 26.9959 2.47797 27.1226C2.60564 27.2493 2.6804 27.4198 2.68713 27.5995C2.67819 27.7846 2.59755 27.959 2.46229 28.0856C2.32703 28.2123 2.14777 28.2814 1.96249 28.2782V28.2935Z" fill="#FF7A22"/>
<path id="Vector_4" d="M20.0239 10.9829C20.0239 11.5137 19.8665 12.0326 19.5716 12.474C19.2767 12.9153 18.8576 13.2593 18.3672 13.4625C17.8768 13.6656 17.3371 13.7187 16.8165 13.6152C16.2959 13.5116 15.8177 13.256 15.4423 12.8807C15.067 12.5053 14.8114 12.0271 14.7078 11.5065C14.6043 10.9859 14.6574 10.4463 14.8605 9.95585C15.0637 9.46544 15.4077 9.04628 15.8491 8.75138C16.2904 8.45648 16.8093 8.29907 17.3401 8.29907C18.0519 8.29907 18.7346 8.58183 19.2379 9.08515C19.7412 9.58847 20.0239 10.2711 20.0239 10.9829Z" fill="#FF7A22"/>
<path id="Vector_5" d="M11.9348 15.8405C11.3576 16.7303 11.0014 17.7451 10.8958 18.8004C10.7808 18.8004 10.6619 18.8234 10.5392 18.8234H6.57868C5.76586 18.8234 5.3786 18.2675 5.64698 17.5045C5.85103 16.9304 6.18493 16.4111 6.62263 15.9872C7.06033 15.5633 7.59001 15.2463 8.17038 15.0607C8.75076 14.8752 9.36616 14.8262 9.96858 14.9175C10.571 15.0089 11.1442 15.2382 11.6435 15.5875C11.7316 15.6795 11.816 15.7523 11.9348 15.8405Z" fill="#FF7A22"/>
<path id="Vector_6" d="M28.1525 18.835H24.1191C24.0232 18.835 23.9235 18.835 23.8085 18.812C23.7019 17.7575 23.3443 16.7439 22.7656 15.8559C23.4745 15.2253 24.3934 14.8821 25.3421 14.8936C26.1573 14.8939 26.9524 15.1471 27.6178 15.6181C28.2831 16.0892 28.7861 16.755 29.0573 17.5238C29.3334 18.2676 28.95 18.8312 28.1525 18.835Z" fill="#FF7A22"/>
<path id="Vector_7" d="M18.9765 5.10522C19.1643 5.70717 19.3138 6.32445 19.4902 6.96857C19.4672 7.01075 19.4404 7.11427 19.3982 7.12193C19.3172 7.13593 19.234 7.11954 19.1643 7.07592C18.6506 6.74619 18.1368 6.41647 17.6307 6.0714C17.5513 6.00286 17.4499 5.96516 17.3451 5.96516C17.2402 5.96516 17.1388 6.00286 17.0594 6.0714C16.5725 6.41263 16.0664 6.73469 15.5603 7.05292C15.4755 7.09195 15.3848 7.11657 15.2919 7.12577C15.2609 7.02928 15.2479 6.9279 15.2536 6.82671C15.3993 6.23626 15.5488 5.64199 15.7252 5.05921C15.7614 4.97558 15.7665 4.8818 15.7398 4.79468C15.7131 4.70756 15.6563 4.63279 15.5795 4.58379C15.1143 4.22594 14.658 3.85787 14.2107 3.47958C14.1247 3.39309 14.0511 3.29501 13.9922 3.18819C14.1143 3.13301 14.2433 3.09433 14.3756 3.07317C14.9354 3.03483 15.499 2.99649 16.0588 2.99649C16.1682 3.00702 16.2776 2.9763 16.3655 2.91033C16.4535 2.84437 16.5136 2.74793 16.5342 2.63992C16.7259 2.08782 16.9406 1.54338 17.1553 0.998943C17.2109 0.910113 17.2794 0.830006 17.3585 0.76123C17.4275 0.841746 17.5234 0.906926 17.5579 0.998943C17.7688 1.52037 17.9796 2.03797 18.1521 2.57091C18.1738 2.7042 18.2472 2.82359 18.3562 2.90324C18.4653 2.98288 18.6013 3.01638 18.7349 2.99649C19.2794 2.99649 19.8315 3.03866 20.3759 3.07317C20.4903 3.09707 20.6012 3.13573 20.7056 3.18819C20.6613 3.29506 20.599 3.39359 20.5216 3.47958C20.073 3.86298 19.6167 4.24639 19.1528 4.57995C19.0655 4.63203 18.9998 4.71361 18.9675 4.80995C18.9351 4.90629 18.9383 5.01103 18.9765 5.10522Z" fill="#FF7A22"/>
<path id="Vector_8" d="M10.5392 6.67706C10.7156 7.25983 10.8651 7.85411 11.0147 8.44072C11.0204 8.54192 11.0074 8.6433 10.9763 8.73978C10.884 8.73216 10.7934 8.71017 10.7079 8.6746C10.2057 8.35254 9.70342 8.03048 9.20883 7.68925C9.13105 7.62051 9.03083 7.58258 8.92703 7.58258C8.82323 7.58258 8.72302 7.62051 8.64523 7.68925C8.14681 8.04198 7.62921 8.36404 7.11161 8.69377C7.07757 8.71803 7.03884 8.73499 6.99793 8.74356C6.95702 8.75214 6.91477 8.75216 6.87385 8.74361C6.82401 8.72061 6.80485 8.61326 6.78184 8.57108C6.96204 7.92313 7.1116 7.32118 7.28796 6.72307C7.33106 6.62795 7.3377 6.52031 7.30659 6.42063C7.27548 6.32095 7.20878 6.23618 7.11924 6.18246C6.65404 5.82973 6.19781 5.46294 5.7505 5.08209C5.67559 4.99496 5.6148 4.89664 5.57031 4.7907C5.6667 4.74491 5.76843 4.71142 5.87317 4.69101C6.45595 4.65651 7.02341 4.62584 7.62536 4.60667C7.72968 4.61753 7.83432 4.58949 7.91923 4.52793C8.00414 4.46637 8.06332 4.37562 8.08543 4.2731C8.27713 3.721 8.488 3.17656 8.70655 2.63213C8.74872 2.53244 8.85611 2.46343 8.93279 2.37524C9.00674 2.45007 9.07114 2.53378 9.12449 2.62446C9.33153 3.15739 9.54622 3.69033 9.73026 4.23093C9.75782 4.35145 9.82916 4.45743 9.93048 4.52829C10.0318 4.59914 10.1558 4.62981 10.2785 4.61433C10.8383 4.61433 11.398 4.65651 11.9578 4.69101C12.0612 4.71202 12.1616 4.7455 12.2569 4.7907C12.2165 4.89699 12.1581 4.99555 12.0844 5.08209C11.6281 5.46549 11.1604 5.8489 10.6888 6.2093C10.613 6.25745 10.5566 6.33063 10.5293 6.4161C10.5019 6.50157 10.5055 6.59391 10.5392 6.67706Z" fill="#FF7A22"/>
<path id="Vector_9" d="M27.415 6.69643C27.5837 7.2562 27.7332 7.82364 27.8789 8.38725C27.8959 8.50292 27.8959 8.62047 27.8789 8.73615C27.7621 8.71984 27.6484 8.68624 27.5415 8.63646C27.0507 8.3259 26.5561 8.00767 26.0769 7.67411C26.0054 7.60501 25.9098 7.56638 25.8104 7.56638C25.711 7.56638 25.6154 7.60501 25.5439 7.67411C25.0532 8.01534 24.5471 8.3374 24.0448 8.65563C23.9478 8.69336 23.8458 8.71661 23.742 8.72464C23.725 8.62439 23.725 8.52201 23.742 8.42175C23.8838 7.85431 24.0295 7.27154 24.1982 6.7271C24.2438 6.62641 24.2507 6.51241 24.2174 6.40698C24.1842 6.30155 24.1132 6.21211 24.018 6.15583C23.5502 5.80693 23.1016 5.43119 22.6492 5.05928C22.5825 4.97899 22.5271 4.88999 22.4844 4.79473C22.5717 4.74049 22.6676 4.70159 22.7681 4.67971C23.3624 4.64137 23.9605 4.6107 24.5586 4.59153C24.6569 4.5987 24.7544 4.57061 24.8339 4.51228C24.9133 4.45395 24.9693 4.36922 24.9919 4.2733C25.1912 3.7097 25.4059 3.14992 25.6283 2.59782C25.6825 2.50908 25.7497 2.42896 25.8277 2.36011C25.9058 2.4288 25.973 2.50895 26.027 2.59782C26.2494 3.15376 26.468 3.7097 26.6673 4.2733C26.6892 4.36961 26.745 4.45481 26.8246 4.51326C26.9041 4.57172 27.0022 4.59951 27.1006 4.59153C27.6949 4.59153 28.293 4.64137 28.8911 4.67588C28.9977 4.69674 29.1018 4.72887 29.2017 4.77173L29.2975 4.94043C29.1904 4.97807 29.0876 5.02691 28.9908 5.08612C28.5268 5.44652 28.0821 5.82226 27.6182 6.17883C27.5255 6.22383 27.4531 6.30205 27.4155 6.39795C27.3778 6.49384 27.3777 6.6004 27.415 6.69643Z" fill="#FF7A22"/>
<path id="Vector_10" d="M27.3233 12.3515C27.3256 12.7461 27.2107 13.1326 26.9932 13.4618C26.7757 13.7911 26.4653 14.0485 26.1014 14.2012C25.7376 14.354 25.3366 14.3954 24.9492 14.32C24.5618 14.2447 24.2055 14.0561 23.9253 13.7782C23.6452 13.5002 23.4539 13.1453 23.3756 12.7585C23.2973 12.3717 23.3355 11.9704 23.4855 11.6054C23.6354 11.2403 23.8904 10.928 24.218 10.708C24.5456 10.4879 24.9311 10.37 25.3258 10.3693C25.5877 10.3662 25.8475 10.4153 26.0903 10.5136C26.333 10.612 26.5537 10.7576 26.7396 10.9421C26.9255 11.1266 27.0729 11.3462 27.1731 11.5881C27.2733 11.8301 27.3244 12.0896 27.3233 12.3515Z" fill="#FF7A22"/>
<path id="Vector_11" d="M11.3624 12.39C11.3593 12.7845 11.2393 13.1692 11.0175 13.4954C10.7958 13.8216 10.4822 14.0747 10.1165 14.2227C9.75085 14.3707 9.3495 14.4068 8.96326 14.3266C8.57703 14.2464 8.22327 14.0534 7.94676 13.7721C7.67025 13.4907 7.48345 13.1337 7.40994 12.7461C7.33642 12.3586 7.3795 11.9579 7.53378 11.5948C7.68805 11.2318 7.94659 10.9227 8.27662 10.7066C8.60665 10.4905 8.99335 10.3772 9.38781 10.381C9.64945 10.383 9.90814 10.4365 10.1491 10.5386C10.39 10.6407 10.6083 10.7893 10.7917 10.976C10.9751 11.1626 11.12 11.3835 11.2179 11.6262C11.3158 11.8688 11.3649 12.1284 11.3624 12.39Z" fill="#FF7A22"/>
</g>
</svg>
