<svg width="33" height="38" viewBox="0 0 33 38" fill="none" xmlns="http://www.w3.org/2000/svg">
<g id="Group 378">
<path id="Vector" d="M19.6096 34.0473C19.9343 34.3097 20.1777 34.6591 20.3114 35.0546C20.445 35.4501 20.4635 35.8755 20.3645 36.2811C20.2655 36.6868 20.0533 37.0559 19.7525 37.3454C19.4517 37.6349 19.0747 37.8329 18.6656 37.9163C18.6441 37.926 18.624 37.9386 18.6059 37.9536H17.8597C17.2472 37.7613 16.6989 37.4052 16.274 36.9239C14.7817 35.4576 13.2893 34.0063 11.7969 32.5698L14.8824 29.488L17.0202 31.555C17.5724 31.0177 18.1396 30.5215 18.6395 29.9693C18.7286 29.8682 18.7966 29.7503 18.8396 29.6226C18.8826 29.4949 18.8997 29.3599 18.89 29.2255C18.8803 29.0911 18.8439 28.96 18.7829 28.8398C18.722 28.7196 18.6377 28.6127 18.535 28.5255C18.1209 28.1001 17.6881 27.6972 17.2068 27.2345L19.0275 25.8503C19.5928 26.4226 20.1177 27.0335 20.5983 27.6785C20.9692 28.2687 21.1314 28.9663 21.059 29.6596C20.9866 30.3529 20.6838 31.0019 20.199 31.5028C19.6991 32.0438 19.1432 32.5325 18.6096 33.0474C18.9827 33.4168 19.2738 33.7526 19.6096 34.0473Z" fill="#FF7A22"/>
<path id="Vector_2" d="M26.6093 20.3659C22.6038 21.1382 18.8722 22.9513 15.7895 25.6228L7.89844 17.7131C10.5507 14.6052 12.3426 10.8568 13.0957 6.84106L26.6093 20.3659Z" fill="#FF7A22"/>
<path id="Vector_3" d="M6.32312 19.4778L6.15147 19.6419C4.45263 21.3358 2.75632 23.0297 1.06245 24.7235C0.727722 25.0291 0.460337 25.4011 0.277409 25.8157C0.0944814 26.2304 0 26.6787 0 27.1319C0 27.5851 0.0944814 28.0334 0.277409 28.448C0.460337 28.8627 0.727722 29.2347 1.06245 29.5402C2.00266 30.4854 2.94534 31.4269 3.89052 32.3646C5.38291 33.857 7.32675 33.857 8.83406 32.3646L13.7925 27.4098C13.8746 27.324 13.953 27.2345 14.0127 27.1748L6.32312 19.4778ZM8.67734 26.354C8.17988 26.8763 7.66625 27.3912 7.13645 27.8986C6.98415 28.0571 6.78603 28.164 6.56988 28.2041C6.35373 28.2443 6.13043 28.2157 5.93135 28.1225C5.72937 28.0264 5.55657 27.8783 5.43068 27.6934C5.3048 27.5085 5.2304 27.2935 5.21503 27.0703C5.32428 26.8059 5.46455 26.5554 5.6329 26.3241C6.103 25.8092 6.61042 25.3205 7.12529 24.8317C7.2251 24.7256 7.34506 24.6406 7.47821 24.5815C7.61136 24.5224 7.755 24.4906 7.90063 24.4878C8.04627 24.485 8.19098 24.5114 8.32629 24.5653C8.4616 24.6192 8.58476 24.6997 8.68855 24.8019C8.79256 24.9029 8.87504 25.024 8.93103 25.1578C8.98701 25.2916 9.01533 25.4353 9.01428 25.5803C9.01323 25.7253 8.98283 25.8686 8.92492 26.0016C8.86702 26.1346 8.78281 26.2544 8.67734 26.354Z" fill="#FF7A22"/>
<path id="Vector_4" d="M32.3003 18.3882C32.1954 18.7248 32.0102 19.0307 31.7605 19.2796C31.5109 19.5285 31.2044 19.7129 30.8676 19.8168C30.5308 19.9208 30.1737 19.9412 29.8272 19.8762C29.4808 19.8113 29.1553 19.663 28.879 19.4441C28.7485 19.3353 28.6239 19.2194 28.5059 19.0971C23.78 14.3712 19.0541 9.64531 14.3282 4.91941C13.6305 4.22172 13.347 3.42702 13.6753 2.47935C13.8337 2.04566 14.1248 1.67299 14.5073 1.41441C14.8898 1.15583 15.3442 1.02453 15.8057 1.03919C16.399 1.07793 16.9541 1.34545 17.354 1.78539C19.1126 3.55387 20.8761 5.31862 22.6446 7.07965C25.6492 10.0843 28.6551 13.0902 31.6623 16.0974C31.9811 16.375 32.2115 16.7399 32.3249 17.1471C32.4383 17.5543 32.4298 17.9859 32.3003 18.3882Z" fill="#FF7A22"/>
<path id="Vector_5" d="M30.345 4.78144C29.6212 5.52764 28.8849 6.26264 28.1362 6.98645C27.9824 7.14478 27.7812 7.24864 27.563 7.28231C27.3449 7.31597 27.1218 7.2776 26.9274 7.173C26.5132 6.97153 26.3305 6.62828 26.2969 6.05371C26.3907 5.82574 26.5163 5.6122 26.67 5.41944C27.3565 4.67325 28.0728 3.98675 28.7929 3.28532C28.8919 3.17784 29.0116 3.09152 29.1448 3.03157C29.278 2.97161 29.422 2.93927 29.5681 2.93648C29.7142 2.93369 29.8594 2.96051 29.9948 3.01534C30.1302 3.07016 30.2531 3.15185 30.3561 3.25547C30.4571 3.35559 30.537 3.47487 30.5911 3.6063C30.6453 3.73773 30.6727 3.87866 30.6717 4.02081C30.6706 4.16297 30.6412 4.30348 30.5851 4.4341C30.529 4.56472 30.4474 4.68281 30.345 4.78144Z" fill="#FF7A22"/>
<path id="Vector_6" d="M24.113 4.08002C24.09 4.35835 23.9607 4.61712 23.7519 4.80257C23.5431 4.98801 23.2708 5.08585 22.9917 5.07576C22.7126 5.06567 22.4482 4.94843 22.2533 4.7484C22.0584 4.54837 21.9481 4.28093 21.9453 4.00167C21.9453 3.62858 21.9453 3.27786 21.9453 2.91596C21.9453 2.55405 21.9453 2.19215 21.9453 1.82651C21.9506 1.54797 22.0627 1.2821 22.2585 1.08391C22.4543 0.885719 22.7187 0.770379 22.9972 0.761752C23.2757 0.753125 23.5468 0.851869 23.7545 1.03756C23.9622 1.22325 24.0905 1.48167 24.113 1.75936C24.1428 2.53167 24.1428 3.30771 24.113 4.08002Z" fill="#FF7A22"/>
<path id="Vector_7" d="M32.8478 10.5571C32.8393 10.843 32.7217 11.1148 32.5191 11.3168C32.3165 11.5187 32.0443 11.6353 31.7584 11.6428C31.5084 11.6428 31.2621 11.6428 31.0122 11.6428H30.6391H30.0123C29.8705 11.6428 29.7287 11.6428 29.5907 11.6428C29.4425 11.6515 29.2941 11.6298 29.1546 11.5791C29.0151 11.5284 28.8874 11.4497 28.7794 11.3478C28.6715 11.246 28.5854 11.1231 28.5266 10.9869C28.4678 10.8506 28.4375 10.7037 28.4375 10.5553C28.4375 10.4068 28.4678 10.26 28.5266 10.1237C28.5854 9.98738 28.6715 9.86454 28.7794 9.7627C28.8874 9.66086 29.0151 9.58215 29.1546 9.53142C29.2941 9.48069 29.4425 9.459 29.5907 9.46769C30.3145 9.46769 31.042 9.46769 31.7658 9.46769C32.0532 9.47063 32.3278 9.58658 32.5303 9.79047C32.7328 9.99436 32.8468 10.2698 32.8478 10.5571Z" fill="#FF7A22"/>
</g>
</svg>
