<svg width="28" height="24" viewBox="0 0 28 24" fill="none" xmlns="http://www.w3.org/2000/svg">
<g id="Layer_1" clip-path="url(#clip0_1750_819)">
<path id="Vector" d="M0 14.3607C0.0417102 14.1888 0.07918 14.0154 0.125132 13.8448C0.535871 12.3252 1.88049 11.2205 3.43367 11.1889C4.20696 11.1774 4.98016 11.2177 5.74823 11.3093C6.25016 11.3659 6.68565 11.6475 7.09144 11.9978C7.02781 12.0695 6.97338 12.1411 6.91541 12.2013C5.77934 13.4293 5.13954 14.8909 4.92251 16.5531C4.74648 17.9079 4.78536 19.2678 4.80657 20.6276C4.81434 21.1456 4.80657 21.6636 4.80657 22.2146C4.69063 22.226 4.57186 22.2482 4.45309 22.2482C3.5185 22.2482 2.58462 22.2532 1.65073 22.2439C0.822891 22.236 0.307525 21.8391 0.045246 21.0324C0.0339599 21.0092 0.0189028 20.9881 0.000707643 20.9701L0 14.3607Z" fill="#FF7A22"/>
<path id="Vector_2" d="M13.2251 23.9654C11.6378 23.9654 10.0507 23.9654 8.46381 23.9654C7.96894 23.9654 7.49952 23.8723 7.10433 23.5405C6.6738 23.1823 6.42001 22.7145 6.41506 22.1471C6.40233 20.6253 6.36416 19.1021 6.42071 17.5832C6.51757 14.971 7.69323 13.015 10.0219 11.825C10.8194 11.4173 11.6783 11.2203 12.567 11.1651C13.7037 11.0935 14.8469 11.0777 15.9603 11.3564C18.3887 11.9647 20.4657 14.3742 20.6319 16.9083C20.7478 18.6729 20.6877 20.4505 20.6814 22.2223C20.6814 22.478 20.5619 22.741 20.4643 22.9867C20.2784 23.4553 19.9178 23.7576 19.4322 23.8064C18.5308 23.8973 17.6252 23.9611 16.7196 23.984C15.5567 24.0134 14.3923 23.9912 13.2287 23.9912L13.2251 23.9654Z" fill="#FF7A22"/>
<path id="Vector_3" d="M13.5406 0.000514833C14.4527 -0.00260088 15.3452 0.268555 16.1053 0.779631C16.8653 1.29071 17.4587 2.01875 17.8104 2.87168C18.1621 3.7246 18.2562 4.66408 18.0809 5.57124C17.9056 6.47841 17.4688 7.31249 16.8256 7.96799C16.1825 8.62349 15.362 9.07094 14.4679 9.25374C13.5737 9.43653 12.6462 9.34645 11.8026 8.9949C10.959 8.64334 10.2373 8.04614 9.72868 7.27878C9.22008 6.51143 8.94749 5.60842 8.94539 4.68403C8.94194 4.07023 9.05825 3.46183 9.28764 2.89375C9.51703 2.32567 9.85496 1.80915 10.282 1.37389C10.709 0.938641 11.2168 0.593248 11.776 0.357556C12.3352 0.121864 12.9349 0.000504889 13.5406 0.000514833Z" fill="#FF7A22"/>
<path id="Vector_4" d="M22.2997 22.2074C22.2997 21.238 22.2997 20.2995 22.2997 19.3602C22.2997 18.2138 22.2877 17.0675 22.0721 15.9377C21.8089 14.5415 21.1571 13.2508 20.1937 12.2178L20 12.0072C20.3474 11.6715 20.7769 11.436 21.2442 11.3251C22.2877 11.093 23.3517 11.0564 24.3902 11.2993C25.9822 11.6704 27.0808 13.1248 27.0872 14.7806C27.095 16.7057 27.0914 18.6301 27.0872 20.5546C27.0872 21.4688 26.4884 22.1788 25.5955 22.2225C24.5577 22.2726 23.5157 22.2411 22.4757 22.2425C22.416 22.2371 22.357 22.2254 22.2997 22.2074Z" fill="#FF7A22"/>
<path id="Vector_5" d="M4.23019 3.43995C5.00295 3.43777 5.74492 3.74678 6.29287 4.29901C6.84082 4.85124 7.14986 5.60146 7.15202 6.38461C7.15418 7.16777 6.84927 7.91973 6.30437 8.47505C5.75947 9.03037 5.01921 9.34357 4.24645 9.34575C2.65227 9.35578 1.33239 8.02245 1.32815 6.39752C1.32666 6.01009 1.40059 5.62616 1.5457 5.26773C1.69082 4.9093 1.90427 4.58338 2.17383 4.30866C2.44339 4.03394 2.76378 3.81582 3.11664 3.66675C3.4695 3.51768 3.8479 3.44061 4.23019 3.43995Z" fill="#FF7A22"/>
<path id="Vector_6" d="M25.7728 6.38317C25.7739 6.96644 25.6043 7.53696 25.2854 8.02256C24.9666 8.50816 24.5128 8.88702 23.9815 9.11125C23.4502 9.33547 22.8652 9.39498 22.3006 9.28224C21.7359 9.16951 21.2169 8.88959 20.8091 8.47791C20.4014 8.06622 20.1234 7.54125 20.0101 6.96938C19.8968 6.39752 19.9534 5.80447 20.1727 5.2652C20.392 4.72593 20.7642 4.26468 21.2421 3.93978C21.7201 3.61489 22.2824 3.44093 22.858 3.43994C23.6287 3.44144 24.3677 3.75169 24.9137 4.30302C25.4597 4.85435 25.7685 5.60206 25.7728 6.38317Z" fill="#FF7A22"/>
</g>
<defs>
<clipPath id="clip0_1750_819">
<rect width="28" height="24" fill="white"/>
</clipPath>
</defs>
</svg>
