<svg width="32" height="36" viewBox="0 0 32 36" fill="none" xmlns="http://www.w3.org/2000/svg">
<path d="M20.8731 1.41837C20.7165 1.74601 20.5616 2.0755 20.3979 2.39854C20.2083 2.77129 19.8897 2.8937 19.5737 2.72803C19.2747 2.57065 19.1723 2.23104 19.3343 1.87578C19.5123 1.49383 19.685 1.11097 19.8888 0.745586C19.9725 0.595568 20.13 0.490647 20.2546 0.365479H20.5874C21.0529 0.665514 21.1197 0.906648 20.8731 1.41837Z" fill="#FF7A22"/>
<path d="M11.8749 2.72639C11.5714 2.88837 11.2519 2.77701 11.0677 2.43003C10.8959 2.09778 10.7401 1.75725 10.5791 1.41764C10.3334 0.905004 10.3957 0.673075 10.8585 0.362915H11.1923C11.3453 0.546986 11.5269 0.718173 11.6471 0.924332C11.8228 1.24096 11.9812 1.56759 12.1214 1.90267C12.2701 2.24412 12.1641 2.57453 11.8749 2.72639Z" fill="#FF7A22"/>
<path d="M15.1224 20.766V35.6224C15.004 35.6279 14.8972 35.6371 14.7895 35.6371H3.00412C2.3918 35.6371 2.20312 35.4466 2.20312 34.8217V24.6885H2.60719C5.80318 24.6885 9.00005 24.6793 12.196 24.6959C12.8689 24.6959 13.3032 24.4281 13.588 23.805C14.0152 22.8736 14.478 21.9569 14.923 21.0347C14.9711 20.9363 15.0236 20.8415 15.0743 20.7439L15.1224 20.766Z" fill="#FF7A22"/>
<path d="M29.2507 24.9775C29.2507 28.2828 29.2507 31.5881 29.2507 34.8934C29.2507 35.4125 29.0407 35.6371 28.5494 35.6371C24.5438 35.6371 20.5388 35.6371 16.5344 35.6371C16.4801 35.6371 16.4258 35.6306 16.3359 35.626V20.7623L16.3822 20.7338C16.4303 20.8258 16.481 20.9123 16.5255 21.0034C16.9865 21.956 17.4573 22.9049 17.905 23.8648C18.172 24.4354 18.5805 24.6931 19.1973 24.6931C22.4013 24.683 25.6115 24.6885 28.8191 24.6885H29.232C29.2374 24.8017 29.2507 24.8901 29.2507 24.9775Z" fill="#FF7A22"/>
<path d="M22.8667 6.8726C22.711 7.14871 22.5997 7.46991 22.3923 7.70092C21.7435 8.42524 21.0671 9.12195 20.3881 9.81774C20.0276 10.1859 19.8799 10.5908 19.9742 11.121C20.1593 12.1582 20.3026 13.2028 20.4717 14.2428C20.5483 14.7094 20.4174 15.0905 20.0481 15.3592C19.6787 15.6279 19.28 15.6123 18.8857 15.3887C18.05 14.9073 17.2063 14.4471 16.3822 13.9612C15.9309 13.6934 15.5224 13.697 15.0703 13.9676C14.2693 14.4444 13.4532 14.8779 12.6513 15.3426C12.2276 15.5884 11.8093 15.6528 11.4008 15.3528C11.0066 15.0628 10.9078 14.6533 10.9905 14.1655C11.1685 13.1264 11.3154 12.0827 11.4907 11.0437C11.5325 10.8353 11.5218 10.6193 11.4594 10.4165C11.3971 10.2137 11.2852 10.031 11.1347 9.88585C10.4476 9.16705 9.76591 8.44365 9.07616 7.72853C8.73618 7.37512 8.5742 6.97476 8.73351 6.48145C8.89282 5.98814 9.26751 5.75161 9.7579 5.6789C10.6799 5.54085 11.6002 5.39175 12.5222 5.25554C12.7273 5.23416 12.9229 5.15604 13.0886 5.02939C13.2543 4.90273 13.3839 4.73223 13.4639 4.53582C13.8893 3.5897 14.3298 2.65185 14.7552 1.70573C14.9493 1.27592 15.2367 0.990613 15.7164 0.985091C16.2122 0.978649 16.5094 1.26672 16.7097 1.70941C17.1307 2.64449 17.5703 3.57129 17.9868 4.50821C18.1924 4.97299 18.5208 5.1994 19.0103 5.26566C19.9342 5.39083 20.8544 5.54177 21.7693 5.69455C22.3879 5.79671 22.7786 6.24676 22.7848 6.82383L22.8667 6.8726Z" fill="#FF7A22"/>
<path d="M14.2679 19.6544C13.7339 20.7736 13.1839 21.8872 12.6534 23.01C12.4977 23.3395 12.2698 23.4785 11.9174 23.4776C8.1877 23.472 4.458 23.4705 0.728311 23.473C0.0688213 23.473 -0.169699 23.0616 0.124001 22.4486C0.66601 21.3193 1.21603 20.1947 1.75359 19.0635C1.90311 18.7488 2.11938 18.6107 2.46559 18.6126C4.34171 18.6218 6.21783 18.6172 8.09395 18.6172C9.94693 18.6172 11.8005 18.6172 13.6547 18.6172C14.3346 18.6181 14.5714 19.0221 14.2679 19.6544Z" fill="#FF7A22"/>
<path d="M30.7249 23.4718C26.9958 23.4764 23.2667 23.4718 19.5367 23.4782C19.1665 23.4782 18.944 23.3218 18.7847 22.9822C18.2649 21.8777 17.7265 20.7871 17.1978 19.6891C16.873 19.0145 17.1088 18.6169 17.8262 18.6169H23.3869C25.2408 18.6169 27.0946 18.6234 28.9476 18.6105C29.3178 18.6105 29.5492 18.7476 29.7103 19.0891C30.2443 20.2119 30.7872 21.3255 31.3239 22.4456C31.6194 23.0604 31.3835 23.4718 30.7249 23.4718Z" fill="#FF7A22"/>
<path d="M30.1931 11.6961C29.8869 12.0127 29.5879 12.3404 29.2773 12.6487C29.1759 12.7379 29.1 12.8541 29.0578 12.9847C29.0156 13.1152 29.0087 13.2552 29.0379 13.3896C29.1392 13.8833 29.2129 14.3826 29.2586 14.8852C29.2728 15.0692 29.1865 15.3453 29.053 15.4374C28.9195 15.5294 28.6427 15.5294 28.4772 15.453C28.0526 15.2607 27.6521 15.0085 27.2463 14.7719C27.1424 14.7052 27.0223 14.6704 26.9001 14.6716C26.7778 14.6727 26.6583 14.7098 26.5556 14.7784C26.1614 15.0122 25.7546 15.2275 25.3586 15.4549C25.1468 15.5763 24.9038 15.6325 24.7454 15.441C24.6121 15.2706 24.542 15.0565 24.5478 14.8373C24.5976 14.3586 24.6722 13.883 24.7712 13.4126C24.8031 13.2787 24.7993 13.1384 24.7601 13.0066C24.7209 12.8748 24.6478 12.7565 24.5487 12.6643C24.2283 12.3468 23.9257 12.009 23.6089 11.6878C23.4166 11.4946 23.2867 11.2461 23.4246 11.0141C23.5544 10.8278 23.7435 10.6946 23.9586 10.6377C24.3809 10.5408 24.8082 10.4689 25.2384 10.4224C25.3602 10.4108 25.4764 10.3647 25.5743 10.289C25.6722 10.2132 25.7479 10.111 25.7929 9.99346C25.9932 9.53329 26.1916 9.07311 26.4266 8.63042C26.5156 8.46199 26.7043 8.34971 26.9063 8.15552C27.1057 8.35431 27.289 8.4712 27.3789 8.64054C27.6085 9.07127 27.8016 9.52408 28.0019 9.9723C28.0509 10.1007 28.1344 10.2118 28.2427 10.2925C28.3509 10.3733 28.4792 10.4203 28.6124 10.4279C29.0307 10.4757 29.4446 10.5622 29.8584 10.6211C30.1094 10.657 30.3034 10.7601 30.3924 11.016C30.4948 11.2967 30.3773 11.5065 30.1931 11.6961Z" fill="#FF7A22"/>
<path d="M7.87481 11.6405C7.58836 11.9914 7.27816 12.3208 6.94654 12.6262C6.83176 12.7257 6.74683 12.857 6.70174 13.0047C6.65665 13.1525 6.65327 13.3104 6.692 13.46C6.78545 13.9082 6.84419 14.3629 6.91717 14.8157C6.95811 15.067 6.93764 15.2998 6.71336 15.46C6.48908 15.6201 6.27548 15.564 6.05832 15.4388C5.68096 15.2197 5.29737 15.0136 4.92357 14.789C4.81153 14.7142 4.68073 14.6751 4.54737 14.6764C4.41401 14.6777 4.28396 14.7194 4.1733 14.7964C3.77102 15.0384 3.3634 15.2722 2.94599 15.4857C2.54549 15.6901 2.15478 15.4231 2.1708 14.9556C2.25001 14.4439 2.32121 13.9092 2.41822 13.38C2.44639 13.2514 2.44069 13.1175 2.40171 12.992C2.36273 12.8665 2.2919 12.7542 2.19661 12.6667C1.87888 12.3455 1.57361 12.0132 1.25766 11.6893C1.07165 11.4978 0.960404 11.2852 1.06186 11.011C1.15531 10.7569 1.352 10.6585 1.60298 10.6244C2.03196 10.5664 2.45738 10.4836 2.88547 10.4247C3.00738 10.4136 3.12395 10.3679 3.2224 10.2927C3.32085 10.2176 3.39735 10.1158 3.4435 9.99857C3.64286 9.55128 3.85557 9.10951 4.05671 8.66314C4.15728 8.43765 4.29968 8.28119 4.55778 8.28211C4.81588 8.28303 4.95561 8.44961 5.05529 8.6705C5.25821 9.11687 5.46825 9.55956 5.66494 10.0078C5.71184 10.1246 5.78933 10.2256 5.88869 10.2995C5.98806 10.3733 6.10536 10.417 6.22742 10.4256C6.66851 10.4713 7.10658 10.5441 7.53928 10.6437C7.72796 10.6925 7.96826 10.8573 8.02433 11.0266C8.0804 11.196 7.99585 11.4849 7.87481 11.6405Z" fill="#FF7A22"/>
<path d="M23.4303 2.74365C23.3537 2.92772 23.3306 3.06301 23.2523 3.14952C23.025 3.41558 22.7818 3.66671 22.5243 3.90145C22.4151 3.99338 22.2758 4.0381 22.1354 4.02626C21.9951 4.01443 21.8646 3.94695 21.7713 3.83795C21.5657 3.6097 21.5132 3.33267 21.7055 3.0897C21.9305 2.79232 22.1927 2.5271 22.4851 2.30095C22.6213 2.20156 22.9043 2.20892 23.0654 2.28439C23.2265 2.35986 23.319 2.59271 23.4303 2.74365Z" fill="#FF7A22"/>
<path d="M9.84702 3.38175C9.84702 3.8585 9.34862 4.18982 8.99796 3.93397C8.68933 3.69382 8.41307 3.41216 8.17649 3.09644C8.01629 2.89489 8.06524 2.63627 8.22633 2.42919C8.40433 2.20462 8.68112 2.10522 8.87692 2.258C9.22135 2.52766 9.49992 2.88568 9.80252 3.21425C9.84257 3.25751 9.83812 3.3431 9.84702 3.38175Z" fill="#FF7A22"/>
</svg>
