<svg width="33" height="22" viewBox="0 0 33 22" fill="none" xmlns="http://www.w3.org/2000/svg">
<g id="Group 360">
<g id="Group 362">
<path id="Vector" d="M31.3443 0.00981851H9.57711V1.66818C9.57711 2.0727 9.57711 2.47634 9.57711 2.88086C9.57118 3.50253 9.18932 3.93157 8.64573 3.9412C8.10215 3.95084 7.68387 3.50341 7.67964 2.87386C7.67286 2.05431 7.67964 1.23564 7.67964 0.416092V0.00981851H7.3291C5.30124 0.00981851 3.27337 0.0238292 1.24551 0.000188347C0.662974 -0.00681634 0.247239 0.180556 0 0.730424V7.15373C0.236231 7.66682 0.622333 7.86383 1.17777 7.89447C2.64342 7.97678 3.79495 9.28666 3.80257 10.8076C3.80934 12.3451 2.65951 13.6663 1.17777 13.7521C0.622333 13.7845 0.236231 13.9798 0 14.4938V20.9171C0.254012 21.4836 0.687528 21.6552 1.27684 21.6473C3.26237 21.6228 5.24874 21.6377 7.23427 21.6377H7.60513C7.60513 20.7034 7.60513 19.7989 7.60513 18.8971C7.59891 18.7556 7.60771 18.6137 7.63138 18.4742C7.68173 18.2435 7.81062 18.0393 7.99452 17.8988C8.17842 17.7583 8.40505 17.6909 8.63303 17.7089C8.86698 17.7298 9.08503 17.84 9.24469 18.0181C9.40435 18.1961 9.49418 18.4293 9.49667 18.6721C9.50853 19.5126 9.49667 20.3541 9.49667 21.1955V21.6333H31.3273C32.0707 21.6333 32.4399 21.255 32.4399 20.495V1.16209C32.4467 0.390702 32.0817 0.00981851 31.3443 0.00981851ZM9.49921 14.7407C9.48482 15.3168 9.06824 15.745 8.5382 15.738C8.28758 15.7345 8.04847 15.6286 7.87315 15.4433C7.69783 15.2581 7.60055 15.0086 7.60259 14.7494C7.59243 14.0963 7.59243 13.4428 7.60259 12.789C7.60237 12.6603 7.62665 12.5329 7.67406 12.4139C7.72147 12.295 7.79107 12.1868 7.8789 12.0957C7.96672 12.0045 8.07104 11.9322 8.18591 11.8827C8.30078 11.8333 8.42394 11.8077 8.54836 11.8075C8.79939 11.8075 9.04027 11.9099 9.21864 12.0926C9.39701 12.2752 9.49845 12.5233 9.50091 12.7829C9.51107 13.12 9.50091 13.458 9.50091 13.7959C9.5026 14.1085 9.50937 14.4246 9.50175 14.7407H9.49921ZM9.49921 8.87425C9.49565 9.13311 9.39289 9.37993 9.2135 9.56051C9.03411 9.74109 8.79276 9.84067 8.54243 9.8374C8.29194 9.83371 8.05296 9.72804 7.87733 9.54331C7.7017 9.35857 7.60359 9.10968 7.60428 8.85062C7.59582 8.52402 7.60428 8.19655 7.60428 7.86996C7.60428 7.54337 7.59666 7.21677 7.60428 6.89018C7.60517 6.63113 7.70478 6.38289 7.88152 6.1993C8.05826 6.01572 8.29786 5.91159 8.54836 5.90952C8.67255 5.90837 8.79574 5.93256 8.91088 5.98073C9.02601 6.02889 9.13082 6.10007 9.21931 6.19019C9.30779 6.28031 9.37822 6.3876 9.42654 6.50592C9.47486 6.62423 9.50013 6.75124 9.50091 6.87967C9.51333 7.54628 9.51276 8.21085 9.49921 8.87338V8.87425ZM15.3356 6.87442C15.3382 6.48579 15.415 6.10151 15.5614 5.74358C15.7078 5.38565 15.9211 5.06109 16.1889 4.78849C16.4568 4.51588 16.774 4.30057 17.1224 4.15488C17.4709 4.0092 17.8436 3.93599 18.2195 3.93945C18.9721 3.95074 19.69 4.26844 20.2175 4.82363C20.745 5.37882 21.0396 6.12672 21.0373 6.90506C21.0341 7.29332 20.9569 7.67713 20.8103 8.03455C20.6636 8.39198 20.4502 8.71602 20.1824 8.98816C19.9146 9.2603 19.5976 9.47523 19.2495 9.62064C18.9013 9.76606 18.5289 9.83912 18.1534 9.83565C17.4014 9.82437 16.684 9.50715 16.1565 8.95271C15.6291 8.39828 15.3342 7.65128 15.3356 6.87354V6.87442ZM17.6632 17.5399C17.2085 17.2309 17.101 16.6398 17.4295 16.1294C19.9425 12.2254 22.4581 8.32322 24.9762 4.42278C25.2471 4.00425 25.6468 3.85715 26.0718 3.99549C26.2678 4.06246 26.4401 4.18839 26.5665 4.35716C26.6929 4.52593 26.7677 4.72987 26.7814 4.94287C26.7018 5.13988 26.651 5.3579 26.5384 5.53302C24.0338 9.42938 21.5247 13.3225 19.0111 17.2125C18.6818 17.7221 18.1162 17.849 17.6632 17.5391V17.5399ZM25.7966 17.7054C25.0387 17.7038 24.3123 17.3911 23.7771 16.836C23.2419 16.281 22.9417 15.5289 22.9424 14.7451C22.9475 13.9666 23.2493 13.2217 23.7822 12.6719C24.3151 12.1221 25.0362 11.8118 25.789 11.8083C26.1645 11.8087 26.5362 11.8855 26.8829 12.0344C27.2297 12.1834 27.5446 12.4015 27.8098 12.6763C28.075 12.9511 28.2853 13.2773 28.4286 13.6362C28.5719 13.995 28.6454 14.3796 28.645 14.7678C28.6396 15.5465 28.3375 16.2916 27.8043 16.8414C27.271 17.3912 26.5496 17.7013 25.7966 17.7045V17.7054Z" fill="#FF7A22"/>
<path id="Vector_2" d="M19.1327 6.8807C19.1326 7.13889 19.0353 7.3869 18.8615 7.57223C18.6876 7.75756 18.4509 7.86565 18.2013 7.87361C18.075 7.87441 17.9499 7.84948 17.8329 7.80023C17.716 7.75097 17.6095 7.67837 17.5197 7.58656C17.4299 7.49476 17.3585 7.38555 17.3095 7.26519C17.2606 7.14482 17.235 7.01565 17.2344 6.88507C17.2385 6.62697 17.3398 6.38071 17.5167 6.19859C17.6936 6.01647 17.9322 5.91282 18.1818 5.90967C18.4313 5.91211 18.67 6.01481 18.8474 6.19605C19.0249 6.37729 19.1272 6.62283 19.1327 6.8807Z" fill="#FF7A22"/>
<path id="Vector_3" d="M26.7429 14.7558C26.7399 15.0138 26.64 15.2606 26.4643 15.4439C26.2886 15.6272 26.0509 15.7327 25.8014 15.7382C25.6751 15.7377 25.5502 15.7115 25.4337 15.6611C25.3172 15.6107 25.2115 15.537 25.1225 15.4443C25.0336 15.3516 24.9632 15.2417 24.9154 15.1208C24.8675 15 24.8432 14.8706 24.8438 14.74C24.8514 14.4825 24.9555 14.2382 25.134 14.0585C25.3125 13.8789 25.5514 13.7779 25.8005 13.7769C26.0497 13.7818 26.2873 13.8867 26.4631 14.0693C26.6389 14.252 26.7392 14.4981 26.7429 14.7558Z" fill="#FF7A22"/>
</g>
</g>
</svg>
