<svg width="32" height="33" viewBox="0 0 32 33" fill="none" xmlns="http://www.w3.org/2000/svg">
<g id="Layer_1" clip-path="url(#clip0_1750_877)">
<path id="Vector" d="M16.0396 21.8635C13.093 21.8635 10.1467 21.8635 7.20068 21.8635C5.77278 21.8635 5.04004 21.1365 5.04568 19.716C5.05225 18.7803 4.99683 17.839 5.12271 16.921C5.38199 15.0177 6.46043 13.6646 8.24437 12.9423C9.34629 12.4968 10.4989 12.1693 11.6262 11.8025C11.7503 11.7763 11.8797 11.7984 11.9879 11.8643C14.6702 13.5274 17.3507 13.5274 20.0292 11.8643C20.1494 11.7951 20.2918 11.775 20.4266 11.8081C21.49 12.1506 22.5553 12.4893 23.6046 12.8711C25.6356 13.6085 26.9339 15.4565 26.9611 17.6106C26.9705 18.3498 26.9611 19.09 26.9611 19.8293C26.9611 21.0991 26.1936 21.8589 24.9095 21.8608C22.5359 21.8645 20.162 21.8645 17.7878 21.8608L16.0396 21.8635Z" fill="#FF7A22"/>
<path id="Vector_2" d="M10.0382 5.86998C10.2261 2.32635 12.9363 -0.182369 16.3754 0.0103927C19.6878 0.19754 22.1819 3.05809 21.9874 6.45107C21.808 9.58859 18.8414 12.1104 15.5412 11.9298C12.4694 11.7623 9.87942 8.91018 10.0382 5.86998Z" fill="#FF7A22"/>
<path id="Vector_3" d="M2.0043 25.8984C3.00007 25.8984 3.00007 25.8984 3.30444 24.9692C3.37301 24.7615 3.43784 24.5537 3.51205 24.3488C3.73 23.749 4.20252 23.4131 4.80468 23.4131C5.40684 23.4131 5.85587 23.7518 6.06348 24.3413C6.21284 24.7633 6.35564 25.1882 6.4787 25.6186C6.5407 25.8338 6.65625 25.9049 6.87232 25.8993C7.33451 25.8893 7.797 25.8893 8.25981 25.8993C8.53601 25.8983 8.80553 25.9839 9.03015 26.1439C9.25476 26.304 9.42309 26.5305 9.51124 26.7912C9.59939 27.052 9.60289 27.3337 9.52126 27.5965C9.43963 27.8594 9.277 28.0899 9.05644 28.2555C8.69477 28.5409 8.32088 28.817 7.93666 29.0696C7.72436 29.2109 7.68772 29.3587 7.77227 29.588C7.91599 29.9735 8.04094 30.3665 8.16306 30.7586C8.3594 31.3874 8.18561 31.9629 7.70369 32.3176C7.22177 32.6722 6.6243 32.6647 6.07569 32.2811C5.72717 32.0378 5.37771 31.7935 5.04234 31.5325C4.85446 31.3856 4.71355 31.3949 4.52943 31.539C4.195 31.801 3.84554 32.0443 3.49608 32.2876C2.93901 32.675 2.35564 32.6853 1.86809 32.3269C1.38054 31.9685 1.2105 31.4052 1.41248 30.7689C1.54118 30.3525 1.70181 29.9454 1.80702 29.5234C1.81713 29.4485 1.81005 29.3723 1.78629 29.3005C1.76253 29.2286 1.72273 29.1632 1.66987 29.1089C1.33638 28.8282 0.968129 28.5877 0.61679 28.3276C0.0747515 27.9261 -0.118761 27.3787 0.0709998 26.8023C0.26076 26.2259 0.742674 25.9059 1.41905 25.8965C1.61444 25.8956 1.80984 25.8984 2.0043 25.8984Z" fill="#FF7A22"/>
<path id="Vector_4" d="M24.4486 25.8992C25.4406 25.8992 25.4406 25.8992 25.745 24.9635C25.8089 24.7679 25.8718 24.5714 25.9404 24.3777C26.1546 23.7658 26.613 23.4186 27.2114 23.4139C27.8296 23.4083 28.2908 23.747 28.5134 24.3833C28.6412 24.7492 28.7727 25.1151 28.8713 25.4894C28.9512 25.7953 29.0959 25.9301 29.435 25.9048C29.8465 25.8739 30.2626 25.8908 30.676 25.9048C30.9549 25.9041 31.2269 25.9911 31.4534 26.1533C31.6798 26.3155 31.8491 26.5447 31.9371 26.8083C32.0252 27.072 32.0275 27.3566 31.9438 27.6216C31.86 27.8866 31.6945 28.1186 31.4707 28.2844C31.1447 28.538 30.8131 28.7878 30.4665 29.0096C30.1987 29.1799 30.1123 29.3521 30.241 29.6646C30.3939 30.0602 30.5237 30.4641 30.6299 30.8745C30.7095 31.1371 30.7049 31.4179 30.617 31.6778C30.5291 31.9378 30.3622 32.164 30.1394 32.3252C29.9165 32.4864 29.6489 32.5744 29.3735 32.5772C29.0982 32.58 28.8288 32.4974 28.6027 32.3408C28.2382 32.0985 27.8793 31.8468 27.5374 31.5754C27.3204 31.4032 27.155 31.3882 26.9333 31.5698C26.614 31.8308 26.2711 32.0629 25.931 32.2987C25.3768 32.6833 24.7896 32.6898 24.303 32.3268C23.8164 31.9637 23.6576 31.4126 23.8455 30.7997C23.9667 30.4067 24.0898 30.0127 24.2363 29.6281C24.3303 29.3745 24.3021 29.207 24.0597 29.0517C23.7018 28.8234 23.3627 28.5642 23.0264 28.3078C22.5134 27.9214 22.3293 27.3637 22.5172 26.8004C22.6994 26.2548 23.1748 25.917 23.7985 25.902C24.0099 25.8946 24.2297 25.8992 24.4486 25.8992Z" fill="#FF7A22"/>
<path id="Vector_5" d="M13.2083 25.8985C14.2266 25.8985 14.2266 25.8985 14.5357 24.9487C14.6071 24.7307 14.6728 24.5089 14.7555 24.2937C14.9725 23.7323 15.4347 23.4122 16.0124 23.4141C16.5902 23.4159 17.0514 23.735 17.2609 24.303C17.4169 24.7232 17.5578 25.1452 17.6827 25.5794C17.7513 25.8152 17.8706 25.9135 18.1214 25.9022C18.5714 25.8844 19.0223 25.891 19.4723 25.9022C19.7493 25.8998 20.02 25.9846 20.2457 26.1445C20.4715 26.3044 20.6408 26.5312 20.7295 26.7926C20.8182 27.054 20.8218 27.3366 20.7398 27.6002C20.6578 27.8637 20.4943 28.0947 20.2727 28.2602C19.9194 28.541 19.5568 28.8067 19.1811 29.0519C18.9434 29.2072 18.8993 29.3682 19.0007 29.6264C19.1482 30.0101 19.2656 30.4059 19.3849 30.7998C19.5728 31.4137 19.3924 31.9826 18.9152 32.3242C18.438 32.6657 17.849 32.6685 17.3182 32.2998C16.9584 32.0509 16.6015 31.7973 16.2529 31.5334C16.082 31.4034 15.9467 31.3903 15.7691 31.5278C15.4244 31.7964 15.0655 32.0481 14.7057 32.297C14.1505 32.6816 13.5643 32.6881 13.0768 32.3251C12.6071 31.9742 12.4389 31.4193 12.6306 30.7952C12.7612 30.3666 12.919 29.9455 13.0289 29.5123C13.0393 29.4428 13.0336 29.3718 13.0123 29.3049C12.9909 29.2379 12.9545 29.1766 12.9058 29.1258C12.5592 28.8404 12.1815 28.5943 11.8217 28.3239C11.2994 27.9309 11.1059 27.3807 11.2825 26.8211C11.4591 26.2615 11.9589 25.9097 12.6231 25.8985C12.8213 25.8957 13.0139 25.8985 13.2083 25.8985Z" fill="#FF7A22"/>
</g>
<defs>
<clipPath id="clip0_1750_877">
<rect width="32" height="32.5926" fill="white"/>
</clipPath>
</defs>
</svg>
