<svg width="33" height="22" viewBox="0 0 33 22" fill="none" xmlns="http://www.w3.org/2000/svg">
<g id="Group 362">
<g id="Group 361">
<path id="Vector" d="M31.3443 0.186088H9.57711V1.84445C9.57711 2.24897 9.57711 2.65261 9.57711 3.05713C9.57118 3.6788 9.18932 4.10784 8.64573 4.11747C8.10215 4.1271 7.68387 3.67968 7.67964 3.05013C7.67286 2.23058 7.67964 1.41191 7.67964 0.592361V0.186088H7.3291C5.30124 0.186088 3.27337 0.200099 1.24551 0.176458C0.662974 0.169453 0.247239 0.356826 0 0.906694V7.33C0.236231 7.84309 0.622333 8.0401 1.17777 8.07074C2.64342 8.15305 3.79495 9.46293 3.80257 10.9838C3.80934 12.5213 2.65951 13.8426 1.17777 13.9284C0.622333 13.9608 0.236231 14.1561 0 14.67V21.0933C0.254012 21.6598 0.687528 21.8315 1.27684 21.8236C3.26237 21.7991 5.24874 21.8139 7.23427 21.8139H7.60513C7.60513 20.8797 7.60513 19.9752 7.60513 19.0734C7.59891 18.9318 7.60771 18.79 7.63138 18.6505C7.68173 18.4198 7.81062 18.2156 7.99452 18.0751C8.17842 17.9346 8.40505 17.8672 8.63303 17.8852C8.86698 17.9061 9.08503 18.0163 9.24469 18.1943C9.40435 18.3724 9.49418 18.6055 9.49667 18.8483C9.50853 19.6889 9.49667 20.5303 9.49667 21.3718V21.8096H31.3273C32.0707 21.8096 32.4399 21.4313 32.4399 20.6713V1.33836C32.4467 0.566971 32.0817 0.186088 31.3443 0.186088ZM9.49921 14.917C9.48482 15.4931 9.06824 15.9213 8.5382 15.9142C8.28758 15.9108 8.04847 15.8049 7.87315 15.6196C7.69783 15.4344 7.60055 15.1849 7.60259 14.9257C7.59243 14.2725 7.59243 13.619 7.60259 12.9653C7.60237 12.8366 7.62665 12.7092 7.67406 12.5902C7.72147 12.4712 7.79107 12.3631 7.8789 12.2719C7.96672 12.1808 8.07104 12.1084 8.18591 12.059C8.30078 12.0095 8.42394 11.984 8.54836 11.9837C8.79939 11.9837 9.04027 12.0862 9.21864 12.2688C9.39701 12.4515 9.49845 12.6996 9.50091 12.9591C9.51107 13.2962 9.50091 13.6342 9.50091 13.9722C9.5026 14.2848 9.50937 14.6009 9.50175 14.917H9.49921ZM9.49921 9.05052C9.49565 9.30938 9.39289 9.5562 9.2135 9.73678C9.03411 9.91736 8.79276 10.0169 8.54243 10.0137C8.29194 10.01 8.05296 9.90431 7.87733 9.71957C7.7017 9.53484 7.60359 9.28595 7.60428 9.02689C7.59582 8.70029 7.60428 8.37282 7.60428 8.04623C7.60428 7.71964 7.59666 7.39304 7.60428 7.06645C7.60517 6.8074 7.70478 6.55916 7.88152 6.37557C8.05826 6.19199 8.29786 6.08786 8.54836 6.08579C8.67255 6.08464 8.79574 6.10883 8.91088 6.157C9.02601 6.20516 9.13082 6.27634 9.21931 6.36646C9.30779 6.45658 9.37822 6.56387 9.42654 6.68219C9.47486 6.8005 9.50013 6.92751 9.50091 7.05594C9.51333 7.72255 9.51276 8.38712 9.49921 9.04965V9.05052ZM15.3356 7.05069C15.3382 6.66205 15.415 6.27778 15.5614 5.91985C15.7078 5.56192 15.9211 5.23736 16.1889 4.96476C16.4568 4.69215 16.774 4.47684 17.1224 4.33115C17.4709 4.18547 17.8436 4.11226 18.2195 4.11572C18.9721 4.12701 19.69 4.44471 20.2175 4.9999C20.745 5.55509 21.0396 6.30299 21.0373 7.08133C21.0341 7.46959 20.9569 7.8534 20.8103 8.21082C20.6636 8.56825 20.4502 8.89229 20.1824 9.16443C19.9146 9.43657 19.5976 9.6515 19.2495 9.79691C18.9013 9.94232 18.5289 10.0154 18.1534 10.0119C17.4014 10.0006 16.684 9.68342 16.1565 9.12898C15.6291 8.57455 15.3342 7.82755 15.3356 7.04981V7.05069ZM17.6632 17.7162C17.2085 17.4071 17.101 16.8161 17.4295 16.3056C19.9425 12.4017 22.4581 8.49949 24.9762 4.59905C25.2471 4.18052 25.6468 4.03342 26.0718 4.17176C26.2678 4.23873 26.4401 4.36466 26.5665 4.53343C26.6929 4.7022 26.7677 4.90614 26.7814 5.11914C26.7018 5.31615 26.651 5.53417 26.5384 5.70929C24.0338 9.60565 21.5247 13.4988 19.0111 17.3887C18.6818 17.8983 18.1162 18.0253 17.6632 17.7153V17.7162ZM25.7966 17.8817C25.0387 17.8801 24.3123 17.5674 23.7771 17.0123C23.2419 16.4572 22.9417 15.7052 22.9424 14.9213C22.9475 14.1429 23.2493 13.3979 23.7822 12.8481C24.3151 12.2983 25.0362 11.9881 25.789 11.9846C26.1645 11.985 26.5362 12.0618 26.8829 12.2107C27.2297 12.3596 27.5446 12.5777 27.8098 12.8526C28.075 13.1274 28.2853 13.4536 28.4286 13.8124C28.5719 14.1713 28.6454 14.5558 28.645 14.9441C28.6396 15.7228 28.3375 16.4679 27.8043 17.0177C27.271 17.5674 26.5496 17.8776 25.7966 17.8808V17.8817Z" fill="#FF7A22"/>
<path id="Vector_2" d="M19.1327 7.05697C19.1326 7.31516 19.0353 7.56317 18.8615 7.7485C18.6876 7.93383 18.4509 8.04192 18.2013 8.04988C18.075 8.05068 17.9499 8.02575 17.8329 7.9765C17.716 7.92724 17.6095 7.85464 17.5197 7.76283C17.4299 7.67103 17.3585 7.56182 17.3095 7.44146C17.2606 7.32109 17.235 7.19192 17.2344 7.06134C17.2385 6.80324 17.3398 6.55698 17.5167 6.37486C17.6936 6.19274 17.9322 6.08909 18.1818 6.08594C18.4313 6.08838 18.67 6.19108 18.8474 6.37232C19.0249 6.55356 19.1272 6.7991 19.1327 7.05697Z" fill="#FF7A22"/>
<path id="Vector_3" d="M26.7429 14.932C26.7399 15.1901 26.64 15.4369 26.4643 15.6202C26.2886 15.8035 26.0509 15.909 25.8014 15.9144C25.6751 15.914 25.5502 15.8878 25.4337 15.8374C25.3172 15.787 25.2115 15.7133 25.1225 15.6206C25.0336 15.5279 24.9632 15.418 24.9154 15.2971C24.8675 15.1763 24.8432 15.0469 24.8438 14.9163C24.8514 14.6588 24.9555 14.4145 25.134 14.2348C25.3125 14.0551 25.5514 13.9541 25.8005 13.9531C26.0497 13.9581 26.2873 14.063 26.4631 14.2456C26.6389 14.4282 26.7392 14.6744 26.7429 14.932Z" fill="#FF7A22"/>
</g>
<g id="Group 362_2">
<path id="Vector_4" d="M31.3443 0.186088H9.57711V1.84445C9.57711 2.24897 9.57711 2.65261 9.57711 3.05713C9.57118 3.6788 9.18932 4.10784 8.64573 4.11747C8.10215 4.1271 7.68387 3.67968 7.67964 3.05013C7.67286 2.23058 7.67964 1.41191 7.67964 0.592361V0.186088H7.3291C5.30124 0.186088 3.27337 0.200099 1.24551 0.176458C0.662974 0.169453 0.247239 0.356826 0 0.906694V7.33C0.236231 7.84309 0.622333 8.0401 1.17777 8.07074C2.64342 8.15305 3.79495 9.46293 3.80257 10.9838C3.80934 12.5213 2.65951 13.8426 1.17777 13.9284C0.622333 13.9608 0.236231 14.1561 0 14.67V21.0933C0.254012 21.6598 0.687528 21.8315 1.27684 21.8236C3.26237 21.7991 5.24874 21.8139 7.23427 21.8139H7.60513C7.60513 20.8797 7.60513 19.9752 7.60513 19.0734C7.59891 18.9318 7.60771 18.79 7.63138 18.6505C7.68173 18.4198 7.81062 18.2156 7.99452 18.0751C8.17842 17.9346 8.40505 17.8672 8.63303 17.8852C8.86698 17.9061 9.08503 18.0163 9.24469 18.1943C9.40435 18.3724 9.49418 18.6055 9.49667 18.8483C9.50853 19.6889 9.49667 20.5303 9.49667 21.3718V21.8096H31.3273C32.0707 21.8096 32.4399 21.4313 32.4399 20.6713V1.33836C32.4467 0.566971 32.0817 0.186088 31.3443 0.186088ZM9.49921 14.917C9.48482 15.4931 9.06824 15.9213 8.5382 15.9142C8.28758 15.9108 8.04847 15.8049 7.87315 15.6196C7.69783 15.4344 7.60055 15.1849 7.60259 14.9257C7.59243 14.2725 7.59243 13.619 7.60259 12.9653C7.60237 12.8366 7.62665 12.7092 7.67406 12.5902C7.72147 12.4712 7.79107 12.3631 7.8789 12.2719C7.96672 12.1808 8.07104 12.1084 8.18591 12.059C8.30078 12.0095 8.42394 11.984 8.54836 11.9837C8.79939 11.9837 9.04027 12.0862 9.21864 12.2688C9.39701 12.4515 9.49845 12.6996 9.50091 12.9591C9.51107 13.2962 9.50091 13.6342 9.50091 13.9722C9.5026 14.2848 9.50937 14.6009 9.50175 14.917H9.49921ZM9.49921 9.05052C9.49565 9.30938 9.39289 9.5562 9.2135 9.73678C9.03411 9.91736 8.79276 10.0169 8.54243 10.0137C8.29194 10.01 8.05296 9.90431 7.87733 9.71957C7.7017 9.53484 7.60359 9.28595 7.60428 9.02689C7.59582 8.70029 7.60428 8.37282 7.60428 8.04623C7.60428 7.71964 7.59666 7.39304 7.60428 7.06645C7.60517 6.8074 7.70478 6.55916 7.88152 6.37557C8.05826 6.19199 8.29786 6.08786 8.54836 6.08579C8.67255 6.08464 8.79574 6.10883 8.91088 6.157C9.02601 6.20516 9.13082 6.27634 9.21931 6.36646C9.30779 6.45658 9.37822 6.56387 9.42654 6.68219C9.47486 6.8005 9.50013 6.92751 9.50091 7.05594C9.51333 7.72255 9.51276 8.38712 9.49921 9.04965V9.05052ZM15.3356 7.05069C15.3382 6.66205 15.415 6.27778 15.5614 5.91985C15.7078 5.56192 15.9211 5.23736 16.1889 4.96476C16.4568 4.69215 16.774 4.47684 17.1224 4.33115C17.4709 4.18547 17.8436 4.11226 18.2195 4.11572C18.9721 4.12701 19.69 4.44471 20.2175 4.9999C20.745 5.55509 21.0396 6.30299 21.0373 7.08133C21.0341 7.46959 20.9569 7.8534 20.8103 8.21082C20.6636 8.56825 20.4502 8.89229 20.1824 9.16443C19.9146 9.43657 19.5976 9.6515 19.2495 9.79691C18.9013 9.94232 18.5289 10.0154 18.1534 10.0119C17.4014 10.0006 16.684 9.68342 16.1565 9.12898C15.6291 8.57455 15.3342 7.82755 15.3356 7.04981V7.05069ZM17.6632 17.7162C17.2085 17.4071 17.101 16.8161 17.4295 16.3056C19.9425 12.4017 22.4581 8.49949 24.9762 4.59905C25.2471 4.18052 25.6468 4.03342 26.0718 4.17176C26.2678 4.23873 26.4401 4.36466 26.5665 4.53343C26.6929 4.7022 26.7677 4.90614 26.7814 5.11914C26.7018 5.31615 26.651 5.53417 26.5384 5.70929C24.0338 9.60565 21.5247 13.4988 19.0111 17.3887C18.6818 17.8983 18.1162 18.0253 17.6632 17.7153V17.7162ZM25.7966 17.8817C25.0387 17.8801 24.3123 17.5674 23.7771 17.0123C23.2419 16.4572 22.9417 15.7052 22.9424 14.9213C22.9475 14.1429 23.2493 13.3979 23.7822 12.8481C24.3151 12.2983 25.0362 11.9881 25.789 11.9846C26.1645 11.985 26.5362 12.0618 26.8829 12.2107C27.2297 12.3596 27.5446 12.5777 27.8098 12.8526C28.075 13.1274 28.2853 13.4536 28.4286 13.8124C28.5719 14.1713 28.6454 14.5558 28.645 14.9441C28.6396 15.7228 28.3375 16.4679 27.8043 17.0177C27.271 17.5674 26.5496 17.8776 25.7966 17.8808V17.8817Z" fill="#FF7A22"/>
<path id="Vector_5" d="M19.1327 7.05697C19.1326 7.31516 19.0353 7.56317 18.8615 7.7485C18.6876 7.93383 18.4509 8.04192 18.2013 8.04988C18.075 8.05068 17.9499 8.02575 17.8329 7.9765C17.716 7.92724 17.6095 7.85464 17.5197 7.76283C17.4299 7.67103 17.3585 7.56182 17.3095 7.44146C17.2606 7.32109 17.235 7.19192 17.2344 7.06134C17.2385 6.80324 17.3398 6.55698 17.5167 6.37486C17.6936 6.19274 17.9322 6.08909 18.1818 6.08594C18.4313 6.08838 18.67 6.19108 18.8474 6.37232C19.0249 6.55356 19.1272 6.7991 19.1327 7.05697Z" fill="#FF7A22"/>
<path id="Vector_6" d="M26.7429 14.932C26.7399 15.1901 26.64 15.4369 26.4643 15.6202C26.2886 15.8035 26.0509 15.909 25.8014 15.9144C25.6751 15.914 25.5502 15.8878 25.4337 15.8374C25.3172 15.787 25.2115 15.7133 25.1225 15.6206C25.0336 15.5279 24.9632 15.418 24.9154 15.2971C24.8675 15.1763 24.8432 15.0469 24.8438 14.9163C24.8514 14.6588 24.9555 14.4145 25.134 14.2348C25.3125 14.0551 25.5514 13.9541 25.8005 13.9531C26.0497 13.9581 26.2873 14.063 26.4631 14.2456C26.6389 14.4282 26.7392 14.6744 26.7429 14.932Z" fill="#FF7A22"/>
</g>
</g>
</svg>
