<svg width="33" height="34" viewBox="0 0 33 34" fill="none" xmlns="http://www.w3.org/2000/svg">
<g clip-path="url(#clip0_904_15227)">
<path d="M29.5511 0.501953C20.8459 0.501953 12.1407 0.501953 3.43548 0.501953C1.4205 0.501953 0 1.92455 0 3.94511C0 7.14221 0 10.3383 0 13.5334C0 15.5913 1.41452 16.999 3.48178 16.999H10.998C10.998 17.7192 11.007 18.3828 10.998 19.0479C10.998 19.5802 11.1787 19.9977 11.6806 20.2095C12.1825 20.4212 12.6082 20.2512 12.9816 19.8725C13.851 18.9912 14.7352 18.1263 15.603 17.2435C15.6774 17.1596 15.7697 17.0936 15.8731 17.0502C15.9766 17.0068 16.0885 16.9873 16.2005 16.993C20.6447 17.001 25.0889 17.001 29.5332 16.993C31.581 16.993 32.997 15.5853 33 13.5484C33 10.3413 33 7.13376 33 3.92572C32.9955 1.9156 31.575 0.503444 29.5511 0.501953ZM12.0959 12.6164C12.0836 12.8995 11.9619 13.1669 11.7562 13.3622C11.5505 13.5576 11.2769 13.6656 10.993 13.6637C10.7092 13.6618 10.4371 13.55 10.2341 13.3519C10.0311 13.1538 9.91299 12.8847 9.90463 12.6015C9.89417 11.6993 9.90463 10.7956 9.90463 9.8681H7.70144C7.70144 10.7181 7.70144 11.5517 7.70144 12.3852C7.70817 12.5348 7.69967 12.6847 7.67605 12.8326C7.62128 13.0998 7.46858 13.3369 7.24784 13.4976C7.0271 13.6582 6.75424 13.7308 6.48269 13.7012C6.21114 13.6715 5.96046 13.5417 5.77975 13.3372C5.59905 13.1327 5.50133 12.8682 5.50573 12.5955C5.50573 10.7285 5.50573 8.86752 5.50573 6.99309C5.51077 6.83327 5.52926 6.67414 5.561 6.51741C5.7044 5.71469 6.14079 4.99356 6.78581 4.49338C7.43084 3.99321 8.2387 3.74952 9.05324 3.80941C10.6963 3.92721 12.0585 5.3006 12.0884 6.9409C12.1302 8.83471 12.1048 10.7255 12.0959 12.6164ZM19.8018 11.4234C19.8065 11.5899 19.7762 11.7555 19.7129 11.9096C19.6497 12.0637 19.5548 12.2029 19.4344 12.3181C19.1103 12.6735 18.7662 13.01 18.4037 13.3262C18.161 13.5254 17.8649 13.6488 17.5523 13.6811C16.4888 13.7213 15.4238 13.702 14.3588 13.696C13.6598 13.696 13.2042 13.2292 13.2027 12.5254C13.2027 11.2549 13.2027 9.98293 13.2027 8.71243C13.2027 7.48668 13.2027 6.26142 13.2027 5.03666C13.2027 4.23738 13.6359 3.79897 14.4275 3.79748C15.4462 3.79748 16.4649 3.79748 17.4851 3.79748C17.6683 3.79073 17.8508 3.82377 18.02 3.89431C18.1891 3.96485 18.341 4.07122 18.4649 4.20606C18.7816 4.53562 19.1087 4.85622 19.4344 5.17832C19.555 5.29345 19.6502 5.43256 19.7138 5.58666C19.7773 5.74076 19.8078 5.90644 19.8033 6.07303C19.7993 7.85848 19.7988 9.64393 19.8018 11.4294V11.4234ZM27.4704 11.0789C27.2209 12.585 26.0349 13.6587 24.5577 13.69C23.7108 13.7079 22.8639 13.702 22.0184 13.69C21.8741 13.6888 21.7313 13.6593 21.5984 13.6031C21.4655 13.5468 21.3449 13.465 21.2437 13.3622C21.1424 13.2595 21.0624 13.1378 21.0083 13.0042C20.9541 12.8706 20.9269 12.7277 20.928 12.5836C20.9292 12.4394 20.9588 12.2969 21.0151 12.1642C21.0715 12.0315 21.1535 11.9112 21.2564 11.8101C21.3593 11.709 21.4811 11.6292 21.615 11.5751C21.7488 11.521 21.892 11.4938 22.0364 11.495C22.8146 11.4875 23.5928 11.495 24.3725 11.495C24.9311 11.495 25.306 11.1475 25.2986 10.6569C25.2911 10.1663 24.9221 9.83828 24.3799 9.85021C23.6465 9.86661 22.946 9.77863 22.3082 9.37303C21.7634 9.02652 21.3438 8.51521 21.1107 7.91376C20.8776 7.31231 20.8432 6.65223 21.0125 6.02988C21.1819 5.40753 21.546 4.85552 22.0519 4.45443C22.5577 4.05335 23.1787 3.82421 23.8243 3.80046C24.2365 3.78853 24.6488 3.80046 25.0611 3.80046H26.2276C26.9924 3.80046 27.4943 4.2329 27.4988 4.89201C27.5032 5.55112 26.9984 5.99996 26.2112 5.99996C25.4898 5.99996 24.7683 5.99996 24.0469 5.99996C23.4793 5.99996 23.1058 6.32952 23.1043 6.81863C23.1028 7.30774 23.4763 7.61939 24.0394 7.65518C24.5368 7.68799 25.0566 7.69992 25.5211 7.85649C26.1707 8.08538 26.7203 8.5326 27.0759 9.12157C27.4315 9.71053 27.571 10.4046 27.4704 11.0849V11.0789Z" fill="#FF7A22"/>
<path d="M13.1997 27.4573C13.1997 26.8787 12.8442 26.5 12.1003 26.3166C12.1003 25.1236 12.1003 23.9202 12.1003 22.7183C12.1073 22.5687 12.0983 22.4187 12.0735 22.271C11.9241 21.5716 11.2325 21.2271 10.5245 21.506C8.86652 22.1621 7.213 22.8317 5.55501 23.4863C5.37537 23.5556 5.18451 23.5915 4.9919 23.5922C3.72077 23.6011 2.45263 23.5922 1.17852 23.5922C0.47499 23.5922 0.00597474 24.0514 0.00448106 24.7463C-0.00149369 26.5447 -0.00149369 28.3431 0.00448106 30.1415C-0.0024879 30.2937 0.0223385 30.4457 0.0773876 30.5879C0.132437 30.7301 0.2165 30.8592 0.324241 30.9672C0.431983 31.0752 0.561052 31.1596 0.703233 31.2151C0.845414 31.2707 0.997601 31.296 1.15014 31.2897C1.4907 31.2897 1.83126 31.2897 2.19572 31.2897C2.19572 31.664 2.19572 32.0054 2.19572 32.3454C2.20617 32.9941 2.66772 33.4802 3.27714 33.4892C3.88657 33.4981 4.38247 33.009 4.39293 32.3454C4.39293 32.004 4.39293 31.664 4.39293 31.2181C4.85747 31.3016 5.2981 31.312 5.68646 31.4612C7.29964 32.077 8.89341 32.7406 10.4991 33.3729C11.358 33.7114 12.0854 33.2088 12.0914 32.2888C12.0914 31.4522 12.0914 30.6157 12.0914 29.7806V28.5623C12.8218 28.4221 13.1952 28.0299 13.1997 27.4573ZM4.38695 29.0723H2.22709V25.8155H4.38247L4.38695 29.0723Z" fill="#FF7A22"/>
<path d="M17.5803 10.9058C17.5728 11.1101 17.2412 11.4367 17.0216 11.474C16.5108 11.559 15.976 11.5008 15.4219 11.5008V6.00281C15.9716 6.00281 16.5153 5.94466 17.0351 6.02965C17.2516 6.06544 17.5743 6.40245 17.5803 6.61122C17.6281 8.04276 17.6281 9.4743 17.5803 10.9058Z" fill="#FF7A22"/>
<path d="M9.87908 7.62834H7.71921C7.64751 6.5845 8.04483 5.99996 8.80362 6.00294C9.56242 6.00592 9.9687 6.60538 9.87908 7.62834Z" fill="#FF7A22"/>
</g>
<defs>
<clipPath id="clip0_904_15227">
<rect width="33" height="33" fill="white" transform="translate(0 0.5)"/>
</clipPath>
</defs>
</svg>
