<svg width="33" height="28" viewBox="0 0 33 28" fill="none" xmlns="http://www.w3.org/2000/svg">
<g clip-path="url(#clip0_904_15235)">
<path d="M8.63365 13.9973C8.55634 14.082 8.49055 14.1542 8.41983 14.2311C7.07285 15.5981 6.22229 17.3421 5.99372 19.2056C5.77825 20.756 5.82924 22.3111 5.85227 23.8677C5.86214 24.4609 5.85227 25.0541 5.85227 25.6833C5.70997 25.7035 5.56669 25.7166 5.42297 25.7226C4.28476 25.7226 3.14654 25.7226 2.00997 25.7226C1.0017 25.7132 0.375021 25.2597 0.0542818 24.3354C0.0460577 24.3087 0.018093 24.2883 0 24.2648V16.6948C0.0509894 16.4986 0.0953983 16.3009 0.152967 16.1048C0.393454 15.2528 0.915025 14.4974 1.64049 13.9503C2.36596 13.4031 3.25677 13.0933 4.18113 13.0667C5.123 13.0526 6.06482 13.0982 7.00035 13.2033C7.61386 13.2754 8.1435 13.5971 8.63365 13.9973Z" fill="#FF7A22"/>
<path d="M25.1768 25.7195C25.1473 26.0038 25.0643 26.2808 24.9317 26.537C24.8375 26.8023 24.6648 27.0359 24.4346 27.2096C24.2043 27.3834 23.9262 27.4899 23.634 27.5162C22.5467 27.6167 21.4546 27.6888 20.3624 27.7139C18.9462 27.7469 17.5284 27.7234 16.1106 27.7234V27.692C14.1878 27.692 12.2666 27.692 10.3438 27.6841C9.96968 27.694 9.59663 27.6409 9.2418 27.5272C8.34702 27.1992 7.83219 26.5386 7.81245 25.6269C7.77627 23.8772 7.74666 22.1228 7.81245 20.3747C7.92266 17.5689 9.21713 15.3955 11.8159 13.9942C12.8713 13.435 14.0465 13.113 15.252 13.0526C16.6468 12.9663 18.0482 12.9459 19.415 13.266C22.3757 13.9565 24.9136 16.7184 25.1143 19.6104C25.2574 21.6379 25.1817 23.6826 25.1768 25.7195Z" fill="#FF7A22"/>
<path d="M22.105 5.61409C22.106 6.67212 21.7781 7.70667 21.1628 8.5869C20.5474 9.46714 19.6724 10.1535 18.6482 10.5593C17.6239 10.965 16.4966 11.0719 15.4087 10.8664C14.3209 10.6609 13.3213 10.1523 12.5364 9.40479C11.7516 8.65731 11.2166 7.70457 10.9993 6.66705C10.782 5.62953 10.8921 4.55383 11.3156 3.57598C11.7391 2.59813 12.457 1.76204 13.3785 1.17346C14.3001 0.584872 15.3839 0.270219 16.4929 0.269287C17.9795 0.2697 19.4052 0.832644 20.4573 1.83463C21.5094 2.83661 22.102 4.19582 22.105 5.61409Z" fill="#FF7A22"/>
<path d="M32.9967 23.7954C32.9967 24.839 32.2631 25.6487 31.1743 25.6973C29.9094 25.7538 28.6412 25.7193 27.3747 25.7193C27.2932 25.7113 27.2128 25.6956 27.1346 25.6722V25.3349C27.1346 23.7656 27.1642 22.1791 27.1346 20.6036C27.0869 18.5448 26.5885 16.6099 25.2217 14.9544C24.9585 14.6405 24.6739 14.3267 24.3828 13.9987C25.0067 13.457 25.8058 13.1348 26.6477 13.0854C27.6741 13.0258 28.7103 12.9411 29.7252 13.1843C30.6601 13.4072 31.4902 13.9217 32.0835 14.6461C32.6768 15.3705 32.9994 16.2633 33 17.1827C33.0066 19.388 33.0055 21.5922 32.9967 23.7954Z" fill="#FF7A22"/>
<path d="M8.69855 7.59337C8.69855 8.26261 8.49041 8.9168 8.10048 9.47312C7.71056 10.0294 7.15639 10.4629 6.50813 10.7185C5.85987 10.9742 5.14666 11.0406 4.45881 10.9094C3.77096 10.7781 3.13939 10.4551 2.64407 9.98124C2.14875 9.50736 1.81194 8.90392 1.67628 8.24732C1.54063 7.59071 1.61224 6.91047 1.88204 6.29271C2.15183 5.67496 2.60768 5.14746 3.19188 4.77701C3.77608 4.40656 4.46236 4.20982 5.16383 4.21168C6.10127 4.21706 6.99855 4.57536 7.66051 5.20866C8.32246 5.84195 8.69553 6.69901 8.69855 7.59337Z" fill="#FF7A22"/>
<path d="M31.386 7.57398C31.3886 8.24314 31.1831 8.898 30.7954 9.45566C30.4077 10.0133 29.8553 10.4487 29.2082 10.7067C28.561 10.9647 27.8482 11.0338 27.1598 10.9051C26.4715 10.7764 25.8387 10.4558 25.3415 9.98384C24.8442 9.51188 24.505 8.90979 24.3666 8.25377C24.2282 7.59776 24.2969 6.91732 24.564 6.29858C24.8312 5.67985 25.2847 5.15064 25.8672 4.77793C26.4498 4.40522 27.1351 4.20577 27.8365 4.20483C28.7744 4.20606 29.6737 4.56086 30.3386 5.19194C31.0035 5.82302 31.3799 6.67923 31.386 7.57398Z" fill="#FF7A22"/>
</g>
<defs>
<clipPath id="clip0_904_15235">
<rect width="33" height="27.4615" fill="white" transform="translate(0 0.269287)"/>
</clipPath>
</defs>
</svg>
