<svg width="33" height="32" viewBox="0 0 33 32" fill="none" xmlns="http://www.w3.org/2000/svg">
<g clip-path="url(#clip0_904_15245)">
<path d="M30.4523 15.6172C30.4523 15.4804 30.4385 15.3459 30.4294 15.1795C29.8094 15.2147 29.1903 15.0979 28.6265 14.8396C28.0626 14.5812 27.5714 14.1892 27.1959 13.6979C26.9191 14.0795 26.5682 14.4022 26.1638 14.6469C25.7594 14.8916 25.3097 15.0533 24.8414 15.1226C24.2423 15.1853 23.6392 15.2013 23.0376 15.1704C22.5293 15.1601 22.0291 15.0422 21.5704 14.8244C21.1118 14.6066 20.7052 14.2941 20.3779 13.9076L20.1484 13.6501C19.18 14.7898 17.9431 15.1978 16.4766 15.1978C15.0102 15.1978 13.794 14.7715 12.8324 13.6455C12.5557 14.0359 12.2032 14.3674 11.7958 14.6206C11.3883 14.8739 10.934 15.0438 10.4595 15.1203C9.9116 15.1781 9.36021 15.1972 8.80954 15.1773C8.26226 15.1895 7.71935 15.0778 7.22195 14.8507C6.72456 14.6236 6.28572 14.2871 5.93868 13.8666C5.88864 13.8158 5.83578 13.7679 5.78033 13.723C4.81879 14.7784 4.369 14.9881 2.56753 15.216C2.56753 15.3209 2.54688 15.4075 2.54688 15.4964C2.54688 20.5111 2.54688 25.5258 2.54688 30.5405C2.54688 31.1901 2.85439 31.4842 3.52678 31.4888C4.46308 31.4888 5.39938 31.4888 6.33568 31.4888C6.43436 31.4888 6.53075 31.4682 6.6432 31.4568V30.9713C6.6432 27.1374 6.6432 23.3041 6.6432 19.4717C6.6432 18.7172 6.92547 18.4391 7.69195 18.4391H13.6953C14.6132 18.4391 14.8565 18.6876 14.8565 19.5925C14.8565 23.4022 14.8565 27.2103 14.8565 31.0169C14.8565 31.1651 14.8565 31.3109 14.8771 31.491H29.3347C30.1769 31.491 30.4362 31.2335 30.4362 30.3969L30.4523 15.6172ZM26.3537 25.6466C26.3537 26.294 26.0416 26.6108 25.3898 26.6131C23.5708 26.6131 21.751 26.6131 19.9304 26.6131C19.2764 26.6131 18.9666 26.294 18.9666 25.6466C18.9666 23.5724 18.9666 21.4973 18.9666 19.4215C18.9666 18.7651 19.2718 18.4596 19.9281 18.4573C21.7502 18.4573 23.5708 18.4573 25.3898 18.4573C26.0462 18.4573 26.3514 18.7651 26.3537 19.4193C26.3537 20.4632 26.3537 21.5072 26.3537 22.5512C26.3537 23.5951 26.3468 24.6049 26.3468 25.6375L26.3537 25.6466Z" fill="#FF7A22"/>
<path d="M17.023 13.5516C16.844 13.5516 16.665 13.5516 16.4263 13.5516C16.0655 13.5944 15.6996 13.56 15.3533 13.4507C15.007 13.3414 14.6882 13.1597 14.4183 12.9179C14.1269 12.6665 13.9016 12.3482 13.7621 11.9907C13.6225 11.6333 13.5729 11.2473 13.6174 10.8665C13.9823 7.51574 14.3633 4.165 14.7304 0.814269C14.7557 0.600005 14.8153 0.499712 15.054 0.501991C16.0163 0.512628 16.9779 0.512628 17.9386 0.501991C18.1681 0.501991 18.2439 0.584054 18.2691 0.805157C18.6363 4.15589 19.0149 7.50663 19.3844 10.8574C19.4185 11.1905 19.3835 11.5269 19.2815 11.8461C19.1795 12.1652 19.0127 12.4601 18.7913 12.7126C18.57 12.9651 18.2989 13.1699 17.9947 13.3142C17.6906 13.4585 17.3598 13.5393 17.023 13.5516Z" fill="#FF7A22"/>
<path d="M24.0241 13.5565H23.2163C22.6973 13.5696 22.1926 13.3861 21.8048 13.0432C21.417 12.7003 21.175 12.2237 21.128 11.7101C20.7792 8.65117 20.4395 5.5922 20.1045 2.53323C20.0311 1.87675 19.9553 1.22029 19.875 0.520508H23.2645C23.533 1.48242 23.8038 2.44888 24.0723 3.41308C24.7607 5.87484 25.4492 8.33585 26.1377 10.7961C26.5691 12.3507 25.6512 13.5519 24.0241 13.5565Z" fill="#FF7A22"/>
<path d="M13.1098 0.511392C13.0524 1.05617 13.0019 1.58272 12.9445 2.10698C12.5865 5.29816 12.2285 8.48325 11.8706 11.6623C11.8275 12.1814 11.5873 12.6648 11.1986 13.0144C10.81 13.3641 10.302 13.5538 9.77765 13.5451C9.36767 13.5637 8.95695 13.5584 8.54761 13.5291C7.2556 13.3878 6.48223 12.1615 6.83564 10.8599C7.44607 8.65346 8.06798 6.45155 8.67152 4.24963C8.9928 3.11145 9.31255 1.97173 9.63077 0.830509C9.6606 0.721097 9.69962 0.616248 9.73404 0.506836L13.1098 0.511392Z" fill="#FF7A22"/>
<path d="M8.03161 0.511273C7.65066 1.87892 7.29267 3.16907 6.93008 4.46378L4.87618 11.8103C4.53425 13.0344 3.8435 13.5632 2.56986 13.5609C2.31409 13.5719 2.05785 13.5636 1.80337 13.5358C0.341546 13.3079 -0.395098 11.9539 0.215333 10.5726C1.18376 8.38664 2.16824 6.20525 3.14585 4.02157C3.50614 3.2215 3.86874 2.42598 4.21986 1.61679C4.34785 1.27668 4.58181 0.986043 4.88767 0.787198C5.19353 0.588353 5.55532 0.491685 5.92034 0.511273H8.03161Z" fill="#FF7A22"/>
<path d="M30.8633 13.5546C30.6339 13.5546 30.4044 13.5546 30.1749 13.5546C29.7349 13.5588 29.3056 13.4201 28.9522 13.1596C28.5989 12.8992 28.3409 12.5312 28.2174 12.1118C27.1465 8.32946 26.0877 4.54563 25.0413 0.760284C25.0206 0.691901 25.0161 0.616681 25 0.532342C25.8284 0.532342 26.6362 0.493592 27.4371 0.546018C28.1256 0.589327 28.5364 1.06572 28.814 1.68572C29.8605 4.0472 30.9207 6.40184 31.9741 8.75191C32.2494 9.36735 32.534 9.98051 32.8002 10.5982C33.4336 12.0821 32.4904 13.525 30.8633 13.5546Z" fill="#FF7A22"/>
</g>
<defs>
<clipPath id="clip0_904_15245">
<rect width="33" height="31" fill="white" transform="translate(0 0.5)"/>
</clipPath>
</defs>
</svg>
