<svg width="36" height="24" viewBox="0 0 36 24" fill="none" xmlns="http://www.w3.org/2000/svg">
<g id="Group 371">
<path id="Vector" d="M31.7439 10.6275C28.8638 10.6275 25.9836 10.6425 23.1034 10.6275C22.3853 10.6275 21.9612 10.9272 21.7067 11.5548C21.6445 11.7113 21.5899 11.8696 21.5371 12.0279C21.3128 12.6877 21.0904 13.3474 20.8585 14.041C19.4467 13.3436 18.0613 12.6632 16.6815 11.9676C16.625 11.9394 16.5873 11.7904 16.6042 11.7113C16.674 11.3965 16.7777 11.0874 16.8531 10.7688C16.8656 10.6902 16.9039 10.6179 16.9618 10.5634C17.0198 10.5088 17.0943 10.475 17.1735 10.4672C17.6084 10.367 18.0308 10.2185 18.4326 10.0243C18.5261 9.96523 18.6044 9.88496 18.6611 9.78998C18.7177 9.695 18.7512 9.588 18.7587 9.47766C18.7587 9.3476 18.459 9.22508 18.2837 9.11198C18.2178 9.08043 18.1471 9.06004 18.0745 9.05166C17.0397 8.80285 16.0011 8.5465 14.9663 8.309C14.6624 8.23536 14.3515 8.19429 14.0389 8.18648C13.8908 8.17455 13.7426 8.20825 13.6142 8.28306C13.4858 8.35787 13.3834 8.4702 13.3207 8.60494C13.1888 8.8971 13.2793 9.046 13.5997 9.05731C14.4309 9.08747 15.1548 9.33063 15.692 10.0167C15.7447 10.0695 15.7818 10.1358 15.7991 10.2083C15.8164 10.2809 15.8132 10.3568 15.79 10.4277C15.4507 11.6887 15.1227 12.9534 14.7947 14.2163C14.6647 14.7158 14.5403 15.2191 14.4177 15.7243L14.3065 15.7846C14.2541 15.6815 14.1909 15.5842 14.118 15.4943C12.2331 13.6094 10.3513 11.7295 8.4727 9.85464C8.20693 9.58887 7.81864 9.35324 7.71874 9.03469C7.61883 8.71614 7.84503 8.31088 7.89216 7.93767C7.91862 7.73524 7.9957 7.54275 8.11629 7.37801C8.23688 7.21328 8.39708 7.08162 8.58204 6.99521C8.81741 6.8551 9.07118 6.74851 9.33601 6.67854C9.92788 6.55037 10.5292 6.46744 11.1267 6.36943C11.2 6.36422 11.2715 6.34443 11.337 6.31124C11.4026 6.27804 11.4608 6.2321 11.5084 6.1761C11.556 6.12011 11.5919 6.05518 11.6141 5.98513C11.6362 5.91507 11.6442 5.84131 11.6375 5.76814C11.6339 5.69772 11.6163 5.62871 11.5859 5.5651C11.5555 5.5015 11.5127 5.44456 11.4601 5.39758C11.4075 5.35061 11.3462 5.31453 11.2796 5.29142C11.2129 5.26831 11.1424 5.25864 11.072 5.26297C10.0391 5.31763 9.03064 5.49293 8.12022 6.01694C7.47558 6.39392 6.97042 6.88212 6.81962 7.6587C6.58778 8.83678 6.34464 10.0149 6.10526 11.1929C5.98462 11.7829 5.86022 12.3729 5.72827 12.9591H5.27589C4.20475 12.9506 3.15688 13.2715 2.27421 13.8784C1.39155 14.4853 0.716729 15.3488 0.341158 16.352C0.18848 16.7591 0.11121 17.1945 0 17.6148V18.7458C0.0207341 18.825 0.0471129 18.9041 0.0603073 18.9852C0.197672 19.8901 0.57002 20.7432 1.14018 21.4593C1.71034 22.1754 2.45836 22.7293 3.30956 23.0659C4.16076 23.4025 5.08536 23.5098 5.99104 23.3773C6.89672 23.2448 7.7518 22.8771 8.47091 22.3108C9.19002 21.7445 9.74801 20.9995 10.0891 20.1501C10.4303 19.3007 10.5426 18.3767 10.415 17.4703C10.2874 16.5639 9.92423 15.7069 9.3618 14.9848C8.79938 14.2626 8.05735 13.7006 7.20982 13.3549L6.83283 13.1985L7.39831 10.4465L13.5431 16.6347L13.3697 16.7647C13.0467 16.9937 12.7925 17.3068 12.6347 17.67C12.4768 18.0331 12.4214 18.4325 12.4744 18.825C12.5743 19.6807 13.0286 20.3329 13.8428 20.6269C14.2783 20.7815 14.3782 21.0039 14.3423 21.3979C14.3423 21.4582 14.3424 21.5185 14.331 21.5958C14.2029 21.5958 14.0898 21.5958 13.9767 21.6128C13.7644 21.6156 13.5615 21.7007 13.4107 21.8501C13.2599 21.9995 13.1729 22.2016 13.168 22.4139C13.1643 22.5192 13.1813 22.6243 13.2182 22.7231C13.2552 22.8218 13.3112 22.9123 13.3832 22.9894C13.4552 23.0664 13.5416 23.1285 13.6377 23.1721C13.7337 23.2156 13.8374 23.2398 13.9427 23.2432C14.642 23.2715 15.347 23.2734 16.0463 23.2432C16.1524 23.2403 16.2568 23.2157 16.3531 23.1709C16.4494 23.1261 16.5354 23.0621 16.6061 22.9829C16.6767 22.9036 16.7303 22.8107 16.7637 22.71C16.7971 22.6092 16.8096 22.5026 16.8003 22.3969C16.7944 22.1902 16.7087 21.9938 16.5611 21.8489C16.4134 21.7041 16.2154 21.6222 16.0086 21.6203C15.8371 21.609 15.6618 21.6203 15.4865 21.6203C15.4677 21.2904 15.4526 21.0115 15.4356 20.7193L15.6392 20.6892C17.3808 20.5233 19.1206 20.3631 20.8585 20.1878C20.9521 20.166 21.0505 20.1809 21.1335 20.2292C21.2165 20.2775 21.278 20.3558 21.3052 20.4479C21.7361 21.3398 22.4115 22.091 23.2528 22.6139C24.0941 23.1368 25.0666 23.4098 26.0571 23.4012C27.0477 23.3926 28.0153 23.1028 28.8475 22.5654C29.6796 22.028 30.3419 21.2653 30.7572 20.366C31.1725 19.4667 31.3237 18.4679 31.1932 17.486C31.0627 16.5041 30.6559 15.5795 30.0201 14.8199C29.3844 14.0603 28.5459 13.4969 27.6023 13.1955C26.6587 12.8941 25.6489 12.867 24.6906 13.1174C23.7066 13.3755 22.8171 13.9099 22.1271 14.6574L21.654 14.4218C22.5738 13.1382 24.7584 12.0713 26.9732 12.4671C28.1695 12.6667 29.2713 13.2417 30.1191 14.1089C31.1889 15.1846 31.7939 16.6369 31.8042 18.1539H32.1416V10.6275H31.7439ZM5.49077 14.0806C5.3494 14.7818 5.21746 15.4547 5.07044 16.1258C5.05724 16.1785 4.94792 16.2162 4.88195 16.2502C4.59167 16.384 4.30139 16.5216 4.00545 16.6422C3.91976 16.6802 3.82298 16.6849 3.73401 16.6554C3.16854 16.3388 2.60308 16.007 1.9886 15.6583C2.91598 14.5537 4.05069 14.0316 5.49077 14.0806ZM1.42499 19.7354C1.0263 18.7409 1.0263 17.631 1.42499 16.6366C2.04136 16.9909 2.62758 17.3265 3.20814 17.6714C3.23381 17.6926 3.25464 17.719 3.26927 17.7489C3.2839 17.7788 3.29198 17.8115 3.29295 17.8448C3.29295 18.071 3.29295 18.301 3.29295 18.529C3.29132 18.562 3.28314 18.5943 3.2689 18.6241C3.25467 18.6538 3.23466 18.6805 3.21002 18.7025C2.6257 19.0399 2.03947 19.3735 1.42499 19.7278V19.7354ZM4.6614 22.2442C3.60329 22.096 2.64386 21.5433 1.98483 20.7023L3.84147 19.6298C4.08085 19.7637 4.31082 19.8843 4.53135 20.0219C4.56466 20.0422 4.59305 20.0697 4.61455 20.1023C4.63606 20.1348 4.65012 20.1718 4.65574 20.2104C4.66517 20.8701 4.6614 21.5392 4.6614 22.2442ZM4.39373 18.169C4.3977 17.9477 4.4888 17.7369 4.64725 17.5823C4.8057 17.4277 5.01874 17.3419 5.24008 17.3434C5.4613 17.3493 5.67159 17.4408 5.82666 17.5987C5.98173 17.7565 6.06944 17.9685 6.07132 18.1897C6.06857 18.4122 5.97756 18.6245 5.81831 18.7798C5.65906 18.9352 5.44462 19.0209 5.22216 19.0182C4.9997 19.0154 4.78745 18.9244 4.63209 18.7652C4.47673 18.6059 4.39099 18.3915 4.39373 18.169ZM5.78669 22.2555V21.0228C5.79336 20.8972 5.79336 20.7714 5.78669 20.6458C5.74522 20.2782 5.78671 19.9748 6.22401 19.8636C6.36181 19.8007 6.48899 19.7167 6.60099 19.6147L8.46707 20.6929C7.81133 21.5431 6.84961 22.1038 5.78669 22.2555ZM9.03441 16.6328C9.43688 17.6246 9.43688 18.7342 9.03441 19.726C8.44254 19.3829 7.86954 19.0606 7.30784 18.7213C7.23055 18.6522 7.18377 18.5553 7.17776 18.4518C7.15514 18.2766 7.15514 18.0992 7.17776 17.924C7.1851 17.8108 7.23572 17.7049 7.31913 17.628C7.87141 17.2925 8.435 16.9759 9.03441 16.6328ZM8.46893 15.6583L7.29463 16.3406C7.20415 16.3934 7.10615 16.4481 7.02321 16.499C6.4747 16.7987 6.69711 16.81 6.1599 16.4198C6.30127 15.7337 6.44265 15.04 6.59156 14.3106C7.33394 14.5699 7.98577 15.0379 8.46893 15.6583ZM15.3263 19.4281C15.3036 19.1492 15.281 18.8966 15.2641 18.6459C15.2358 18.2256 15.004 17.9692 14.6647 17.9881C14.3254 18.0069 14.1199 18.2765 14.1407 18.7025C14.1539 18.9626 14.1784 19.2208 14.1991 19.5186C13.9888 19.4149 13.8176 19.2461 13.7109 19.0372C13.6043 18.8284 13.5678 18.5908 13.607 18.3596C13.6461 18.1284 13.7588 17.916 13.9283 17.754C14.0978 17.592 14.3151 17.489 14.5478 17.4603C15.1133 17.4264 15.5355 17.6676 15.7221 18.1464C15.8141 18.3735 15.8249 18.6254 15.7528 18.8595C15.6807 19.0937 15.5301 19.2959 15.3263 19.4319V19.4281ZM20.7925 19.0172L16.7871 19.3942C16.9082 19.0684 16.9572 18.7203 16.9309 18.3738C16.9045 18.0272 16.8034 17.6905 16.6344 17.3868H20.7925V19.0172ZM20.5437 16.2257L15.8069 16.2916H15.4299C15.7089 15.1833 15.9766 14.1164 16.2537 13.01L21.4353 15.5678C21.1733 16.2125 21.1733 16.2125 20.5437 16.2257ZM25.4313 22.2442C24.3745 22.0967 23.4162 21.5446 22.7585 20.7042L24.617 19.6298L25.4313 20.1048V22.2442ZM26.5623 22.2442C26.5623 21.5374 26.5623 20.8531 26.5623 20.1708C26.5623 20.118 26.6283 20.0521 26.681 20.02C26.9035 19.8862 27.1334 19.7637 27.3803 19.6261L29.2313 20.6948C28.5773 21.5325 27.6266 22.0872 26.5755 22.2442H26.5623ZM29.7968 16.629C30.1908 17.6238 30.1908 18.7312 29.7968 19.726C29.1823 19.3735 28.6036 19.0436 28.0287 18.7025C28.0006 18.6792 27.9774 18.6506 27.9605 18.6182C27.9437 18.5858 27.9335 18.5504 27.9307 18.514C27.9175 18.2949 27.9175 18.0752 27.9307 17.8561C27.9335 17.8197 27.9437 17.7843 27.9605 17.7519C27.9774 17.7195 28.0006 17.6908 28.0287 17.6676C28.6187 17.317 29.1974 16.9853 29.8043 16.6347L29.7968 16.629ZM26.5755 14.1164C27.6333 14.2652 28.5922 14.8186 29.2502 15.6602L28.3077 16.2087L28.0646 16.3482C27.3483 16.7666 27.3464 16.7685 26.6773 16.3293C26.6504 16.309 26.628 16.2832 26.6118 16.2536C26.5956 16.2241 26.5858 16.1914 26.583 16.1578C26.5755 15.4905 26.5755 14.8233 26.5755 14.1164ZM26.8413 18.2011C26.8271 18.4163 26.7301 18.6177 26.5708 18.7631C26.4114 18.9085 26.202 18.9865 25.9863 18.9809C25.7707 18.9753 25.5656 18.8865 25.414 18.733C25.2624 18.5796 25.1761 18.3734 25.1731 18.1577C25.1716 18.0453 25.1927 17.9337 25.2353 17.8296C25.278 17.7255 25.3412 17.6312 25.4212 17.5521C25.5012 17.4731 25.5963 17.4111 25.7009 17.3697C25.8055 17.3283 25.9173 17.3085 26.0297 17.3114C26.1421 17.3144 26.2528 17.34 26.3551 17.3867C26.4574 17.4334 26.5492 17.5004 26.6249 17.5834C26.7007 17.6665 26.7589 17.764 26.7961 17.8702C26.8333 17.9763 26.8486 18.0888 26.8413 18.2011ZM25.4445 14.1391C25.4445 14.8157 25.4445 15.4943 25.4445 16.171C25.4371 16.2036 25.4231 16.2343 25.4033 16.2612C25.3836 16.2881 25.3584 16.3107 25.3295 16.3274C25.1411 16.4443 24.9526 16.5555 24.7641 16.6535C24.7302 16.6706 24.6932 16.6808 24.6553 16.6834C24.6175 16.686 24.5794 16.6809 24.5435 16.6686C23.963 16.3425 23.3862 16.0089 22.7925 15.6658C23.3542 14.844 24.5793 14.1391 25.4445 14.1391ZM22.2006 16.6253C22.8019 16.9721 23.3881 17.3057 23.9668 17.6507C24.0214 17.6827 24.044 17.7807 24.0648 17.8524C24.0855 17.924 24.044 17.9598 24.0648 18.0069C24.2024 18.5724 23.8763 18.8174 23.4296 19.0285C23.0168 19.217 22.6322 19.479 22.2138 19.7184C21.8089 18.7309 21.8028 17.6248 22.1968 16.6328L22.2006 16.6253Z" fill="#FF7A22"/>
<path id="Vector_2" d="M34.4978 0.567627H23.3673C22.9674 0.567627 22.5838 0.726497 22.301 1.00929C22.0182 1.29208 21.8594 1.67563 21.8594 2.07556V9.99222H34.4883C34.8883 9.99222 35.2718 9.83335 35.5546 9.55056C35.8374 9.26777 35.9963 8.88422 35.9963 8.48429V2.07556C35.9963 1.67726 35.8387 1.29514 35.5579 1.01261C35.2772 0.730091 34.8961 0.570116 34.4978 0.567627ZM35.6287 2.82953H22.2458V2.26405H35.6287V2.82953Z" fill="#FF7A22"/>
</g>
</svg>
