<svg width="22" height="36" viewBox="0 0 22 36" fill="none" xmlns="http://www.w3.org/2000/svg">
<g id="Group 373">
<g id="Group 372">
<path id="Vector" d="M19.1834 0H2.79352C1.07981 0 0.00241028 1.06776 0 2.77665C0 10.2083 0 17.6392 0 25.0693C0 26.7782 1.075 27.8532 2.78388 27.8628C3.94805 27.8628 5.11462 27.8628 6.27879 27.8628C6.41858 27.8628 6.55838 27.8773 6.69817 27.8869V34.6936C6.54874 34.6936 6.41858 34.7104 6.28842 34.7104C5.56534 34.7104 4.86876 34.7104 4.15773 34.7104C4.07054 34.704 3.98298 34.7159 3.9007 34.7455C3.81841 34.775 3.74326 34.8215 3.68009 34.8819C3.61692 34.9424 3.56715 35.0154 3.53401 35.0963C3.50086 35.1772 3.48508 35.2642 3.48768 35.3516C3.48719 35.439 3.50466 35.5256 3.53899 35.606C3.57333 35.6864 3.6238 35.7589 3.6873 35.819C3.75079 35.8791 3.82595 35.9255 3.90811 35.9554C3.99028 35.9853 4.0777 35.998 4.16497 35.9927H17.6215C17.7282 36.0024 17.8355 36.0024 17.9421 35.9927C18.0986 35.9768 18.2427 35.9008 18.3443 35.7808C18.4459 35.6608 18.497 35.5061 18.4869 35.3491C18.4935 35.1926 18.4383 35.0397 18.3332 34.9234C18.2282 34.807 18.0817 34.7366 17.9252 34.7273C17.7785 34.7152 17.6309 34.7152 17.4842 34.7273H15.2715V27.8556H15.7367C16.8864 27.8556 18.0385 27.8556 19.1906 27.8556C20.8971 27.8556 21.9745 26.771 21.9745 25.0621C21.9745 17.6304 21.9745 10.1995 21.9745 2.76941C21.9745 1.05811 20.8971 0 19.1834 0ZM13.9435 34.708H8.02864V27.8845H13.9555L13.9435 34.708ZM17.5589 25.4236C17.3912 25.466 17.2182 25.4831 17.0455 25.4742H4.91939C4.79902 25.4827 4.67821 25.4827 4.55784 25.4742C4.39544 25.4607 4.2447 25.3844 4.13761 25.2615C4.03051 25.1387 3.97548 24.979 3.9842 24.8162C3.9842 24.7356 4.00011 24.6558 4.03102 24.5814C4.06194 24.507 4.10726 24.4394 4.16436 24.3825C4.22147 24.3256 4.28923 24.2806 4.36379 24.2499C4.43834 24.2193 4.51822 24.2037 4.59882 24.204C4.90492 24.1871 5.21344 24.204 5.52196 24.204H17.0551C17.1894 24.1959 17.3241 24.1999 17.4577 24.2161C17.5994 24.231 17.7309 24.2965 17.8283 24.4005C17.9257 24.5045 17.9823 24.6401 17.9879 24.7825C18.004 24.9191 17.9709 25.057 17.8944 25.1715C17.818 25.2859 17.7033 25.3693 17.5709 25.4067L17.5589 25.4236ZM17.4118 22.4228C17.2923 22.4325 17.1722 22.4325 17.0527 22.4228H4.90251C4.76893 22.4319 4.63476 22.4262 4.50241 22.406C4.35724 22.3773 4.22649 22.2992 4.13252 22.1849C4.03854 22.0706 3.98717 21.9272 3.98717 21.7793C3.98717 21.6313 4.03854 21.4879 4.13252 21.3736C4.22649 21.2593 4.35724 21.1812 4.50241 21.1526C4.62191 21.1333 4.7433 21.1284 4.86395 21.1381H17.1564C17.2495 21.1321 17.3428 21.1321 17.4359 21.1381C17.5981 21.1505 17.7491 21.2257 17.8567 21.3477C17.9643 21.4697 18.02 21.6289 18.012 21.7913C18.0146 21.8712 18.0013 21.9508 17.973 22.0255C17.9446 22.1001 17.9018 22.1685 17.8469 22.2265C17.792 22.2846 17.7261 22.3312 17.6531 22.3636C17.5801 22.3961 17.5014 22.4137 17.4215 22.4156L17.4118 22.4228ZM19.4702 11.8441C19.7113 12.4756 19.8728 13.124 19.7113 13.8061C19.6462 14.1291 19.5169 14.4357 19.3309 14.7077C19.145 14.9798 18.9063 15.2117 18.6291 15.3896C17.9742 15.7883 17.503 16.4293 17.3178 17.1732C17.1775 17.7481 16.8403 18.2556 16.3648 18.6078C15.8893 18.96 15.3056 19.1347 14.7148 19.1015C13.9392 19.0681 13.1776 19.3154 12.5696 19.798C12.1158 20.1633 11.5493 20.3596 10.9668 20.3535C10.3842 20.3473 9.82196 20.1391 9.37599 19.7643C8.79215 19.2937 8.05721 19.0513 7.30797 19.0822C5.96544 19.1183 5.01097 18.4025 4.62774 17.1033C4.43551 16.4074 3.9936 15.8068 3.38645 15.4161C2.8718 15.1003 2.48636 14.6115 2.29912 14.0374C2.11188 13.4634 2.13504 12.8414 2.36448 12.2828C2.62477 11.5947 2.62477 10.8353 2.36448 10.1473C2.13404 9.58882 2.11035 8.9665 2.29768 8.39215C2.48501 7.8178 2.87107 7.32909 3.38645 7.01391C4.00333 6.6108 4.4503 5.99481 4.6422 5.28333C4.78247 4.70328 5.12339 4.19156 5.60463 3.83867C6.08588 3.48579 6.67644 3.31449 7.27182 3.3551C8.03596 3.38771 8.78524 3.1371 9.37599 2.65131C9.82565 2.27876 10.3913 2.07489 10.9752 2.07489C11.5591 2.07489 12.1248 2.27876 12.5744 2.65131C13.1797 3.13783 13.9414 3.38717 14.7172 3.35269C15.3066 3.31521 15.8906 3.48609 16.3668 3.83547C16.8431 4.18485 17.1814 4.69052 17.3227 5.26406C17.5068 5.99348 17.9653 6.62373 18.6025 7.02356C19.3883 7.52489 19.7619 8.29377 19.7812 9.43383C19.7161 9.67486 19.6197 10.14 19.4702 10.5787C19.322 10.9823 19.3255 11.426 19.4799 11.8272L19.4702 11.8441Z" fill="#FF7A22"/>
<path id="Vector_2" d="M18.4419 12.8059C18.4197 12.7018 18.3874 12.6 18.3455 12.5022C18.1625 12.091 18.068 11.6459 18.068 11.1958C18.068 10.7457 18.1625 10.3006 18.3455 9.88943C18.4084 9.71406 18.4552 9.53334 18.4853 9.34952C18.4853 8.69874 18.2588 8.2866 17.8225 8.02147C17.396 7.7683 17.0252 7.43119 16.7327 7.03056C16.4402 6.62994 16.2321 6.17413 16.1208 5.69072C15.9304 4.94594 15.4436 4.57958 14.6747 4.62055C13.6501 4.69684 12.6368 4.366 11.8547 3.69982C11.6214 3.47663 11.311 3.35205 10.9882 3.35205C10.6653 3.35205 10.3549 3.47663 10.1217 3.69982C9.33899 4.36507 8.32608 4.69579 7.30165 4.62055C6.96939 4.57523 6.63254 4.66113 6.36256 4.86002C6.09258 5.05891 5.91069 5.35515 5.85548 5.6859C5.74149 6.16696 5.5338 6.62083 5.2443 7.02158C4.9548 7.42233 4.58917 7.7621 4.16828 8.02147C3.50305 8.45049 3.31986 9.02414 3.6091 9.76892C3.98946 10.6955 3.98946 11.7347 3.6091 12.6613C3.33192 13.3699 3.50303 13.9483 4.12489 14.3484C4.56534 14.6159 4.94803 14.9686 5.25056 15.3858C5.55309 15.8029 5.7694 16.2762 5.88681 16.778C6.05312 17.4505 6.55205 17.7734 7.25585 17.8072C7.49688 17.8072 7.73791 17.8072 7.97894 17.8072C8.55918 17.8004 9.12564 17.9841 9.59141 18.3302C9.78664 18.47 9.97947 18.617 10.1795 18.752C10.4148 18.9342 10.7039 19.033 11.0014 19.033C11.299 19.033 11.5881 18.9342 11.8233 18.752C12.0137 18.6267 12.1969 18.4893 12.3777 18.3543C12.8499 17.993 13.4293 17.7996 14.0239 17.8048C14.2649 17.8048 14.5325 17.8048 14.7856 17.8048C15.0903 17.805 15.3868 17.7055 15.6296 17.5214C15.8725 17.3373 16.0484 17.0787 16.1305 16.7852C16.1833 16.5359 16.2641 16.2933 16.3715 16.0622C16.6407 15.625 16.942 15.2085 17.273 14.816C17.4893 14.6169 17.7233 14.4378 17.972 14.281C18.1897 14.111 18.3511 13.8793 18.435 13.6161C18.5189 13.3529 18.5213 13.0705 18.4419 12.8059ZM5.8844 9.09644C5.88234 8.79163 5.94034 8.4894 6.05508 8.207C6.16983 7.92461 6.33908 7.66757 6.55316 7.45058C6.76724 7.23359 7.02196 7.0609 7.30278 6.94236C7.5836 6.82381 7.88502 6.76173 8.18983 6.75967C8.49465 6.75762 8.79688 6.81562 9.07927 6.93037C9.36167 7.04511 9.61869 7.21435 9.83568 7.42843C10.0527 7.64251 10.2254 7.89723 10.3439 8.17805C10.4625 8.45887 10.5245 8.76029 10.5266 9.06511C10.5287 9.36992 10.4707 9.67215 10.3559 9.95454C10.2412 10.2369 10.0719 10.494 9.85783 10.711C9.64375 10.928 9.38903 11.1006 9.10821 11.2192C8.82739 11.3377 8.52598 11.3998 8.22117 11.4019C7.91636 11.4039 7.61411 11.3459 7.33172 11.2312C7.04932 11.1164 6.7923 10.9472 6.57531 10.7331C6.35832 10.519 6.18562 10.2643 6.06707 9.98349C5.94852 9.70267 5.88646 9.40125 5.8844 9.09644ZM8.92617 15.4789C8.64658 15.8982 8.27781 15.9971 7.9476 15.7609C7.61739 15.5247 7.59329 15.1679 7.85842 14.7678C9.589 12.1454 11.3212 9.52547 13.055 6.9079C13.2382 6.62831 13.4696 6.44996 13.8239 6.5536C14.1324 6.64278 14.277 6.86212 14.3059 7.25017C14.2601 7.37801 14.2028 7.50143 14.1348 7.61894C12.3978 10.2413 10.6616 12.8613 8.92617 15.4789ZM13.7588 15.6548C13.2982 15.6548 12.8479 15.5182 12.465 15.2622C12.082 15.0063 11.7836 14.6425 11.6074 14.2169C11.4313 13.7914 11.3853 13.3231 11.4754 12.8714C11.5654 12.4196 11.7874 12.0048 12.1133 11.6793C12.4391 11.3537 12.8542 11.1322 13.306 11.0426C13.7578 10.953 14.2261 10.9995 14.6515 11.1761C15.0769 11.3527 15.4403 11.6515 15.6959 12.0347C15.9514 12.4179 16.0876 12.8683 16.0871 13.3289C16.0897 13.6358 16.0313 13.9402 15.9153 14.2244C15.7993 14.5086 15.628 14.7669 15.4114 14.9844C15.1949 15.2019 14.9372 15.3742 14.6535 15.4913C14.3698 15.6085 14.0657 15.6681 13.7588 15.6669V15.6548Z" fill="#FF7A22"/>
<path id="Vector_3" d="M9.23869 9.07713C9.24545 9.21696 9.22374 9.35671 9.17489 9.4879C9.12603 9.61908 9.05104 9.73898 8.95447 9.84033C8.8579 9.94168 8.74176 10.0224 8.61308 10.0775C8.48441 10.1326 8.34588 10.161 8.20589 10.161C8.0659 10.161 7.92737 10.1326 7.79869 10.0775C7.67001 10.0224 7.55387 9.94168 7.4573 9.84033C7.36073 9.73898 7.28574 9.61908 7.23688 9.4879C7.18803 9.35671 7.16632 9.21696 7.17308 9.07713C7.17796 8.80758 7.28673 8.55034 7.47669 8.35903C7.66665 8.16773 7.92312 8.05715 8.19262 8.05036C8.32882 8.04877 8.46398 8.07411 8.59035 8.12491C8.71673 8.1757 8.83182 8.25096 8.92902 8.34637C9.02622 8.44178 9.10362 8.55545 9.15676 8.68086C9.20991 8.80626 9.23775 8.94093 9.23869 9.07713Z" fill="#FF7A22"/>
<path id="Vector_4" d="M14.7969 13.3264C14.802 13.4659 14.7787 13.605 14.7286 13.7352C14.6784 13.8654 14.6023 13.9841 14.5049 14.0841C14.4075 14.1841 14.2908 14.2632 14.162 14.3168C14.0331 14.3704 13.8947 14.3972 13.7551 14.3958C13.6156 14.3943 13.4777 14.3645 13.35 14.3083C13.2223 14.252 13.1073 14.1704 13.0121 14.0684C12.9168 13.9664 12.8432 13.8461 12.7958 13.7149C12.7484 13.5836 12.728 13.4441 12.7361 13.3047C12.7514 13.04 12.868 12.7913 13.0618 12.6103C13.2556 12.4293 13.5117 12.3299 13.7768 12.3327C14.042 12.3355 14.2959 12.4403 14.4858 12.6253C14.6758 12.8104 14.7872 13.0614 14.7969 13.3264Z" fill="#FF7A22"/>
</g>
</g>
</svg>
