<svg width="32" height="34" viewBox="0 0 32 34" fill="none" xmlns="http://www.w3.org/2000/svg">
<g id="Layer_1" clip-path="url(#clip0_904_15403)">
<path id="Vector" d="M15.0288 21.2588V33.5H3.8125V26.0308H4.22746C6.65494 26.0308 9.08382 26.0308 11.5113 26.0308C11.61 26.0393 11.7091 26.0191 11.7965 25.9724C11.8839 25.9258 11.9559 25.8547 12.0037 25.768C12.9304 24.3599 13.8682 22.9601 14.8047 21.5589C14.8558 21.4815 14.9195 21.3971 15.0288 21.2588Z" fill="#FF7A22"/>
<path id="Vector_2" d="M28.185 26.0326V33.5018H16.9688V21.251C17.078 21.4017 17.1416 21.4806 17.1983 21.565C18.1334 22.9675 19.0726 24.3673 19.9979 25.7754C20.0461 25.8618 20.1182 25.9325 20.2055 25.9791C20.2928 26.0257 20.3917 26.0462 20.4903 26.0382C22.9178 26.0285 25.3467 26.0382 27.7742 26.0382L28.185 26.0326Z" fill="#FF7A22"/>
<path id="Vector_3" d="M14.1767 19.0127L13.4852 20.0418C12.6345 21.3185 11.7866 22.5966 10.9263 23.8663C10.8826 23.9264 10.8273 23.9771 10.7636 24.0154C10.6999 24.0537 10.6291 24.0787 10.5556 24.089C7.0893 24.1001 3.62259 24.1029 0.155411 24.0973C0.113915 24.0973 0.0724122 24.089 -0.0078125 24.0807C0.0475149 23.9839 0.086244 23.9009 0.130506 23.8262C1.15406 22.2909 2.17485 20.7556 3.20809 19.2271C3.25103 19.1667 3.30603 19.1159 3.36959 19.0778C3.43315 19.0397 3.50391 19.0152 3.57741 19.0058C7.04551 18.9938 10.5127 18.9911 13.9789 18.9975C14.0329 18.9975 14.0758 19.0031 14.1767 19.0127Z" fill="#FF7A22"/>
<path id="Vector_4" d="M31.9947 24.0981H31.6378C28.2684 24.0981 24.8976 24.0981 21.5268 24.0981C21.4236 24.1067 21.3202 24.0851 21.2291 24.036C21.138 23.9869 21.0631 23.9123 21.0136 23.8215C20.0149 22.3096 19.0052 20.8033 17.9996 19.2957C17.9471 19.2168 17.8987 19.1352 17.8281 19.019C17.9346 19.008 18.0121 18.9941 18.0895 18.9941C21.5143 18.9941 24.9386 18.9941 28.3625 18.9941C28.4322 18.9947 28.501 19.0098 28.5645 19.0384C28.6281 19.0669 28.6851 19.1084 28.7318 19.1601C29.8065 20.7494 30.8674 22.3497 31.9311 23.9487C31.9564 23.9967 31.9776 24.0466 31.9947 24.0981Z" fill="#FF7A22"/>
<path id="Vector_5" d="M17.5534 10.3966C17.3682 10.4839 17.2133 10.6246 17.1085 10.8005C17.0038 10.9765 16.954 11.1797 16.9656 11.3842C16.9656 11.6511 16.9656 11.9181 16.9656 12.2141H15.0692C14.8811 10.6926 15.2518 9.4173 16.7097 8.64686C17.0067 8.48763 17.2369 8.22711 17.3582 7.91264C17.4795 7.59816 17.484 7.2506 17.3708 6.9331C17.2643 6.61491 17.0503 6.34372 16.7657 6.16603C16.481 5.98834 16.1434 5.91522 15.8107 5.95922C15.4781 6.00321 15.1711 6.16158 14.9424 6.40716C14.7137 6.65274 14.5776 6.97022 14.5574 7.30517C14.5436 7.4836 14.5408 7.66342 14.5312 7.87643H12.6597C12.3167 6.1018 13.7746 4.20961 15.5782 4.04086C17.2657 3.8818 18.736 4.82374 19.2229 6.37705C19.7167 7.9525 19.0514 9.56944 17.5534 10.3966Z" fill="#FF7A22"/>
<path id="Vector_6" d="M22.6044 1.63832L20.9031 3.98143L19.3359 2.8486L21.0428 0.497192L22.6044 1.63832Z" fill="#FF7A22"/>
<path id="Vector_7" d="M25.72 11.2275C25.5167 11.8569 25.3217 12.453 25.1225 13.0658L22.3672 12.1695C22.5691 11.5484 22.7628 10.955 22.9661 10.334L25.72 11.2275Z" fill="#FF7A22"/>
<path id="Vector_8" d="M9.62766 5.99999C9.4271 6.61827 9.23346 7.21304 9.03013 7.83686L6.27344 6.94193L6.87373 5.10645L9.62766 5.99999Z" fill="#FF7A22"/>
<path id="Vector_9" d="M9.62677 12.1689L6.8604 13.068C6.65984 12.4469 6.46619 11.8508 6.26562 11.2311L9.02232 10.332L9.62677 12.1689Z" fill="#FF7A22"/>
<path id="Vector_10" d="M12.6591 2.84417L11.0961 3.98115L9.39062 1.62974L10.9536 0.494141L12.6591 2.84417Z" fill="#FF7A22"/>
<path id="Vector_11" d="M25.7136 6.9425L22.9597 7.84157L22.3594 6.00608L25.1175 5.1084L25.7136 6.9425Z" fill="#FF7A22"/>
<path id="Vector_12" d="M16.9349 14.1797H15.0469V16.0843H16.9349V14.1797Z" fill="#FF7A22"/>
</g>
<defs>
<clipPath id="clip0_904_15403">
<rect width="31.9986" height="33" fill="white" transform="translate(0 0.5)"/>
</clipPath>
</defs>
</svg>
