<svg width="721" height="1024" viewBox="0 0 721 1024" fill="none" xmlns="http://www.w3.org/2000/svg">
<path d="M716.529 616.761C717.444 601.472 717.943 586.099 717.943 570.476C718.626 477.198 700.508 384.746 664.678 298.684C628.848 212.623 576.048 134.731 509.456 69.6992C442.382 3.44377 362.897 -48.8047 275.595 -84.0262C98.5734 -155.991 -99.3814 -155.991 -276.403 -84.0262C-363.124 -48.7727 -441.976 3.48744 -508.351 69.6992C-576.051 134.14 -629.852 211.856 -666.421 298.031C-737.86 472.462 -737.86 668.157 -666.421 842.587C-629.921 928.898 -576.114 1006.74 -508.351 1071.25C-441.976 1137.47 -363.124 1189.73 -276.403 1224.98C-196.652 1257.72 -111.691 1275.8 -25.5704 1278.36C-17.2509 1278.78 -8.93147 1278.87 -0.611978 1278.87H481.42V1280.04H720.522V647.422C720.574 637.068 719.231 626.754 716.529 616.761ZM254.048 1024.47L139.488 899.148C46.3652 933.662 -56.2385 931.993 -148.2 894.469C-195.369 875.346 -238.251 846.94 -274.323 810.923C-311.074 775.791 -340.241 733.448 -360.014 686.522C-398.949 591.612 -398.949 485.094 -360.014 390.183C-340.154 343.379 -310.996 301.135 -274.323 266.033C-238.203 230.075 -195.333 201.678 -148.2 182.487C-51.9269 143.264 55.7778 143.264 152.051 182.487C199.499 201.64 242.703 230.034 279.173 266.033C315.406 301.409 344.132 343.785 363.62 390.608C383.108 437.431 392.955 487.731 392.567 538.478C393.174 589.256 383.427 639.622 363.925 686.476C344.424 733.33 315.582 775.681 279.173 810.923C275.928 814.098 272.6 817.189 269.189 820.363L455.712 1024.05L254.048 1024.47Z" fill="#FF7A22" fill-opacity="0.25"/>
</svg>
