<svg width="87" height="27" viewBox="0 0 87 27" fill="none" xmlns="http://www.w3.org/2000/svg">
<g id="Group 35596">
<path id="Vector" d="M86.1531 7.96386C85.3684 5.72815 83.2299 4.12271 80.7182 4.12271H80.6656C79.0328 4.12271 77.5613 4.79991 76.5138 5.88705C75.4645 4.79991 73.993 4.12271 72.3619 4.12271H72.3094C70.8741 4.12271 69.5621 4.64639 68.5545 5.51325V5.0726C68.52 4.63374 68.1576 4.28887 67.7099 4.28887H63.8572C63.386 4.28887 63.0054 4.66809 63.0054 5.13941V25.9885C63.0054 26.4598 63.386 26.8391 63.8572 26.8391H67.7099C68.1394 26.8391 68.4928 26.5195 68.549 26.1059L68.5472 11.1386C68.5468 11.0886 68.5492 11.0385 68.5544 10.9887C68.6161 10.3205 69.1072 9.77156 69.8829 9.70292H70.5932C70.9176 9.73179 71.1912 9.84559 71.4069 10.0171C71.7421 10.2826 71.9288 10.6907 71.9288 11.1386L71.9433 26.0319C71.9433 26.5032 72.3256 26.8842 72.795 26.8842H76.6478C77.1027 26.8842 77.4724 26.5231 77.4942 26.0734L77.4924 11.1188C77.4905 10.6275 77.7189 10.1833 78.1194 9.91961C78.3169 9.79317 78.5544 9.70834 78.828 9.68306H79.5384C80.372 9.75529 80.8758 10.3855 80.874 11.1188L80.8885 25.9922C80.8885 26.4635 81.2709 26.8427 81.7402 26.8427H85.593C86.0624 26.8427 86.4448 26.4635 86.4448 25.9922V9.99547C86.4448 8.9047 86.3216 8.4406 86.153 7.96386H86.1531ZM60.0703 4.34319H57.8666V0.774722C57.8666 0.346716 57.5186 0 57.0891 0C57.0384 0 56.9895 0.00716672 56.9424 0.0162275C54.4994 0.684422 54.9887 4.05606 50.5289 4.34319H50.0957C50.0305 4.34319 49.9689 4.35219 49.9091 4.36484H49.9055L49.9091 4.36663C49.5285 4.45156 49.2422 4.78742 49.2422 5.19198V9.03129C49.2422 9.49903 49.6245 9.88004 50.0957 9.88004H52.4208L52.4172 26.1603C52.4172 26.6244 52.7942 27 53.2599 27H57.0692C57.5331 27 57.9101 26.6244 57.9101 26.1603L57.9119 9.88004H60.0703C60.5396 9.88004 60.922 9.49903 60.922 9.03129V5.19198C60.922 4.72425 60.5396 4.34324 60.0703 4.34324" fill="#00BAF2"/>
<path id="Vector_2" d="M46.2106 4.34357H42.3578C41.8884 4.34357 41.5078 4.72464 41.5078 5.19232V13.1311C41.4988 13.6223 41.1001 14.016 40.6053 14.016H38.9924C38.4922 14.016 38.0881 13.6151 38.0881 13.1166L38.0736 5.19237C38.0736 4.72464 37.6912 4.34362 37.2219 4.34362H33.3691C32.8979 4.34362 32.5173 4.72464 32.5173 5.19237V13.8932C32.5173 17.198 34.8823 19.5547 38.2005 19.5547C38.2005 19.5547 40.6905 19.5547 40.7666 19.5691C41.2161 19.6197 41.5658 19.9953 41.5658 20.4576C41.5658 20.9145 41.2233 21.2883 40.7793 21.3443C40.7576 21.3479 40.7377 21.3533 40.7141 21.357L35.0798 21.3768C34.6086 21.3768 34.2281 21.7578 34.2281 22.2256V26.0631C34.2281 26.5327 34.6086 26.9119 35.0798 26.9119H41.3792C44.6991 26.9119 47.0623 24.557 47.0623 21.2504V5.19237C47.0623 4.72464 46.6817 4.34362 46.2106 4.34362V4.34357ZM8.91802 11.3785V13.7478C8.91802 14.2444 8.51388 14.649 8.01554 14.649L5.57082 14.6508V9.90305H8.01554C8.51388 9.90305 8.91802 10.3039 8.91802 10.8024V11.3785ZM9.25691 4.34265H0.835438C0.373309 4.34265 0 4.7165 0 5.17517V8.93688C0 8.9441 0.00179797 8.95131 0.00179797 8.95853C0.00179797 8.9766 0 8.99467 0 9.0109V26.0369C0 26.4992 0.347932 26.8767 0.77929 26.8875H4.70451C5.17388 26.8875 5.55623 26.5083 5.55623 26.0388L5.57077 20.2039H9.25685C12.3412 20.2039 14.4906 18.0711 14.4906 14.9848V9.56898C14.4906 6.48269 12.3412 4.3427 9.25685 4.3427L9.25691 4.34265ZM24.9039 20.3921V20.9916C24.9039 21.0404 24.8967 21.0873 24.8895 21.1325C24.8804 21.1748 24.8683 21.2165 24.8532 21.2571C24.7335 21.593 24.3965 21.8368 23.996 21.8368H22.3922C21.892 21.8368 21.4843 21.4575 21.4843 20.9916V20.2675C21.4843 20.2585 21.4824 20.2494 21.4824 20.2404L21.4843 18.3135V17.7103L21.4861 17.7049C21.4879 17.2408 21.892 16.8652 22.3922 16.8652H23.996C24.498 16.8652 24.9039 17.2426 24.9039 17.7103L24.9039 20.3921ZM24.2914 4.36471H18.9453C18.4724 4.36471 18.09 4.72228 18.09 5.16109V6.65458C18.09 6.66359 18.0918 6.67445 18.0918 6.68346C18.0918 6.69431 18.09 6.70511 18.09 6.71596V8.76206C18.09 9.22621 18.4959 9.60543 18.9961 9.60543H24.0866C24.489 9.66865 24.8079 9.96121 24.8532 10.4181V10.9129C24.8079 11.3481 24.4926 11.6659 24.1084 11.7021H21.5876C18.235 11.7021 15.8465 13.9215 15.8465 17.0385V21.5027C15.8465 24.6016 17.8997 26.8066 21.2287 26.8066H28.2149C29.469 26.8066 30.4856 25.8603 30.4856 24.6955V10.1273C30.4856 6.595 28.6589 4.36471 24.2914 4.36471H24.2914Z" fill="#1F336B"/>
</g>
</svg>
