<svg width="134" height="133" viewBox="0 0 134 133" fill="none" xmlns="http://www.w3.org/2000/svg">
<g id="Layer_1" clip-path="url(#clip0_904_16354)">
<path id="Vector" d="M15.9469 47.8933C15.9469 49.6559 15.9469 51.4136 15.9469 53.1762H10.6641V47.8457L15.9469 47.8933Z" fill="#1F336B"/>
<path id="Vector_2" d="M106.416 85.1353V79.8096H101.114V85.0734H95.8076V79.8096H90.5104V85.1401H79.8828V90.442H85.1228V101.089H79.8828V106.424H74.5333V111.664H69.2314V106.424H63.9295V101.103H53.2352V95.801H63.8247V90.5325H69.1266V95.801H74.3952V85.1496H69.1552V79.8715H63.8294V85.1115H58.5275V79.8143H53.1828V85.0782H47.8761V79.8096H42.5742V95.7963H47.8523V106.438H42.6123V117.066H53.2019V106.476H58.4752V111.716H63.8342V117.061H79.8209V111.788H85.1514V117.061H90.4485V111.821H95.7885V117.061H101.133V111.678H111.737V85.1162L106.416 85.1353ZM106.378 106.386H90.4914V90.5039H106.378V106.386Z" fill="#1F336B"/>
<path id="Vector_3" d="M0 0.0144043V37.1706H37.1562V0.0144043H0ZM31.8733 31.8591H5.34476V5.33061H31.8733V31.8591Z" fill="#1F336B"/>
<path id="Vector_4" d="M95.8359 0.00476074V37.1609H132.992V0.00476074H95.8359ZM127.704 31.84H101.152V5.32097H127.704V31.84Z" fill="#1F336B"/>
<path id="Vector_5" d="M0 95.8247V132.981H37.1562V95.8247H0ZM31.8638 127.655H5.33522V101.127H31.8638V127.655Z" fill="#1F336B"/>
<path id="Vector_6" d="M95.7869 74.4695H85.1164V79.7619H79.8098V74.4457H63.8993V69.139H79.7764V53.2238H74.4888V58.4638H63.8945V53.1809H69.1917V47.8838H85.1402V53.1762H90.4326V63.8229H85.1926V69.1772H95.7774C95.7726 70.9349 95.7821 72.7022 95.7869 74.4695Z" fill="#1F336B"/>
<path id="Vector_7" d="M69.1523 47.8733L69.1704 47.8552V47.8733H69.1523Z" fill="black"/>
<path id="Vector_8" d="M85.1211 47.8552L85.1391 47.8733H85.1211V47.8552Z" fill="black"/>
<path id="Vector_9" d="M95.7876 74.4695H95.7695V74.4875H95.7876V74.4695Z" fill="black"/>
<path id="Vector_10" d="M95.7882 69.1671H95.7695V69.1438L95.7882 69.1671Z" fill="black"/>
<path id="Vector_11" d="M58.4679 63.8419V74.4886H53.2041V74.4695H53.1851V69.2057H42.5384V79.7905H26.5898V69.1438H31.887V69.1628H31.9108V74.4314H37.1746V69.1628H31.9108V69.1438H31.887V63.8562H42.5241V47.8743H47.8594V53.1762H53.1851V53.1952H53.2041V58.54H47.907V63.8419H58.4679Z" fill="#1F336B"/>
<path id="Vector_12" d="M26.5703 79.7905H26.5884V79.8086L26.5703 79.7905Z" fill="black"/>
<path id="Vector_13" d="M31.9101 69.1438H31.8867V69.1625H31.9101V69.1438Z" fill="black"/>
<path id="Vector_14" d="M42.5391 79.7905H42.5571L42.5391 79.8086V79.7905Z" fill="black"/>
<path id="Vector_15" d="M47.8594 47.8552L47.8774 47.8733H47.8594V47.8552Z" fill="black"/>
<path id="Vector_16" d="M53.2055 74.4695H53.1875V74.4875H53.2055V74.4695Z" fill="black"/>
<path id="Vector_17" d="M53.2055 53.1761H53.1875V53.1942H53.2055V53.1761Z" fill="black"/>
<path id="Vector_18" d="M132.995 74.4504V85.1352H127.727V79.8667H122.487V85.1352H127.727C127.727 88.6762 127.719 92.2171 127.703 95.7581H117.095V85.1162H111.755V79.7905H106.434V69.1628H111.778V74.4409H122.411V69.1628H127.703V74.4504H132.995Z" fill="#1F336B"/>
<path id="Vector_19" d="M106.414 69.1618L106.432 69.1438V69.1618H106.414Z" fill="black"/>
<path id="Vector_20" d="M106.414 79.7905H106.432V79.8086L106.414 79.7905Z" fill="black"/>
<path id="Vector_21" d="M111.734 85.1162H111.752V85.1343L111.734 85.1162Z" fill="black"/>
<path id="Vector_22" d="M127.703 95.7581H127.721L127.703 95.7761V95.7581Z" fill="black"/>
<path id="Vector_23" d="M127.726 69.1625H127.703V69.1438L127.726 69.1625Z" fill="black"/>
<path id="Vector_24" d="M127.725 85.1162H127.707V85.1343H127.725V85.1162Z" fill="black"/>
<path id="Vector_25" d="M63.8901 10.5943V21.2599H69.1539V26.5618H63.8329V31.8828H58.5263V26.5618H53.2244V15.9295H58.4739V5.29237H42.6016V-0.00476074H63.8139V5.23521H69.1539V10.5847L63.8901 10.5943Z" fill="#1F336B"/>
<path id="Vector_26" d="M53.1875 15.9385L53.2062 15.9152V15.9385H53.1875Z" fill="black"/>
<path id="Vector_27" d="M53.1875 26.5619H53.2055V26.5799L53.1875 26.5619Z" fill="black"/>
<path id="Vector_28" d="M58.5265 31.8828H58.5078V31.9062H58.5265V31.8828Z" fill="black"/>
<path id="Vector_29" d="M63.832 31.8828H63.8501L63.832 31.9009V31.8828Z" fill="black"/>
<path id="Vector_30" d="M69.1523 21.241L69.1704 21.259H69.1523V21.241Z" fill="black"/>
<path id="Vector_31" d="M69.1523 26.5619H69.1704L69.1523 26.5799V26.5619Z" fill="black"/>
<path id="Vector_32" d="M69.1704 10.5942L69.1523 10.6123V10.5942H69.1704Z" fill="black"/>
<path id="Vector_33" d="M132.991 111.773V132.99H127.751V127.698H117.081V122.434H111.736V127.698H101.113V122.396H106.406V117.09H122.388V111.773H132.991Z" fill="#1F336B"/>
<path id="Vector_34" d="M101.094 127.698H101.112V127.716L101.094 127.698Z" fill="black"/>
<path id="Vector_35" d="M111.734 127.698H111.752L111.734 127.716V127.698Z" fill="black"/>
<path id="Vector_36" d="M117.081 127.698V127.716L117.062 127.698H117.081Z" fill="black"/>
<path id="Vector_37" d="M132.991 53.1761V69.1437H127.751V63.8133H111.745V58.5019H106.458V53.2095H101.137V47.8743H127.727C127.727 49.6432 127.735 51.4104 127.751 53.1761H117.161V58.4161H127.751V53.1761H132.991Z" fill="#1F336B"/>
<path id="Vector_38" d="M101.094 47.8733L101.112 47.8552V47.8733H101.094Z" fill="black"/>
<path id="Vector_39" d="M106.414 58.502H106.432V58.52L106.414 58.502Z" fill="black"/>
<path id="Vector_40" d="M127.721 47.8733H127.703V47.8552L127.721 47.8733Z" fill="black"/>
<path id="Vector_41" d="M127.725 53.1761H127.707V53.1942H127.725V53.1761Z" fill="black"/>
<path id="Vector_42" d="M127.703 69.1438H127.726V69.1625L127.703 69.1438Z" fill="black"/>
<path id="Vector_43" d="M15.9213 74.4886V79.7809H5.31752V90.3895H0.015625V69.1676H10.6004V74.4886H15.9213Z" fill="#1F336B"/>
<path id="Vector_44" d="M10.5977 69.1438L10.6163 69.1671H10.5977V69.1438Z" fill="black"/>
<path id="Vector_45" d="M15.9452 74.4881H15.9219V74.4695L15.9452 74.4881Z" fill="black"/>
<path id="Vector_46" d="M63.8325 117.07V122.368H58.5449V127.669H53.2144V132.99H42.582V122.415H53.2049V117.07H63.8325Z" fill="#1F336B"/>
<path id="Vector_47" d="M53.1875 117.069L53.2055 117.051V117.069H53.1875Z" fill="black"/>
<path id="Vector_48" d="M63.8501 117.069H63.832V117.051L63.8501 117.069Z" fill="black"/>
<path id="Vector_49" d="M21.2448 63.842V74.4696H15.9429V69.1438H10.6172V58.521H15.9238V63.842H21.2448Z" fill="#1F336B"/>
<path id="Vector_50" d="M10.5977 69.1438H10.6163V69.1671L10.5977 69.1438Z" fill="black"/>
<path id="Vector_51" d="M15.9258 58.502L15.9438 58.52H15.9258V58.502Z" fill="black"/>
<path id="Vector_52" d="M15.9219 74.4695H15.9452V74.4881L15.9219 74.4695Z" fill="black"/>
<path id="Vector_53" d="M21.2641 63.8409H21.2461V63.8229L21.2641 63.8409Z" fill="black"/>
<path id="Vector_54" d="M47.878 31.9062H47.8594V31.8828L47.878 31.9062Z" fill="black"/>
<path id="Vector_55" d="M47.8594 47.8552H47.8774V47.8733L47.8594 47.8552Z" fill="black"/>
<path id="Vector_56" d="M53.2036 37.2275V47.8457H47.897V42.5581H42.6094V31.8971H47.878V37.199H53.2036V37.2275Z" fill="#1F336B"/>
<path id="Vector_57" d="M53.2055 47.8552H53.1875V47.8733H53.2055V47.8552Z" fill="black"/>
<path id="Vector_58" d="M53.2055 37.2085H53.1875V37.2265H53.2055V37.2085Z" fill="black"/>
<path id="Vector_59" d="M74.4744 37.2276V42.5152H69.1535V47.8552H63.8516V31.9019H69.1535V37.2276H74.4744Z" fill="#1F336B"/>
<path id="Vector_60" d="M63.832 31.9009L63.8501 31.8828V31.9009H63.832Z" fill="black"/>
<path id="Vector_61" d="M69.1523 31.8828L69.1704 31.9009H69.1523V31.8828Z" fill="black"/>
<path id="Vector_62" d="M69.1523 47.8552H69.1704L69.1523 47.8733V47.8552Z" fill="black"/>
<path id="Vector_63" d="M74.4907 37.2265H74.4727V37.2085L74.4907 37.2265Z" fill="black"/>
<path id="Vector_64" d="M106.413 58.521H95.7852V69.1438H106.413V58.521Z" fill="#1F336B"/>
<path id="Vector_65" d="M95.7695 69.1438H95.7882V69.1671L95.7695 69.1438Z" fill="black"/>
<path id="Vector_66" d="M106.432 58.52H106.414V58.502L106.432 58.52Z" fill="black"/>
<path id="Vector_67" d="M106.414 69.1438H106.432L106.414 69.1618V69.1438Z" fill="black"/>
<path id="Vector_68" d="M26.5708 79.8096V90.3991H15.9766V85.1448H21.2261V79.8096H26.5708Z" fill="#1F336B"/>
<path id="Vector_69" d="M26.5884 79.8086H26.5703V79.7905L26.5884 79.8086Z" fill="black"/>
<path id="Vector_70" d="M10.6229 42.5962H0V47.8266H10.6229V42.5962Z" fill="#1F336B"/>
<path id="Vector_71" d="M10.6391 47.8267L10.6211 47.8447V47.8267H10.6391Z" fill="black"/>
<path id="Vector_72" d="M26.5946 42.6057C26.5946 44.3301 26.5946 46.0831 26.5946 47.8457L18.4632 47.8838H15.9766V42.6057H26.5946Z" fill="#1F336B"/>
<path id="Vector_73" d="M26.6079 47.8267L26.5944 47.8402V47.8447H26.5898V47.8267H26.6079Z" fill="black"/>
<path id="Vector_74" d="M74.4357 10.6133H69.1719V21.2409H74.4357V10.6133Z" fill="#1F336B"/>
<path id="Vector_75" d="M69.1704 10.5942V10.6123H69.1523L69.1704 10.5942Z" fill="black"/>
<path id="Vector_76" d="M69.1523 21.241H69.1704V21.259L69.1523 21.241Z" fill="black"/>
<path id="Vector_77" d="M90.4079 15.9819H85.168V26.5381H90.4079V15.9819Z" fill="#1F336B"/>
<path id="Vector_78" d="M132.991 95.7771H127.723V106.371H132.991V95.7771Z" fill="#1F336B"/>
<path id="Vector_79" d="M127.721 95.7581V95.7761H127.703L127.721 95.7581Z" fill="black"/>
<path id="Vector_80" d="M79.7816 122.42H74.5273V132.981H79.7816V122.42Z" fill="#1F336B"/>
<path id="Vector_81" d="M79.7704 0H74.5352V5.24473H79.7704V0Z" fill="#1F336B"/>
<path id="Vector_82" d="M90.427 5.33521H85.168V10.5609H90.427V5.33521Z" fill="#1F336B"/>
<path id="Vector_83" d="M53.1857 10.6467H47.9219V15.9153H53.1857V10.6467Z" fill="#1F336B"/>
<path id="Vector_84" d="M53.2062 15.9152L53.1875 15.9385V15.9152H53.2062Z" fill="black"/>
<path id="Vector_85" d="M47.8594 31.8828H47.878V31.9062L47.8594 31.8828Z" fill="black"/>
<path id="Vector_86" d="M53.2055 26.5799H53.1875V26.5619L53.2055 26.5799Z" fill="black"/>
<path id="Vector_87" d="M53.205 31.8828H47.8984V26.5809H53.205C53.1908 28.3482 53.2003 30.1203 53.205 31.8828Z" fill="#1F336B"/>
<path id="Vector_88" d="M53.2055 31.8828H53.1875V31.9009H53.2055V31.8828Z" fill="black"/>
<path id="Vector_89" d="M37.177 53.2H31.918V58.4637H37.177V53.2Z" fill="#1F336B"/>
<path id="Vector_90" d="M31.914 53.1761V53.1995H31.8906L31.914 53.1761Z" fill="black"/>
<path id="Vector_91" d="M21.2472 53.2H15.9453V58.5018H21.2472V53.2Z" fill="#1F336B"/>
<path id="Vector_92" d="M15.9258 53.1995L15.9445 53.1761V53.1995H15.9258Z" fill="black"/>
<path id="Vector_93" d="M15.9258 58.502H15.9438V58.52L15.9258 58.502Z" fill="black"/>
<path id="Vector_94" d="M21.2641 58.502L21.2461 58.52V58.502H21.2641Z" fill="black"/>
<path id="Vector_95" d="M31.8922 47.8743V53.1762H26.6094V47.8457L31.8922 47.8743Z" fill="#1F336B"/>
<path id="Vector_96" d="M26.5938 47.8402L26.6073 47.8267V47.8447H26.5938V47.8402Z" fill="black"/>
<path id="Vector_97" d="M31.9087 47.8733H31.8906V47.8552L31.9087 47.8733Z" fill="black"/>
<path id="Vector_98" d="M31.914 53.1761L31.8906 53.1995V53.1761H31.914Z" fill="black"/>
<path id="Vector_99" d="M10.6211 47.8447L10.6391 47.8267V47.8447H10.6211Z" fill="black"/>
<path id="Vector_100" d="M15.9258 53.1761H15.9445L15.9258 53.1995V53.1761Z" fill="black"/>
<path id="Vector_101" d="M132.991 42.5914H127.723V47.8552H132.991V42.5914Z" fill="#1F336B"/>
<path id="Vector_102" d="M127.721 47.8552V47.8733L127.703 47.8552H127.721Z" fill="black"/>
<path id="Vector_103" d="M101.092 42.5867H95.8281V47.8552H101.092V42.5867Z" fill="#1F336B"/>
<path id="Vector_104" d="M101.112 47.8552L101.094 47.8733V47.8552H101.112Z" fill="black"/>
<path id="Vector_105" d="M37.1887 85.1638H31.9297V90.3943H37.1887V85.1638Z" fill="#1F336B"/>
<path id="Vector_106" d="M90.4092 42.5914H85.1406V47.8552H90.4092V42.5914Z" fill="#1F336B"/>
<path id="Vector_107" d="M85.1391 47.8552V47.8733L85.1211 47.8552H85.1391Z" fill="black"/>
<path id="Vector_108" d="M37.1787 42.5914H31.9102V47.8552H37.1787V42.5914Z" fill="#1F336B"/>
<path id="Vector_109" d="M31.9087 47.8552V47.8733L31.8906 47.8552H31.9087Z" fill="black"/>
<path id="Vector_110" d="M90.3993 31.9304H85.1641V37.1656H90.3993V31.9304Z" fill="#1F336B"/>
<path id="Vector_111" d="M26.5294 58.521H21.2656V63.8229H26.5294V58.521Z" fill="#1F336B"/>
<path id="Vector_112" d="M21.2641 58.502V58.52H21.2461L21.2641 58.502Z" fill="black"/>
<path id="Vector_113" d="M21.2461 63.8229H21.2641V63.8409L21.2461 63.8229Z" fill="black"/>
<path id="Vector_114" d="M79.7607 31.9066H74.4922V37.2085H79.7607V31.9066Z" fill="#1F336B"/>
<path id="Vector_115" d="M74.4913 31.8828V31.9062H74.4727L74.4913 31.8828Z" fill="black"/>
<path id="Vector_116" d="M74.4727 37.2085H74.4907V37.2265L74.4727 37.2085Z" fill="black"/>
<path id="Vector_117" d="M74.4738 26.5809H69.1719V31.8828H74.4738V26.5809Z" fill="#1F336B"/>
<path id="Vector_118" d="M69.1523 26.5799L69.1704 26.5619V26.5799H69.1523Z" fill="black"/>
<path id="Vector_119" d="M69.1523 31.8828H69.1704V31.9009L69.1523 31.8828Z" fill="black"/>
<path id="Vector_120" d="M74.4913 31.8828L74.4727 31.9062V31.8828H74.4913Z" fill="black"/>
<path id="Vector_121" d="M95.7667 117.07H90.4648V122.334H95.7667V117.07Z" fill="#1F336B"/>
<path id="Vector_122" d="M90.4453 117.069L90.4634 117.051V117.069H90.4453Z" fill="black"/>
<path id="Vector_123" d="M95.7876 117.069H95.7695V117.051L95.7876 117.069Z" fill="black"/>
<path id="Vector_124" d="M5.25083 58.54H0.015625V63.7752H5.25083V58.54Z" fill="#1F336B"/>
<path id="Vector_125" d="M69.1063 127.746H63.8711V132.981H69.1063V127.746Z" fill="#1F336B"/>
<path id="Vector_126" d="M90.4032 127.765H85.168V133H90.4032V127.765Z" fill="#1F336B"/>
<path id="Vector_127" d="M101.093 127.717H95.8242V132.981H101.093V127.717Z" fill="#1F336B"/>
<path id="Vector_128" d="M101.112 127.716H101.094V127.698L101.112 127.716Z" fill="black"/>
<path id="Vector_129" d="M117.061 127.717H111.754V132.981H117.061V127.717Z" fill="#1F336B"/>
<path id="Vector_130" d="M111.734 127.716L111.752 127.698V127.716H111.734Z" fill="black"/>
<path id="Vector_131" d="M117.081 127.716H117.062V127.698L117.081 127.716Z" fill="black"/>
<path id="Vector_132" d="M53.2055 37.2085V37.2265H53.1875L53.2055 37.2085Z" fill="white"/>
<path id="Vector_133" d="M53.2055 47.8552V47.8733L53.1875 47.8552H53.2055Z" fill="white"/>
<path id="Vector_134" d="M53.2055 53.1761V53.1942H53.1875L53.2055 53.1761Z" fill="white"/>
<path id="Vector_135" d="M53.2055 74.4695V74.4875H53.1875L53.2055 74.4695Z" fill="white"/>
<path id="Vector_136" d="M53.2055 79.7905V79.8086L53.1875 79.7905H53.2055Z" fill="white"/>
<path id="Vector_137" d="M58.5265 31.8828V31.9062H58.5078L58.5265 31.8828Z" fill="white"/>
<path id="Vector_138" d="M69.1704 95.7628V95.7809H69.1523L69.1704 95.7628Z" fill="white"/>
<path id="Vector_139" d="M69.1704 101.084V101.102L69.1523 101.084H69.1704Z" fill="white"/>
<path id="Vector_140" d="M74.4907 106.405V106.423L74.4727 106.405H74.4907Z" fill="white"/>
<path id="Vector_141" d="M95.7876 74.4875H95.7695V74.4695L95.7876 74.4875Z" fill="white"/>
<path id="Vector_142" d="M95.7876 79.7905L95.7695 79.8086V79.7905H95.7876Z" fill="white"/>
<path id="Vector_143" d="M95.7876 74.4695V74.4875L95.7695 74.4695H95.7876Z" fill="white"/>
<path id="Vector_144" d="M101.112 79.7905V79.8086L101.094 79.7905H101.112Z" fill="white"/>
<path id="Vector_145" d="M47.8774 79.7905L47.8594 79.8086V79.7905H47.8774Z" fill="white"/>
<path id="Vector_146" d="M53.2055 74.4695L53.1875 74.4875V74.4695H53.2055Z" fill="white"/>
<path id="Vector_147" d="M63.8501 95.7809H63.832V95.7628L63.8501 95.7809Z" fill="white"/>
<path id="Vector_148" d="M63.8501 101.084L63.832 101.102V101.084H63.8501Z" fill="white"/>
<path id="Vector_149" d="M47.8774 79.7905V79.8086H47.8594L47.8774 79.7905Z" fill="white"/>
<path id="Vector_150" d="M53.2055 79.8086H53.1875V79.7905L53.2055 79.8086Z" fill="white"/>
<path id="Vector_151" d="M95.7876 79.7905V79.8086H95.7695L95.7876 79.7905Z" fill="white"/>
<path id="Vector_152" d="M101.112 79.8086H101.094V79.7905L101.112 79.8086Z" fill="white"/>
<path id="Vector_153" d="M63.8501 95.7628V95.7809L63.832 95.7628H63.8501Z" fill="white"/>
<path id="Vector_154" d="M69.1704 95.7628L69.1523 95.7809V95.7628H69.1704Z" fill="white"/>
<path id="Vector_155" d="M63.8501 101.084V101.102H63.832L63.8501 101.084Z" fill="white"/>
<path id="Vector_156" d="M74.4924 101.084V106.405H74.4733V106.424H69.1714V106.405H69.1523V101.103H69.1714V101.084H74.4924Z" fill="#1F336B"/>
<path id="Vector_157" d="M69.1704 101.102H69.1523V101.084L69.1704 101.102Z" fill="white"/>
<path id="Vector_158" d="M69.1704 106.405L69.1523 106.423V106.405H69.1704Z" fill="white"/>
<path id="Vector_159" d="M69.1704 106.405V106.423H69.1523L69.1704 106.405Z" fill="white"/>
<path id="Vector_160" d="M74.4907 106.423H74.4727V106.405L74.4907 106.423Z" fill="white"/>
<path id="Vector_161" d="M31.9101 69.1438V69.1625H31.8867L31.9101 69.1438Z" fill="white"/>
<path id="Vector_162" d="M53.2055 47.8733H53.1875V47.8552L53.2055 47.8733Z" fill="white"/>
<path id="Vector_163" d="M53.2055 53.1761L53.1875 53.1942V53.1761H53.2055Z" fill="white"/>
<path id="Vector_164" d="M127.707 85.1343V85.1162H127.725L127.707 85.1343Z" fill="white"/>
<path id="Vector_165" d="M53.2055 31.8828V31.9009L53.1875 31.8828H53.2055Z" fill="white"/>
<path id="Vector_166" d="M58.5265 31.8828L58.5078 31.9062V31.8828H58.5265Z" fill="white"/>
<path id="Vector_167" d="M127.725 53.1942H127.707V53.1761L127.725 53.1942Z" fill="white"/>
<path id="Vector_168" d="M53.2055 31.9009H53.1875V31.8828L53.2055 31.9009Z" fill="white"/>
<path id="Vector_169" d="M53.2055 37.2085L53.1875 37.2265V37.2085H53.2055Z" fill="white"/>
<path id="Vector_170" d="M58.4703 47.8552V53.1952H53.2066V53.1762H53.1875V47.8743H53.2066V47.8552H58.4703Z" fill="#1F336B"/>
<path id="Vector_171" d="M53.2055 53.1761H53.1875V53.1942H53.2055V53.1761Z" fill="black"/>
<path id="Vector_172" d="M53.2055 47.8552H53.1875V47.8733H53.2055V47.8552Z" fill="black"/>
<path id="Vector_173" d="M53.2041 74.4885V79.7904H53.1851V79.8095H47.8784V79.7904H47.8594V74.4695H53.1851V74.4885H53.2041Z" fill="#1F336B"/>
<path id="Vector_174" d="M47.8774 79.7905H47.8594V79.8086H47.8774V79.7905Z" fill="black"/>
<path id="Vector_175" d="M53.2055 79.7905H53.1875V79.8086H53.2055V79.7905Z" fill="black"/>
<path id="Vector_176" d="M53.2055 74.4695H53.1875V74.4875H53.2055V74.4695Z" fill="black"/>
<path id="Vector_177" d="M101.114 74.4695V79.7904H101.095V79.8095H95.7886V79.7904H95.7695V74.4885H95.7886V74.4695H101.114Z" fill="#1F336B"/>
<path id="Vector_178" d="M95.7876 74.4695H95.7695V74.4875H95.7876V74.4695Z" fill="black"/>
<path id="Vector_179" d="M95.7876 79.7905H95.7695V79.8086H95.7876V79.7905Z" fill="black"/>
<path id="Vector_180" d="M101.112 79.7905H101.094V79.8086H101.112V79.7905Z" fill="black"/>
<path id="Vector_181" d="M69.172 95.7819V101.084H69.153V101.103H63.8511V101.084H63.832V95.7819H63.8511V95.7628H69.153V95.7819H69.172Z" fill="#1F336B"/>
<path id="Vector_182" d="M63.8501 95.7628H63.832V95.7809H63.8501V95.7628Z" fill="black"/>
<path id="Vector_183" d="M63.8501 101.084H63.832V101.102H63.8501V101.084Z" fill="black"/>
<path id="Vector_184" d="M69.1704 101.084H69.1523V101.102H69.1704V101.084Z" fill="black"/>
<path id="Vector_185" d="M69.1704 95.7628H69.1523V95.7809H69.1704V95.7628Z" fill="black"/>
<path id="Vector_186" d="M69.1704 101.084H69.1523V101.102H69.1704V101.084Z" fill="black"/>
<path id="Vector_187" d="M69.1704 106.405H69.1523V106.423H69.1704V106.405Z" fill="black"/>
<path id="Vector_188" d="M74.4907 106.405H74.4727V106.423H74.4907V106.405Z" fill="black"/>
<path id="Vector_189" d="M58.5275 31.9066V37.2276H53.2066V37.2085H53.1875V31.9019H53.2066V31.8828H58.5085V31.9066H58.5275Z" fill="#1F336B"/>
<path id="Vector_190" d="M53.2055 31.8828H53.1875V31.9009H53.2055V31.8828Z" fill="black"/>
<path id="Vector_191" d="M53.2055 37.2085H53.1875V37.2265H53.2055V37.2085Z" fill="black"/>
<path id="Vector_192" d="M58.5265 31.8828H58.5078V31.9062H58.5265V31.8828Z" fill="black"/>
<path id="Vector_193" d="M101.059 95.801H95.8281V101.06H101.059V95.801Z" fill="#1F336B"/>
<path id="Vector_194" d="M26.5459 10.6515H10.6641V26.5334H26.5459V10.6515Z" fill="#1F336B"/>
<path id="Vector_195" d="M122.343 10.661H106.461V26.5429H122.343V10.661Z" fill="#1F336B"/>
<path id="Vector_196" d="M26.5303 106.471H10.6484V122.353H26.5303V106.471Z" fill="#1F336B"/>
</g>
<defs>
<clipPath id="clip0_904_16354">
<rect width="133.01" height="133" fill="white"/>
</clipPath>
</defs>
</svg>
