<svg width="28" height="29" viewBox="0 0 28 29" fill="none" xmlns="http://www.w3.org/2000/svg">
<g id="UploadSimple">
<path id="Vector" d="M7.29 21.3401V21.5901H7.54H20.46H20.71V21.3401V16.6603C20.71 16.4357 20.7944 16.223 20.9405 16.0683C21.0862 15.9141 21.2805 15.8304 21.48 15.8304C21.6795 15.8304 21.8738 15.9141 22.0195 16.0683C22.1656 16.223 22.25 16.4357 22.25 16.6603V21.7001C22.25 22.1156 22.094 22.5114 21.8203 22.8012C21.5472 23.0904 21.1798 23.25 20.8 23.25H7.2C6.82019 23.25 6.45284 23.0904 6.17967 22.8012C5.90604 22.5114 5.75 22.1156 5.75 21.7001V16.6603C5.75 16.4357 5.83439 16.223 5.9805 16.0683C6.12615 15.9141 6.32054 15.8304 6.52 15.8304C6.71946 15.8304 6.91385 15.9141 7.0595 16.0683C7.20561 16.223 7.29 16.4357 7.29 16.6603V21.3401ZM11.14 10.7729L11.0908 10.825C10.9519 10.948 10.7784 11.0143 10.6009 11.0143C10.4009 11.0143 10.2061 10.9303 10.0601 10.7757C9.91366 10.6207 9.82908 10.4075 9.82908 10.1824C9.82908 10.0713 9.84977 9.96151 9.88968 9.85952C9.92957 9.75754 9.9877 9.66578 10.0601 9.58913L13.4601 5.9893L13.4604 5.98898C13.5326 5.91222 13.6177 5.85214 13.7103 5.81142C13.8029 5.77073 13.9016 5.75 14.0008 5.75C14.1001 5.75 14.1988 5.77073 14.2914 5.81142C14.384 5.85214 14.4691 5.91222 14.5413 5.98898L14.5416 5.9893L17.9416 9.58913C18.088 9.74417 18.1726 9.95736 18.1726 10.1824C18.1726 10.4075 18.088 10.6207 17.9416 10.7757C17.7956 10.9303 17.6008 11.0143 17.4008 11.0143C17.2009 11.0143 17.0061 10.9303 16.8601 10.7757L15.2018 9.01906L14.77 8.56166V9.19068V16.6603C14.77 16.8849 14.6856 17.0976 14.5395 17.2523C14.3939 17.4065 14.1995 17.4903 14 17.4903C13.8005 17.4903 13.6061 17.4065 13.4605 17.2523C13.3144 17.0976 13.23 16.8849 13.23 16.6603V9.19068V8.56236L12.7983 9.01892L11.14 10.7729Z" fill="#343434" stroke="white" stroke-width="0.5"/>
</g>
</svg>
