<svg width="32" height="32" viewBox="0 0 32 32" fill="none" xmlns="http://www.w3.org/2000/svg">
<g id="ArrowDown">
<path id="Vector" d="M8.621 14.4999L15.061 8.06103L15.0611 8.061C15.3425 7.77959 15.5006 7.39792 15.5006 6.99995C15.5006 6.60197 15.3425 6.2203 15.0611 5.93889C14.7796 5.65748 14.398 5.49939 14 5.49939C13.602 5.49939 13.2204 5.65748 12.9389 5.93889L13.2925 6.29245L12.9389 5.93889L3.93914 14.9387C3.93908 14.9388 3.93901 14.9388 3.93895 14.9389C3.79958 15.0782 3.689 15.2435 3.61355 15.4255C3.53807 15.6076 3.49921 15.8028 3.49921 15.9999C3.49921 16.1971 3.53807 16.3923 3.61355 16.5744C3.689 16.7564 3.79958 16.9217 3.93895 17.061C3.93901 17.0611 3.93908 17.0611 3.93914 17.0612L12.9389 26.061C13.2204 26.3424 13.602 26.5005 14 26.5005C14.398 26.5005 14.7796 26.3424 15.0611 26.061C15.3425 25.7796 15.5006 25.3979 15.5006 24.9999C15.5006 24.602 15.3425 24.2203 15.0611 23.9389L15.061 23.9389L8.621 17.4999H27C27.3978 17.4999 27.7794 17.3419 28.0607 17.0606C28.342 16.7793 28.5 16.3978 28.5 15.9999C28.5 15.6021 28.342 15.2206 28.0607 14.9393C27.7794 14.658 27.3978 14.4999 27 14.4999L8.621 14.4999Z" fill="white" stroke="white"/>
</g>
</svg>
