<svg width="636" height="985" viewBox="0 0 636 985" fill="none" xmlns="http://www.w3.org/2000/svg">
<path d="M892.224 524.274C892.86 513.654 893.207 502.976 893.207 492.124C893.681 427.331 881.091 363.111 856.194 303.331C831.296 243.55 794.606 189.445 748.332 144.273C701.724 98.2501 646.491 61.9571 585.825 37.4914C462.815 -12.4971 325.259 -12.4971 202.249 37.4914C141.988 61.9793 87.1951 98.2804 41.0721 144.273C-5.97177 189.035 -43.3576 243.018 -68.7688 302.877C-118.41 424.041 -118.41 559.975 -68.7688 681.138C-43.4055 741.091 -6.01535 795.16 41.0721 839.975C87.1951 885.967 141.988 922.268 202.249 946.756C257.668 969.497 316.706 982.058 376.55 983.839C382.331 984.129 388.112 984.187 393.893 984.187H728.85V985H894.999V545.572C895.035 538.38 894.102 531.215 892.224 524.274ZM570.852 807.476L491.247 720.426C426.537 744.401 355.239 743.242 291.336 717.177C258.559 703.893 228.76 684.162 203.695 659.143C178.157 634.74 157.889 605.328 144.149 572.732C117.094 506.805 117.094 432.815 144.149 366.888C157.95 334.377 178.211 305.033 203.695 280.651C228.794 255.674 258.584 235.948 291.336 222.617C358.235 195.372 433.077 195.372 499.976 222.617C532.947 235.922 562.969 255.645 588.311 280.651C613.489 305.223 633.451 334.659 646.993 367.183C660.535 399.707 667.377 434.647 667.108 469.897C667.529 505.169 660.756 540.154 647.205 572.7C633.654 605.246 613.611 634.664 588.311 659.143C586.057 661.349 583.744 663.496 581.374 665.701L710.986 807.186L570.852 807.476Z" fill="#FF7A22"/>
<path d="M540 468.569C540 510.471 527.01 545.184 501.03 572.706C488.536 585.682 473.304 596.057 456.31 603.168C439.316 610.279 420.934 613.968 402.34 614C383.746 614.032 365.35 610.405 348.329 603.353C331.307 596.3 316.036 585.977 303.492 573.044C277.91 545.785 265.08 510.959 265 468.569C265 426.816 277.99 392.16 303.97 364.6C316.307 351.518 331.444 341.048 348.386 333.877C365.327 326.707 383.689 323 402.261 323C420.833 323 439.194 326.707 456.136 333.877C473.078 341.048 488.215 351.518 500.552 364.6C526.791 392.479 540 427.004 540 468.569Z" fill="#FF7A22"/>
</svg>
