<svg width="28" height="28" viewBox="0 0 28 28" fill="none" xmlns="http://www.w3.org/2000/svg">
<g id="CaretDown">
<path id="Vector" d="M23.3696 11.1191L14.6195 19.8691C14.5383 19.9504 14.4418 20.015 14.3356 20.059C14.2293 20.103 14.1155 20.1257 14.0005 20.1257C13.8855 20.1257 13.7716 20.103 13.6654 20.059C13.5592 20.015 13.4627 19.9504 13.3814 19.8691L4.63142 11.1191C4.46724 10.9549 4.375 10.7322 4.375 10.5C4.375 10.2678 4.46724 10.0451 4.63142 9.88094C4.79561 9.71675 5.01829 9.62451 5.25049 9.62451C5.48268 9.62451 5.70536 9.71675 5.86955 9.88094L14.0005 18.013L22.1314 9.88094C22.2127 9.79964 22.3092 9.73515 22.4155 9.69115C22.5217 9.64716 22.6355 9.62451 22.7505 9.62451C22.8655 9.62451 22.9793 9.64716 23.0855 9.69115C23.1917 9.73515 23.2883 9.79964 23.3696 9.88094C23.4508 9.96223 23.5153 10.0587 23.5593 10.165C23.6033 10.2712 23.626 10.385 23.626 10.5C23.626 10.615 23.6033 10.7288 23.5593 10.835C23.5153 10.9413 23.4508 11.0378 23.3696 11.1191Z" fill="#0078C9"/>
</g>
</svg>
