<svg width="214" height="6" viewBox="0 0 214 6" fill="none" xmlns="http://www.w3.org/2000/svg">
<g clip-path="url(#clip0_566_4571)">
<path fill-rule="evenodd" clip-rule="evenodd" d="M15.0739 3.04895C16.6348 3.18374 18.4931 3.31403 20.5337 3.43645C28.8221 3.93369 39.8798 4.28873 45.4227 4.31941C85.3125 4.54013 125.072 3.67329 164.882 2.15817C150.025 2.15804 135.168 2.16258 120.311 2.18055C87.7502 2.41794 51.1205 2.71779 24.0386 2.93948C21.0674 2.96381 18.2112 2.98719 15.4879 3.00944C15.3498 3.0225 15.2118 3.03566 15.0739 3.04895ZM201.492 2.16311C205.361 2.16361 209.229 2.16393 213.098 2.16393C213.596 2.16393 214 1.79534 214 1.34067C214 0.885996 213.596 0.517409 213.098 0.517409C210.41 0.517409 207.722 0.517252 205.033 0.51699C205.029 0.512172 205.024 0.50751 205.019 0.503006C204.91 0.397438 204.797 0.343569 204.747 0.32148C204.59 0.252404 204.427 0.235003 204.391 0.231165L204.386 0.230647C204.315 0.222556 204.236 0.217041 204.155 0.212873C203.991 0.204415 203.769 0.199009 203.49 0.196166C193.907 0.0985953 184.325 0.14402 174.751 0.1894L173.329 0.196126C159.475 0.261288 140.686 0.385424 120.302 0.534036C113.052 0.542807 105.802 0.554776 98.5522 0.570961C90.7006 0.588488 82.5765 0.44161 74.3268 0.292462C54.7326 -0.0617852 34.4298 -0.428843 15.3881 1.36367C9.98457 1.40782 5.10616 1.44753 0.893765 1.48132C0.395796 1.48532 -0.00434027 1.85713 3.55504e-05 2.31179C0.00441138 2.76644 0.411642 3.13178 0.909611 3.12778C3.3972 3.10782 6.11697 3.08581 9.03991 3.06203C9.04017 3.06793 9.0405 3.07386 9.04089 3.07982C9.05739 3.33257 9.18446 3.51733 9.28871 3.62713C9.47053 3.8186 9.7082 3.91605 9.83103 3.9624C10.1232 4.07263 10.526 4.16006 10.9662 4.23574C12.7594 4.54398 16.2735 4.83094 20.4154 5.07943C28.7349 5.57853 39.8287 5.935 45.4118 5.9659C93.8303 6.23382 142.049 4.90077 190.386 2.752C192.583 2.65434 196.97 2.43768 200.262 2.23967C200.691 2.21382 201.104 2.1882 201.492 2.16311ZM204.089 0.297483C204.088 0.297645 204.087 0.297815 204.087 0.297985C204.106 0.293274 204.109 0.293625 204.089 0.297483ZM10.4932 3.62704C10.4823 3.63255 10.4758 3.63503 10.4753 3.63489C10.4748 3.63475 10.4802 3.632 10.4932 3.62704Z" fill="#FE3152"/>
</g>
<defs>
<clipPath id="clip0_566_4571">
<rect width="214" height="6" fill="white"/>
</clipPath>
</defs>
</svg>
