<svg width="36" height="36" viewBox="0 0 36 36" fill="none" xmlns="http://www.w3.org/2000/svg">
<circle cx="18.4258" cy="18" r="17.5" fill="#18A0FB"/>
<g clip-path="url(#clip0_566_4462)">
<path d="M23.0894 16C23.0894 18.49 18.5894 24.5 18.5894 24.5C18.5894 24.5 14.0894 18.49 14.0894 16C14.0894 14.8065 14.5635 13.6619 15.4074 12.818C16.2513 11.9741 17.3959 11.5 18.5894 11.5C19.7828 11.5 20.9274 11.9741 21.7713 12.818C22.6152 13.6619 23.0894 14.8065 23.0894 16V16Z" stroke="white" stroke-width="1.1" stroke-linecap="round" stroke-linejoin="round"/>
<path d="M18.5894 17.5C19.4178 17.5 20.0894 16.8284 20.0894 16C20.0894 15.1716 19.4178 14.5 18.5894 14.5C17.7609 14.5 17.0894 15.1716 17.0894 16C17.0894 16.8284 17.7609 17.5 18.5894 17.5Z" stroke="white" stroke-width="1.1" stroke-linecap="round" stroke-linejoin="round"/>
</g>
<defs>
<clipPath id="clip0_566_4462">
<rect width="14" height="14" fill="white" transform="translate(11.5894 11)"/>
</clipPath>
</defs>
</svg>
