<svg width="20" height="19" viewBox="0 0 20 19" fill="none" xmlns="http://www.w3.org/2000/svg">
<g id="Layer_1" clip-path="url(#clip0_904_6564)">
<path id="Vector" d="M18.8535 0C12.9559 0 7.05835 0 1.16075 0C0.646984 0 0.451172 0.192939 0.451172 0.710051V8.2487C0.451172 8.73494 0.654739 8.93753 1.1433 8.93753H9.23941C9.17737 8.69441 9.12696 8.46673 9.05911 8.24291C8.84391 7.51548 8.98156 6.88259 9.51277 6.39828C9.21458 6.51086 8.9088 6.60243 8.59769 6.67228C8.29513 6.71382 7.98885 6.72158 7.68455 6.69543C7.54845 6.6856 7.42127 6.6244 7.32901 6.52434C7.23676 6.42427 7.1864 6.29288 7.18824 6.15709C7.18824 5.0341 7.18824 3.91049 7.18824 2.78622C7.18403 2.65368 7.23019 2.52444 7.31752 2.42429C7.40485 2.32414 7.52691 2.26047 7.65935 2.24597C8.18862 2.21509 8.71789 2.19965 9.22196 2.42733C9.5598 2.57699 9.85522 2.80746 10.0819 3.09821C10.3086 3.38897 10.4596 3.73099 10.5214 4.09385C10.5832 4.45671 10.5539 4.82914 10.4361 5.178C10.3183 5.52687 10.1157 5.84134 9.84623 6.09342C9.80732 6.12086 9.77491 6.15642 9.75124 6.19762C9.9296 6.13395 10.1041 6.05291 10.2883 6.00467C10.6827 5.91535 11.0963 5.97229 11.4515 6.16481C13.2855 7.06526 15.1202 7.95734 16.9555 8.84106C17.0839 8.90027 17.2232 8.93245 17.3646 8.9356C17.8629 8.9356 18.3611 8.9356 18.8594 8.9356C19.0133 8.95955 19.1708 8.93201 19.3073 8.85729C19.4438 8.78256 19.5515 8.66487 19.6135 8.52268V0.405195C19.4584 0.0906828 19.2025 0 18.8535 0ZM6.05796 6.10115C6.06386 6.17879 6.05352 6.25681 6.0276 6.33028C6.00168 6.40374 5.96074 6.47106 5.90737 6.52799C5.85399 6.58492 5.78934 6.63021 5.71749 6.66102C5.64564 6.69183 5.56815 6.70751 5.48992 6.70702C5.41326 6.70536 5.33774 6.68826 5.2679 6.65678C5.19807 6.62529 5.13535 6.58007 5.08355 6.52382C5.03174 6.46757 4.99191 6.40145 4.96646 6.32948C4.941 6.2575 4.93045 6.18115 4.93544 6.10501C4.93544 5.941 4.93544 5.77506 4.93544 5.59368H3.81292C3.81292 5.76155 3.81292 5.92555 3.81292 6.09149C3.81987 6.16903 3.81065 6.24716 3.78584 6.321C3.76103 6.39483 3.72117 6.46278 3.66875 6.52057C3.61633 6.57835 3.55249 6.62474 3.48122 6.65683C3.40995 6.68891 3.33278 6.706 3.25457 6.70702C3.17639 6.70673 3.09912 6.69037 3.02759 6.65899C2.95605 6.62761 2.89179 6.58188 2.83884 6.52464C2.78588 6.46741 2.74536 6.3999 2.71982 6.32637C2.69428 6.25283 2.68426 6.17485 2.6904 6.09728C2.6904 5.37757 2.6904 4.65785 2.6904 3.94007C2.68732 3.718 2.72854 3.49754 2.81169 3.29145C2.89483 3.08535 3.01823 2.89773 3.17475 2.73944C3.33127 2.58115 3.5178 2.45535 3.72352 2.36932C3.92924 2.28328 4.15007 2.23873 4.37321 2.23824C4.59652 2.23873 4.81751 2.28333 5.02336 2.36948C5.22921 2.45564 5.41582 2.58163 5.57237 2.74012C5.72891 2.89862 5.85227 3.08647 5.9353 3.29279C6.01833 3.49911 6.05936 3.71977 6.05603 3.942C6.06766 4.66171 6.06572 5.38143 6.06378 6.10115H6.05796ZM17.2425 5.7905C17.1989 5.89725 17.1235 5.98814 17.0265 6.05093C16.9294 6.11372 16.8153 6.14539 16.6996 6.14166H12.3181C11.9304 6.14166 11.6803 5.9217 11.6764 5.59175C11.6725 5.2618 11.9304 5.02639 12.322 5.02639H16.6744C16.7702 5.01763 16.8666 5.03346 16.9544 5.07237C17.0423 5.11127 17.1187 5.17194 17.1762 5.2486C17.2338 5.32525 17.2706 5.41531 17.2833 5.51018C17.2959 5.60506 17.2838 5.70158 17.2483 5.7905H17.2425ZM16.6337 3.91498H12.2813C12.1853 3.9228 12.089 3.90589 12.0015 3.86587C11.9141 3.82586 11.8385 3.7641 11.782 3.68654C11.7255 3.60898 11.69 3.51823 11.679 3.42306C11.6679 3.32789 11.6817 3.23149 11.719 3.14317C11.7641 3.0363 11.8415 2.94611 11.9406 2.88521C12.0397 2.82432 12.1554 2.79577 12.2716 2.80358H16.624C17.0215 2.80358 17.2793 3.0197 17.2812 3.35544C17.2832 3.69118 17.0331 3.91305 16.6395 3.91498H16.6337Z" fill="#D0D2DA"/>
<path id="Vector_2" d="M19.6075 10.4675V18.585C19.4582 18.9072 19.2003 18.9998 18.8533 18.9998C15.5691 18.9921 12.2836 18.9921 8.99684 18.9998C8.51022 18.9998 8.30859 18.8069 8.30859 18.3091V10.7511C8.30859 10.2649 8.50247 10.0642 9.00072 10.0642H9.52611C9.74325 10.8978 9.95457 11.7178 10.1678 12.5398C10.3462 13.2306 10.5401 13.9155 10.6971 14.6102C10.7526 14.8817 10.8746 15.1354 11.052 15.3489C11.2295 15.5623 11.4571 15.729 11.7147 15.8341C11.9723 15.9392 12.252 15.9795 12.529 15.9515C12.8059 15.9234 13.0717 15.8279 13.3027 15.6733C13.3195 15.6637 13.337 15.6553 13.3551 15.6483C13.5193 15.8133 13.6949 15.9667 13.8805 16.1075C14.1719 16.3043 14.5193 16.4021 14.8711 16.3865C15.2229 16.3708 15.5602 16.2425 15.8328 16.0206C16.521 15.4669 17.2015 14.9035 17.8665 14.3227C18.1755 14.045 18.3688 13.6621 18.4083 13.2496C18.4478 12.8371 18.3306 12.4248 18.0798 12.0941C18.0255 12.0188 17.9654 11.9474 17.9363 11.9011C18.0895 11.5982 18.2581 11.3223 18.3706 11.0309C18.4702 10.7203 18.4627 10.3855 18.3492 10.0797C19.0259 9.94459 19.3535 10.0449 19.6075 10.4675Z" fill="#D0D2DA"/>
<path id="Vector_3" d="M7.18714 10.7011V18.3497C7.18714 18.7742 6.96806 18.9942 6.54542 18.9942H1.08597C1.00052 19.0023 0.914336 18.9915 0.83359 18.9625C0.752843 18.9335 0.679544 18.8871 0.618944 18.8266C0.558344 18.7661 0.511945 18.6931 0.483083 18.6126C0.454221 18.5322 0.443612 18.4463 0.45201 18.3613V10.7127C0.45201 10.2747 0.667205 10.0586 1.10342 10.0586H6.54348C6.96806 10.0586 7.18714 10.2786 7.18714 10.7011Z" fill="#D0D2DA"/>
<path id="Vector_4" d="M17.0997 12.6502C17.3866 12.9917 17.3595 13.2927 17.0144 13.5802C16.416 14.0845 15.8143 14.5868 15.2094 15.0872C15.1497 15.1492 15.0767 15.1969 14.9958 15.2267C14.9149 15.2566 14.8282 15.2677 14.7423 15.2593C14.6564 15.251 14.5736 15.2233 14.5 15.1785C14.4265 15.1336 14.3641 15.0727 14.3176 15.0004L13.5169 14.0472L12.8073 14.6376C12.3634 15.0042 11.9291 14.8614 11.7856 14.3057L10.1222 7.86499C10.0214 7.47909 10.1939 7.14721 10.5526 7.09318C10.7061 7.08436 10.859 7.11774 10.9946 7.18966C12.7918 8.05601 14.5852 8.92621 16.3804 9.80415C16.5743 9.90062 16.7682 9.9971 16.962 10.0916C17.0548 10.1283 17.1359 10.1889 17.1971 10.2674C17.2583 10.3458 17.2972 10.4391 17.3099 10.5376C17.3226 10.6361 17.3085 10.7362 17.2691 10.8274C17.2298 10.9187 17.1666 10.9977 17.0861 11.0564C16.8341 11.2783 16.5743 11.4886 16.3106 11.7086L17.0997 12.6502Z" fill="#D0D2DA"/>
<path id="Vector_5" d="M9.4312 4.47276C9.4307 4.76618 9.31362 5.04751 9.10551 5.25535C8.89739 5.4632 8.61514 5.5807 8.32031 5.58223V3.36328C8.61514 3.36481 8.89739 3.48231 9.10551 3.69016C9.31362 3.89801 9.4307 4.17933 9.4312 4.47276Z" fill="#D0D2DA"/>
<path id="Vector_6" d="M4.94109 3.99413V4.46301H3.82244C3.82244 4.25269 3.80887 4.04815 3.82244 3.84748C3.83787 3.71402 3.90137 3.59064 4.00118 3.50018C4.10098 3.40972 4.23033 3.35832 4.36528 3.35547C4.50293 3.35705 4.63555 3.40715 4.73956 3.49689C4.84358 3.58662 4.91223 3.71017 4.93333 3.84555C4.93885 3.89488 4.94144 3.9445 4.94109 3.99413Z" fill="#D0D2DA"/>
</g>
<defs>
<clipPath id="clip0_904_6564">
<rect width="19.1565" height="19" fill="white" transform="translate(0.451172)"/>
</clipPath>
</defs>
</svg>
