<svg width="27" height="18" viewBox="0 0 27 18" fill="none" xmlns="http://www.w3.org/2000/svg">
<g clip-path="url(#clip0_904_6607)">
<path d="M26.0457 8.67571C25.922 8.67571 25.7983 8.67571 25.6811 8.67571C25.6811 8.61973 25.668 8.6025 25.668 8.58743C25.668 8.4518 25.668 8.31617 25.668 8.18054C25.668 7.85977 25.6181 7.81241 25.2969 7.81241H18.1795C17.8474 7.81241 17.7866 7.86193 17.7996 8.19562C17.8072 8.29485 17.7916 8.39446 17.7539 8.4867C17.7163 8.57894 17.6576 8.66131 17.5826 8.72737C17.1485 9.14287 16.7143 9.58852 16.2933 9.99756C16.2144 10.0685 16.1522 10.1558 16.1113 10.2533C16.0704 10.3509 16.0518 10.4561 16.0567 10.5616C16.0567 10.9513 16.0567 11.3388 16.0567 11.7284C16.0567 12.1181 16.035 12.1375 15.6551 12.1396H13.3955C13.0352 12.1396 12.994 12.1009 12.994 11.75C12.994 8.83072 12.994 5.91144 12.994 2.99217C12.994 2.65633 13.0395 2.61111 13.3803 2.61111H17.3981C17.7606 2.61111 17.7953 2.64772 17.7953 3.00294V6.55731C17.7953 6.88669 17.8539 6.9448 18.1795 6.9448H25.286C25.5986 6.9448 25.655 6.88668 25.6572 6.57237C25.6572 5.75213 25.6463 4.9319 25.6572 4.10951C25.674 3.55363 25.5694 3.0007 25.3506 2.48865C25.1318 1.9766 24.8039 1.51752 24.3895 1.14288C23.7102 0.497021 22.9179 0.0212449 21.9672 0.0169392C17.4198 -0.00674218 12.8724 0.00402209 8.32501 0.0169392C8.04382 0.0229018 7.76567 0.0760346 7.50236 0.174093C6.58203 0.501327 5.93736 1.173 5.37952 1.93727C4.36586 3.32155 3.73639 4.88884 3.19157 6.49702C3.0418 6.92759 3.04614 6.94051 2.58163 6.95127C2.5109 6.94089 2.4387 6.947 2.37076 6.96911C2.30282 6.99123 2.24102 7.02876 2.19025 7.0787C2.13948 7.12864 2.10114 7.1896 2.07827 7.2568C2.05541 7.324 2.04864 7.39556 2.05852 7.4658C2.05852 7.78658 2.05852 8.11166 2.05852 8.43028C2.05852 8.99648 2.17573 9.1149 2.7466 9.1149H3.79716V9.97604C3.40212 10.004 3.01575 9.9997 2.64241 10.0621C1.75129 10.1797 0.930481 10.6051 0.324219 11.2634V11.5175C0.589031 11.8985 0.795237 11.9287 1.16207 11.6337C1.77456 11.1148 2.55768 10.8368 3.36304 10.8522C4.7392 10.8824 5.83535 11.4357 6.53862 12.6413C6.82296 13.13 6.85769 13.6854 6.88808 14.2387C6.90545 14.581 7.05305 14.7231 7.39817 14.7381C7.48499 14.7381 7.56965 14.7381 7.6543 14.7381C11.2206 14.7381 14.7869 14.7381 18.3531 14.7381C18.6288 14.7381 18.7547 14.7984 18.8111 15.0848C18.9413 15.6959 19.2849 16.2418 19.7814 16.6262C20.1461 16.9366 20.5801 17.1564 21.0475 17.2673C21.5149 17.3781 22.0022 17.3769 22.469 17.2637C22.9358 17.1505 23.3687 16.9285 23.7318 16.6162C24.0948 16.3039 24.3776 15.9103 24.5567 15.4679C24.6565 15.2397 24.7151 14.9943 24.7955 14.7446H25.0125C25.5704 14.7446 25.6876 14.6262 25.6876 14.0751V11.2763H26.0001C26.406 11.2763 26.5558 11.1235 26.558 10.7231C26.558 10.2064 26.558 9.69184 26.558 9.17516C26.5672 9.10666 26.5602 9.03698 26.5375 8.97162C26.5149 8.90626 26.4773 8.84704 26.4276 8.79859C26.3779 8.75015 26.3175 8.71383 26.2512 8.6925C26.185 8.67117 26.1146 8.66542 26.0457 8.67571ZM6.16528 6.29036C6.07411 6.62189 5.98512 6.66065 5.67689 6.50564C5.31875 6.32911 4.96277 6.14825 4.5916 5.97602C4.42881 5.89852 4.35283 5.78658 4.42229 5.61005C4.84895 4.43418 5.433 3.32052 6.15876 2.29896C6.49086 1.86839 6.49955 1.86838 6.96405 2.18701C7.0497 2.25827 7.1282 2.33758 7.19848 2.42381C7.16809 2.54868 7.1529 2.62188 7.13336 2.69508C6.81645 3.89924 6.49376 5.09767 6.16528 6.29036ZM12.1149 6.5982C12.1149 6.89529 12.0628 6.94265 11.748 6.94265H7.32003C6.99878 6.94265 6.92064 6.84362 7.00529 6.53576C7.33739 5.32155 7.67601 4.10736 8.00377 2.89315C8.01721 2.80543 8.06469 2.72639 8.13606 2.67289C8.20742 2.6194 8.29704 2.59568 8.38579 2.6068C9.51884 2.6068 10.6533 2.6068 11.7893 2.6068C12.0302 2.6068 12.1214 2.708 12.1192 2.94266C12.1127 4.16117 12.117 5.37968 12.1149 6.5982ZM21.7219 16.4712C20.6952 16.4712 19.7163 15.6639 19.6316 14.7489H23.8339C23.721 15.6961 22.7442 16.4819 21.7219 16.4712Z" fill="#FF7A22"/>
<path d="M3.51282 11.7285C2.84608 11.6505 2.17294 11.8077 1.61136 12.1726C1.04979 12.5375 0.635614 13.0868 0.441431 13.7242C0.40019 13.8663 0.363289 14.0127 0.324219 14.1548V14.8652C0.344127 14.9202 0.360797 14.9763 0.374143 15.0332C0.469919 15.5447 0.706701 16.0199 1.05822 16.4061C1.40974 16.7922 1.86225 17.0742 2.36555 17.2208C2.86885 17.3674 3.40326 17.3729 3.90949 17.2366C4.41571 17.1002 4.87396 16.8275 5.2334 16.4485C5.59283 16.0696 5.8394 15.5993 5.94573 15.0899C6.05207 14.5804 6.01402 14.0517 5.83581 13.5623C5.6576 13.073 5.34619 12.6422 4.93614 12.3178C4.52609 11.9933 4.03343 11.7879 3.51282 11.7242V11.7285ZM3.15467 16.4648C2.76981 16.4605 2.39478 16.3436 2.07668 16.1287C1.75857 15.9138 1.51156 15.6105 1.36665 15.2569C1.22173 14.9032 1.18537 14.515 1.26213 14.1409C1.33889 13.7669 1.52535 13.4236 1.79811 13.1543C2.07086 12.8849 2.41776 12.7015 2.79525 12.627C3.17273 12.5525 3.56399 12.5903 3.91992 12.7356C4.27584 12.8809 4.58056 13.1272 4.79582 13.4437C5.01109 13.7601 5.12732 14.1326 5.1299 14.5143C5.12704 15.0343 4.91675 15.5321 4.54501 15.8987C4.17326 16.2654 3.67028 16.4713 3.14599 16.4713L3.15467 16.4648Z" fill="#FF7A22"/>
</g>
<defs>
<clipPath id="clip0_904_6607">
<rect width="26.2142" height="17.3391" fill="white" transform="translate(0.324219)"/>
</clipPath>
</defs>
</svg>
