<svg width="24" height="21" viewBox="0 0 24 21" fill="none" xmlns="http://www.w3.org/2000/svg">
<g id="Layer_1" clip-path="url(#clip0_904_6623)">
<path id="Vector" d="M16.9796 6.30972C14.8564 4.39729 12.7072 2.51109 10.5861 0.594468C9.64599 -0.254219 8.27695 -0.152463 7.40171 0.64377C5.36921 2.49116 3.31294 4.31546 1.25775 6.13663C0.592138 6.72829 0.158839 7.42906 0.0334965 8.30188C0.0262808 8.32986 0.0150025 8.35671 0 8.38161V19.1533C0.0388995 19.2782 0.0734754 19.403 0.116697 19.5257C0.264489 19.9597 0.551479 20.3365 0.93567 20.6007C1.31986 20.865 1.78108 21.0029 2.25185 20.9944C4.53827 20.9986 6.8247 20.9986 9.11112 20.9944H15.7024C17.1287 20.9944 18.0656 20.0838 18.0656 18.6938C18.0656 15.4117 18.0656 12.1299 18.0656 8.84844C18.0612 7.86128 17.7328 6.98846 16.9796 6.30972ZM9.03981 3.50245C9.21949 3.50245 9.39182 3.57175 9.51887 3.6951C9.64593 3.81845 9.71731 3.98576 9.71731 4.16021C9.71731 4.33466 9.64593 4.50196 9.51887 4.62532C9.39182 4.74867 9.21949 4.81797 9.03981 4.81797C8.86012 4.81797 8.6878 4.74867 8.56074 4.62532C8.43369 4.50196 8.36231 4.33466 8.36231 4.16021C8.36231 3.98576 8.43369 3.81845 8.56074 3.6951C8.6878 3.57175 8.86012 3.50245 9.03981 3.50245ZM4.04122 11.5686C3.07738 10.4147 3.42856 8.57359 4.7533 7.93786C4.98824 7.84073 5.23257 7.76658 5.48267 7.71651C6.25633 7.73854 6.76527 7.97772 7.16723 8.42462C7.54483 8.85854 7.75823 9.40478 7.77199 9.97267C7.78574 10.5406 7.59904 11.0959 7.24287 11.5466C6.39788 12.5915 4.9035 12.602 4.04122 11.5686ZM8.03923 16.5758C7.89119 16.9199 7.63943 17.0741 7.30662 17.0437C7.1625 17.0302 7.027 16.9709 6.92126 16.8749C6.81552 16.7788 6.74547 16.6516 6.72205 16.5128C6.7034 16.3761 6.72126 16.237 6.77391 16.109C7.8631 13.5723 8.95697 11.0371 10.0555 8.5033C10.1127 8.35798 10.2209 8.23698 10.3611 8.16172C10.5013 8.08645 10.6645 8.06177 10.8216 8.09207C11.1404 8.15816 11.3619 8.42042 11.3619 8.79913C11.3432 8.88511 11.3179 8.96963 11.2863 9.05196C10.21 11.5606 9.12913 14.0685 8.04355 16.5758H8.03923ZM13.9141 16.9723C13.7251 17.1654 13.4967 17.3182 13.2435 17.421C12.9903 17.5238 12.7179 17.5744 12.4435 17.5695C12.1691 17.5645 11.8988 17.5042 11.6497 17.3924C11.4006 17.2806 11.1782 17.1196 10.9967 16.9199C10.1322 16.0177 10.1322 14.5186 10.9891 13.6122C11.886 12.668 13.3566 12.7562 14.1432 13.8084C14.4632 14.2424 14.632 14.7643 14.6251 15.298C14.6249 15.9251 14.3712 16.5271 13.9185 16.9744L13.9141 16.9723Z" fill="#FF7A22"/>
<path id="Vector_2" d="M22.1409 16.1273C21.2765 16.5731 20.3612 16.912 19.4212 17.319V17.02C19.4212 14.3617 19.406 11.7023 19.4212 9.04718C19.4331 7.45471 18.8485 6.15075 17.6264 5.08596C16.0661 3.72219 14.535 2.33323 12.9909 0.954775C12.9564 0.927915 12.9203 0.903036 12.8828 0.880284L12.9196 0.832031C14.4323 1.18032 15.9451 1.49398 17.4427 1.89052C17.9406 2.01505 18.3981 2.2594 18.773 2.60099C19.1479 2.94259 19.428 3.3704 19.5876 3.84492C20.7664 7.10853 21.9129 10.3837 23.068 13.6546C23.3997 14.5841 23.0356 15.6636 22.1409 16.1273Z" fill="#FF7A22"/>
<path id="Vector_3" d="M6.10661 10.8091C6.0466 10.8754 5.97253 10.9284 5.88948 10.9643C5.80643 11.0002 5.71637 11.0183 5.62545 11.0173C5.53453 11.0163 5.44491 10.9963 5.36272 10.9585C5.28053 10.9208 5.20771 10.8662 5.14925 10.7986C4.94957 10.5752 4.84285 10.2876 4.84994 9.99188C4.85419 9.71928 4.96192 9.45779 5.15249 9.25754C5.21153 9.19027 5.28491 9.13626 5.36755 9.09921C5.4502 9.06216 5.54014 9.04297 5.63117 9.04297C5.7222 9.04297 5.81215 9.06216 5.89479 9.09921C5.97744 9.13626 6.05082 9.19027 6.10985 9.25754C6.51398 9.65094 6.5129 10.4136 6.10661 10.8091Z" fill="#FF7A22"/>
<path id="Vector_4" d="M13.2711 15.2534C13.2756 15.5304 13.1757 15.7994 12.9901 16.0098C12.7038 16.3245 12.304 16.3245 12.0036 16.0286C11.6146 15.6373 11.6103 14.9041 11.9939 14.5044C12.2932 14.1896 12.7059 14.1959 12.9955 14.5191C13.1754 14.7236 13.2733 14.9844 13.2711 15.2534Z" fill="#FF7A22"/>
</g>
<defs>
<clipPath id="clip0_904_6623">
<rect width="23.1895" height="21" fill="white"/>
</clipPath>
</defs>
</svg>
