<svg width="17" height="22" viewBox="0 0 17 22" fill="none" xmlns="http://www.w3.org/2000/svg">
<g id="Layer_1" clip-path="url(#clip0_904_6639)">
<path id="Vector" d="M15.6859 0H0.984158C0.532769 0 0.419922 0.111925 0.419922 0.559626V17.5006C0.419922 17.9483 0.532769 18.0602 0.984158 18.0602H15.6859C16.1373 18.0602 16.2558 17.9483 16.2558 17.5006V0.564107C16.2558 0.114168 16.1407 0 15.6859 0ZM14.6703 15.9337C14.6703 16.3814 14.5574 16.4989 14.1004 16.4989H2.56853C2.11715 16.4989 2.0043 16.387 2.0043 15.9337V2.13554C2.0043 1.68784 2.11715 1.57591 2.56853 1.57591H14.1027C14.554 1.57591 14.6669 1.68784 14.6669 2.13554L14.6703 15.9337Z" fill="#FF7A22"/>
<path id="Vector_2" d="M4.37544 21.4962C4.37544 21.8633 4.23889 21.9965 3.86762 21.9976C3.40608 21.9976 2.94453 21.9976 2.48412 21.9976C2.14557 21.9976 2.00113 21.8566 2 21.5219C2 20.6422 2 19.7613 2 18.8604H4.35738C4.36669 18.9219 4.37272 18.9839 4.37544 19.0462C4.37619 19.8632 4.37619 20.6799 4.37544 21.4962Z" fill="#FF7A22"/>
<path id="Vector_3" d="M14.6723 21.4995C14.6723 21.8633 14.5335 21.9965 14.1622 21.9976C13.7007 21.9976 13.2391 21.9976 12.7787 21.9976C12.4402 21.9976 12.298 21.8566 12.2969 21.5197C12.2969 20.6869 12.2969 19.8531 12.2969 19.0204C12.2969 18.9734 12.2969 18.9264 12.3048 18.8682H14.6543C14.6543 18.9252 14.6712 18.9868 14.6712 19.0484C14.6727 19.8654 14.6731 20.6825 14.6723 21.4995Z" fill="#FF7A22"/>
<path id="Vector_4" d="M2.80859 2.36816V15.694H13.8676V2.36816H2.80859ZM12.2945 12.0967C12.2945 12.4325 12.149 12.5679 11.8082 12.5701C11.338 12.5701 10.8678 12.5701 10.3976 12.5701C10.059 12.5701 9.92361 12.4258 9.9191 12.0877C9.9191 11.6669 9.9191 11.6669 9.50834 11.5281L7.54254 10.8308C7.54254 11.5147 7.54254 12.1515 7.54254 12.7884C7.54254 13.2518 7.42969 13.3603 6.95573 13.3603H5.66927C5.30252 13.3603 5.16823 13.2238 5.1671 12.8533C5.1671 11.9691 5.1671 11.086 5.1671 10.2029C5.1671 10.0328 5.11971 9.94886 4.95495 9.91416C4.85126 9.88664 4.74979 9.85147 4.65139 9.80894C4.56775 9.78298 4.49504 9.73045 4.44447 9.65946C4.3939 9.58847 4.36827 9.50295 4.37153 9.41609C4.37153 8.90123 4.37153 8.38638 4.37153 7.87041C4.37153 7.63872 4.51936 7.53463 4.72587 7.45852C6.36215 6.8821 7.99844 6.29562 9.63472 5.7248C9.84462 5.65205 9.93038 5.56586 9.92023 5.33306C9.89879 4.81373 10.0094 4.71859 10.5307 4.71859C10.9596 4.71859 11.3872 4.71859 11.8161 4.71859C12.1411 4.71859 12.2878 4.86298 12.2889 5.18196C12.2934 7.48464 12.2953 9.78955 12.2945 12.0967Z" fill="#FF7A22"/>
<path id="Vector_5" d="M9.9082 6.45703V10.8221L6.75977 9.70286V7.56061L9.9082 6.45703Z" fill="#FF7A22"/>
<path id="Vector_6" d="M11.4875 5.51855H10.7246V11.7729H11.4875V5.51855Z" fill="#FF7A22"/>
<path id="Vector_7" d="M6.75213 12.5599H5.97461V10.2744C6.2003 10.355 6.426 10.4255 6.65169 10.5151C6.67993 10.5327 6.70362 10.5567 6.72086 10.5851C6.7381 10.6135 6.74842 10.6454 6.751 10.6785C6.75551 11.2985 6.75213 11.9219 6.75213 12.5599Z" fill="#FF7A22"/>
<path id="Vector_8" d="M5.95359 7.87695V9.42153C5.70419 9.33646 5.46834 9.26035 5.23814 9.17081C5.20202 9.15626 5.17833 9.08238 5.17043 9.03313C5.16455 8.95863 5.16455 8.88379 5.17043 8.80928C5.16704 8.06274 5.16704 8.06275 5.95359 7.87695Z" fill="#FF7A22"/>
</g>
<defs>
<clipPath id="clip0_904_6639">
<rect width="15.8404" height="22" fill="white" transform="translate(0.416016)"/>
</clipPath>
</defs>
</svg>
