<svg width="24" height="24" viewBox="0 0 24 24" fill="none" xmlns="http://www.w3.org/2000/svg">
<g id="UploadSimple">
<path id="Vector" d="M9.51691 8.85969L9.5595 8.81463L10.9809 7.31119L11.3263 6.94594V7.44859V13.8511C11.3263 14.0472 11.3999 14.233 11.5277 14.3684C11.6552 14.5033 11.8255 14.5768 12.0006 14.5768C12.1756 14.5768 12.3459 14.5033 12.4734 14.3684C12.6012 14.233 12.6748 14.0472 12.6748 13.8511V7.44859V6.94538L13.0203 7.3113L14.4417 8.81702C14.5694 8.95226 14.7401 9.02594 14.9156 9.02594C15.091 9.02594 15.2617 8.95226 15.3895 8.81702C15.5176 8.68139 15.5914 8.49512 15.5914 8.29867C15.5914 8.10221 15.5176 7.91594 15.3895 7.78031L12.4752 4.69474L12.4749 4.69449C12.4117 4.62733 12.3372 4.5747 12.2561 4.53901C12.1749 4.50334 12.0884 4.48516 12.0013 4.48516C11.9142 4.48516 11.8276 4.50334 11.7465 4.53901M9.51691 8.85969L11.7465 4.53901M9.51691 8.85969C9.39527 8.96768 9.243 9.02594 9.087 9.02594C8.91157 9.02594 8.74085 8.95226 8.61311 8.81702C8.48501 8.68139 8.4112 8.49512 8.4112 8.29867C8.4112 8.20162 8.42926 8.10577 8.46412 8.01668C8.49897 7.9276 8.54978 7.84737 8.61311 7.78031L11.5274 4.69474L11.5276 4.69449C11.5909 4.62733 11.6653 4.5747 11.7465 4.53901M9.51691 8.85969L11.7465 4.53901M6.26342 17.8624V18.0624H6.46342H17.5377H17.7377V17.8624V13.8511C17.7377 13.6551 17.8114 13.4693 17.9392 13.3339C18.0666 13.199 18.237 13.1255 18.412 13.1255C18.587 13.1255 18.7573 13.199 18.8848 13.3339C19.0126 13.4693 19.0863 13.6551 19.0863 13.8511V18.1709C19.0863 18.5306 18.9512 18.8735 18.7141 19.1245C18.4773 19.3752 18.1587 19.5137 17.8291 19.5137H6.17199C5.84238 19.5137 5.52379 19.3752 5.28703 19.1245C5.04991 18.8735 4.91484 18.5306 4.91484 18.1709V13.8511C4.91484 13.6551 4.9885 13.4693 5.11632 13.3339C5.24377 13.199 5.4141 13.1255 5.58913 13.1255C5.76416 13.1255 5.93449 13.199 6.06194 13.3339C6.18976 13.4693 6.26342 13.6551 6.26342 13.8511V17.8624Z" fill="#606060" stroke="white" stroke-width="0.4"/>
</g>
</svg>
