<svg width="1262" height="1270" viewBox="0 0 1262 1270" fill="none" xmlns="http://www.w3.org/2000/svg">
<path d="M710.714 587.017C710.714 611.237 703.645 631.293 689.507 647.186C675.368 663.079 657.486 671.026 635.859 671.026C613.842 671.026 595.875 663.146 581.96 647.387C568.045 631.628 561.071 611.511 561.038 587.034C561.038 562.937 568.107 542.925 582.245 526.999C596.384 511.072 614.266 503.086 635.893 503.042C657.128 503.042 674.916 511.05 689.255 527.066C703.438 543.076 710.714 563.026 710.714 587.017Z" fill="#FF7A22"/>
<path d="M916.704 626.9V595.047C916.704 595.047 916.051 584.871 914.408 571.576C911.863 544.569 905.22 518.107 894.709 493.1C880.694 459.764 860.112 429.592 834.188 404.38C807.955 378.598 776.887 358.253 742.769 344.513C708.485 330.588 671.823 323.454 634.82 323.506C597.823 323.414 561.165 330.549 526.904 344.513C493.004 358.253 462.178 378.604 436.223 404.38C409.823 429.478 388.844 459.717 374.579 493.234C360.521 526.825 353.393 562.909 353.622 599.322C353.427 635.685 360.56 671.714 374.595 705.259C388.822 738.861 409.804 769.179 436.24 794.331C462.191 820.107 493.018 840.454 526.921 854.182C558.113 866.917 591.335 873.958 625.012 874.97C628.365 875.121 631.551 875.155 634.836 875.155H823.307V875.624H916.922V629.18C916.922 628.443 916.755 627.688 916.704 626.9ZM734.403 776.108L689.591 727.49C672.384 733.891 654.168 737.151 635.809 737.113C615.689 737.171 595.753 733.281 577.132 725.662C558.695 718.219 541.927 707.173 527.809 693.172C513.443 679.48 502.032 662.991 494.28 644.721C486.632 626.468 482.749 606.858 482.863 587.067C482.735 567.253 486.619 547.619 494.28 529.345C502.067 511.12 513.474 494.665 527.809 480.979C541.931 466.983 558.698 455.938 577.132 448.488C595.752 440.864 615.688 436.968 635.809 437.021C655.928 436.992 675.859 440.887 694.486 448.488C713.056 455.901 729.969 466.927 744.244 480.928C758.32 494.638 769.51 511.026 777.154 529.128C784.812 547.443 788.695 567.115 788.57 586.966C788.718 606.808 784.876 626.478 777.271 644.805C769.599 662.955 758.369 679.383 744.244 693.122C742.97 694.345 741.646 695.552 740.338 696.793L813.265 776.108H734.403Z" fill="#FF7A22"/>
<path d="M95.5943 653.015L93.0483 615.564L111.125 614.369L115.221 674.617L1.54977 682.132L0 659.336L95.5943 653.015Z" fill="#FF7A22"/>
<path d="M72.7896 512.166C76.0409 512.455 78.9484 512.931 81.5119 513.596L75.8063 579.448C82.356 579.484 87.647 577.66 91.6794 573.977C95.7118 570.293 97.9815 565.525 98.4887 559.671C99.2213 551.216 96.1118 544.877 89.1604 540.655L91.2877 516.103C99.7325 519.475 106.453 525.096 111.451 532.968C116.339 540.83 118.319 550.127 117.389 560.859C116.637 569.531 114.065 577.167 109.67 583.767C105.177 590.25 99.239 595.13 91.8563 598.406C84.483 601.574 76.1902 602.749 66.978 601.931C57.6575 601.103 49.6393 598.479 42.9234 594.059C36.2075 589.64 31.2488 583.847 28.0472 576.681C24.8456 569.515 23.6299 561.487 24.4001 552.598C25.142 544.035 27.6466 536.556 31.9137 530.163C36.1903 523.661 41.9022 518.871 49.0493 515.792C56.0975 512.595 64.0109 511.386 72.7896 512.166ZM64.2441 535.165C58.3823 534.754 53.5389 536.453 49.7139 540.264C45.7805 544.066 43.5556 548.948 43.039 554.91C42.5506 560.546 43.8714 565.47 47.0015 569.68C50.0325 573.773 54.545 576.522 60.5391 577.928L64.2441 535.165Z" fill="#FF7A22"/>
<path d="M60.3516 468.675L102.892 478.85C105.854 479.558 108.187 479.389 109.888 478.342C111.509 477.163 112.721 474.88 113.523 471.492L115.967 461.168L134.697 465.648L131.388 479.624C126.951 498.365 115.632 505.558 97.4309 501.205L55.0497 491.068L52.568 501.55L34.3139 497.184L36.7957 486.702L15.0495 481.501L20.3514 459.108L42.0976 464.309L46.7602 444.616L65.0143 448.982L60.3516 468.675Z" fill="#FF7A22"/>
<path d="M36.3601 403.6L44.479 381.024L77.1847 411.615L71.8826 426.358L36.3601 403.6Z" fill="#FF7A22"/>
<path d="M177.827 368.604C174.445 375.185 170.251 380.489 165.245 384.516C160.143 388.493 154.765 390.982 149.114 391.982C143.512 392.884 138.171 392.208 133.092 389.951L143.611 369.484C146.903 370.695 150.236 370.518 153.609 368.954C157.031 367.292 159.762 364.478 161.801 360.51C163.791 356.639 164.559 353.24 164.107 350.312C163.704 347.287 162.294 345.151 159.877 343.903C157.267 342.554 154.637 342.911 151.988 344.971C149.292 346.885 145.678 350.346 141.147 355.353C136.614 360.604 132.579 364.765 129.043 367.837C125.556 370.813 121.497 372.88 116.864 374.038C112.282 375.1 107.284 374.233 101.87 371.437C97.4231 369.14 94.0095 365.785 91.6291 361.371C89.2984 356.861 88.2882 351.685 88.5984 345.845C88.9584 339.908 90.8045 333.697 94.1368 327.213C99.0605 317.633 105.406 311.236 113.174 308.023C120.846 304.76 128.891 304.936 137.309 308.549L127.313 328.001C123.973 326.643 120.764 326.7 117.683 328.171C114.556 329.494 111.973 332.14 109.934 336.108C108.044 339.785 107.254 342.99 107.563 345.721C107.921 348.355 109.309 350.297 111.726 351.545C114.433 352.943 117.207 352.662 120.05 350.701C122.796 348.691 126.361 345.205 130.746 340.245C135.18 335.187 139.14 331.171 142.626 328.196C146.113 325.22 150.196 323.227 154.875 322.215C159.508 321.056 164.507 321.802 169.874 324.451C174.514 326.848 178 330.302 180.33 334.812C182.711 339.225 183.721 344.401 183.361 350.338C182.954 356.128 181.109 362.217 177.827 368.604Z" fill="#FF7A22"/>
<path d="M234.475 154.675C242.246 146.752 250.938 142.786 260.55 142.776C270.161 142.612 279.311 146.801 288.001 155.344L325.826 192.53L309.825 208.842L274.212 173.83C269.169 168.872 264.071 166.377 258.918 166.347C253.688 166.241 248.902 168.401 244.559 172.828C240.216 177.256 238.107 182.125 238.232 187.436C238.356 192.592 240.939 197.65 245.982 202.608L281.596 237.62L265.595 253.932L229.982 218.919C224.939 213.961 219.841 211.467 214.688 211.437C209.458 211.33 204.672 213.491 200.329 217.918C195.91 222.423 193.763 227.331 193.888 232.642C194.011 237.798 196.595 242.856 201.638 247.814L237.251 282.826L221.251 299.138L156.774 235.75L172.775 219.438L180.573 227.104C179.914 222.337 180.409 217.56 182.057 212.772C183.782 207.906 186.587 203.493 190.473 199.532C195.426 194.483 200.931 191.046 206.989 189.22C212.97 187.318 219.006 187.225 225.096 188.94C223.429 183.182 223.413 177.216 225.049 171.042C226.761 164.791 229.903 159.335 234.475 154.675Z" fill="#FF7A22"/>
<path d="M298.994 156.702C294.038 149.023 291.15 141.239 290.332 133.349C289.605 125.4 290.814 118.144 293.959 111.581C297.196 104.958 302.059 99.5518 308.549 95.3617C314.217 91.7028 319.89 89.6587 325.57 89.2295C331.342 88.7412 336.628 89.4079 341.429 91.2294L334.438 80.3962L353.771 67.9145L402.801 143.884L383.468 156.365L376.299 145.258C376.132 150.417 374.622 155.601 371.768 160.81C368.947 165.87 364.703 170.229 359.036 173.888C352.637 178.019 345.725 180.15 338.299 180.282C330.964 180.355 323.826 178.423 316.882 174.487C309.972 170.401 304.009 164.473 298.994 156.702ZM358.953 118.381C355.944 113.718 352.463 110.332 348.511 108.221C344.5 106.019 340.38 105.053 336.151 105.322C331.863 105.5 327.936 106.74 324.371 109.042C320.806 111.343 318.076 114.336 316.18 118.021C314.285 121.705 313.469 125.858 313.732 130.48C314.028 134.952 315.651 139.473 318.601 144.044C321.551 148.615 325.062 152.047 329.132 154.34C333.234 156.484 337.384 157.496 341.581 157.377C345.869 157.198 349.749 155.988 353.223 153.745C356.788 151.444 359.564 148.421 361.551 144.678C363.479 140.843 364.295 136.69 363.999 132.218C363.644 127.656 361.962 123.043 358.953 118.381Z" fill="#FF7A22"/>
<path d="M462.562 121.637L419.336 98.0123L434.271 133.516L413.204 142.362L366.374 31.0373L387.441 22.191L414.084 85.5258L427.201 38.4198L454.588 26.9196L435.464 84.1594L489.949 110.136L462.562 121.637Z" fill="#FF7A22"/>
<path d="M566.919 46.0181C567.668 49.1951 568.13 52.1041 568.306 54.7451L503.95 69.8285C505.978 76.0584 509.376 80.5144 514.145 83.1964C518.914 85.8784 524.158 86.549 529.878 85.2082C538.141 83.2716 543.184 78.3459 545.007 70.4312L569.001 64.8075C568.456 73.8755 565.231 82.0071 559.326 89.2024C553.396 96.2917 545.187 101.065 534.7 103.523C526.225 105.51 518.161 105.444 510.507 103.327C502.934 101.078 496.43 96.9593 490.993 90.9695C485.662 84.9549 481.936 77.4468 479.813 68.4452C477.666 59.3376 477.635 50.9076 479.719 43.155C481.804 35.4024 485.746 28.8907 491.546 23.62C497.346 18.3492 504.59 14.6958 513.276 12.6599C521.645 10.6984 529.538 10.7483 536.955 12.8096C544.478 14.8461 550.826 18.7781 556.001 24.6057C561.257 30.3026 564.896 37.4401 566.919 46.0181ZM542.38 45.0642C540.926 39.3704 537.786 35.3008 532.962 32.8554C528.112 30.3042 522.774 29.7113 516.948 31.0769C511.439 32.368 507.178 35.1548 504.163 39.4375C501.229 43.5895 500.038 48.73 500.589 54.8591L542.38 45.0642Z" fill="#FF7A22"/>
<path d="M666.031 93.3914C658.634 93.2079 652.029 91.738 646.215 88.9816C640.403 86.1165 635.808 82.3564 632.432 77.7014C629.164 73.0491 627.43 67.9451 627.229 62.3894L650.235 62.9601C650.591 66.4517 652.211 69.3762 655.096 71.7333C658.089 74.0932 661.816 75.3285 666.276 75.4391C670.627 75.547 674.018 74.7605 676.451 73.0794C678.992 71.401 680.294 69.2021 680.356 66.4827C680.422 63.5457 678.949 61.3324 675.936 59.8427C673.033 58.247 668.339 56.498 661.852 54.5956C655.146 52.7967 649.637 50.973 645.325 49.1246C641.123 47.279 637.485 44.5222 634.412 40.8543C631.448 37.1891 630.036 32.3107 630.174 26.2192C630.288 21.2155 631.806 16.6819 634.728 12.6185C637.759 8.55785 641.966 5.39707 647.351 3.1362C652.844 0.878012 659.234 -0.160686 666.522 0.0201011C677.29 0.287234 685.821 3.21983 692.115 8.81789C698.411 14.3072 701.782 21.6285 702.227 30.782L680.364 30.2397C680.119 26.6419 678.66 23.7759 675.988 21.6417C673.427 19.4014 669.917 18.2259 665.457 18.1153C661.324 18.0128 658.098 18.6946 655.779 20.1608C653.569 21.6297 652.433 23.7239 652.371 26.4433C652.302 29.4891 653.771 31.8656 656.78 33.5728C659.791 35.1712 664.487 36.8659 670.867 38.6567C677.356 40.4503 682.702 42.2699 686.905 44.1156C691.107 45.9612 694.689 48.7711 697.651 52.545C700.723 56.2129 702.246 61.0396 702.219 67.025C702.1 72.2463 700.525 76.8873 697.494 80.948C694.572 85.0114 690.365 88.1722 684.872 90.4303C679.49 92.5824 673.21 93.5695 666.031 93.3914Z" fill="#FF7A22"/>
<path d="M754.062 105.063C745.517 103.403 738.186 100.039 732.068 94.9711C725.971 89.7963 721.613 83.3522 718.994 75.6388C716.482 67.9462 716.097 59.5586 717.84 50.4759C719.584 41.3932 723.098 33.763 728.383 27.5852C733.774 21.4281 740.3 17.154 747.961 14.7629C755.641 12.2649 763.754 11.846 772.299 13.5061C780.844 15.1661 788.218 18.594 794.422 23.7895C800.647 28.8783 805.069 35.2793 807.688 42.9927C810.413 50.7268 810.905 59.1352 809.161 68.2179C807.418 77.3005 803.797 84.91 798.299 91.0463C792.907 97.2034 786.317 101.521 778.53 103.998C770.869 106.389 762.713 106.744 754.062 105.063ZM757.815 85.5087C761.874 86.2972 765.85 86.0722 769.744 84.8336C773.765 83.5089 777.223 81.0772 780.118 77.5386C783.013 74 785.004 69.399 786.091 63.7357C787.711 55.2941 786.709 48.3936 783.084 43.0342C779.587 37.5886 774.634 34.2433 768.225 32.9983C761.817 31.7532 755.982 33.0027 750.721 36.7467C745.588 40.4045 742.211 46.4543 740.591 54.8958C738.97 63.3374 739.802 70.2602 743.086 75.6642C746.497 80.9822 751.407 84.2637 757.815 85.5087Z" fill="#FF7A22"/>
<path d="M943.277 74.99C953.46 79.4028 960.291 86.0981 963.769 95.0758C967.389 103.997 966.789 114.053 961.968 125.245L940.982 173.96L920.017 164.875L939.776 119.008C942.574 112.513 943.057 106.852 941.226 102.027C939.438 97.1021 935.699 93.4066 930.009 90.9406C924.318 88.4746 919.022 88.2549 914.121 90.2814C909.363 92.2513 905.585 96.4838 902.787 102.979L883.028 148.846L862.063 139.761L881.822 93.8939C884.62 87.3986 885.103 81.7384 883.272 76.9131C881.484 71.988 877.745 68.2924 872.055 65.8264C866.264 63.3172 860.919 63.0758 856.018 65.1024C851.259 67.0722 847.481 71.3048 844.683 77.8001L824.925 123.667L803.96 114.582L839.732 31.5418L860.697 40.627L856.371 50.6697C860.573 48.3404 865.201 47.0849 870.255 46.9034C875.409 46.7652 880.531 47.7992 885.623 50.0056C892.112 52.8177 897.3 56.726 901.186 61.7304C905.115 66.6348 907.38 72.2409 907.98 78.5486C912.742 74.9201 918.293 72.7602 924.633 72.0687C931.072 71.4204 937.287 72.3942 943.277 74.99Z" fill="#FF7A22"/>
<path d="M1038.53 186.69C1036.63 189.346 1034.75 191.611 1032.88 193.483L979.143 154.992C975.793 160.622 974.679 166.115 975.803 171.471C976.927 176.826 979.877 181.214 984.653 184.636C991.553 189.578 998.58 190.127 1005.73 186.285L1025.77 200.636C1018.59 206.2 1010.35 209.13 1001.05 209.427C991.807 209.635 982.809 206.603 974.052 200.33C966.976 195.261 961.714 189.15 958.265 181.995C954.968 174.815 953.782 167.207 954.706 159.169C955.719 151.195 958.912 143.445 964.285 135.917C969.721 128.301 976.042 122.723 983.246 119.185C990.451 115.646 997.946 114.322 1005.73 115.215C1013.52 116.107 1021.03 119.15 1028.29 124.346C1035.28 129.351 1040.44 135.324 1043.77 142.263C1047.2 149.266 1048.42 156.634 1047.45 164.367C1046.62 172.075 1043.65 179.516 1038.53 186.69ZM1023.08 167.595C1026.41 162.75 1027.4 157.706 1026.06 152.465C1024.79 147.134 1021.72 142.727 1016.85 139.242C1012.25 135.948 1007.35 134.577 1002.14 135.13C997.088 135.657 992.436 138.148 988.189 142.6L1023.08 167.595Z" fill="#FF7A22"/>
<path d="M1075.41 198.177L1045.08 229.691C1042.97 231.886 1041.93 233.985 1041.97 235.986C1042.16 237.984 1043.51 240.192 1046.01 242.609L1053.65 249.975L1040.29 263.85L1029.96 253.879C1016.1 240.508 1015.65 227.08 1028.63 213.597L1058.85 182.2L1051.1 174.721L1064.11 161.199L1071.87 168.677L1087.37 152.567L1103.93 168.545L1088.43 184.655L1102.99 198.705L1089.98 212.228L1075.41 198.177Z" fill="#FF7A22"/>
<path d="M1149.08 262.46C1153.25 267.903 1155.74 273.667 1156.56 279.754C1157.47 285.774 1156.49 291.738 1153.61 297.644C1150.89 303.571 1146.28 309.016 1139.81 313.98L1097.71 346.246L1083.82 328.103L1123.46 297.724C1129.16 293.356 1132.43 288.588 1133.27 283.42C1134.19 278.187 1132.77 273.107 1129 268.183C1125.16 263.172 1120.57 260.389 1115.21 259.835C1110 259.3 1104.55 261.217 1098.85 265.585L1059.21 295.964L1045.32 277.821L1141.18 204.356L1155.07 222.499L1122.04 247.814C1126.93 247.764 1131.73 249.021 1136.44 251.585C1141.23 254.083 1145.44 257.708 1149.08 262.46Z" fill="#FF7A22"/>
<path d="M1193.36 315.872C1191.38 312.37 1190.8 308.818 1191.64 305.217C1192.62 301.657 1194.77 298.938 1198.08 297.059C1201.4 295.18 1204.78 294.759 1208.25 295.795C1211.86 296.873 1214.66 299.163 1216.65 302.665C1218.63 306.167 1219.13 309.699 1218.15 313.259C1217.31 316.86 1215.24 319.6 1211.93 321.479C1208.62 323.358 1205.15 323.758 1201.54 322.68C1198.08 321.644 1195.35 319.374 1193.36 315.872ZM1189.55 330.983L1110.91 375.596L1099.64 355.719L1178.28 311.106L1189.55 330.983Z" fill="#FF7A22"/>
<path d="M1227.58 413.481C1231.56 423.49 1231.59 432.842 1227.67 441.538C1223.85 450.194 1216.28 456.769 1204.95 461.263L1155.65 480.827L1147.21 459.595L1193.63 441.175C1200.3 438.527 1204.74 434.832 1206.96 430.091C1209.27 425.31 1209.28 420.037 1206.99 414.274C1204.66 408.41 1200.99 404.482 1195.98 402.489C1191.12 400.557 1185.34 400.916 1178.67 403.564L1132.25 421.985L1123.81 400.753L1207.85 367.404L1216.29 388.636L1205.82 392.789C1210.59 394.175 1214.85 396.641 1218.6 400.186C1222.49 403.792 1225.49 408.223 1227.58 413.481Z" fill="#FF7A22"/>
<path d="M1252.31 504.709C1253.65 511.321 1253.49 517.401 1251.83 522.949C1250.29 528.474 1247.72 533.094 1244.14 536.808L1256.79 534.273L1261.34 556.83L1172.05 574.734C1163.83 576.381 1156.19 576.194 1149.12 574.171C1141.95 572.17 1135.83 568.237 1130.76 562.373C1125.58 556.531 1122.04 548.917 1120.15 539.532C1117.61 526.947 1118.45 516.014 1122.68 506.732C1126.93 497.557 1134.02 491.42 1143.94 488.321L1148.43 510.558C1144.61 512.544 1141.92 515.692 1140.35 520.002C1138.69 524.44 1138.42 529.432 1139.54 534.978C1140.86 541.483 1143.9 546.367 1148.66 549.628C1153.32 552.911 1159.6 553.761 1167.49 552.178L1181.25 549.418C1176.51 547.373 1172.24 544.069 1168.43 539.506C1164.64 535.049 1162.09 529.568 1160.78 523.062C1159.27 515.597 1159.81 508.386 1162.4 501.43C1164.99 494.475 1169.39 488.488 1175.59 483.472C1181.92 478.541 1189.62 475.166 1198.69 473.348C1207.65 471.551 1215.95 471.717 1223.6 473.846C1231.27 476.082 1237.58 479.865 1242.54 485.195C1247.53 490.632 1250.78 497.137 1252.31 504.709ZM1212.46 543.161C1217.9 542.07 1222.33 540.073 1225.73 537.17C1229.25 534.246 1231.66 530.767 1232.95 526.735C1234.35 522.681 1234.63 518.574 1233.79 514.415C1232.95 510.255 1231.16 506.619 1228.42 503.506C1225.69 500.393 1222.12 498.112 1217.72 496.664C1213.45 495.301 1208.64 495.155 1203.31 496.224C1197.98 497.294 1193.5 499.301 1189.87 502.247C1186.38 505.278 1183.92 508.768 1182.5 512.715C1181.1 516.769 1180.81 520.822 1181.62 524.875C1182.46 529.034 1184.26 532.724 1187.02 535.944C1189.89 539.142 1193.46 541.422 1197.73 542.785C1202.11 544.127 1207.02 544.252 1212.46 543.161Z" fill="#FF7A22"/>
<path d="M1261.48 675.361C1260.97 682.087 1259.16 687.894 1256.06 692.782C1253.07 697.677 1249.35 701.424 1244.9 704.023L1257.75 705.028L1256.01 727.974L1165.21 720.878C1156.86 720.225 1149.56 717.963 1143.3 714.091C1136.94 710.21 1132.12 704.759 1128.83 697.735C1125.44 690.704 1124.11 682.414 1124.83 672.867C1125.8 660.065 1129.59 649.774 1136.18 641.995C1142.76 634.324 1151.25 630.349 1161.64 630.07L1159.92 652.69C1155.71 653.561 1152.26 655.857 1149.58 659.576C1146.78 663.395 1145.16 668.126 1144.73 673.767C1144.23 680.385 1145.83 685.912 1149.53 690.349C1153.12 694.777 1158.93 697.304 1166.96 697.932L1180.95 699.025C1176.94 695.765 1173.73 691.421 1171.3 685.993C1168.87 680.674 1167.9 674.705 1168.41 668.087C1168.98 660.492 1171.46 653.702 1175.85 647.714C1180.23 641.727 1186.09 637.164 1193.42 634.027C1200.85 631.006 1209.18 629.856 1218.4 630.576C1227.51 631.289 1235.45 633.71 1242.23 637.842C1249 642.081 1254.05 647.442 1257.38 653.922C1260.7 660.512 1262.06 667.658 1261.48 675.361ZM1212.68 701.505C1218.21 701.937 1223.01 701.221 1227.08 699.357C1231.26 697.501 1234.52 694.809 1236.86 691.281C1239.31 687.762 1240.7 683.887 1241.02 679.655C1241.34 675.424 1240.61 671.438 1238.82 667.697C1237.03 663.955 1234.21 660.789 1230.37 658.197C1226.63 655.721 1222.05 654.272 1216.63 653.848C1211.2 653.424 1206.35 654.136 1202.06 655.984C1197.87 657.948 1194.56 660.636 1192.12 664.047C1189.67 667.566 1188.29 671.387 1187.97 675.51C1187.65 679.741 1188.38 683.781 1190.16 687.631C1192.05 691.49 1194.87 694.656 1198.61 697.131C1202.46 699.615 1207.15 701.073 1212.68 701.505Z" fill="#FF7A22"/>
<path d="M1229.97 770.9C1233.95 774.864 1236.74 779.437 1238.32 784.619C1239.87 789.906 1239.95 795.517 1238.56 801.449L1215.22 795.92L1216.59 790.041C1218.23 783.049 1217.83 777.364 1215.4 772.985C1212.93 768.712 1207.63 765.61 1199.47 763.68L1155.64 753.3L1160.85 731.054L1248.84 751.889L1243.62 774.135L1229.97 770.9Z" fill="#FF7A22"/>
<path d="M1157.04 889.738C1154.01 888.532 1151.36 887.244 1149.09 885.874L1173.39 824.402C1167.12 822.495 1161.53 822.73 1156.61 825.106C1151.7 827.483 1148.16 831.403 1146 836.867C1142.88 844.76 1144.05 851.723 1149.5 857.757L1140.44 880.676C1133.31 875.03 1128.48 867.721 1125.94 858.749C1123.51 849.818 1124.27 840.343 1128.23 830.325C1131.43 822.23 1136.08 815.648 1142.17 810.58C1148.33 805.653 1155.42 802.675 1163.43 801.646C1171.4 800.718 1179.68 801.964 1188.28 805.382C1196.97 808.841 1203.9 813.648 1209.08 819.803C1214.25 825.959 1217.34 832.928 1218.36 840.711C1219.38 848.493 1218.25 856.533 1214.97 864.83C1211.81 872.824 1207.27 879.274 1201.36 884.181C1195.4 889.188 1188.56 892.146 1180.83 893.052C1173.16 894.101 1165.23 892.996 1157.04 889.738ZM1171.81 870.143C1177.31 872.213 1182.43 871.969 1187.19 869.411C1192.04 866.893 1195.57 862.851 1197.77 857.286C1199.85 852.024 1199.99 846.929 1198.2 841.999C1196.46 837.211 1192.93 833.286 1187.58 830.224L1171.81 870.143Z" fill="#FF7A22"/>
<path d="M1150.97 893.901C1158.74 898.707 1164.69 904.499 1168.82 911.275C1172.9 918.145 1174.93 925.222 1174.92 932.505C1174.85 939.882 1172.79 946.859 1168.74 953.437C1165.2 959.182 1160.97 963.47 1156.03 966.301C1151.03 969.225 1145.98 970.897 1140.86 971.317L1151.83 978.098L1139.77 997.693L1062.86 950.144L1074.93 930.548L1086.17 937.5C1084.1 932.767 1083.23 927.433 1083.57 921.498C1083.93 915.713 1085.89 909.948 1089.42 904.204C1093.42 897.719 1098.73 892.819 1105.37 889.505C1111.96 886.284 1119.22 884.958 1127.18 885.527C1135.17 886.246 1143.1 889.037 1150.97 893.901ZM1113.38 954.323C1118.1 957.241 1122.69 958.804 1127.17 959.011C1131.73 959.275 1135.86 958.375 1139.56 956.312C1143.35 954.306 1146.36 951.497 1148.58 947.883C1150.81 944.27 1151.98 940.391 1152.11 936.246C1152.23 932.102 1151.18 927.998 1148.96 923.935C1146.76 920.022 1143.36 916.635 1138.73 913.774C1134.1 910.913 1129.46 909.322 1124.8 909.001C1120.18 908.83 1116 909.7 1112.27 911.613C1108.48 913.619 1105.5 916.382 1103.33 919.903C1101.11 923.517 1099.9 927.442 1099.72 931.679C1099.63 935.974 1100.68 940.078 1102.87 943.99C1105.16 947.961 1108.66 951.405 1113.38 954.323Z" fill="#FF7A22"/>
<path d="M1090.95 1023.59L1057.72 995.151C1055.4 993.17 1053.25 992.257 1051.26 992.413C1049.28 992.723 1047.16 994.202 1044.89 996.85L1038.01 1004.92L1023.38 992.394L1032.7 981.471C1045.21 966.823 1058.57 965.585 1072.78 977.755L1105.89 1006.09L1112.88 997.9L1127.14 1010.11L1120.15 1018.3L1137.13 1032.84L1122.19 1050.34L1105.2 1035.8L1092.06 1051.19L1077.81 1038.99L1090.95 1023.59Z" fill="#FF7A22"/>
<path d="M994.154 1110.75L967.816 1075.83C965.982 1073.4 964.074 1072.05 962.093 1071.77C960.092 1071.64 957.701 1072.63 954.922 1074.73L946.456 1081.12L934.859 1065.74L946.322 1057.09C961.692 1045.49 975.012 1047.16 986.28 1062.1L1012.52 1096.89L1021.12 1090.4L1032.42 1105.38L1023.82 1111.87L1037.28 1129.72L1018.92 1143.59L1005.46 1125.74L989.303 1137.93L978.002 1122.95L994.154 1110.75Z" fill="#FF7A22"/>
<path d="M883.274 1093.04C890.929 1088.89 898.726 1086.84 906.663 1086.87C914.653 1087 922.101 1089.22 929.009 1093.52C935.821 1097.88 941.429 1104.12 945.832 1112.26C950.236 1120.39 952.351 1128.52 952.177 1136.66C951.908 1144.85 949.57 1152.3 945.164 1159.01C940.809 1165.82 934.803 1171.3 927.148 1175.44C919.493 1179.58 911.623 1181.62 903.538 1181.54C895.505 1181.56 888.034 1179.41 881.126 1175.11C874.123 1170.86 868.419 1164.67 864.016 1156.53C859.612 1148.4 857.593 1140.21 857.958 1131.97C858.227 1123.79 860.587 1116.26 865.037 1109.4C869.444 1102.69 875.523 1097.23 883.274 1093.04ZM892.754 1110.55C889.118 1112.51 886.187 1115.21 883.962 1118.64C881.693 1122.22 880.559 1126.3 880.562 1130.88C880.565 1135.45 881.94 1140.28 884.685 1145.35C888.778 1152.91 893.921 1157.61 900.116 1159.45C906.267 1161.44 912.214 1160.88 917.955 1157.78C923.697 1154.67 927.415 1150 929.111 1143.76C930.763 1137.67 929.543 1130.85 925.45 1123.29C921.357 1115.73 916.331 1110.9 910.372 1108.81C904.368 1106.86 898.496 1107.44 892.754 1110.55Z" fill="#FF7A22"/>
<path d="M831.349 1214.82C824.937 1216.92 818.877 1217.47 813.169 1216.48C807.494 1215.59 802.599 1213.58 798.483 1210.46L802.504 1222.71L780.632 1229.87L752.234 1143.34C749.621 1135.38 748.9 1127.77 750.07 1120.52C751.206 1113.17 754.386 1106.63 759.61 1100.92C764.801 1095.1 771.946 1090.7 781.046 1087.72C793.249 1083.73 804.213 1083.29 813.939 1086.41C823.561 1089.56 830.501 1095.87 834.758 1105.35L813.196 1112.41C810.769 1108.85 807.321 1106.54 802.852 1105.49C798.245 1104.36 793.253 1104.68 787.876 1106.44C781.568 1108.5 777.076 1112.09 774.402 1117.2C771.694 1122.21 771.595 1128.53 774.106 1136.18L778.482 1149.52C779.951 1144.57 782.727 1139.95 786.808 1135.63C790.787 1131.36 795.93 1128.19 802.238 1126.12C809.477 1123.76 816.706 1123.45 823.926 1125.21C831.145 1126.97 837.616 1130.64 843.337 1136.2C848.989 1141.91 853.257 1149.16 856.141 1157.95C858.991 1166.63 859.812 1174.89 858.605 1182.73C857.294 1190.6 854.285 1197.3 849.578 1202.85C844.768 1208.43 838.691 1212.42 831.349 1214.82ZM788.407 1179.76C790.137 1185.03 792.647 1189.19 795.937 1192.23C799.26 1195.38 803.003 1197.36 807.163 1198.18C811.358 1199.1 815.472 1198.9 819.505 1197.58C823.538 1196.26 826.939 1194.06 829.707 1190.98C832.475 1187.9 834.317 1184.09 835.233 1179.55C836.08 1175.15 835.655 1170.37 833.959 1165.2C832.262 1160.03 829.735 1155.82 826.378 1152.57C822.951 1149.46 819.191 1147.42 815.1 1146.47C810.906 1145.55 806.843 1145.74 802.914 1147.02C798.881 1148.34 795.428 1150.56 792.557 1153.67C789.719 1156.89 787.877 1160.7 787.03 1165.1C786.218 1169.6 786.676 1174.49 788.407 1179.76Z" fill="#FF7A22"/>
<path d="M665.862 1201.74C665.4 1198.51 665.199 1195.58 665.26 1192.93L730.708 1183.67C729.245 1177.29 726.258 1172.55 721.748 1169.45C717.238 1166.35 712.074 1165.21 706.257 1166.03C697.853 1167.22 692.39 1171.68 689.868 1179.39L665.466 1182.85C666.819 1173.86 670.758 1166.05 677.282 1159.42C683.822 1152.89 692.425 1148.87 703.09 1147.36C711.709 1146.14 719.736 1146.93 727.17 1149.73C734.512 1152.64 740.623 1157.33 745.503 1163.78C750.275 1170.25 753.316 1178.06 754.626 1187.22C755.951 1196.48 755.23 1204.88 752.461 1212.41C749.692 1219.95 745.183 1226.08 738.935 1230.81C732.687 1235.54 725.146 1238.53 716.312 1239.77C707.801 1240.98 699.944 1240.22 692.741 1237.5C685.429 1234.8 679.457 1230.32 674.823 1224.05C670.097 1217.9 667.11 1210.47 665.862 1201.74ZM690.218 1204.89C691.158 1210.7 693.922 1215.03 698.509 1217.9C703.111 1220.87 708.375 1221.94 714.3 1221.1C719.903 1220.31 724.396 1217.92 727.782 1213.92C731.075 1210.05 732.72 1205.04 732.719 1198.88L690.218 1204.89Z" fill="#FF7A22"/>
<path d="M626.461 1223.54L626.628 1179.8C626.639 1176.76 625.941 1174.52 624.532 1173.1C623.013 1171.79 620.513 1171.12 617.032 1171.1L606.423 1171.04L606.497 1151.78L620.859 1151.86C640.117 1151.97 649.711 1161.39 649.639 1180.1L649.473 1223.68L660.245 1223.74L660.173 1242.51L649.402 1242.45L649.316 1264.81L626.304 1264.67L626.39 1242.31L606.152 1242.19L606.224 1223.43L626.461 1223.54Z" fill="#FF7A22"/>
<path d="M523.983 1232.51C517.212 1231.44 511.427 1228.99 506.628 1225.15C501.812 1221.41 498.403 1216.42 496.403 1210.15C494.278 1203.98 493.841 1196.86 495.093 1188.8L503.228 1136.38L525.799 1139.94L518.139 1189.29C517.038 1196.39 517.968 1202.1 520.931 1206.42C523.877 1210.85 528.413 1213.54 534.539 1214.51C540.773 1215.49 546.018 1214.33 550.273 1211.04C554.404 1207.83 557.02 1202.68 558.122 1195.59L565.782 1146.24L588.352 1149.79L569.828 1269.14L547.257 1265.58L553.641 1224.46C550.138 1227.87 545.801 1230.27 540.631 1231.66C535.444 1233.16 529.895 1233.44 523.983 1232.51Z" fill="#FF7A22"/>
<path d="M402.337 1149.52C403.38 1146.43 404.524 1143.71 405.77 1141.38L468.359 1162.64C469.929 1156.28 469.399 1150.69 466.769 1145.89C464.139 1141.09 460.042 1137.75 454.478 1135.86C446.442 1133.13 439.56 1134.64 433.831 1140.4L410.496 1132.47C415.749 1125.06 422.783 1119.87 431.596 1116.89C440.374 1114.01 449.863 1114.3 460.063 1117.76C468.305 1120.56 475.114 1124.89 480.491 1130.73C485.731 1136.65 489.075 1143.59 490.525 1151.55C491.872 1159.48 491.068 1167.82 488.113 1176.59C485.124 1185.45 480.697 1192.62 474.832 1198.1C468.967 1203.58 462.181 1207.02 454.473 1208.42C446.766 1209.83 438.689 1209.1 430.241 1206.23C422.102 1203.46 415.429 1199.24 410.223 1193.57C404.914 1187.86 401.603 1181.16 400.29 1173.47C398.839 1165.86 399.522 1157.87 402.337 1149.52ZM422.66 1163.32C420.886 1168.92 421.4 1174.04 424.203 1178.67C426.971 1183.4 431.188 1186.73 436.854 1188.65C442.212 1190.47 447.301 1190.36 452.122 1188.32C456.806 1186.35 460.533 1182.62 463.303 1177.12L422.66 1163.32Z" fill="#FF7A22"/>
<path d="M358.459 1157.13C353.67 1160.05 348.576 1161.66 343.177 1161.95C337.681 1162.19 332.222 1160.92 326.799 1158.14L337.693 1136.77L343.068 1139.52C349.459 1142.8 355.067 1143.77 359.891 1142.46C364.618 1141.09 368.884 1136.67 372.689 1129.21L393.144 1089.07L413.48 1099.49L372.421 1180.05L352.085 1169.63L358.459 1157.13Z" fill="#FF7A22"/>
</svg>
