<svg width="278" height="281" viewBox="0 0 278 281" fill="none" xmlns="http://www.w3.org/2000/svg">
<path d="M54.2223 147.455L53.8479 141.948L56.5061 141.772L57.1084 150.631L40.3929 151.737L40.165 148.384L54.2223 147.455Z" fill="#FF7A22"/>
<path d="M50.867 126.743C51.3451 126.785 51.7727 126.855 52.1497 126.953L51.3106 136.637C52.2738 136.642 53.0518 136.374 53.6448 135.832C54.2378 135.291 54.5715 134.589 54.6461 133.729C54.7538 132.485 54.2966 131.553 53.2744 130.932L53.5872 127.322C54.829 127.818 55.8174 128.644 56.5522 129.802C57.2711 130.958 57.5621 132.325 57.4254 133.903C57.3149 135.179 56.9366 136.301 56.2904 137.272C55.6296 138.225 54.7565 138.943 53.6708 139.425C52.5866 139.891 51.3671 140.063 50.0124 139.943C48.6418 139.821 47.4627 139.435 46.4751 138.786C45.4876 138.136 44.7584 137.284 44.2876 136.23C43.8168 135.176 43.638 133.996 43.7513 132.689C43.8604 131.429 44.2287 130.33 44.8562 129.389C45.485 128.433 46.325 127.729 47.376 127.276C48.4124 126.806 49.5761 126.628 50.867 126.743ZM49.6104 130.125C48.7484 130.064 48.0362 130.314 47.4737 130.875C46.8953 131.434 46.5681 132.152 46.4922 133.028C46.4203 133.857 46.6146 134.581 47.0748 135.201C47.5206 135.802 48.1841 136.207 49.0656 136.413L49.6104 130.125Z" fill="#FF7A22"/>
<path d="M49.0375 120.347L55.293 121.844C55.7288 121.948 56.0717 121.923 56.3219 121.769C56.5603 121.596 56.7384 121.26 56.8564 120.762L57.2158 119.244L59.9701 119.902L59.4835 121.958C58.8311 124.713 57.1666 125.771 54.49 125.131L48.2578 123.64L47.8929 125.182L45.2086 124.54L45.5735 122.998L42.3757 122.234L43.1554 118.941L46.3532 119.705L47.0388 116.809L49.7231 117.451L49.0375 120.347Z" fill="#FF7A22"/>
<path d="M45.5105 110.778L46.7044 107.458L51.5138 111.957L50.7341 114.125L45.5105 110.778Z" fill="#FF7A22"/>
<path d="M66.3125 105.632C65.8152 106.6 65.1985 107.38 64.4624 107.972C63.7121 108.557 62.9214 108.923 62.0903 109.07C61.2665 109.202 60.4811 109.103 59.7342 108.771L61.281 105.761C61.7652 105.939 62.2552 105.913 62.7512 105.683C63.2545 105.439 63.6561 105.025 63.956 104.442C64.2485 103.872 64.3615 103.373 64.295 102.942C64.2357 102.497 64.0284 102.183 63.673 101.999C63.2892 101.801 62.9025 101.854 62.5129 102.157C62.1164 102.438 61.5851 102.947 60.9188 103.683C60.2521 104.455 59.6588 105.067 59.1388 105.519C58.6261 105.957 58.0292 106.261 57.3479 106.431C56.674 106.587 55.9391 106.46 55.143 106.048C54.4891 105.711 53.9871 105.217 53.637 104.568C53.2943 103.905 53.1458 103.144 53.1914 102.285C53.2443 101.412 53.5158 100.499 54.0058 99.5453C54.7299 98.1365 55.663 97.1958 56.8053 96.7234C57.9334 96.2436 59.1164 96.2693 60.3544 96.8007L58.8844 99.6611C58.3933 99.4615 57.9213 99.4698 57.4684 99.6861C57.0085 99.8807 56.6287 100.27 56.3288 100.853C56.0509 101.394 55.9347 101.865 55.9801 102.267C56.0329 102.654 56.2369 102.94 56.5923 103.123C56.9904 103.329 57.3984 103.288 57.8164 102.999C58.2202 102.704 58.7445 102.191 59.3892 101.462C60.0413 100.718 60.6236 100.127 61.1363 99.6898C61.649 99.2522 62.2494 98.9591 62.9375 98.8103C63.6187 98.6399 64.3539 98.7495 65.1431 99.1391C65.8254 99.4916 66.338 99.9994 66.6807 100.663C67.0307 101.312 67.1793 102.073 67.1263 102.946C67.0665 103.797 66.7952 104.693 66.3125 105.632Z" fill="#FF7A22"/>
<path d="M74.6448 74.1733C75.7877 73.0082 77.0658 72.425 78.4793 72.4235C79.8926 72.3993 81.2381 73.0154 82.516 74.2717L88.0782 79.74L85.7253 82.1386L80.4883 76.99C79.7467 76.2609 78.997 75.8941 78.2393 75.8897C77.4703 75.874 76.7664 76.1917 76.1278 76.8428C75.4891 77.4938 75.179 78.2098 75.1974 78.9908C75.2155 79.7491 75.5955 80.4928 76.3371 81.2219L81.5741 86.3705L79.2212 88.7691L73.9842 83.6205C73.2425 82.8914 72.4929 82.5246 71.7352 82.5202C70.9662 82.5045 70.2623 82.8222 69.6236 83.4733C68.9738 84.1358 68.6581 84.8575 68.6764 85.6384C68.6946 86.3967 69.0745 87.1404 69.8162 87.8695L75.0532 93.0181L72.7003 95.4168L63.2189 86.0954L65.5718 83.6968L66.7185 84.8241C66.6216 84.1231 66.6944 83.4206 66.9368 82.7165C67.1904 82.001 67.6029 81.352 68.1743 80.7695C68.9026 80.0271 69.7122 79.5216 70.6031 79.2532C71.4826 78.9735 72.3701 78.9598 73.2657 79.2121C73.0206 78.3653 73.0183 77.4879 73.2588 76.5801C73.5106 75.6609 73.9726 74.8586 74.6448 74.1733Z" fill="#FF7A22"/>
<path d="M84.1294 74.4714C83.4006 73.3422 82.976 72.1974 82.8556 71.0372C82.7487 69.8684 82.9265 68.8013 83.389 67.8362C83.865 66.8623 84.5802 66.0673 85.5346 65.4511C86.368 64.9131 87.2023 64.6125 88.0375 64.5494C88.8862 64.4776 89.6636 64.5756 90.3697 64.8435L89.3415 63.2504L92.1845 61.415L99.3945 72.5864L96.5515 74.4218L95.4974 72.7885C95.4728 73.5471 95.2507 74.3094 94.8311 75.0755C94.4162 75.8194 93.7921 76.4604 92.9587 76.9985C92.0177 77.606 91.0013 77.9194 89.9093 77.9388C88.8307 77.9495 87.781 77.6655 86.76 77.0867C85.7438 76.4858 84.8669 75.6141 84.1294 74.4714ZM92.9465 68.8361C92.504 68.1505 91.9922 67.6525 91.411 67.3421C90.8211 67.0183 90.2153 66.8762 89.5934 66.9158C88.9628 66.942 88.3854 67.1244 87.8612 67.4628C87.337 67.8013 86.9355 68.2414 86.6567 68.7832C86.378 69.325 86.258 69.9357 86.2967 70.6154C86.3403 71.2729 86.5789 71.9377 87.0127 72.6099C87.4465 73.2821 87.9627 73.7868 88.5613 74.1241C89.1646 74.4392 89.7748 74.588 90.3919 74.5705C91.0224 74.5443 91.5931 74.3663 92.1039 74.0366C92.6282 73.6981 93.0364 73.2536 93.3285 72.7032C93.612 72.1392 93.732 71.5285 93.6885 70.871C93.6363 70.2 93.389 69.5217 92.9465 68.8361Z" fill="#FF7A22"/>
<path d="M108.183 69.3148L101.827 65.8408L104.023 71.0617L100.925 72.3625L94.0384 55.992L97.1363 54.6912L101.054 64.0047L102.983 57.0776L107.01 55.3865L104.198 63.8037L112.21 67.6237L108.183 69.3148Z" fill="#FF7A22"/>
<path d="M123.529 58.195C123.639 58.6622 123.707 59.09 123.733 59.4783L114.269 61.6964C114.568 62.6125 115.067 63.2677 115.768 63.6621C116.47 64.0565 117.241 64.1551 118.082 63.958C119.297 63.6732 120.039 62.9489 120.307 61.785L123.835 60.958C123.755 62.2915 123.281 63.4873 122.412 64.5453C121.54 65.5878 120.333 66.2898 118.791 66.6513C117.545 66.9433 116.359 66.9337 115.233 66.6223C114.12 66.2917 113.163 65.686 112.364 64.8052C111.58 63.9207 111.032 62.8166 110.72 61.4929C110.404 60.1537 110.4 58.914 110.706 57.774C111.013 56.6339 111.592 55.6764 112.445 54.9013C113.298 54.1262 114.363 53.589 115.641 53.2896C116.871 53.0012 118.032 53.0085 119.123 53.3116C120.229 53.6111 121.163 54.1893 121.923 55.0463C122.696 55.884 123.232 56.9336 123.529 58.195ZM119.92 58.0547C119.707 57.2174 119.245 56.619 118.535 56.2594C117.822 55.8842 117.037 55.7971 116.181 55.9979C115.371 56.1877 114.744 56.5975 114.301 57.2273C113.869 57.8379 113.694 58.5938 113.775 59.4951L119.92 58.0547Z" fill="#FF7A22"/>
<path d="M138.103 65.1614C137.015 65.1344 136.044 64.9182 135.189 64.5129C134.334 64.0916 133.659 63.5387 133.162 62.8541C132.682 62.17 132.427 61.4195 132.397 60.6025L135.78 60.6864C135.832 61.1999 136.071 61.6299 136.495 61.9765C136.935 62.3236 137.483 62.5052 138.139 62.5215C138.779 62.5373 139.278 62.4217 139.635 62.1745C140.009 61.9277 140.2 61.6043 140.209 61.2044C140.219 60.7725 140.003 60.4471 139.559 60.228C139.133 59.9933 138.442 59.7361 137.488 59.4564C136.502 59.1919 135.692 58.9237 135.058 58.6519C134.44 58.3805 133.905 57.9751 133.453 57.4357C133.018 56.8967 132.81 56.1794 132.83 55.2836C132.847 54.5478 133.07 53.8811 133.5 53.2836C133.945 52.6865 134.564 52.2217 135.356 51.8892C136.164 51.5571 137.103 51.4044 138.175 51.431C139.759 51.4703 141.013 51.9015 141.939 52.7247C142.865 53.5319 143.36 54.6085 143.426 55.9546L140.211 55.8748C140.175 55.3458 139.96 54.9243 139.567 54.6105C139.191 54.281 138.674 54.1082 138.019 54.0919C137.411 54.0768 136.936 54.1771 136.595 54.3927C136.27 54.6087 136.103 54.9167 136.094 55.3166C136.084 55.7644 136.3 56.1139 136.743 56.365C137.185 56.6 137.876 56.8492 138.814 57.1126C139.768 57.3763 140.554 57.6439 141.172 57.9153C141.79 58.1867 142.317 58.5999 142.753 59.1549C143.205 59.6942 143.428 60.404 143.424 61.2842C143.407 62.052 143.175 62.7344 142.73 63.3316C142.3 63.9291 141.681 64.3939 140.874 64.726C140.082 65.0424 139.159 65.1876 138.103 65.1614Z" fill="#FF7A22"/>
<path d="M151.05 66.8776C149.794 66.6335 148.716 66.1388 147.816 65.3936C146.919 64.6326 146.278 63.685 145.893 62.5507C145.524 61.4195 145.467 60.1861 145.724 58.8505C145.98 57.5148 146.497 56.3928 147.274 55.4843C148.067 54.5789 149.027 53.9504 150.153 53.5988C151.282 53.2315 152.475 53.1699 153.732 53.414C154.988 53.6581 156.073 54.1622 156.985 54.9262C157.901 55.6745 158.551 56.6158 158.936 57.75C159.337 58.8874 159.409 60.1238 159.153 61.4594C158.896 62.7951 158.364 63.9141 157.555 64.8164C156.762 65.7218 155.793 66.3567 154.648 66.7209C153.522 67.0726 152.322 67.1248 151.05 66.8776ZM151.602 64.0021C152.199 64.118 152.784 64.085 153.356 63.9028C153.948 63.708 154.456 63.3504 154.882 62.8301C155.307 62.3097 155.6 61.6331 155.76 60.8003C155.998 59.559 155.851 58.5443 155.318 57.7561C154.804 56.9554 154.075 56.4634 153.133 56.2803C152.191 56.0973 151.333 56.281 150.559 56.8316C149.804 57.3694 149.307 58.2591 149.069 59.5004C148.831 60.7418 148.953 61.7598 149.436 62.5544C149.938 63.3365 150.66 63.819 151.602 64.0021Z" fill="#FF7A22"/>
<path d="M178.876 62.4553C180.374 63.1042 181.378 64.0888 181.889 65.409C182.422 66.7208 182.334 68.1996 181.625 69.8454L178.539 77.009L175.456 75.673L178.361 68.9282C178.773 67.9731 178.844 67.1407 178.575 66.4312C178.312 65.7069 177.762 65.1635 176.925 64.8009C176.088 64.4382 175.309 64.4059 174.589 64.7039C173.889 64.9936 173.333 65.616 172.922 66.5711L170.016 73.3159L166.934 71.9799L169.839 65.2351C170.25 64.28 170.322 63.4477 170.052 62.7381C169.789 62.0138 169.24 61.4704 168.403 61.1078C167.551 60.7388 166.765 60.7033 166.044 61.0013C165.345 61.291 164.789 61.9134 164.378 62.8685L161.472 69.6133L158.389 68.2773L163.65 56.0662L166.733 57.4022L166.096 58.879C166.714 58.5364 167.395 58.3518 168.138 58.3251C168.896 58.3048 169.649 58.4568 170.398 58.7813C171.352 59.1948 172.115 59.7695 172.687 60.5054C173.264 61.2267 173.597 62.051 173.686 62.9786C174.386 62.445 175.202 62.1274 176.134 62.0257C177.081 61.9304 177.995 62.0736 178.876 62.4553Z" fill="#FF7A22"/>
<path d="M192.881 78.8809C192.603 79.2716 192.326 79.6046 192.05 79.8799L184.149 74.2197C183.656 75.0477 183.492 75.8554 183.657 76.6429C183.823 77.4305 184.256 78.0758 184.959 78.5789C185.973 79.3056 187.007 79.3865 188.059 78.8214L191.005 80.9317C189.949 81.7499 188.737 82.1809 187.369 82.2245C186.011 82.2551 184.688 81.8092 183.4 80.8868C182.359 80.1414 181.585 79.2427 181.078 78.1906C180.593 77.1348 180.419 76.016 180.555 74.8341C180.704 73.6615 181.173 72.5217 181.964 71.4148C182.763 70.2948 183.692 69.4746 184.752 68.9542C185.811 68.4338 186.913 68.2392 188.058 68.3704C189.203 68.5016 190.309 68.9492 191.375 69.7132C192.403 70.4492 193.162 71.3275 193.652 72.3479C194.156 73.3777 194.336 74.4612 194.192 75.5984C194.071 76.7319 193.634 77.8261 192.881 78.8809ZM190.61 76.0731C191.099 75.3605 191.245 74.6189 191.048 73.8481C190.861 73.0643 190.409 72.4162 189.694 71.9037C189.017 71.4192 188.296 71.2176 187.531 71.299C186.787 71.3766 186.103 71.7428 185.479 72.3975L190.61 76.0731Z" fill="#FF7A22"/>
<path d="M198.307 80.5702L193.847 85.2044C193.536 85.5272 193.383 85.8357 193.389 86.13C193.417 86.4239 193.615 86.7485 193.984 87.104L195.106 88.1871L193.142 90.2275L191.622 88.7612C189.584 86.795 189.519 84.8205 191.428 82.8377L195.872 78.2208L194.732 77.121L196.645 75.1324L197.785 76.2322L200.066 73.8632L202.501 76.2127L200.221 78.5817L202.363 80.6479L200.449 82.6364L198.307 80.5702Z" fill="#FF7A22"/>
<path d="M209.139 90.0231C209.752 90.8235 210.119 91.6712 210.24 92.5662C210.374 93.4515 210.229 94.3285 209.806 95.197C209.405 96.0686 208.728 96.8693 207.776 97.5993L201.585 102.344L199.542 99.676L205.371 95.2087C206.21 94.5664 206.69 93.8653 206.814 93.1054C206.95 92.3358 206.741 91.5889 206.187 90.8647C205.623 90.1279 204.947 89.7187 204.159 89.6371C203.393 89.5585 202.591 89.8404 201.753 90.4827L195.924 94.95L193.882 92.2821L207.978 81.4788L210.021 84.1468L205.163 87.8695C205.883 87.8621 206.589 88.047 207.28 88.424C207.985 88.7913 208.604 89.3244 209.139 90.0231Z" fill="#FF7A22"/>
<path d="M215.649 97.8776C215.357 97.3626 215.273 96.8404 215.395 96.3108C215.54 95.7873 215.856 95.3874 216.343 95.1111C216.83 94.8348 217.328 94.7729 217.838 94.9253C218.369 95.0838 218.781 95.4206 219.073 95.9356C219.365 96.4506 219.438 96.9698 219.294 97.4933C219.171 98.0229 218.866 98.4258 218.379 98.7021C217.892 98.9784 217.383 99.0373 216.851 98.8788C216.342 98.7263 215.941 98.3926 215.649 97.8776ZM215.088 100.1L203.523 106.66L201.866 103.737L213.431 97.1768L215.088 100.1Z" fill="#FF7A22"/>
<path d="M220.681 112.231C221.267 113.703 221.271 115.078 220.695 116.357C220.133 117.63 219.02 118.596 217.354 119.257L210.104 122.134L208.863 119.012L215.689 116.303C216.67 115.914 217.324 115.371 217.649 114.673C217.989 113.97 217.991 113.195 217.654 112.348C217.311 111.485 216.772 110.908 216.035 110.615C215.32 110.331 214.471 110.383 213.489 110.773L206.663 113.481L205.422 110.359L217.78 105.455L219.022 108.577L217.483 109.188C218.183 109.392 218.81 109.755 219.361 110.276C219.934 110.806 220.374 111.458 220.681 112.231Z" fill="#FF7A22"/>
<path d="M224.318 125.646C224.514 126.619 224.491 127.513 224.248 128.329C224.02 129.141 223.643 129.82 223.117 130.367L224.976 129.994L225.646 133.311L212.515 135.944C211.307 136.186 210.184 136.158 209.144 135.861C208.089 135.567 207.189 134.988 206.443 134.126C205.682 133.267 205.162 132.147 204.883 130.767C204.509 128.917 204.633 127.309 205.255 125.944C205.881 124.595 206.923 123.692 208.381 123.236L209.042 126.506C208.481 126.798 208.084 127.261 207.853 127.895C207.61 128.548 207.57 129.282 207.735 130.097C207.928 131.054 208.375 131.772 209.076 132.252C209.761 132.735 210.684 132.859 211.845 132.627L213.869 132.221C213.172 131.92 212.543 131.434 211.983 130.763C211.426 130.108 211.051 129.302 210.858 128.345C210.636 127.247 210.716 126.187 211.097 125.164C211.478 124.141 212.124 123.261 213.036 122.523C213.967 121.798 215.099 121.302 216.433 121.035C217.75 120.77 218.971 120.795 220.096 121.108C221.223 121.437 222.152 121.993 222.881 122.777C223.614 123.576 224.093 124.533 224.318 125.646ZM218.458 131.301C219.258 131.14 219.908 130.847 220.41 130.42C220.927 129.99 221.281 129.478 221.471 128.885C221.677 128.289 221.718 127.685 221.595 127.074C221.471 126.462 221.208 125.927 220.805 125.469C220.403 125.012 219.878 124.676 219.231 124.463C218.603 124.263 217.897 124.241 217.112 124.399C216.328 124.556 215.669 124.851 215.137 125.284C214.623 125.73 214.261 126.243 214.052 126.824C213.846 127.42 213.803 128.016 213.923 128.612C214.047 129.223 214.312 129.766 214.717 130.239C215.139 130.71 215.664 131.045 216.292 131.246C216.936 131.443 217.658 131.461 218.458 131.301Z" fill="#FF7A22"/>
<path d="M225.667 150.741C225.591 151.73 225.326 152.584 224.87 153.303C224.43 154.023 223.883 154.574 223.228 154.956L225.119 155.103L224.862 158.478L211.511 157.434C210.283 157.338 209.209 157.006 208.289 156.436C207.354 155.866 206.644 155.064 206.161 154.031C205.662 152.997 205.466 151.778 205.573 150.374C205.716 148.492 206.272 146.978 207.241 145.834C208.21 144.706 209.458 144.122 210.985 144.081L210.732 147.407C210.113 147.535 209.606 147.873 209.211 148.42C208.8 148.981 208.562 149.677 208.499 150.507C208.425 151.48 208.66 152.293 209.204 152.945C209.733 153.596 210.587 153.968 211.767 154.06L213.825 154.221C213.236 153.741 212.763 153.103 212.406 152.304C212.048 151.522 211.906 150.644 211.98 149.671C212.065 148.554 212.43 147.556 213.074 146.675C213.719 145.795 214.58 145.124 215.658 144.663C216.751 144.218 217.976 144.049 219.331 144.155C220.671 144.26 221.84 144.616 222.837 145.224C223.832 145.847 224.575 146.635 225.064 147.588C225.552 148.557 225.753 149.608 225.667 150.741ZM218.491 154.585C219.304 154.649 220.01 154.544 220.609 154.27C221.223 153.997 221.703 153.601 222.047 153.082C222.407 152.564 222.611 151.995 222.658 151.372C222.705 150.75 222.598 150.164 222.334 149.614C222.071 149.064 221.657 148.598 221.093 148.217C220.543 147.853 219.869 147.64 219.071 147.577C218.274 147.515 217.56 147.62 216.929 147.891C216.314 148.18 215.826 148.576 215.467 149.077C215.107 149.595 214.904 150.157 214.858 150.763C214.811 151.385 214.918 151.979 215.18 152.545C215.458 153.113 215.872 153.578 216.422 153.942C216.987 154.307 217.677 154.522 218.491 154.585Z" fill="#FF7A22"/>
<path d="M221.032 164.79C221.618 165.373 222.027 166.045 222.26 166.807C222.488 167.585 222.5 168.41 222.296 169.282L218.863 168.469L219.065 167.605C219.306 166.577 219.248 165.741 218.889 165.097C218.527 164.468 217.746 164.012 216.548 163.728L210.102 162.202L210.869 158.931L223.807 161.994L223.04 165.266L221.032 164.79Z" fill="#FF7A22"/>
<path d="M210.31 182.266C209.864 182.088 209.474 181.899 209.141 181.697L212.714 172.658C211.792 172.377 210.97 172.412 210.247 172.761C209.524 173.111 209.004 173.687 208.686 174.491C208.227 175.651 208.399 176.675 209.201 177.563L207.869 180.933C206.821 180.103 206.11 179.028 205.737 177.709C205.379 176.395 205.491 175.002 206.073 173.529C206.543 172.338 207.227 171.371 208.124 170.625C209.029 169.901 210.071 169.463 211.249 169.311C212.421 169.175 213.639 169.358 214.903 169.861C216.182 170.369 217.201 171.076 217.962 171.982C218.722 172.887 219.177 173.912 219.327 175.056C219.477 176.2 219.311 177.383 218.829 178.603C218.364 179.778 217.697 180.727 216.827 181.448C215.951 182.185 214.944 182.62 213.808 182.753C212.68 182.907 211.514 182.745 210.31 182.266ZM212.481 179.384C213.29 179.689 214.044 179.653 214.743 179.276C215.457 178.906 215.976 178.312 216.299 177.493C216.605 176.72 216.626 175.97 216.362 175.245C216.107 174.541 215.587 173.964 214.801 173.514L212.481 179.384Z" fill="#FF7A22"/>
<path d="M209.416 182.878C210.559 183.584 211.434 184.436 212.042 185.433C212.641 186.443 212.94 187.483 212.938 188.555C212.928 189.639 212.625 190.665 212.029 191.633C211.509 192.477 210.886 193.108 210.16 193.524C209.426 193.954 208.682 194.2 207.93 194.262L209.543 195.259L207.769 198.141L196.46 191.148L198.234 188.267L199.888 189.289C199.583 188.593 199.456 187.809 199.504 186.936C199.558 186.085 199.846 185.237 200.366 184.393C200.953 183.439 201.735 182.719 202.711 182.231C203.679 181.758 204.748 181.563 205.918 181.646C207.093 181.752 208.259 182.162 209.416 182.878ZM203.889 191.763C204.583 192.192 205.258 192.422 205.916 192.452C206.587 192.491 207.195 192.359 207.739 192.055C208.296 191.76 208.738 191.347 209.066 190.816C209.393 190.285 209.566 189.714 209.584 189.105C209.602 188.495 209.448 187.892 209.12 187.294C208.798 186.719 208.297 186.221 207.616 185.8C206.936 185.379 206.253 185.145 205.568 185.098C204.889 185.073 204.274 185.201 203.725 185.482C203.168 185.777 202.73 186.184 202.411 186.701C202.084 187.233 201.907 187.81 201.88 188.433C201.867 189.065 202.022 189.668 202.344 190.243C202.68 190.827 203.194 191.334 203.889 191.763Z" fill="#FF7A22"/>
<path d="M200.59 201.949L195.704 197.766C195.364 197.475 195.047 197.341 194.754 197.364C194.463 197.409 194.151 197.627 193.818 198.016L192.806 199.203L190.654 197.361L192.025 195.755C193.864 193.601 195.829 193.419 197.919 195.208L202.787 199.375L203.816 198.171L205.913 199.965L204.884 201.17L207.382 203.308L205.185 205.882L202.687 203.744L200.755 206.007L198.658 204.213L200.59 201.949Z" fill="#FF7A22"/>
<path d="M186.354 214.766L182.481 209.631C182.211 209.274 181.931 209.074 181.639 209.034C181.345 209.015 180.994 209.16 180.585 209.469L179.34 210.409L177.635 208.148L179.32 206.875C181.58 205.169 183.539 205.414 185.196 207.611L189.055 212.727L190.319 211.773L191.981 213.977L190.717 214.931L192.697 217.556L189.996 219.595L188.016 216.97L185.641 218.763L183.979 216.56L186.354 214.766Z" fill="#FF7A22"/>
<path d="M170.049 212.161C171.175 211.552 172.321 211.25 173.488 211.255C174.663 211.274 175.758 211.6 176.774 212.233C177.776 212.873 178.601 213.791 179.248 214.987C179.896 216.183 180.207 217.379 180.181 218.576C180.142 219.78 179.798 220.875 179.15 221.863C178.509 222.864 177.626 223.67 176.501 224.279C175.375 224.888 174.218 225.187 173.029 225.175C171.847 225.178 170.749 224.863 169.733 224.23C168.703 223.605 167.864 222.694 167.217 221.498C166.569 220.302 166.272 219.098 166.326 217.887C166.366 216.683 166.713 215.576 167.367 214.567C168.015 213.58 168.909 212.778 170.049 212.161ZM171.443 214.736C170.908 215.025 170.477 215.422 170.15 215.927C169.816 216.453 169.65 217.052 169.65 217.725C169.651 218.398 169.853 219.108 170.256 219.853C170.858 220.965 171.615 221.656 172.526 221.927C173.43 222.22 174.304 222.138 175.149 221.681C175.993 221.224 176.54 220.537 176.789 219.62C177.032 218.724 176.853 217.721 176.251 216.609C175.649 215.498 174.91 214.788 174.034 214.48C173.151 214.194 172.287 214.279 171.443 214.736Z" fill="#FF7A22"/>
<path d="M162.414 230.07C161.471 230.378 160.58 230.459 159.741 230.313C158.906 230.182 158.186 229.887 157.581 229.429L158.172 231.23L154.956 232.282L150.78 219.558C150.396 218.387 150.29 217.269 150.462 216.203C150.629 215.121 151.097 214.16 151.865 213.32C152.628 212.464 153.679 211.817 155.017 211.379C156.811 210.792 158.424 210.728 159.854 211.186C161.269 211.649 162.289 212.578 162.915 213.972L159.745 215.009C159.388 214.487 158.881 214.147 158.223 213.992C157.546 213.826 156.812 213.873 156.021 214.132C155.094 214.435 154.433 214.962 154.04 215.714C153.642 216.45 153.627 217.381 153.996 218.506L154.64 220.467C154.856 219.74 155.264 219.059 155.864 218.425C156.449 217.796 157.206 217.33 158.133 217.026C159.198 216.678 160.261 216.633 161.322 216.892C162.384 217.151 163.336 217.69 164.177 218.509C165.008 219.348 165.636 220.414 166.06 221.706C166.479 222.983 166.6 224.198 166.422 225.35C166.229 226.507 165.787 227.494 165.095 228.309C164.387 229.13 163.494 229.717 162.414 230.07ZM156.099 224.914C156.354 225.689 156.723 226.3 157.207 226.748C157.695 227.211 158.246 227.503 158.857 227.622C159.474 227.757 160.079 227.728 160.672 227.534C161.265 227.34 161.765 227.016 162.172 226.563C162.58 226.11 162.85 225.55 162.985 224.883C163.11 224.237 163.047 223.533 162.798 222.773C162.548 222.013 162.177 221.394 161.683 220.916C161.179 220.458 160.626 220.159 160.025 220.019C159.408 219.884 158.81 219.911 158.233 220.1C157.639 220.294 157.132 220.62 156.71 221.078C156.292 221.551 156.021 222.111 155.897 222.758C155.777 223.42 155.845 224.138 156.099 224.914Z" fill="#FF7A22"/>
<path d="M138.078 228.147C138.01 227.672 137.981 227.239 137.99 226.85L147.614 225.489C147.399 224.55 146.96 223.853 146.296 223.397C145.633 222.942 144.874 222.774 144.018 222.895C142.783 223.07 141.979 223.725 141.608 224.86L138.02 225.367C138.219 224.047 138.798 222.898 139.758 221.922C140.719 220.962 141.984 220.371 143.553 220.149C144.82 219.97 146.001 220.086 147.094 220.497C148.173 220.926 149.072 221.615 149.79 222.564C150.491 223.515 150.939 224.664 151.131 226.01C151.326 227.372 151.22 228.607 150.813 229.715C150.406 230.823 149.743 231.725 148.824 232.42C147.905 233.116 146.796 233.555 145.497 233.739C144.246 233.916 143.09 233.805 142.031 233.405C140.956 233.008 140.077 232.348 139.396 231.426C138.701 230.523 138.262 229.43 138.078 228.147ZM141.66 228.61C141.798 229.463 142.205 230.1 142.879 230.522C143.556 230.959 144.33 231.117 145.201 230.993C146.025 230.877 146.686 230.525 147.184 229.937C147.668 229.368 147.91 228.631 147.91 227.726L141.66 228.61Z" fill="#FF7A22"/>
<path d="M132.288 231.352L132.312 224.92C132.314 224.472 132.211 224.144 132.004 223.934C131.781 223.741 131.413 223.643 130.901 223.64L129.341 223.631L129.352 220.799L131.464 220.811C134.296 220.828 135.707 222.212 135.696 224.964L135.672 231.372L137.256 231.381L137.245 234.141L135.661 234.132L135.649 237.42L132.265 237.4L132.277 234.112L129.301 234.095L129.312 231.335L132.288 231.352Z" fill="#FF7A22"/>
<path d="M117.215 232.67C116.219 232.513 115.368 232.153 114.662 231.588C113.954 231.039 113.453 230.304 113.159 229.383C112.846 228.475 112.782 227.429 112.966 226.243L114.163 218.535L117.482 219.058L116.355 226.315C116.193 227.359 116.33 228.198 116.766 228.834C117.199 229.485 117.866 229.882 118.767 230.024C119.684 230.168 120.455 229.998 121.081 229.513C121.688 229.042 122.073 228.285 122.235 227.241L123.361 219.984L126.68 220.507L123.956 238.057L120.637 237.534L121.576 231.486C121.061 231.988 120.423 232.341 119.663 232.546C118.9 232.766 118.084 232.807 117.215 232.67Z" fill="#FF7A22"/>
<path d="M99.3263 220.467C99.4796 220.012 99.6479 219.613 99.8312 219.27L109.035 222.396C109.266 221.46 109.188 220.64 108.801 219.934C108.414 219.228 107.812 218.736 106.994 218.458C105.812 218.057 104.8 218.279 103.958 219.125L100.526 217.96C101.299 216.87 102.333 216.106 103.629 215.668C104.92 215.244 106.315 215.287 107.815 215.797C109.027 216.209 110.028 216.844 110.819 217.704C111.589 218.574 112.081 219.595 112.294 220.765C112.493 221.931 112.374 223.158 111.94 224.447C111.5 225.751 110.849 226.805 109.987 227.611C109.124 228.416 108.126 228.922 106.993 229.129C105.86 229.335 104.672 229.227 103.43 228.806C102.233 228.399 101.252 227.779 100.486 226.944C99.7053 226.104 99.2184 225.12 99.0253 223.989C98.812 222.869 98.9123 221.695 99.3263 220.467ZM102.315 222.496C102.054 223.32 102.13 224.072 102.542 224.753C102.949 225.449 103.569 225.938 104.402 226.221C105.19 226.489 105.938 226.472 106.647 226.172C107.336 225.883 107.884 225.334 108.291 224.526L102.315 222.496Z" fill="#FF7A22"/>
<path d="M92.8746 221.585C92.1705 222.016 91.4214 222.252 90.6274 222.295C89.8192 222.33 89.0164 222.144 88.2189 221.735L89.821 218.592L90.6113 218.997C91.5512 219.478 92.3758 219.622 93.0852 219.428C93.7804 219.227 94.4077 218.577 94.9671 217.48L97.9751 211.578L100.966 213.11L94.9278 224.956L91.9374 223.424L92.8746 221.585Z" fill="#FF7A22"/>
</svg>
