<svg width="28" height="28" viewBox="0 0 28 28" fill="none" xmlns="http://www.w3.org/2000/svg">
<path d="M25.8462 0H2.15385C1.58261 0 1.03477 0.226922 0.630847 0.630847C0.226922 1.03477 0 1.58261 0 2.15385V25.8462C0 26.4174 0.226922 26.9652 0.630847 27.3692C1.03477 27.7731 1.58261 28 2.15385 28H25.8462C26.4174 28 26.9652 27.7731 27.3692 27.3692C27.7731 26.9652 28 26.4174 28 25.8462V2.15385C28 1.58261 27.7731 1.03477 27.3692 0.630847C26.9652 0.226922 26.4174 0 25.8462 0ZM9.69231 20.4615C9.69231 20.7472 9.57885 21.0211 9.37688 21.223C9.17492 21.425 8.901 21.5385 8.61539 21.5385C8.32977 21.5385 8.05585 21.425 7.85389 21.223C7.65192 21.0211 7.53846 20.7472 7.53846 20.4615V11.8462C7.53846 11.5605 7.65192 11.2866 7.85389 11.0847C8.05585 10.8827 8.32977 10.7692 8.61539 10.7692C8.901 10.7692 9.17492 10.8827 9.37688 11.0847C9.57885 11.2866 9.69231 11.5605 9.69231 11.8462V20.4615ZM8.61539 9.69231C8.29589 9.69231 7.98357 9.59757 7.71793 9.42007C7.45228 9.24257 7.24523 8.99028 7.12296 8.6951C7.0007 8.39993 6.96871 8.07513 7.03104 7.76178C7.09337 7.44842 7.24722 7.16059 7.47314 6.93467C7.69905 6.70876 7.98688 6.55491 8.30024 6.49258C8.61359 6.43025 8.93839 6.46224 9.23357 6.5845C9.52874 6.70677 9.78103 6.91382 9.95853 7.17946C10.136 7.44511 10.2308 7.75743 10.2308 8.07692C10.2308 8.50535 10.0606 8.91623 9.75763 9.21917C9.45469 9.52212 9.04381 9.69231 8.61539 9.69231ZM21.5385 20.4615C21.5385 20.7472 21.425 21.0211 21.223 21.223C21.0211 21.425 20.7472 21.5385 20.4615 21.5385C20.1759 21.5385 19.902 21.425 19.7 21.223C19.4981 21.0211 19.3846 20.7472 19.3846 20.4615V15.6154C19.3846 14.9013 19.101 14.2165 18.5961 13.7116C18.0912 13.2067 17.4064 12.9231 16.6923 12.9231C15.9783 12.9231 15.2935 13.2067 14.7886 13.7116C14.2837 14.2165 14 14.9013 14 15.6154V20.4615C14 20.7472 13.8865 21.0211 13.6846 21.223C13.4826 21.425 13.2087 21.5385 12.9231 21.5385C12.6375 21.5385 12.3635 21.425 12.1616 21.223C11.9596 21.0211 11.8462 20.7472 11.8462 20.4615V11.8462C11.8475 11.5824 11.9456 11.3282 12.1219 11.132C12.2981 10.9357 12.5403 10.811 12.8024 10.7815C13.0646 10.7519 13.3284 10.8196 13.5439 10.9717C13.7595 11.1238 13.9117 11.3497 13.9717 11.6065C14.7003 11.1123 15.5496 10.8259 16.4287 10.778C17.3077 10.7301 18.1832 10.9226 18.9611 11.3347C19.739 11.7468 20.3899 12.3631 20.844 13.1172C21.2981 13.8714 21.5382 14.7351 21.5385 15.6154V20.4615Z" fill="#0078C9"/>
</svg>
