<svg width="868" height="283" viewBox="0 0 868 283" fill="none" xmlns="http://www.w3.org/2000/svg">
<path d="M553.104 74.9201C543.981 55.5892 529.904 39.0158 512.302 26.8824C497.793 16.9073 481.468 9.87315 464.252 6.17794C446.025 2.0927 414.932 0.0333943 370.973 0H312V283H383.934C420.778 283 447.973 280.974 465.521 276.922C482.276 273.196 498.154 266.274 512.286 256.535C529.884 244.391 543.96 227.813 553.088 208.481C562.374 188.978 567.011 166.715 567 141.692C566.989 116.669 562.357 94.4112 553.104 74.9201ZM467.659 200.95C453.719 213.395 431.606 219.612 401.32 219.601H388.293V63.2154H401.253C431.55 63.2154 453.663 69.5381 467.592 82.1834C481.521 94.8287 488.491 114.67 488.502 141.709C488.502 168.78 481.555 188.528 467.659 200.95Z" fill="#FE3152"/>
<path d="M553.104 74.9201C543.981 55.5892 529.904 39.0158 512.302 26.8824C497.793 16.9073 481.468 9.87315 464.252 6.17794C446.025 2.0927 414.932 0.0333943 370.973 0H312V283H383.934C420.778 283 447.973 280.974 465.521 276.922C482.276 273.196 498.154 266.274 512.286 256.535C529.884 244.391 543.96 227.813 553.088 208.481C562.374 188.978 567.011 166.715 567 141.692C566.989 116.669 562.357 94.4112 553.104 74.9201ZM467.659 200.95C453.719 213.395 431.606 219.612 401.32 219.601H388.293V63.2154H401.253C431.55 63.2154 453.663 69.5381 467.592 82.1834C481.521 94.8287 488.491 114.67 488.502 141.709C488.502 168.78 481.555 188.528 467.659 200.95Z" stroke="#FE3152"/>
<path d="M287.201 150.629C287.384 147.578 287.484 144.51 287.484 141.392C287.621 122.776 283.998 104.325 276.835 87.1499C269.672 69.9744 259.115 54.4295 245.802 41.4509C232.392 28.2282 216.501 17.8009 199.047 10.7716C163.655 -3.59055 124.079 -3.59055 88.6871 10.7716C71.3493 17.8073 55.5846 28.2369 42.3145 41.4509C28.7794 54.3115 18.023 69.8214 10.7119 87.0196C-3.57062 121.831 -3.57062 160.886 10.7119 195.697C18.0092 212.923 28.7668 228.457 42.3145 241.333C55.5846 254.547 71.3493 264.977 88.6871 272.012C104.632 278.546 121.618 282.155 138.835 282.667C140.499 282.75 142.162 282.767 143.825 282.767H240.197V283H288V156.748C288.01 154.682 287.742 152.623 287.201 150.629ZM194.739 231.996L171.835 206.985C153.217 213.873 132.704 213.54 114.318 206.052C104.888 202.235 96.3147 196.566 89.1029 189.378C81.7554 182.367 75.9241 173.916 71.971 164.551C64.1868 145.61 64.1868 124.352 71.971 105.41C75.9416 96.0697 81.7711 87.639 89.1029 80.6336C96.3243 73.4575 104.895 67.7901 114.318 63.9601C133.566 56.1324 155.099 56.1324 174.347 63.9601C183.833 67.7825 192.471 73.4492 199.762 80.6336C207.006 87.6936 212.749 96.1507 216.645 105.495C220.541 114.84 222.51 124.878 222.433 135.006C222.554 145.14 220.605 155.191 216.706 164.542C212.807 173.893 207.041 182.345 199.762 189.378C199.138 189.988 198.498 190.582 197.843 191.191L197.766 191.262L235.057 231.912L194.739 231.996Z" fill="#FE3152"/>
<path d="M287.201 150.629C287.384 147.578 287.484 144.51 287.484 141.392C287.621 122.776 283.998 104.325 276.835 87.1499C269.672 69.9744 259.115 54.4295 245.802 41.4509C232.392 28.2282 216.501 17.8009 199.047 10.7716C163.655 -3.59055 124.079 -3.59055 88.6871 10.7716C71.3493 17.8073 55.5846 28.2369 42.3145 41.4509C28.7794 54.3115 18.023 69.8214 10.7119 87.0196C-3.57062 121.831 -3.57062 160.886 10.7119 195.697C18.0092 212.923 28.7668 228.457 42.3145 241.333C55.5846 254.547 71.3493 264.977 88.6871 272.012C104.632 278.546 121.618 282.155 138.835 282.667C140.499 282.75 142.162 282.767 143.825 282.767H240.197V283H288V156.748C288.01 154.682 287.742 152.623 287.201 150.629ZM194.739 231.996L171.835 206.985C153.217 213.873 132.704 213.54 114.318 206.052C104.888 202.235 96.3147 196.566 89.1029 189.378C81.7554 182.367 75.9241 173.916 71.971 164.551C64.1868 145.61 64.1868 124.352 71.971 105.41C75.9416 96.0697 81.7711 87.639 89.1029 80.6336C96.3243 73.4575 104.895 67.7901 114.318 63.9601C133.566 56.1324 155.099 56.1324 174.347 63.9601C183.833 67.7825 192.471 73.4492 199.762 80.6336C207.006 87.6936 212.749 96.1507 216.645 105.495C220.541 114.84 222.51 124.878 222.433 135.006C222.554 145.14 220.605 155.191 216.706 164.542C212.807 173.893 207.041 182.345 199.762 189.378C199.138 189.988 198.498 190.582 197.843 191.191L197.766 191.262L235.057 231.912L194.739 231.996Z" stroke="#FE3152"/>
<path d="M857.234 86.9746C850.054 69.886 839.517 54.4165 826.248 41.4851C812.812 28.2497 796.887 17.8136 779.396 10.7805C743.93 -3.59351 704.271 -3.59351 668.806 10.7805C651.431 17.82 635.633 28.2585 622.336 41.4851C608.812 54.3619 598.068 69.8778 590.768 87.0747C576.411 121.912 576.411 161.022 590.768 195.859C598.059 213.09 608.803 228.64 622.336 241.549C635.633 254.77 651.431 265.203 668.806 272.237C704.183 286.588 743.751 286.588 779.129 272.237C796.658 265.133 812.657 254.713 826.248 241.549C846.148 221.768 859.719 196.508 865.237 168.983C870.755 141.457 867.969 112.91 857.234 86.9746ZM774.629 198.262C761.306 213.292 744.466 220.807 724.109 220.807C703.374 220.807 686.446 213.386 673.323 198.546C660.2 183.705 653.632 164.721 653.621 141.592C653.621 118.886 660.288 100.002 673.623 84.9388C686.957 69.8757 703.785 62.3219 724.109 62.2774C744.11 62.2774 760.856 69.8312 774.345 84.9388C787.835 100.046 794.585 118.897 794.597 141.492C794.597 164.331 787.94 183.255 774.629 198.262Z" fill="#FE3152"/>
<path d="M857.234 86.9746C850.054 69.886 839.517 54.4165 826.248 41.4851C812.812 28.2497 796.887 17.8136 779.396 10.7805C743.93 -3.59351 704.271 -3.59351 668.806 10.7805C651.431 17.82 635.633 28.2585 622.336 41.4851C608.812 54.3619 598.068 69.8778 590.768 87.0747C576.411 121.912 576.411 161.022 590.768 195.859C598.059 213.09 608.803 228.64 622.336 241.549C635.633 254.77 651.431 265.203 668.806 272.237C704.183 286.588 743.751 286.588 779.129 272.237C796.658 265.133 812.657 254.713 826.248 241.549C846.148 221.768 859.719 196.508 865.237 168.983C870.755 141.457 867.969 112.91 857.234 86.9746ZM774.629 198.262C761.306 213.292 744.466 220.807 724.109 220.807C703.374 220.807 686.446 213.386 673.323 198.546C660.2 183.705 653.632 164.721 653.621 141.592C653.621 118.886 660.288 100.002 673.623 84.9388C686.957 69.8757 703.785 62.3219 724.109 62.2774C744.11 62.2774 760.856 69.8312 774.345 84.9388C787.835 100.046 794.585 118.897 794.597 141.492C794.597 164.331 787.94 183.255 774.629 198.262Z" stroke="#FE3152"/>
<path d="M184 134.52C184 146.471 180.268 156.372 172.805 164.222C169.216 167.923 164.84 170.882 159.958 172.91C155.076 174.939 149.796 175.991 144.454 176C139.113 176.009 133.828 174.975 128.938 172.963C124.048 170.952 119.661 168.007 116.058 164.318C108.709 156.543 105.023 146.61 105 134.52C105 122.611 108.732 112.726 116.195 104.865C119.739 101.134 124.088 98.1476 128.954 96.1025C133.821 94.0574 139.096 93 144.431 93C149.767 93 155.041 94.0574 159.908 96.1025C164.775 98.1476 169.124 101.134 172.668 104.865C180.205 112.817 184 122.664 184 134.52Z" fill="#FE3152"/>
</svg>
