<svg width="564" height="553" viewBox="0 0 564 553" fill="none" xmlns="http://www.w3.org/2000/svg">
<path d="M357.714 264.017C357.714 288.237 350.645 308.293 336.507 324.186C322.368 340.079 304.486 348.026 282.859 348.026C260.842 348.026 242.875 340.146 228.96 324.387C215.045 308.628 208.071 288.511 208.038 264.034C208.038 239.937 215.107 219.925 229.245 203.999C243.384 188.072 261.266 180.086 282.893 180.042C304.128 180.042 321.916 188.05 336.255 204.066C350.438 220.076 357.714 240.026 357.714 264.017Z" fill="#FF7A22"/>
<path d="M563.704 303.9V272.047C563.704 272.047 563.051 261.871 561.408 248.576C558.863 221.569 552.22 195.107 541.709 170.1C527.694 136.764 507.112 106.592 481.188 81.38C454.955 55.5985 423.887 35.2532 389.769 21.5127C355.485 7.58803 318.823 0.453841 281.82 0.506261C244.823 0.41366 208.165 7.54943 173.904 21.5127C140.004 35.2528 109.178 55.6041 83.223 81.38C56.8232 106.478 35.8439 136.717 21.5785 170.234C7.52118 203.825 0.393302 239.909 0.622419 276.322C0.42674 312.685 7.55964 348.714 21.5953 382.259C35.8218 415.861 56.8043 446.179 83.2398 471.331C109.191 497.107 140.018 517.454 173.921 531.182C205.113 543.917 238.335 550.958 272.012 551.97C275.365 552.121 278.551 552.155 281.836 552.155H470.307V552.624H563.922V306.18C563.922 305.443 563.755 304.688 563.704 303.9ZM381.403 453.108L336.591 404.49C319.384 410.891 301.168 414.151 282.809 414.113C262.689 414.171 242.753 410.281 224.132 402.662C205.695 395.219 188.927 384.173 174.809 370.172C160.443 356.48 149.032 339.991 141.28 321.721C133.632 303.468 129.749 283.858 129.863 264.067C129.735 244.253 133.619 224.619 141.28 206.345C149.067 188.12 160.474 171.665 174.809 157.979C188.931 143.983 205.698 132.938 224.132 125.488C242.752 117.864 262.688 113.968 282.809 114.021C302.928 113.992 322.859 117.887 341.486 125.488C360.056 132.901 376.969 143.927 391.244 157.928C405.32 171.638 416.51 188.026 424.154 206.128C431.812 224.443 435.695 244.115 435.57 263.966C435.718 283.808 431.876 303.478 424.271 321.805C416.599 339.955 405.369 356.383 391.244 370.122C389.97 371.345 388.646 372.552 387.338 373.793L460.265 453.108H381.403Z" fill="#FF7A22"/>
</svg>
