<svg width="39" height="35" viewBox="0 0 39 35" fill="none" xmlns="http://www.w3.org/2000/svg">
<path id="Vector" d="M20.8947 18.1982V27.9992C20.8947 28.3706 20.748 28.7267 20.4868 28.9893C20.2255 29.2519 19.8713 29.3994 19.5019 29.3994C19.1324 29.3994 18.7782 29.2519 18.517 28.9893C18.2558 28.7267 18.109 28.3706 18.109 27.9992V18.1982C18.109 17.8269 18.2558 17.4707 18.517 17.2081C18.7782 16.9456 19.1324 16.798 19.5019 16.798C19.8713 16.798 20.2255 16.9456 20.4868 17.2081C20.748 17.4707 20.8947 17.8269 20.8947 18.1982ZM38.9774 14.367L36.5643 32.5707C36.4748 33.2435 36.1453 33.8607 35.6371 34.3076C35.1288 34.7544 34.4764 35.0005 33.8012 35H5.20249C4.52728 35.0005 3.87488 34.7544 3.36663 34.3076C2.85838 33.8607 2.52888 33.2435 2.43942 32.5707L0.0245618 14.3688C-0.0280622 13.9731 0.00409841 13.5706 0.118886 13.1884C0.233674 12.8062 0.428436 12.4531 0.690109 12.1527C0.951781 11.8524 1.27431 11.6118 1.63608 11.447C1.99784 11.2823 2.39047 11.1972 2.78763 11.1974H9.11989L18.4572 0.474038C18.5879 0.325052 18.7487 0.205731 18.9288 0.124C19.1089 0.0422692 19.3042 0 19.5019 0C19.6995 0 19.8948 0.0422692 20.0749 0.124C20.255 0.205731 20.4158 0.325052 20.5465 0.474038L29.8838 11.1974H36.2161C36.6128 11.1977 37.0049 11.2831 37.3661 11.448C37.7273 11.6129 38.0493 11.8534 38.3105 12.1535C38.5718 12.4536 38.7663 12.8063 38.881 13.188C38.9957 13.5698 39.028 13.9717 38.9757 14.367H38.9774ZM12.8214 11.1974H26.1823L19.5019 3.52287L12.8214 11.1974ZM36.2161 13.9977H2.78763L5.20249 32.1997H33.8012L36.2161 13.9977ZM27.3088 18.0582L26.3338 27.8592C26.3145 28.0427 26.3315 28.2283 26.3838 28.4051C26.4361 28.582 26.5227 28.7467 26.6385 28.8899C26.7544 29.033 26.8972 29.1517 27.0589 29.2391C27.2205 29.3266 27.3977 29.381 27.5804 29.3994C27.6274 29.402 27.6745 29.402 27.7214 29.3994C28.0664 29.399 28.399 29.2698 28.6547 29.037C28.9104 28.8042 29.0711 28.4843 29.1056 28.1393L30.0806 18.3382C30.1175 17.9687 30.0069 17.5996 29.7731 17.3121C29.5394 17.0246 29.2015 16.8422 28.834 16.805C28.4664 16.7679 28.0992 16.8791 27.8132 17.1141C27.5272 17.3491 27.3457 17.6887 27.3088 18.0582ZM11.6949 18.0582C11.658 17.6887 11.4765 17.3491 11.1905 17.1141C10.9045 16.8791 10.5373 16.7679 10.1697 16.805C9.80219 16.8422 9.46436 17.0246 9.23057 17.3121C8.99679 17.5996 8.8862 17.9687 8.92314 18.3382L9.89814 28.1393C9.93279 28.4858 10.0947 28.807 10.3522 29.04C10.6098 29.273 10.9445 29.4011 11.291 29.3994C11.338 29.402 11.385 29.402 11.432 29.3994C11.614 29.381 11.7906 29.3268 11.9518 29.2398C12.1129 29.1528 12.2554 29.0347 12.3712 28.8924C12.487 28.75 12.5737 28.5861 12.6264 28.41C12.6792 28.234 12.6969 28.0492 12.6786 27.8662L11.6949 18.0582Z" fill="#FE3152"/>
</svg>
