<svg width="32" height="35" viewBox="0 0 32 35" fill="none" xmlns="http://www.w3.org/2000/svg">
<path id="Vector" d="M31.3843 29.846L25.9492 2.22986C25.8789 1.86871 25.7425 1.52597 25.5479 1.22133C25.3533 0.916677 25.1043 0.656124 24.8151 0.454636C24.526 0.253147 24.2025 0.114694 23.8632 0.04723C23.5238 -0.0202342 23.1753 -0.0153797 22.8378 0.0615147L15.1722 1.82209C14.4942 1.98075 13.9022 2.4191 13.525 3.04179C13.1478 3.66449 13.0159 4.42116 13.158 5.14723L18.5931 32.7634C18.7143 33.3935 19.0347 33.9598 19.5005 34.3671C19.9663 34.7744 20.5492 34.9979 21.151 35C21.3371 34.9997 21.5226 34.9786 21.7046 34.937L29.3701 33.1764C30.049 33.0174 30.6415 32.5782 31.0188 31.9544C31.396 31.3306 31.5274 30.5728 31.3843 29.846ZM15.7208 4.57496V4.55921L23.3847 2.80913L23.93 5.5865L16.2661 7.34882L15.7208 4.57496ZM16.8049 10.0824L24.4721 8.32362L25.019 11.1062L17.3584 12.8668L16.8049 10.0824ZM17.8923 15.6074L25.5594 13.8468L27.7374 24.9143L20.0702 26.6749L17.8923 15.6074ZM28.8215 30.4393L21.1576 32.1894L20.6123 29.412L28.2762 27.6497L28.8215 30.4236V30.4393ZM10.4805 1.39857H2.62014C1.92523 1.39857 1.25879 1.69358 0.76742 2.21871C0.276049 2.74383 0 3.45605 0 4.19869V32.1999C0 32.9425 0.276049 33.6547 0.76742 34.1799C1.25879 34.705 1.92523 35 2.62014 35H10.4805C11.1754 35 11.8419 34.705 12.3333 34.1799C12.8246 33.6547 13.1007 32.9425 13.1007 32.1999V4.19869C13.1007 3.45605 12.8246 2.74383 12.3333 2.21871C11.8419 1.69358 11.1754 1.39857 10.4805 1.39857ZM2.62014 4.19869H10.4805V6.99881H2.62014V4.19869ZM2.62014 9.79893H10.4805V26.5996H2.62014V9.79893ZM10.4805 32.1999H2.62014V29.3998H10.4805V32.1999Z" fill="#FE3152"/>
</svg>
