<svg width="28" height="35" viewBox="0 0 28 35" fill="none" xmlns="http://www.w3.org/2000/svg">
<path id="Vector" d="M26.3223 5.00064C24.4147 4.99892 22.5277 5.39432 20.7821 6.16152C18.4162 2.19766 14.5274 0.224321 14.3488 0.132138C14.1747 0.0452421 13.9826 0 13.7879 0C13.5932 0 13.4011 0.0452421 13.227 0.132138C13.0483 0.222759 9.15327 2.19766 6.79366 6.16152C5.04806 5.39432 3.16107 4.99892 1.25344 5.00064C0.92101 5.00064 0.602192 5.13233 0.367125 5.36674C0.132059 5.60115 0 5.91907 0 6.25058V12.5003C0.00413563 15.9291 1.29133 19.2331 3.60965 21.7654C5.92797 24.2977 9.11053 25.8761 12.5344 26.1917V31.7274L6.82813 28.8807C6.68081 28.8072 6.52043 28.7634 6.35613 28.7518C6.19183 28.7401 6.02685 28.7609 5.87059 28.8128C5.71433 28.8647 5.56986 28.9469 5.44543 29.0545C5.321 29.1621 5.21905 29.2931 5.14539 29.44C5.07172 29.5869 5.0278 29.7469 5.01613 29.9107C5.00445 30.0745 5.02525 30.2391 5.07733 30.3949C5.12942 30.5507 5.21177 30.6948 5.31969 30.8188C5.42761 30.9429 5.55898 31.0446 5.7063 31.1181L13.227 34.8679C13.4011 34.9548 13.5932 35 13.7879 35C13.9826 35 14.1747 34.9548 14.3488 34.8679L21.8695 31.1181C22.167 30.9697 22.3932 30.7096 22.4984 30.3949C22.6036 30.0802 22.5791 29.7367 22.4304 29.44C22.2816 29.1433 22.0207 28.9177 21.7052 28.8128C21.3896 28.7079 21.0452 28.7323 20.7476 28.8807L15.0413 31.7274V26.1917C18.4652 25.8761 21.6478 24.2977 23.9661 21.7654C26.2844 19.2331 27.5716 15.9291 27.5758 12.5003V6.25058C27.5758 5.91907 27.4437 5.60115 27.2086 5.36674C26.9736 5.13233 26.6547 5.00064 26.3223 5.00064ZM12.5344 23.6809C9.77794 23.3702 7.23249 22.0588 5.3832 19.9969C3.53392 17.9349 2.5101 15.2665 2.50689 12.5003V7.56926C5.26338 7.88003 7.80884 9.19135 9.65812 11.2533C11.5074 13.3152 12.5312 15.9836 12.5344 18.7499V23.6809ZM13.7879 13.0252C12.7334 10.7408 11.0735 8.78676 8.98719 7.37396C10.4866 4.90689 12.7475 3.32729 13.7879 2.6867C14.8298 3.32416 17.0907 4.90377 18.5886 7.37396C16.5026 8.78711 14.8427 10.741 13.7879 13.0252ZM25.0689 12.5003C25.0657 15.2665 24.0418 17.9349 22.1926 19.9969C20.3433 22.0588 17.7978 23.3702 15.0413 23.6809V18.7499C15.0445 15.9836 16.0684 13.3152 17.9176 11.2533C19.7669 9.19135 22.3124 7.88003 25.0689 7.56926V12.5003Z" fill="#FE3152"/>
</svg>
