<svg width="27" height="39" viewBox="0 0 27 39" fill="none" xmlns="http://www.w3.org/2000/svg">
<g id="Group">
<path id="Vector" d="M6.1129 2V7.25M11.0484 2V7.25M15.9838 2V7.25M2 5.5H25.0322V13.375L20.9193 19.5V30C20.9193 30 20.9193 37 13.5161 37C6.1129 37 6.1129 30 6.1129 30V19.5L2 13.375V5.5Z" stroke="#FE3152" stroke-width="2.5" stroke-linecap="round" stroke-linejoin="round"/>
<path id="Vector_2" d="M15.9823 25.625C15.9823 24.1753 14.8775 23 13.5146 23C12.1517 23 11.0469 24.1753 11.0469 25.625V29.125C11.0469 30.5747 12.1517 31.75 13.5146 31.75C14.8775 31.75 15.9823 30.5747 15.9823 29.125V25.625Z" stroke="#FE3152" stroke-width="2.5" stroke-linecap="round" stroke-linejoin="round"/>
<path id="Vector_3" d="M2.125 13.4531H25.1572M21.0443 2.07812V7.32812" stroke="#FE3152" stroke-width="2.5" stroke-linecap="round" stroke-linejoin="round"/>
</g>
</svg>
