<svg width="31" height="35" viewBox="0 0 31 35" fill="none" xmlns="http://www.w3.org/2000/svg">
<path d="M6.73914 9.81634V1.42179C6.73914 1.05073 6.88114 0.694865 7.13391 0.432485C7.38668 0.170104 7.7295 0.0226998 8.08697 0.0226998C8.44443 0.0226998 8.78726 0.170104 9.04002 0.432485C9.29279 0.694865 9.43479 1.05073 9.43479 1.42179V9.81634C9.43479 10.1874 9.29279 10.5433 9.04002 10.8057C8.78726 11.068 8.44443 11.2154 8.08697 11.2154C7.7295 11.2154 7.38668 11.068 7.13391 10.8057C6.88114 10.5433 6.73914 10.1874 6.73914 9.81634ZM31 1.42179V33.6009C31 33.972 30.858 34.3278 30.6052 34.5902C30.3525 34.8526 30.0096 35 29.6522 35C29.2947 35 28.9519 34.8526 28.6991 34.5902C28.4464 34.3278 28.3043 33.972 28.3043 33.6009V25.2064H20.2174C19.8599 25.2064 19.5171 25.059 19.2643 24.7966C19.0116 24.5342 18.8696 24.1783 18.8696 23.8073C18.9322 20.4559 19.3399 17.1211 20.086 13.8597C21.7337 6.77857 24.8573 2.03215 29.1215 0.136376C29.3264 0.0452435 29.55 0.00831396 29.772 0.0288975C29.9941 0.0494811 30.2078 0.126934 30.394 0.254317C30.5801 0.3817 30.733 0.555033 30.8387 0.758785C30.9445 0.962537 30.9999 1.19034 31 1.42179ZM28.3043 3.85271C22.8844 8.14968 21.823 18.6166 21.6158 22.4082H28.3043V3.85271ZM14.8076 1.19269C14.7812 1.00898 14.7198 0.832565 14.627 0.673735C14.5343 0.514905 14.4119 0.376839 14.2672 0.267591C14.1225 0.158343 13.9583 0.0801007 13.7841 0.0374262C13.61 -0.0052482 13.4294 -0.0114997 13.2529 0.0190362C13.0764 0.0495721 12.9075 0.116284 12.7561 0.215282C12.6047 0.314279 12.4738 0.443579 12.3711 0.59564C12.2683 0.747702 12.1957 0.919481 12.1576 1.10096C12.1195 1.28243 12.1165 1.46997 12.149 1.65264L13.4783 9.92652C13.4783 11.4108 12.9103 12.8342 11.8992 13.8838C10.8881 14.9333 9.51683 15.5229 8.08697 15.5229C6.6571 15.5229 5.2858 14.9333 4.27474 13.8838C3.26367 12.8342 2.69566 11.4108 2.69566 9.92652L4.02327 1.65264C4.0557 1.46997 4.05276 1.28243 4.01463 1.10096C3.9765 0.919481 3.90394 0.747702 3.80119 0.59564C3.69843 0.443579 3.56753 0.314279 3.41613 0.215282C3.26473 0.116284 3.09585 0.0495721 2.91935 0.0190362C2.74284 -0.0114997 2.56225 -0.0052482 2.3881 0.0374262C2.21395 0.0801007 2.04973 0.158343 1.90502 0.267591C1.7603 0.376839 1.638 0.514905 1.54523 0.673735C1.45246 0.832565 1.39108 1.00898 1.36469 1.19269L0.0168603 9.58724C0.00532861 9.66302 -0.000305283 9.73963 1.2746e-05 9.81634C0.00270583 11.7992 0.680526 13.7173 1.9137 15.2316C3.14688 16.746 4.85603 17.7591 6.73914 18.092V33.6009C6.73914 33.972 6.88114 34.3278 7.13391 34.5902C7.38668 34.8526 7.7295 35 8.08697 35C8.44443 35 8.78726 34.8526 9.04002 34.5902C9.29279 34.3278 9.43479 33.972 9.43479 33.6009V18.092C11.3179 17.7591 13.0271 16.746 14.2602 15.2316C15.4934 13.7173 16.1712 11.7992 16.1739 9.81634C16.1737 9.73958 16.1675 9.66297 16.1554 9.58724L14.8076 1.19269Z" fill="#FE3152"/>
</svg>
