<svg width="40" height="35" viewBox="0 0 40 35" fill="none" xmlns="http://www.w3.org/2000/svg">
<path id="Vector" d="M38.3813 20.7452C37.9454 20.3617 37.4456 20.0835 36.9125 19.9275C36.3794 19.7715 35.824 19.741 35.2802 19.8378C38.4096 16.2313 39.9927 12.6458 39.9927 9.13057C39.9927 4.09554 36.445 0.000178478 32.0841 0.000178478C30.927 -0.00811625 29.7823 0.272805 28.7305 0.823222C27.6786 1.37364 26.745 2.18021 25.9952 3.1863C25.2455 2.18021 24.3119 1.37364 23.26 0.823222C22.2081 0.272805 21.0635 -0.00811625 19.9064 0.000178478C15.5455 0.000178478 11.9978 4.09554 11.9978 9.13057C11.9978 11.2229 12.5377 13.2564 13.6742 15.4077C12.7434 15.6769 11.894 16.2291 11.2163 17.0055L7.44697 21.3044H2.66618C1.95906 21.3044 1.28091 21.6251 0.780905 22.1958C0.2809 22.7666 0 23.5407 0 24.3479L0 31.9565C0 32.7637 0.2809 33.5378 0.780905 34.1086C1.28091 34.6793 1.95906 35 2.66618 35H19.9963C20.1053 35.0001 20.2139 34.9847 20.3196 34.9543L30.9843 31.9109C31.0523 31.8924 31.1187 31.8669 31.1826 31.8348L37.6598 28.6886L37.7331 28.6506C38.3556 28.2955 38.8887 27.7654 39.2821 27.1101C39.6755 26.4549 39.9163 25.6961 39.9818 24.9053C40.0473 24.1144 39.9354 23.3176 39.6565 22.5898C39.3777 21.862 38.9411 21.2272 38.388 20.7452H38.3813ZM19.9064 3.04364C20.9388 3.02639 21.9524 3.36106 22.8174 4.00486C23.6824 4.64866 24.3595 5.57233 24.7621 6.65775C24.8626 6.93685 25.0334 7.17557 25.253 7.34357C25.4725 7.51158 25.7309 7.60128 25.9952 7.60128C26.2596 7.60128 26.5179 7.51158 26.7375 7.34357C26.9571 7.17557 27.1279 6.93685 27.2283 6.65775C27.631 5.57233 28.3081 4.64866 29.1731 4.00486C30.0381 3.36106 31.0516 3.02639 32.0841 3.04364C34.9253 3.04364 37.3265 5.83031 37.3265 9.13057C37.3265 12.8417 34.6953 17.0398 29.7179 21.2854L27.8699 21.7704C28.0321 20.9883 28.0371 20.1743 27.8845 19.3896C27.732 18.6049 27.4258 17.8698 26.989 17.2394C26.5521 16.6089 25.9959 16.0996 25.3621 15.7494C24.7283 15.3993 24.0332 15.2174 23.3291 15.2175H16.7769C15.3389 13.0034 14.664 11.0556 14.664 9.13057C14.664 5.83031 17.0652 3.04364 19.9064 3.04364ZM2.66618 24.3479H6.66544V31.9565H2.66618V24.3479ZM36.565 25.9096L30.2328 28.9873L19.8297 31.9565H9.33162V23.4558L13.1026 19.1531C13.3493 18.8692 13.6429 18.6442 13.9665 18.491C14.29 18.3379 14.637 18.2597 14.9873 18.261H23.3291C23.8594 18.261 24.368 18.5014 24.743 18.9295C25.118 19.3576 25.3287 19.9382 25.3287 20.5436C25.3287 21.1489 25.118 21.7295 24.743 22.1576C24.368 22.5857 23.8594 22.8261 23.3291 22.8261H18.6632C18.3097 22.8261 17.9706 22.9865 17.7206 23.2719C17.4706 23.5572 17.3302 23.9443 17.3302 24.3479C17.3302 24.7515 17.4706 25.1385 17.7206 25.4239C17.9706 25.7093 18.3097 25.8696 18.6632 25.8696H23.9956C24.0959 25.8693 24.196 25.8565 24.2939 25.8316L35.4585 22.9003L35.5102 22.8851C35.851 22.7771 36.2148 22.8168 36.5315 22.9965C36.8482 23.1763 37.0955 23.4834 37.2258 23.8588C37.3561 24.2341 37.3602 24.6513 37.2373 25.0299C37.1143 25.4084 36.8731 25.7218 36.56 25.9096H36.565Z" fill="#FE3152"/>
</svg>
