<svg width="34" height="35" viewBox="0 0 34 35" fill="none" xmlns="http://www.w3.org/2000/svg">
<path id="Vector" d="M4.62007 18.6254L4.62047 18.6218L4.71102 17.499C4.71079 16.5735 4.39871 15.4282 3.80001 14.0739C3.20817 12.7351 2.93169 11.7705 2.93169 11.1563C2.93169 10.9032 2.94599 10.642 2.97476 10.3726C3.00051 10.1315 3.07784 9.8947 3.21051 9.66087L3.21074 9.661L3.21593 9.6508C3.31664 9.4527 3.45304 9.29489 3.6261 9.17332C3.79468 9.05489 3.96747 9 4.14963 9C4.57389 9 4.86249 9.12184 5.05581 9.3334C5.23527 9.52979 5.30316 9.80649 5.19746 10.2192L5.19736 10.2192L5.19579 10.2262C5.1317 10.5098 5.10068 10.8203 5.10068 11.1563C5.10068 11.8836 5.41731 12.9315 6.01168 14.2761C6.59899 15.6046 6.88 16.6757 6.88 17.5C6.88 17.9278 6.85087 18.2743 6.79605 18.5439C6.73985 18.8203 6.67123 19.0481 6.59242 19.2307C6.49204 19.4258 6.35674 19.5815 6.18559 19.7017C6.01701 19.8201 5.84422 19.875 5.66206 19.875C5.19915 19.875 4.93638 19.7483 4.79469 19.5588C4.63802 19.3492 4.56597 19.0498 4.62007 18.6254ZM16.1857 18.6254L16.1861 18.6218L16.2766 17.4991C16.2764 16.5736 15.9643 15.4283 15.3656 14.0739C14.7738 12.7351 14.4973 11.7705 14.4973 11.1563C14.4973 10.9032 14.5116 10.642 14.5404 10.3726C14.5661 10.1315 14.6434 9.8947 14.7761 9.66087L14.7763 9.661L14.7815 9.6508C14.8822 9.4527 15.0186 9.29489 15.1917 9.17332C15.3603 9.05489 15.5331 9 15.7152 9C16.1395 9 16.4281 9.12184 16.6214 9.3334C16.8009 9.52979 16.8688 9.80649 16.7631 10.2192L16.763 10.2192L16.7614 10.2262C16.6973 10.5098 16.6663 10.8203 16.6663 11.1563C16.6663 11.8836 16.9829 12.9315 17.5773 14.2761C18.1646 15.6046 18.4456 16.6757 18.4456 17.5C18.4456 17.9278 18.4165 18.2743 18.3616 18.5439C18.3054 18.8203 18.2368 19.0482 18.158 19.2308C18.0576 19.4258 17.9223 19.5815 17.7512 19.7017C17.5826 19.8201 17.4098 19.875 17.2277 19.875C16.7647 19.875 16.502 19.7483 16.3603 19.5588C16.2036 19.3492 16.1316 19.0498 16.1857 18.6254ZM10.4029 18.6254L10.4033 18.6218L10.4938 17.499C10.4936 16.5735 10.1815 15.4282 9.58281 14.0739C8.99097 12.7351 8.71449 11.7705 8.71449 11.1563C8.71449 10.9032 8.72879 10.642 8.75756 10.3726C8.78331 10.1315 8.86064 9.8947 8.99331 9.66087L8.99354 9.661L8.99873 9.6508C9.09944 9.4527 9.23584 9.29489 9.4089 9.17332C9.57748 9.05489 9.75027 9 9.93243 9C10.3567 9 10.6453 9.12184 10.8386 9.3334C11.0181 9.52979 11.086 9.80649 10.9803 10.2192L10.9802 10.2192L10.9786 10.2262C10.9145 10.5098 10.8835 10.8203 10.8835 11.1563C10.8835 11.8836 11.2001 12.9315 11.7945 14.2761C12.3818 15.6046 12.6628 16.6757 12.6628 17.5C12.6628 17.9278 12.6337 18.2743 12.5788 18.5439C12.5227 18.8203 12.454 19.0481 12.3752 19.2307C12.2748 19.4258 12.1395 19.5815 11.9684 19.7017C11.7998 19.8201 11.627 19.875 11.4449 19.875C10.9819 19.875 10.7192 19.7483 10.5775 19.5588C10.4208 19.3492 10.3488 19.0498 10.4029 18.6254ZM12.0232 34.75H12.0231C9.08836 34.75 6.51428 33.7872 4.29036 31.8572C2.06609 29.9269 0.725149 27.5388 0.260477 24.6848C0.210989 24.2339 0.336294 23.8473 0.643138 23.5072C0.951203 23.1659 1.32823 22.999 1.79149 23H1.79203H20.5194H20.7438L20.768 22.7769L22.7251 4.66557C22.7251 4.66535 22.7251 4.66513 22.7252 4.66491C22.8666 3.41434 23.4082 2.3693 24.3569 1.51974C25.3029 0.672608 26.436 0.248885 27.7699 0.250002H27.7701C29.1887 0.250002 30.3857 0.73559 31.3759 1.70949C32.3628 2.68015 32.855 3.85112 32.8581 5.23679L32.7709 6.05156C32.7709 6.05208 32.7708 6.05261 32.7707 6.05314C32.7185 6.48707 32.5334 6.82856 32.214 7.09254C31.8985 7.35331 31.5306 7.45983 31.0918 7.40805C30.68 7.3573 30.3445 7.17643 30.0744 6.85897C29.8079 6.54586 29.7038 6.20016 29.7531 5.80598L29.7533 5.806L29.7541 5.79611L29.7986 5.27111L29.7995 5.26057V5.25C29.7995 4.68974 29.6035 4.2092 29.212 3.82546C28.8212 3.44243 28.3352 3.25131 27.7707 3.25H27.7701C27.2362 3.25 26.7733 3.42493 26.3978 3.77815C26.0306 4.12351 25.8103 4.54718 25.7431 5.04133L25.743 5.04132L25.7423 5.04828L23.696 24.0795L23.696 24.08C23.376 27.1123 22.1135 29.645 19.9048 31.6893C17.6979 33.7318 15.075 34.7511 12.0232 34.75ZM19.9957 26.3419L20.1309 26H19.7632H4.14963H3.76893L3.92022 26.3493C4.62092 27.9674 5.69647 29.2733 7.14372 30.2626C8.59448 31.2543 10.2234 31.75 12.0231 31.75C13.8218 31.75 15.4434 31.2543 16.8804 30.262C18.3149 29.2713 19.3547 27.963 19.9957 26.3419Z" fill="#FE3152" stroke="white" stroke-width="0.5"/>
</svg>
