<svg width="41" height="35" viewBox="0 0 41 35" fill="none" xmlns="http://www.w3.org/2000/svg">
<path id="Vector" d="M28.3614 14.5833H37.3176C38.1094 14.5833 38.8688 14.276 39.4286 13.7291C39.9885 13.1821 40.303 12.4402 40.303 11.6667V2.91667C40.303 2.14312 39.9885 1.40125 39.4286 0.854272C38.8688 0.307291 38.1094 0 37.3176 0H28.3614C27.5696 0 26.8103 0.307291 26.2504 0.854272C25.6905 1.40125 25.376 2.14312 25.376 2.91667V5.83333H23.8833C22.2997 5.83333 20.781 6.44791 19.6613 7.54188C18.5415 8.63584 17.9125 10.1196 17.9125 11.6667V16.0417H11.9416V14.5833C11.9416 13.8098 11.6271 13.0679 11.0672 12.5209C10.5074 11.974 9.74801 11.6667 8.95623 11.6667H2.98541C2.19363 11.6667 1.43428 11.974 0.874406 12.5209C0.314533 13.0679 0 13.8098 0 14.5833V20.4167C0 21.1902 0.314533 21.9321 0.874406 22.4791C1.43428 23.026 2.19363 23.3333 2.98541 23.3333H8.95623C9.74801 23.3333 10.5074 23.026 11.0672 22.4791C11.6271 21.9321 11.9416 21.1902 11.9416 20.4167V18.9583H17.9125V23.3333C17.9125 24.8804 18.5415 26.3642 19.6613 27.4581C20.781 28.5521 22.2997 29.1667 23.8833 29.1667H25.376V32.0833C25.376 32.8569 25.6905 33.5987 26.2504 34.1457C26.8103 34.6927 27.5696 35 28.3614 35H37.3176C38.1094 35 38.8688 34.6927 39.4286 34.1457C39.9885 33.5987 40.303 32.8569 40.303 32.0833V23.3333C40.303 22.5598 39.9885 21.8179 39.4286 21.2709C38.8688 20.724 38.1094 20.4167 37.3176 20.4167H28.3614C27.5696 20.4167 26.8103 20.724 26.2504 21.2709C25.6905 21.8179 25.376 22.5598 25.376 23.3333V26.25H23.8833C23.0915 26.25 22.3321 25.9427 21.7723 25.3957C21.2124 24.8487 20.8979 24.1069 20.8979 23.3333V11.6667C20.8979 10.8931 21.2124 10.1513 21.7723 9.60427C22.3321 9.05729 23.0915 8.75 23.8833 8.75H25.376V11.6667C25.376 12.4402 25.6905 13.1821 26.2504 13.7291C26.8103 14.276 27.5696 14.5833 28.3614 14.5833ZM8.95623 20.4167H2.98541V14.5833H8.95623V20.4167ZM28.3614 23.3333H37.3176V32.0833H28.3614V23.3333ZM28.3614 2.91667H37.3176V11.6667H28.3614V2.91667Z" fill="#FE3152"/>
</svg>
