<svg width="36" height="35" viewBox="0 0 36 35" fill="none" xmlns="http://www.w3.org/2000/svg">
<path id="Vector" d="M5.1899 29.8105L5.18992 29.8106C6.75575 31.3774 8.5973 32.6176 10.7155 33.5309C12.8318 34.4435 15.0935 34.9 17.5015 34.9C19.9095 34.9012 22.1712 34.4446 24.2874 33.5309C26.4057 32.6164 28.2472 31.3763 29.8131 29.8106C29.8131 29.8106 29.8131 29.8105 29.8131 29.8105M5.1899 29.8105L5.11919 5.11875C6.69432 3.54375 8.54656 2.29717 10.6759 1.379C12.8053 0.460833 15.0805 0.00116667 17.5015 0C19.9225 0 22.1977 0.459667 24.3271 1.379C26.4564 2.29833 28.3087 3.54492 29.8838 5.11875C31.4589 6.69375 32.7062 8.54583 33.6256 10.675C34.545 12.8042 35.0042 15.0792 35.003 17.5C35.003 19.9208 34.5433 22.1958 33.6239 24.325C32.7045 26.4542 31.4578 28.3062 29.8838 29.8812L29.8131 29.8105M5.1899 29.8105C3.62407 28.2448 2.38439 26.4034 1.47094 24.2854C0.558321 22.1693 0.10116 19.9078 0.1 17.5C0.1 15.0922 0.557154 12.8307 1.47092 10.7146C2.38554 8.59658 3.62523 6.75516 5.1899 5.18946M5.1899 29.8105V5.18946M29.8131 29.8105C31.3778 28.2448 32.6175 26.4034 33.5321 24.2854C34.4458 22.1693 34.903 19.9078 34.903 17.5C34.9042 15.0922 34.4476 12.8307 33.5338 10.7146C32.6192 8.5966 31.3789 6.75519 29.8131 5.18949C28.2473 3.62494 26.4057 2.38535 24.2874 1.47081C22.1712 0.557116 19.9095 0.1 17.5015 0.1C15.0935 0.10116 12.8318 0.558283 10.7155 1.47083C8.5973 2.38419 6.75574 3.62376 5.18992 5.18944M29.8131 29.8105L5.18992 5.18944M5.18992 5.18944C5.18991 5.18945 5.1899 5.18946 5.1899 5.18946M5.18992 5.18944L5.1899 5.18946M3.48874 15.7363L3.47307 15.85H3.58781H8.57573H8.69276L8.67451 15.7344C8.49789 14.6159 8.15923 13.5703 7.65829 12.598C7.15773 11.6263 6.52448 10.7575 5.75869 9.99179L5.66953 9.90263L5.60302 10.0098C5.0746 10.861 4.6267 11.7638 4.2593 12.7181C3.89123 13.674 3.63443 14.6802 3.48874 15.7363ZM26.3285 15.7344L26.3102 15.85H26.4273H31.4152H31.53L31.5142 15.7362C31.3674 14.679 31.1106 13.6723 30.7437 12.7164C30.3775 11.7621 29.9295 10.8598 29.3999 10.0096L29.3333 9.90277L29.2443 9.99179C28.4785 10.7575 27.8453 11.6263 27.3447 12.598C26.8438 13.5703 26.5051 14.6159 26.3285 15.7344ZM5.603 24.9902L5.66949 25.0974L5.75869 25.0082C6.52448 24.2425 7.15773 23.3737 7.65829 22.402C8.15923 21.4297 8.49789 20.3841 8.67451 19.2656L8.69276 19.15H8.57573H3.58781H3.47296L3.48876 19.2638C3.63561 20.321 3.89298 21.3277 4.26105 22.2837C4.62845 23.2379 5.07575 24.1401 5.603 24.9902ZM29.2443 25.0082L29.3335 25.0974L29.4 24.9902C29.9284 24.139 30.3763 23.2362 30.7437 22.2819C31.1118 21.326 31.3686 20.3198 31.5142 19.2637L31.5299 19.15H31.4152H26.4273H26.3102L26.3285 19.2656C26.5051 20.3841 26.8438 21.4297 27.3447 22.402C27.8453 23.3737 28.4785 24.2425 29.2443 25.0082ZM12.0645 15.7638L12.0765 15.85H12.1635H15.7513H15.8513V15.75V3.5875V3.47127L15.7364 3.48862C14.1814 3.72331 12.7351 4.1565 11.398 4.78859C10.0603 5.42095 8.86282 6.25092 7.80597 7.2783L7.73229 7.34992L7.80589 7.42163C8.93592 8.52258 9.87062 9.77586 10.6102 11.1818C11.3489 12.5863 11.8338 14.1134 12.0645 15.7638ZM19.1516 15.75V15.85H19.2516H22.8395H22.9264L22.9385 15.7639C23.1703 14.1122 23.6558 12.5845 24.3946 11.1801C25.1341 9.7741 26.0682 8.52141 27.1971 7.42163L27.2707 7.34992L27.197 7.2783C26.139 6.24976 24.941 5.4192 23.6033 4.78684C22.2661 4.15475 20.8203 3.72214 19.2665 3.48861L19.1516 3.47135V3.5875V15.75ZM15.7365 31.5114L15.8513 31.5287V31.4125V19.25V19.15H15.7513H12.1635H12.0766L12.0645 19.2361C11.8327 20.8878 11.3472 22.4155 10.6084 23.8199C9.86886 25.2259 8.93474 26.4786 7.80589 27.5784L7.73229 27.6501L7.80597 27.7217C8.86398 28.7502 10.062 29.5808 11.3997 30.2132C12.7369 30.8453 14.1826 31.2779 15.7365 31.5114ZM19.1516 31.4125V31.5287L19.2666 31.5114C20.8215 31.2767 22.2678 30.8441 23.6049 30.2132C24.9427 29.582 26.1402 28.7514 27.1971 27.7216L27.2706 27.65L27.1971 27.5784C26.0671 26.4774 25.1324 25.2241 24.3928 23.8182C23.6541 22.4137 23.1692 20.8866 22.9385 19.2362L22.9264 19.15H22.8395H19.2516H19.1516V19.25V31.4125Z" fill="#FE3152" stroke="white" stroke-width="0.2"/>
</svg>
