<svg width="40" height="35" viewBox="0 0 40 35" fill="none" xmlns="http://www.w3.org/2000/svg">
<path id="Vector" d="M39.6121 17.68L36.7048 2.28453C36.6338 1.90926 36.4858 1.55231 36.27 1.23564C36.0542 0.918972 35.7751 0.649272 35.4499 0.443128C35.1246 0.236983 34.7602 0.0987529 34.3789 0.0369365C33.9976 -0.0248798 33.6076 -0.00897518 33.2327 0.0836723L33.1778 0.0994178L23.8788 2.80938H15.7872L6.48816 0.108165L6.43327 0.0924196C6.05844 -0.000227868 5.66839 -0.0161325 5.28711 0.0456839C4.90582 0.1075 4.54137 0.245731 4.21615 0.451875C3.89094 0.658019 3.61184 0.927719 3.39601 1.24439C3.18019 1.56106 3.03221 1.91801 2.96117 2.29328L0.0538841 17.68C-0.0704403 18.2963 0.0218442 18.936 0.315473 19.4933C0.609102 20.0507 1.08648 20.4923 1.66865 20.7452C2.04148 20.9141 2.44654 21.0024 2.85671 21.0041C3.34764 21.0039 3.8295 20.8733 4.25192 20.6262V28.002C4.25192 29.858 4.99809 31.638 6.32628 32.9503C7.65447 34.2627 9.45589 35 11.3342 35H28.3318C30.2101 35 32.0115 34.2627 33.3397 32.9503C34.6679 31.638 35.4141 29.858 35.4141 28.002V20.6279C35.8361 20.8746 36.3172 21.0051 36.8075 21.0058C37.2181 21.0047 37.6238 20.917 37.9974 20.7486C38.5802 20.4957 39.0581 20.0535 39.3518 19.4954C39.6455 18.9373 39.7373 18.2968 39.6121 17.68ZM2.83546 18.2049L5.74452 2.80938L13.1933 4.9735L2.83546 18.2049ZM28.3318 32.2008H21.2495V29.9807L23.6681 27.5927C23.9339 27.33 24.0832 26.9738 24.0832 26.6024C24.0832 26.231 23.9339 25.8749 23.6681 25.6122C23.4023 25.3496 23.0418 25.2021 22.6659 25.2021C22.2901 25.2021 21.9296 25.3496 21.6638 25.6122L19.833 27.423L18.0022 25.6122C17.7364 25.3496 17.376 25.2021 17.0001 25.2021C16.6242 25.2021 16.2637 25.3496 15.9979 25.6122C15.7321 25.8749 15.5828 26.231 15.5828 26.6024C15.5828 26.9738 15.7321 27.33 15.9979 27.5927L18.4165 29.9807V32.2008H11.3342C10.2072 32.2008 9.12638 31.7584 8.32946 30.971C7.53255 30.1836 7.08485 29.1156 7.08485 28.002V17.3494L16.2777 5.60856H23.3866L32.5812 17.3494V28.002C32.5812 29.1156 32.1335 30.1836 31.3365 30.971C30.5396 31.7584 29.4588 32.2008 28.3318 32.2008ZM36.8306 18.2049L26.4727 4.9735L33.9215 2.80938L36.8306 18.2049ZM15.5836 20.3043C15.5836 20.7195 15.459 21.1254 15.2255 21.4706C14.9921 21.8159 14.6602 22.085 14.272 22.2439C13.8838 22.4028 13.4566 22.4443 13.0444 22.3633C12.6323 22.2823 12.2537 22.0824 11.9565 21.7888C11.6594 21.4952 11.457 21.1211 11.3751 20.7138C11.2931 20.3066 11.3352 19.8845 11.496 19.5009C11.6568 19.1173 11.9291 18.7894 12.2785 18.5587C12.6279 18.328 13.0387 18.2049 13.4589 18.2049C14.0224 18.2049 14.5629 18.4261 14.9613 18.8198C15.3598 19.2135 15.5836 19.7475 15.5836 20.3043ZM28.3318 20.3043C28.3318 20.7195 28.2072 21.1254 27.9737 21.4706C27.7402 21.8159 27.4084 22.085 27.0202 22.2439C26.6319 22.4028 26.2047 22.4443 25.7926 22.3633C25.3804 22.2823 25.0018 22.0824 24.7047 21.7888C24.4076 21.4952 24.2052 21.1211 24.1232 20.7138C24.0412 20.3066 24.0833 19.8845 24.2441 19.5009C24.4049 19.1173 24.6773 18.7894 25.0267 18.5587C25.3761 18.328 25.7869 18.2049 26.2071 18.2049C26.7706 18.2049 27.311 18.4261 27.7095 18.8198C28.1079 19.2135 28.3318 19.7475 28.3318 20.3043Z" fill="#FE3152"/>
</svg>
