<svg width="37" height="35" viewBox="0 0 37 35" fill="none" xmlns="http://www.w3.org/2000/svg">
<path id="Vector" d="M11.8237 19.5192C11.411 19.5192 11.0076 19.4008 10.6645 19.1789C10.3214 18.957 10.0539 18.6417 9.89601 18.2727C9.73809 17.9038 9.69677 17.4978 9.77728 17.1061C9.85779 16.7144 10.0565 16.3546 10.3483 16.0722C10.6401 15.7898 11.0119 15.5975 11.4167 15.5196C11.8214 15.4417 12.2409 15.4816 12.6222 15.6345C13.0035 15.7873 13.3293 16.0461 13.5586 16.3782C13.7879 16.7102 13.9103 17.1006 13.9103 17.5C13.9103 18.0355 13.6904 18.5491 13.2991 18.9278C12.9078 19.3065 12.3771 19.5192 11.8237 19.5192ZM24.3429 15.4808C23.9303 15.4808 23.5269 15.5992 23.1837 15.8211C22.8406 16.0429 22.5732 16.3583 22.4152 16.7273C22.2573 17.0962 22.216 17.5022 22.2965 17.8939C22.377 18.2856 22.5757 18.6454 22.8675 18.9278C23.1594 19.2102 23.5311 19.4025 23.9359 19.4804C24.3406 19.5583 24.7602 19.5184 25.1414 19.3655C25.5227 19.2127 25.8486 18.9539 26.0778 18.6218C26.3071 18.2898 26.4295 17.8994 26.4295 17.5C26.4295 16.9645 26.2097 16.4509 25.8184 16.0722C25.4271 15.6935 24.8963 15.4808 24.3429 15.4808ZM22.2095 23.0916C20.9706 23.8357 19.5415 24.23 18.0833 24.23C16.6252 24.23 15.1961 23.8357 13.9572 23.0916C13.645 22.901 13.2674 22.8383 12.9074 22.9172C12.5474 22.9961 12.2345 23.2101 12.0376 23.5123C11.8407 23.8144 11.7759 24.1798 11.8574 24.5282C11.9389 24.8766 12.1601 25.1794 12.4723 25.3699C14.1557 26.3855 16.0996 26.9239 18.0833 26.9239C20.067 26.9239 22.011 26.3855 23.6944 25.3699C24.0066 25.1794 24.2278 24.8766 24.3093 24.5282C24.3908 24.1798 24.326 23.8144 24.1291 23.5123C23.9322 23.2101 23.6193 22.9961 23.2593 22.9172C22.8993 22.8383 22.5217 22.901 22.2095 23.0916ZM36.1667 17.5C36.1667 20.9612 35.1061 24.3446 33.1191 27.2225C31.1321 30.1003 28.3078 32.3433 25.0035 33.6679C21.6992 34.9924 18.0633 35.339 14.5555 34.6637C11.0476 33.9885 7.82549 32.3218 5.29649 29.8744C2.76749 27.4269 1.04522 24.3087 0.347474 20.9141C-0.350275 17.5194 0.00783523 14.0007 1.37652 10.803C2.7452 7.60533 5.06299 4.87221 8.03678 2.94928C11.0106 1.02636 14.5068 0 18.0833 0C22.8778 0.00489969 27.4744 1.85022 30.8646 5.13104C34.2548 8.41187 36.1616 12.8602 36.1667 17.5ZM33.3846 17.5C33.3798 13.6881 31.858 10.0245 29.1352 7.26987C26.4125 4.51527 22.6981 2.88137 18.7632 2.70745C16.748 5.44856 16.6923 8.05673 16.6923 8.07692C16.6923 8.43394 16.8389 8.77634 17.0997 9.02879C17.3606 9.28125 17.7144 9.42307 18.0833 9.42307C18.4523 9.42307 18.8061 9.28125 19.0669 9.02879C19.3278 8.77634 19.4744 8.43394 19.4744 8.07692C19.4744 7.7199 19.6209 7.3775 19.8818 7.12505C20.1426 6.87259 20.4965 6.73077 20.8654 6.73077C21.2343 6.73077 21.5881 6.87259 21.849 7.12505C22.1099 7.3775 22.2564 7.7199 22.2564 8.07692C22.2564 9.14799 21.8167 10.1752 21.0341 10.9325C20.2515 11.6899 19.1901 12.1154 18.0833 12.1154C16.9766 12.1154 15.9151 11.6899 15.1325 10.9325C14.3499 10.1752 13.9103 9.14799 13.9103 8.07692C13.9103 7.95408 13.9329 5.67067 15.3813 2.92284C12.5164 3.42025 9.85751 4.6981 7.71668 6.60645C5.57585 8.5148 4.04187 10.9745 3.29474 13.6968C2.54761 16.4192 2.61834 19.2913 3.49861 21.9762C4.37889 24.661 6.0322 27.0472 8.26453 28.8547C10.4969 30.6622 13.2156 31.816 16.1017 32.1808C18.9878 32.5456 21.9216 32.1062 24.5588 30.9141C27.1959 29.7221 29.427 27.8269 30.9903 25.4509C32.5536 23.0749 33.3842 20.3167 33.3846 17.5Z" fill="#FE3152"/>
</svg>
