<svg width="28" height="28" viewBox="0 0 28 28" fill="none" xmlns="http://www.w3.org/2000/svg">
<path id="Vector" d="M27.4243 8.50761L23.9056 11.5076L24.9593 15.9739C25.0336 16.2869 25.0139 16.6149 24.9027 16.9168C24.7915 17.2187 24.5938 17.4812 24.3343 17.6714C24.0718 17.8641 23.7584 17.9752 23.4331 17.9908C23.1079 18.0063 22.7852 17.9257 22.5056 17.7589L18.5056 15.3839L14.5056 17.7589C14.2259 17.9257 13.9033 18.0063 13.578 17.9908C13.2527 17.9752 12.9393 17.8641 12.6768 17.6714C12.4174 17.4811 12.2198 17.2186 12.1086 16.9167C11.9975 16.6149 11.9777 16.2869 12.0518 15.9739L13.1056 11.5076L9.58556 8.50761C9.33924 8.29735 9.16062 8.01892 9.07221 7.70737C8.98379 7.39581 8.98953 7.06507 9.08869 6.75677C9.18784 6.44847 9.376 6.17639 9.62945 5.9748C9.88291 5.7732 10.1903 5.6511 10.5131 5.62386L15.1668 5.23011L16.9818 0.998856C17.1099 0.702223 17.322 0.449576 17.592 0.272079C17.862 0.094582 18.1781 0 18.5012 0C18.8243 0 19.1403 0.094582 19.4103 0.272079C19.6803 0.449576 19.8925 0.702223 20.0206 0.998856L21.8356 5.23261L26.4881 5.62386C26.8115 5.64924 27.1202 5.77 27.375 5.97085C27.6298 6.1717 27.8193 6.44362 27.9195 6.7522C28.0198 7.06079 28.0262 7.39217 27.9381 7.70442C27.8499 8.01666 27.6711 8.29575 27.4243 8.50636V8.50761ZM8.70806 12.2914C8.61518 12.1984 8.50489 12.1246 8.3835 12.0743C8.2621 12.024 8.13197 11.9981 8.00056 11.9981C7.86914 11.9981 7.73901 12.024 7.61762 12.0743C7.49622 12.1246 7.38593 12.1984 7.29306 12.2914L0.293056 19.2914C0.105415 19.479 0 19.7335 0 19.9989C0 20.2642 0.105415 20.5187 0.293056 20.7064C0.480697 20.894 0.735192 20.9994 1.00056 20.9994C1.26592 20.9994 1.52042 20.894 1.70806 20.7064L8.70806 13.7064C8.80103 13.6135 8.87479 13.5032 8.92512 13.3818C8.97544 13.2604 9.00134 13.1303 9.00134 12.9989C9.00134 12.8674 8.97544 12.7373 8.92512 12.6159C8.87479 12.4945 8.80103 12.3842 8.70806 12.2914ZM10.7081 19.2914C10.6152 19.1984 10.5049 19.1246 10.3835 19.0743C10.2621 19.024 10.132 18.9981 10.0006 18.9981C9.86914 18.9981 9.73901 19.024 9.61762 19.0743C9.49622 19.1246 9.38593 19.1984 9.29305 19.2914L2.29306 26.2914C2.20015 26.3843 2.12645 26.4946 2.07616 26.616C2.02588 26.7374 2 26.8675 2 26.9989C2 27.1303 2.02588 27.2604 2.07616 27.3818C2.12645 27.5031 2.20015 27.6134 2.29306 27.7064C2.4807 27.894 2.73519 27.9994 3.00056 27.9994C3.13195 27.9994 3.26206 27.9735 3.38345 27.9232C3.50485 27.873 3.61515 27.7993 3.70806 27.7064L10.7081 20.7064C10.801 20.6135 10.8748 20.5032 10.9251 20.3818C10.9754 20.2604 11.0013 20.1303 11.0013 19.9989C11.0013 19.8674 10.9754 19.7373 10.9251 19.6159C10.8748 19.4945 10.801 19.3842 10.7081 19.2914ZM18.2943 19.2914L11.2943 26.2914C11.1067 26.479 11.0012 26.7335 11.0012 26.9989C11.0012 27.2642 11.1067 27.5187 11.2943 27.7064C11.4819 27.894 11.7364 27.9994 12.0018 27.9994C12.2672 27.9994 12.5217 27.894 12.7093 27.7064L19.7093 20.7064C19.8969 20.5189 20.0024 20.2645 20.0025 19.9993C20.0027 19.7341 19.8974 19.4796 19.7099 19.292C19.5225 19.1043 19.2681 18.9989 19.0029 18.9987C18.7376 18.9986 18.4832 19.1039 18.2956 19.2914H18.2943Z" fill="#FFAE0B"/>
</svg>
