<svg width="28" height="28" viewBox="0 0 28 28" fill="none" xmlns="http://www.w3.org/2000/svg">
<path id="Vector" d="M0.575695 8.50761L4.09444 11.5076L3.04069 15.9739C2.96644 16.2869 2.98613 16.6149 3.09729 16.9168C3.20846 17.2187 3.40617 17.4812 3.66569 17.6714C3.92816 17.8641 4.24162 17.9752 4.56688 17.9908C4.89214 18.0063 5.21478 17.9257 5.49445 17.7589L9.49444 15.3839L13.4944 17.7589C13.7741 17.9257 14.0967 18.0063 14.422 17.9908C14.7473 17.9752 15.0607 17.8641 15.3232 17.6714C15.5826 17.4811 15.7802 17.2186 15.8914 16.9167C16.0025 16.6149 16.0223 16.2869 15.9482 15.9739L14.8944 11.5076L18.4144 8.50761C18.6608 8.29735 18.8394 8.01892 18.9278 7.70737C19.0162 7.39581 19.0105 7.06507 18.9113 6.75677C18.8122 6.44847 18.624 6.17639 18.3705 5.9748C18.1171 5.7732 17.8097 5.6511 17.4869 5.62386L12.8332 5.23011L11.0182 0.998856C10.8901 0.702223 10.678 0.449576 10.408 0.272079C10.138 0.094582 9.82193 0 9.49882 0C9.17571 0 8.85966 0.094582 8.58967 0.272079C8.31968 0.449576 8.10755 0.702223 7.97944 0.998856L6.16445 5.23261L1.51195 5.62386C1.18849 5.64924 0.879824 5.77 0.625013 5.97085C0.370202 6.1717 0.180695 6.44362 0.0804651 6.7522C-0.0197644 7.06079 -0.0262107 7.39217 0.0619428 7.70442C0.150096 8.01666 0.328887 8.29575 0.575695 8.50636V8.50761ZM19.2919 12.2914C19.3848 12.1984 19.4951 12.1246 19.6165 12.0743C19.7379 12.024 19.868 11.9981 19.9994 11.9981C20.1309 11.9981 20.261 12.024 20.3824 12.0743C20.5038 12.1246 20.6141 12.1984 20.7069 12.2914L27.7069 19.2914C27.8946 19.479 28 19.7335 28 19.9989C28 20.2642 27.8946 20.5187 27.7069 20.7064C27.5193 20.894 27.2648 20.9994 26.9994 20.9994C26.7341 20.9994 26.4796 20.894 26.2919 20.7064L19.2919 13.7064C19.199 13.6135 19.1252 13.5032 19.0749 13.3818C19.0246 13.2604 18.9987 13.1303 18.9987 12.9989C18.9987 12.8674 19.0246 12.7373 19.0749 12.6159C19.1252 12.4945 19.199 12.3842 19.2919 12.2914ZM17.2919 19.2914C17.3848 19.1984 17.4951 19.1246 17.6165 19.0743C17.7379 19.024 17.868 18.9981 17.9994 18.9981C18.1309 18.9981 18.261 19.024 18.3824 19.0743C18.5038 19.1246 18.6141 19.1984 18.7069 19.2914L25.7069 26.2914C25.7999 26.3843 25.8736 26.4946 25.9238 26.616C25.9741 26.7374 26 26.8675 26 26.9989C26 27.1303 25.9741 27.2604 25.9238 27.3818C25.8736 27.5031 25.7999 27.6134 25.7069 27.7064C25.5193 27.894 25.2648 27.9994 24.9994 27.9994C24.868 27.9994 24.7379 27.9735 24.6165 27.9232C24.4952 27.873 24.3849 27.7993 24.2919 27.7064L17.2919 20.7064C17.199 20.6135 17.1252 20.5032 17.0749 20.3818C17.0246 20.2604 16.9987 20.1303 16.9987 19.9989C16.9987 19.8674 17.0246 19.7373 17.0749 19.6159C17.1252 19.4945 17.199 19.3842 17.2919 19.2914ZM9.70569 19.2914L16.7057 26.2914C16.8933 26.479 16.9988 26.7335 16.9988 26.9989C16.9988 27.2642 16.8933 27.5187 16.7057 27.7064C16.5181 27.894 16.2636 27.9994 15.9982 27.9994C15.7328 27.9994 15.4783 27.894 15.2907 27.7064L8.29069 20.7064C8.10305 20.5189 7.99757 20.2645 7.99745 19.9993C7.99734 19.7341 8.10259 19.4796 8.29007 19.292C8.47754 19.1043 8.73188 18.9989 8.99713 18.9987C9.26237 18.9986 9.5168 19.1039 9.70444 19.2914H9.70569Z" fill="#FFAE0B"/>
</svg>
