<svg width="43" height="43" viewBox="0 0 43 43" fill="none" xmlns="http://www.w3.org/2000/svg">
<circle cx="21.5" cy="21.5" r="21.5" fill="#FFF1F3"/>
<path d="M30.3145 28.4015C30.3061 28.834 30.1297 29.2463 29.8223 29.5517C29.515 29.8571 29.1007 30.0318 28.6667 30.039C28.055 30.0528 27.5493 29.8519 27.1125 29.4134C25.1812 27.4741 23.2436 25.5409 21.2999 23.6137C21.2521 23.5637 21.211 23.5023 21.1202 23.3871C21.0557 23.488 21.027 23.5585 20.9768 23.608C19.0057 25.5762 17.0334 27.5421 15.06 29.5057C14.455 30.1086 13.4227 30.22 12.7035 29.7591C12.335 29.5234 12.1434 29.172 12.0387 28.762C12.0287 28.7234 12.0134 28.6858 12 28.6477V28.1487C12.107 27.5949 12.4655 27.2097 12.8507 26.8283C14.7495 24.9491 16.6434 23.0647 18.5324 21.1753C18.5902 21.1282 18.6522 21.0866 18.7178 21.0511C18.6313 20.9606 18.5878 20.9135 18.5424 20.8682L12.5998 14.9453C12.2912 14.6415 12.1092 14.2329 12.0901 13.8011C12.0711 13.3694 12.2164 12.9464 12.497 12.6169C12.7752 12.2853 13.1684 12.0703 13.5985 12.0144C14.0286 11.9586 14.464 12.066 14.8182 12.3154C14.9093 12.382 14.9947 12.456 15.0734 12.5369C17.0356 14.479 18.9971 16.422 20.9577 18.366C21.017 18.4246 21.071 18.4879 21.1412 18.5641C21.2048 18.5041 21.2554 18.4579 21.3042 18.4093C23.2559 16.4653 25.2076 14.5212 27.1594 12.5768C28.1214 11.6202 29.7004 11.9912 30.0746 13.2663C30.2628 13.9077 30.1271 14.4905 29.6444 14.9715C27.6902 16.9218 25.7344 18.8706 23.7773 20.8177C23.7271 20.8682 23.6712 20.913 23.599 20.9773C23.6736 21.052 23.7338 21.1139 23.795 21.1744C25.7779 23.1387 27.7609 25.1022 29.7438 27.0649C30.1195 27.4354 30.3235 27.8716 30.3145 28.4015Z" fill="#FE3152"/>
</svg>
