<svg width="25" height="25" viewBox="0 0 25 25" fill="none" xmlns="http://www.w3.org/2000/svg">
<path d="M10.8434 17.0166V9.97848H12.7954V17.0166H10.8434ZM11.824 9.07122C11.5338 9.07122 11.2848 8.975 11.0771 8.78255C10.8724 8.58704 10.7701 8.35336 10.7701 8.08148C10.7701 7.81267 10.8724 7.58203 11.0771 7.38959C11.2848 7.19408 11.5338 7.09633 11.824 7.09633C12.1142 7.09633 12.3616 7.19408 12.5663 7.38959C12.774 7.58203 12.8779 7.81267 12.8779 8.08148C12.8779 8.35336 12.774 8.58704 12.5663 8.78255C12.3616 8.975 12.1142 9.07122 11.824 9.07122Z" fill="#FF7A22"/>
<rect x="1" y="1" width="22.129" height="22.0323" rx="11.0161" stroke="#FF7A22" stroke-width="2"/>
</svg>
