<svg width="25" height="25" viewBox="0 0 25 25" fill="none" xmlns="http://www.w3.org/2000/svg">
<path d="M10.8454 17.0161V9.97799H12.7973V17.0161H10.8454ZM11.8259 9.07073C11.5357 9.07073 11.2868 8.97451 11.0791 8.78206C10.8744 8.58656 10.7721 8.35287 10.7721 8.081C10.7721 7.81218 10.8744 7.58155 11.0791 7.3891C11.2868 7.19359 11.5357 7.09584 11.8259 7.09584C12.1161 7.09584 12.3636 7.19359 12.5682 7.3891C12.776 7.58155 12.8798 7.81218 12.8798 8.081C12.8798 8.35287 12.776 8.58656 12.5682 8.78206C12.3636 8.97451 12.1161 9.07073 11.8259 9.07073Z" fill="#FE3152"/>
<rect x="1" y="1" width="22.129" height="22.0323" rx="11.0161" stroke="#FE3152" stroke-width="2"/>
</svg>
