<svg width="43" height="43" viewBox="0 0 43 43" fill="none" xmlns="http://www.w3.org/2000/svg">
<circle cx="21.5" cy="21.5" r="21.5" fill="#CCFFCC"/>
<path d="M31 15.6807V16.2161C30.8925 16.8454 30.5044 17.2853 30.0831 17.7189C27.1223 20.7584 24.1666 23.8026 21.216 26.8516C20.7263 27.3563 20.2406 27.8646 19.7504 28.3683C18.9376 29.2019 17.7873 29.2147 16.9749 28.3815C15.5069 26.8766 14.0445 25.3658 12.5877 23.8489C12.051 23.2916 11.8691 22.6178 12.0951 21.8659C12.3161 21.1313 12.8167 20.6705 13.5517 20.5249C14.2243 20.3911 14.8066 20.6005 15.2918 21.1022C16.2609 22.1041 17.2312 23.1043 18.2026 24.1028C18.2522 24.1539 18.3017 24.1983 18.3909 24.2872C18.4287 24.2185 18.4725 24.1535 18.5218 24.0931C21.5708 20.9474 24.6207 17.802 27.6714 14.657C28.0501 14.2662 28.4877 14.0205 29.0279 14.0016C29.4769 13.9827 29.9177 14.1289 30.2717 14.414C30.6258 14.6991 30.87 15.1046 30.9608 15.5581C30.9717 15.5997 30.9848 15.6406 31 15.6807Z" fill="#00BA00"/>
</svg>
