<svg width="80" height="80" viewBox="0 0 80 80" fill="none" xmlns="http://www.w3.org/2000/svg">
<path d="M40 13.75C34.0666 13.75 28.2664 15.5095 23.3329 18.8059C18.3994 22.1024 14.5543 26.7877 12.2836 32.2695C10.013 37.7513 9.4189 43.7833 10.5765 49.6027C11.734 55.4221 14.5912 60.7676 18.7868 64.9632C22.9824 69.1588 28.3279 72.016 34.1473 73.1736C39.9667 74.3311 45.9987 73.737 51.4805 71.4664C56.9623 69.1958 61.6477 65.3506 64.9441 60.4171C68.2405 55.4836 70 49.6834 70 43.75C69.9909 35.7963 66.8273 28.171 61.2032 22.5468C55.579 16.9227 47.9537 13.7591 40 13.75ZM40 66.25C35.5499 66.25 31.1998 64.9304 27.4997 62.4581C23.7996 59.9857 20.9157 56.4717 19.2127 52.3604C17.5098 48.249 17.0642 43.725 17.9323 39.3605C18.8005 34.9959 20.9434 30.9868 24.0901 27.8401C27.2368 24.6934 31.2459 22.5505 35.6105 21.6823C39.9751 20.8142 44.4991 21.2597 48.6104 22.9627C52.7217 24.6657 56.2357 27.5496 58.7081 31.2497C61.1804 34.9498 62.5 39.2999 62.5 43.75C62.4934 49.7153 60.1207 55.4345 55.9026 59.6526C51.6845 63.8707 45.9654 66.2434 40 66.25ZM51.4031 31.0969C51.7527 31.4453 52.0301 31.8592 52.2194 32.3151C52.4087 32.7709 52.5061 33.2596 52.5061 33.7531C52.5061 34.2467 52.4087 34.7354 52.2194 35.1912C52.0301 35.647 51.7527 36.061 51.4031 36.4094L42.6531 45.1594C41.9487 45.8639 40.9932 46.2596 39.9969 46.2596C39.0006 46.2596 38.0451 45.8639 37.3406 45.1594C36.6362 44.4549 36.2404 43.4994 36.2404 42.5031C36.2404 41.5068 36.6362 40.5514 37.3406 39.8469L46.0906 31.0969C46.439 30.7473 46.853 30.4699 47.3088 30.2806C47.7646 30.0913 48.2533 29.9939 48.7469 29.9939C49.2404 29.9939 49.7291 30.0913 50.185 30.2806C50.6408 30.4699 51.0548 30.7473 51.4031 31.0969ZM28.75 5C28.75 4.00544 29.1451 3.05161 29.8484 2.34835C30.5516 1.64509 31.5055 1.25 32.5 1.25H47.5C48.4946 1.25 49.4484 1.64509 50.1517 2.34835C50.8549 3.05161 51.25 4.00544 51.25 5C51.25 5.99456 50.8549 6.94839 50.1517 7.65165C49.4484 8.35491 48.4946 8.75 47.5 8.75H32.5C31.5055 8.75 30.5516 8.35491 29.8484 7.65165C29.1451 6.94839 28.75 5.99456 28.75 5Z" fill="#FE3152"/>
</svg>
