<svg width="65" height="64" viewBox="0 0 65 64" fill="none" xmlns="http://www.w3.org/2000/svg">
<rect x="0.148438" width="64" height="64" rx="10.3201" fill="white"/>
<path d="M52 47.3716C52 47.7804 51.8379 48.1725 51.5494 48.4616C51.2609 48.7507 50.8696 48.9131 50.4615 48.9131H13.5385C13.1304 48.9131 12.7391 48.7507 12.4506 48.4616C12.1621 48.1725 12 47.7804 12 47.3716V16.5415C12 16.1327 12.1621 15.7406 12.4506 15.4515C12.7391 15.1624 13.1304 15 13.5385 15C13.9465 15 14.3378 15.1624 14.6263 15.4515C14.9148 15.7406 15.0769 16.1327 15.0769 16.5415V37.4848L24.7577 27.7829C24.9006 27.6396 25.0702 27.5259 25.257 27.4483C25.4438 27.3707 25.644 27.3308 25.8462 27.3308C26.0483 27.3308 26.2485 27.3707 26.4353 27.4483C26.6221 27.5259 26.7917 27.6396 26.9346 27.7829L32 32.8603L42.1327 22.7075H38.1538C37.7458 22.7075 37.3545 22.5451 37.066 22.256C36.7775 21.9669 36.6154 21.5748 36.6154 21.166C36.6154 20.7572 36.7775 20.3651 37.066 20.076C37.3545 19.7869 37.7458 19.6245 38.1538 19.6245H45.8462C46.2542 19.6245 46.6455 19.7869 46.934 20.076C47.2225 20.3651 47.3846 20.7572 47.3846 21.166V28.8735C47.3846 29.2824 47.2225 29.6745 46.934 29.9635C46.6455 30.2526 46.2542 30.415 45.8462 30.415C45.4381 30.415 45.0468 30.2526 44.7583 29.9635C44.4698 29.6745 44.3077 29.2824 44.3077 28.8735V24.8868L33.0885 36.1302C32.9456 36.2735 32.7759 36.3872 32.5891 36.4648C32.4024 36.5423 32.2022 36.5823 32 36.5823C31.7978 36.5823 31.5976 36.5423 31.4109 36.4648C31.2241 36.3872 31.0544 36.2735 30.9115 36.1302L25.8462 31.0528L15.0769 41.8434V45.8301H50.4615C50.8696 45.8301 51.2609 45.9925 51.5494 46.2816C51.8379 46.5707 52 46.9627 52 47.3716Z" fill="#FE8B3F"/>
</svg>
