<svg width="88" height="88" viewBox="0 0 88 88" fill="none" xmlns="http://www.w3.org/2000/svg">
<circle cx="44" cy="44" r="44" fill="#FE3152"/>
<path d="M69.9996 43.255C69.9046 43.5933 69.8164 43.937 69.712 44.2697C69.3159 45.5628 68.4993 46.6847 67.3931 47.4556C67.2971 47.5233 67.1974 47.5857 67.0946 47.6425C67.0702 47.6575 67.0308 47.6425 66.9766 47.6425V37.2364L67.0973 37.126C67.6251 37.6306 68.1937 38.0984 68.6713 38.6466C69.3266 39.3995 69.697 40.3119 69.8924 41.2938C69.9218 41.4048 69.9571 41.5141 69.9983 41.6212L69.9996 43.255Z" fill="white"/>
<path d="M39.3438 51.7187V33.2811C40.8363 32.9456 42.3179 32.6933 43.7521 32.2732C47.6544 31.1317 51.17 29.18 54.5105 26.8956C56.8829 25.2886 59.1251 23.4955 61.216 21.533C61.7303 21.0461 62.311 20.8416 62.9799 21.1375C63.6489 21.4335 63.9107 21.9776 63.9107 22.695C63.9107 35.8596 63.9107 49.0247 63.9107 62.1902C63.9107 62.9062 63.6394 63.4586 62.984 63.7505C62.2961 64.0546 61.7167 63.8173 61.1821 63.3249C57.2323 59.6876 52.9203 56.574 48.0587 54.2705C45.3044 52.9585 42.4346 52.027 39.3438 51.7187Z" fill="white"/>
<path d="M36.2566 33.2916V51.6256H35.7397C32.8903 51.6256 30.0559 51.6256 27.2133 51.6256C21.9786 51.6147 17.9053 47.4278 18.0017 42.1634C18.0885 37.4718 21.9731 33.4198 26.6475 33.278C29.7913 33.1825 32.9391 33.2548 36.0857 33.2535C36.1437 33.2606 36.201 33.2734 36.2566 33.2916Z" fill="white"/>
<path d="M25.9375 54.6926C28.9931 54.6926 31.9836 54.6926 34.9741 54.7063C35.0588 54.7235 35.1383 54.7608 35.2058 54.8151C35.2733 54.8695 35.3269 54.9392 35.3621 55.0186C35.6104 55.811 35.8275 56.6143 36.0405 57.4189C36.1084 57.6822 36.2319 57.7694 36.4992 57.7613C37.1219 57.7435 37.7461 57.7613 38.3648 57.7613C38.202 56.737 38.0446 55.7537 37.8668 54.6367C38.9116 54.7731 39.8614 54.8863 40.8058 55.0309C40.9021 55.0459 41.012 55.2341 41.0432 55.3609C41.3254 56.4956 41.586 57.6385 41.8641 58.7705C42.1423 59.9025 41.4788 60.8162 40.2929 60.8162C39.3132 60.8231 38.3336 60.8162 37.2495 60.8162C37.7447 61.8541 38.1993 62.8306 38.6769 63.8017C38.8397 64.1372 39.0459 64.4536 39.1952 64.7932C39.628 65.7792 38.9632 66.9153 37.8899 66.9289C35.3024 66.9603 32.7136 66.9521 30.1247 66.9289C29.4029 66.9289 28.9551 66.4734 28.7109 65.8038C27.672 62.9678 26.8767 60.0477 26.3337 57.0753C26.1817 56.2679 26.0637 55.4618 25.9375 54.6926Z" fill="white"/>
</svg>
