<svg width="32" height="36" viewBox="0 0 32 36" fill="none" xmlns="http://www.w3.org/2000/svg">
<path d="M20.8731 1.4191C20.7165 1.74674 20.5616 2.07623 20.3979 2.39928C20.2083 2.77202 19.8897 2.89443 19.5737 2.72876C19.2747 2.57138 19.1723 2.23177 19.3343 1.87651C19.5123 1.49457 19.685 1.1117 19.8888 0.746318C19.9725 0.5963 20.13 0.491379 20.2546 0.366211H20.5874C21.0529 0.666247 21.1197 0.90738 20.8731 1.4191Z" fill="#FF7A22"/>
<path d="M11.8788 2.72675C11.5753 2.88874 11.2558 2.77737 11.0716 2.4304C10.8998 2.09815 10.7441 1.75762 10.583 1.41801C10.3373 0.90537 10.3996 0.673441 10.8624 0.363281H11.1962C11.3493 0.547352 11.5308 0.718539 11.651 0.924699C11.8268 1.24133 11.9851 1.56796 12.1253 1.90304C12.274 2.24449 12.1681 2.57489 11.8788 2.72675Z" fill="#FF7A22"/>
<path d="M15.1224 20.7662V35.6226C15.004 35.6281 14.8972 35.6373 14.7895 35.6373H3.00412C2.3918 35.6373 2.20312 35.4468 2.20312 34.8219V24.6888H2.60719C5.80318 24.6888 9.00005 24.6796 12.196 24.6961C12.8689 24.6961 13.3032 24.4283 13.588 23.8052C14.0152 22.8738 14.478 21.9572 14.923 21.035C14.9711 20.9365 15.0236 20.8417 15.0743 20.7441L15.1224 20.7662Z" fill="#FF7A22"/>
<path d="M29.2468 24.9781C29.2468 28.2834 29.2468 31.5887 29.2468 34.894C29.2468 35.4131 29.0368 35.6377 28.5455 35.6377C24.5399 35.6377 20.5349 35.6377 16.5305 35.6377C16.4762 35.6377 16.4219 35.6312 16.332 35.6266V20.7629L16.3783 20.7344C16.4264 20.8264 16.4771 20.9129 16.5216 21.004C16.9826 21.9566 17.4534 22.9055 17.9011 23.8654C18.1681 24.436 18.5766 24.6937 19.1934 24.6937C22.3974 24.6836 25.6076 24.6891 28.8152 24.6891H29.2281C29.2335 24.8023 29.2468 24.8907 29.2468 24.9781Z" fill="#FF7A22"/>
<path d="M22.8667 6.87297C22.711 7.14908 22.5997 7.47028 22.3923 7.70129C21.7435 8.42561 21.0671 9.12232 20.3881 9.81811C20.0276 10.1862 19.8799 10.5912 19.9742 11.1213C20.1593 12.1586 20.3026 13.2032 20.4717 14.2432C20.5483 14.7098 20.4174 15.0908 20.0481 15.3596C19.6787 15.6283 19.28 15.6127 18.8857 15.389C18.05 14.9077 17.2063 14.4475 16.3822 13.9615C15.9309 13.6937 15.5224 13.6974 15.0703 13.968C14.2693 14.4447 13.4532 14.8782 12.6513 15.343C12.2276 15.5887 11.8093 15.6532 11.4008 15.3531C11.0066 15.0632 10.9078 14.6537 10.9905 14.1659C11.1685 13.1268 11.3154 12.0831 11.4907 11.044C11.5325 10.8357 11.5218 10.6197 11.4594 10.4169C11.3971 10.2141 11.2852 10.0313 11.1347 9.88621C10.4476 9.16741 9.76591 8.44402 9.07616 7.7289C8.73618 7.37548 8.5742 6.97513 8.73351 6.48182C8.89282 5.98851 9.26751 5.75198 9.7579 5.67927C10.6799 5.54122 11.6002 5.39212 12.5222 5.25591C12.7273 5.23453 12.9229 5.15641 13.0886 5.02975C13.2543 4.9031 13.3839 4.73259 13.4639 4.53619C13.8893 3.59006 14.3298 2.65222 14.7552 1.70609C14.9493 1.27629 15.2367 0.99098 15.7164 0.985457C16.2122 0.979015 16.5094 1.26709 16.7097 1.70978C17.1307 2.64486 17.5703 3.57166 17.9868 4.50858C18.1924 4.97336 18.5208 5.19976 19.0103 5.26603C19.9342 5.3912 20.8544 5.54213 21.7693 5.69491C22.3879 5.79707 22.7786 6.24713 22.7848 6.82419L22.8667 6.87297Z" fill="#FF7A22"/>
<path d="M14.2679 19.6551C13.7339 20.7743 13.1839 21.8879 12.6534 23.0108C12.4977 23.3402 12.2698 23.4792 11.9174 23.4783C8.1877 23.4728 4.458 23.4712 0.728311 23.4737C0.0688213 23.4737 -0.169699 23.0623 0.124001 22.4493C0.66601 21.3201 1.21603 20.1954 1.75359 19.0643C1.90311 18.7495 2.11938 18.6115 2.46559 18.6133C4.34171 18.6225 6.21783 18.6179 8.09395 18.6179C9.94693 18.6179 11.8005 18.6179 13.6547 18.6179C14.3346 18.6188 14.5714 19.0229 14.2679 19.6551Z" fill="#FF7A22"/>
<path d="M30.7249 23.4726C26.9958 23.4772 23.2667 23.4726 19.5367 23.4791C19.1665 23.4791 18.944 23.3226 18.7847 22.983C18.2649 21.8786 17.7265 20.788 17.1978 19.69C16.873 19.0154 17.1088 18.6178 17.8262 18.6178H23.3869C25.2408 18.6178 27.0946 18.6242 28.9476 18.6113C29.3178 18.6113 29.5492 18.7485 29.7103 19.0899C30.2443 20.2127 30.7872 21.3264 31.3239 22.4464C31.6194 23.0612 31.3835 23.4726 30.7249 23.4726Z" fill="#FF7A22"/>
<path d="M30.1892 11.6969C29.883 12.0135 29.584 12.3411 29.2734 12.6494C29.172 12.7386 29.0961 12.8548 29.0539 12.9854C29.0117 13.116 29.0048 13.256 29.034 13.3903C29.1353 13.884 29.209 14.3834 29.2547 14.8859C29.2689 15.07 29.1826 15.3461 29.0491 15.4381C28.9156 15.5301 28.6388 15.5301 28.4733 15.4537C28.0487 15.2614 27.6482 15.0092 27.2424 14.7727C27.1385 14.706 27.0184 14.6712 26.8962 14.6723C26.7739 14.6734 26.6544 14.7105 26.5517 14.7791C26.1575 15.0129 25.7507 15.2283 25.3547 15.4556C25.1429 15.5771 24.8999 15.6332 24.7415 15.4418C24.6082 15.2713 24.5381 15.0572 24.5439 14.838C24.5937 14.3593 24.6683 13.8837 24.7673 13.4133C24.7992 13.2795 24.7954 13.1391 24.7562 13.0073C24.717 12.8756 24.6439 12.7573 24.5448 12.6651C24.2244 12.3475 23.9218 12.0098 23.605 11.6886C23.4127 11.4953 23.2828 11.2468 23.4207 11.0149C23.5505 10.8285 23.7395 10.6953 23.9547 10.6384C24.377 10.5416 24.8043 10.4697 25.2345 10.4231C25.3563 10.4116 25.4725 10.3654 25.5704 10.2897C25.6683 10.214 25.744 10.1117 25.789 9.9942C25.9893 9.53402 26.1877 9.07384 26.4227 8.63115C26.5117 8.46273 26.7004 8.35044 26.9024 8.15625C27.1018 8.35505 27.2851 8.47193 27.375 8.64128C27.6046 9.072 27.7977 9.52482 27.998 9.97303C28.047 10.1014 28.1305 10.2125 28.2387 10.2933C28.347 10.374 28.4753 10.421 28.6085 10.4286C29.0268 10.4765 29.4407 10.563 29.8545 10.6219C30.1055 10.6578 30.2995 10.7609 30.3885 11.0167C30.4909 11.2974 30.3734 11.5073 30.1892 11.6969Z" fill="#FF7A22"/>
<path d="M7.87481 11.6406C7.58836 11.9915 7.27816 12.3209 6.94654 12.6263C6.83176 12.7258 6.74683 12.8572 6.70174 13.0049C6.65665 13.1526 6.65327 13.3105 6.692 13.4602C6.78545 13.9084 6.84419 14.363 6.91717 14.8158C6.95811 15.0671 6.93764 15.2999 6.71336 15.4601C6.48908 15.6202 6.27548 15.5641 6.05832 15.4389C5.68096 15.2199 5.29737 15.0137 4.92357 14.7891C4.81153 14.7143 4.68073 14.6752 4.54737 14.6765C4.41401 14.6778 4.28396 14.7195 4.1733 14.7965C3.77102 15.0386 3.3634 15.2723 2.94599 15.4859C2.54549 15.6902 2.15478 15.4233 2.1708 14.9557C2.25001 14.444 2.32121 13.9093 2.41822 13.3801C2.44639 13.2516 2.44069 13.1176 2.40171 12.9921C2.36273 12.8667 2.2919 12.7543 2.19661 12.6668C1.87888 12.3456 1.57361 12.0134 1.25766 11.6894C1.07165 11.498 0.960404 11.2854 1.06186 11.0111C1.15531 10.7571 1.352 10.6586 1.60298 10.6245C2.03196 10.5666 2.45738 10.4837 2.88547 10.4248C3.00738 10.4137 3.12395 10.368 3.2224 10.2929C3.32085 10.2177 3.39735 10.1159 3.4435 9.9987C3.64286 9.5514 3.85557 9.10963 4.05671 8.66326C4.15728 8.43777 4.29968 8.28131 4.55778 8.28223C4.81588 8.28315 4.95561 8.44974 5.05529 8.67062C5.25821 9.11699 5.46825 9.55968 5.66494 10.0079C5.71184 10.1248 5.78933 10.2258 5.88869 10.2996C5.98806 10.3734 6.10536 10.4171 6.22742 10.4257C6.66851 10.4714 7.10658 10.5443 7.53928 10.6439C7.72796 10.6926 7.96826 10.8574 8.02433 11.0267C8.0804 11.1961 7.99585 11.4851 7.87481 11.6406Z" fill="#FF7A22"/>
<path d="M23.4264 2.74413C23.3498 2.9282 23.3267 3.0635 23.2484 3.15001C23.0211 3.41607 22.7779 3.6672 22.5204 3.90194C22.4112 3.99387 22.2719 4.03859 22.1315 4.02675C21.9912 4.01492 21.8607 3.94744 21.7674 3.83844C21.5618 3.61019 21.5093 3.33316 21.7016 3.09019C21.9266 2.79281 22.1888 2.52759 22.4812 2.30144C22.6174 2.20204 22.9004 2.20941 23.0615 2.28488C23.2226 2.36035 23.3151 2.5932 23.4264 2.74413Z" fill="#FF7A22"/>
<path d="M9.84702 3.38175C9.84702 3.8585 9.34862 4.18982 8.99796 3.93397C8.68933 3.69382 8.41307 3.41216 8.17649 3.09644C8.01629 2.89489 8.06524 2.63627 8.22633 2.42919C8.40433 2.20462 8.68112 2.10522 8.87692 2.258C9.22135 2.52766 9.49992 2.88568 9.80252 3.21425C9.84257 3.25751 9.83812 3.3431 9.84702 3.38175Z" fill="#FF7A22"/>
</svg>
