<svg width="28" height="38" viewBox="0 0 28 38" fill="none" xmlns="http://www.w3.org/2000/svg">
<g clip-path="url(#clip0_545_5606)">
<path d="M27.9997 34.5273H24.7383V36.262H27.9997V34.5273Z" fill="#FF7A22"/>
<path d="M10.4626 35.8467L11.2374 36.982L9.91491 38.0001L9.13126 36.8685L8.34585 37.9982L7.02158 36.982L7.79642 35.8467L6.53906 35.4018C6.71516 34.8435 6.87189 34.3168 7.04271 33.7621L8.31063 34.1883V32.8018H9.93604V34.1939L11.2145 33.764L11.7235 35.4037L10.4626 35.8467Z" fill="#FF7A22"/>
<path d="M17.029 35.8468L17.8038 36.9821L16.4813 38.0002C16.2224 37.6279 15.9724 37.2557 15.6977 36.8686L14.9123 37.9964L13.5897 36.9821L14.3628 35.8468L13.1055 35.4019L13.6091 33.7604L14.8753 34.1884V32.8037H16.5025V34.194L17.7809 33.7659C17.957 34.302 18.112 34.8343 18.2899 35.4038L17.029 35.8468Z" fill="#FF7A22"/>
<path d="M3.90063 35.8463L4.67547 36.9798L3.35472 37.9997L2.56754 36.8681L1.7839 37.9978L0.45962 36.9816L1.2327 35.85L0 35.4238C0.163774 34.8822 0.324023 34.3462 0.49308 33.7804L1.74516 34.1917V32.7939H3.37937V34.1936L4.65434 33.7636C4.83044 34.322 4.98893 34.8487 5.15975 35.4052L3.90063 35.8463Z" fill="#FF7A22"/>
<path d="M23.0559 34.5381H19.8086V36.2355H23.0559V34.5381Z" fill="#FF7A22"/>
<mask id="mask0_545_5606" style="mask-type:luminance" maskUnits="userSpaceOnUse" x="0" y="0" width="28" height="30">
<path d="M24.0606 0H3.76327C1.68487 0 0 1.78073 0 3.97737V25.4295C0 27.6261 1.68487 29.4069 3.76327 29.4069H24.0606C26.139 29.4069 27.8239 27.6261 27.8239 25.4295V3.97737C27.8239 1.78073 26.139 0 24.0606 0Z" fill="white"/>
</mask>
<g mask="url(#mask0_545_5606)">
<path d="M28 0H0V5.7697H28V0Z" fill="#FF7A22"/>
<path d="M0 8.74805V29.5934H28V8.74805H0ZM25.3585 15.6345H18.4906V12.6566H25.3585V15.6345Z" fill="#FF7A22"/>
</g>
</g>
<defs>
<clipPath id="clip0_545_5606">
<rect width="28" height="38" fill="white"/>
</clipPath>
</defs>
</svg>
