<svg width="360" height="335" viewBox="0 0 360 335" fill="none" xmlns="http://www.w3.org/2000/svg">
<rect width="360" height="335" fill="#FE8B3F"/>
<rect x="57" y="142" width="32" height="32" rx="4" fill="white"/>
<path d="M76.7225 158.459L76.722 158.459L71.922 163.259C71.6984 163.483 71.3951 163.608 71.0788 163.608C70.7625 163.608 70.4592 163.483 70.2356 163.259C70.0119 163.036 69.8863 162.732 69.8863 162.416C69.8863 162.1 70.0119 161.796 70.2355 161.573C70.2355 161.573 70.2355 161.573 70.2356 161.573L72.5767 159.234L73.004 158.807H72.4H62.44C62.1244 158.807 61.8217 158.682 61.5985 158.459C61.3754 158.235 61.25 157.933 61.25 157.617C61.25 157.302 61.3754 156.999 61.5985 156.776C61.8217 156.553 62.1244 156.427 62.44 156.427H72.4H73.0031L72.5769 156L70.2381 153.659L70.238 153.659C70.1272 153.548 70.0394 153.417 69.9795 153.272C69.9195 153.128 69.8887 152.973 69.8887 152.816C69.8887 152.5 70.0143 152.196 70.238 151.973C70.4616 151.749 70.7649 151.623 71.0812 151.623C71.3975 151.623 71.7008 151.749 71.9244 151.973L76.7244 156.773L76.7245 156.773C76.8353 156.884 76.9232 157.015 76.9831 157.16C77.043 157.304 77.0737 157.46 77.0735 157.616C77.0734 157.773 77.0423 157.928 76.982 158.072C76.9218 158.217 76.8336 158.348 76.7225 158.459ZM82.37 148.497V148.247H82.12H75.88C75.5644 148.247 75.2617 148.122 75.0385 147.899C74.8154 147.675 74.69 147.373 74.69 147.057C74.69 146.742 74.8154 146.439 75.0385 146.216C75.2617 145.993 75.5644 145.867 75.88 145.867H82.6C83.1702 145.867 83.7171 146.094 84.1203 146.497C84.5235 146.9 84.75 147.447 84.75 148.017V167.217C84.75 167.787 84.5235 168.334 84.1203 168.737C83.7171 169.141 83.1702 169.367 82.6 169.367H75.88C75.5644 169.367 75.2617 169.242 75.0385 169.019C74.8154 168.795 74.69 168.493 74.69 168.177C74.69 167.862 74.8154 167.559 75.0385 167.336C75.2617 167.113 75.5644 166.987 75.88 166.987H82.12H82.37V166.737V148.497Z" fill="#FE8B3F" stroke="white" stroke-width="0.5"/>
<path d="M45.5879 193.07C45.1212 193.07 44.7012 192.99 44.3279 192.83C43.9545 192.663 43.6612 192.43 43.4479 192.13C43.2345 191.83 43.1279 191.48 43.1279 191.08H44.3479C44.3745 191.38 44.4912 191.627 44.6979 191.82C44.9112 192.013 45.2079 192.11 45.5879 192.11C45.9812 192.11 46.2879 192.017 46.5079 191.83C46.7279 191.637 46.8379 191.39 46.8379 191.09C46.8379 190.857 46.7679 190.667 46.6279 190.52C46.4945 190.373 46.3245 190.26 46.1179 190.18C45.9179 190.1 45.6379 190.013 45.2779 189.92C44.8245 189.8 44.4545 189.68 44.1679 189.56C43.8879 189.433 43.6479 189.24 43.4479 188.98C43.2479 188.72 43.1479 188.373 43.1479 187.94C43.1479 187.54 43.2479 187.19 43.4479 186.89C43.6479 186.59 43.9279 186.36 44.2879 186.2C44.6479 186.04 45.0645 185.96 45.5379 185.96C46.2112 185.96 46.7612 186.13 47.1879 186.47C47.6212 186.803 47.8612 187.263 47.9079 187.85H46.6479C46.6279 187.597 46.5079 187.38 46.2879 187.2C46.0679 187.02 45.7779 186.93 45.4179 186.93C45.0912 186.93 44.8245 187.013 44.6179 187.18C44.4112 187.347 44.3079 187.587 44.3079 187.9C44.3079 188.113 44.3712 188.29 44.4979 188.43C44.6312 188.563 44.7979 188.67 44.9979 188.75C45.1979 188.83 45.4712 188.917 45.8179 189.01C46.2779 189.137 46.6512 189.263 46.9379 189.39C47.2312 189.517 47.4779 189.713 47.6779 189.98C47.8845 190.24 47.9879 190.59 47.9879 191.03C47.9879 191.383 47.8912 191.717 47.6979 192.03C47.5112 192.343 47.2345 192.597 46.8679 192.79C46.5079 192.977 46.0812 193.07 45.5879 193.07ZM49.913 186.76C49.7063 186.76 49.533 186.69 49.393 186.55C49.253 186.41 49.183 186.237 49.183 186.03C49.183 185.823 49.253 185.65 49.393 185.51C49.533 185.37 49.7063 185.3 49.913 185.3C50.113 185.3 50.283 185.37 50.423 185.51C50.563 185.65 50.633 185.823 50.633 186.03C50.633 186.237 50.563 186.41 50.423 186.55C50.283 186.69 50.113 186.76 49.913 186.76ZM50.473 187.49V193H49.333V187.49H50.473ZM54.1897 187.4C54.6164 187.4 54.9931 187.487 55.3197 187.66C55.6531 187.827 55.9131 188.037 56.0997 188.29V187.49H57.2497V193.09C57.2497 193.597 57.1431 194.047 56.9297 194.44C56.7164 194.84 56.4064 195.153 55.9997 195.38C55.5997 195.607 55.1197 195.72 54.5597 195.72C53.8131 195.72 53.1931 195.543 52.6997 195.19C52.2064 194.843 51.9264 194.37 51.8597 193.77H52.9897C53.0764 194.057 53.2597 194.287 53.5397 194.46C53.8264 194.64 54.1664 194.73 54.5597 194.73C55.0197 194.73 55.3897 194.59 55.6697 194.31C55.9564 194.03 56.0997 193.623 56.0997 193.09V192.17C55.9064 192.43 55.6431 192.65 55.3097 192.83C54.9831 193.003 54.6097 193.09 54.1897 193.09C53.7097 193.09 53.2697 192.97 52.8697 192.73C52.4764 192.483 52.1631 192.143 51.9297 191.71C51.7031 191.27 51.5897 190.773 51.5897 190.22C51.5897 189.667 51.7031 189.177 51.9297 188.75C52.1631 188.323 52.4764 187.993 52.8697 187.76C53.2697 187.52 53.7097 187.4 54.1897 187.4ZM56.0997 190.24C56.0997 189.86 56.0197 189.53 55.8597 189.25C55.7064 188.97 55.5031 188.757 55.2497 188.61C54.9964 188.463 54.7231 188.39 54.4297 188.39C54.1364 188.39 53.8631 188.463 53.6097 188.61C53.3564 188.75 53.1497 188.96 52.9897 189.24C52.8364 189.513 52.7597 189.84 52.7597 190.22C52.7597 190.6 52.8364 190.933 52.9897 191.22C53.1497 191.507 53.3564 191.727 53.6097 191.88C53.8697 192.027 54.1431 192.1 54.4297 192.1C54.7231 192.1 54.9964 192.027 55.2497 191.88C55.5031 191.733 55.7064 191.52 55.8597 191.24C56.0197 190.953 56.0997 190.62 56.0997 190.24ZM61.5271 187.4C61.9604 187.4 62.3471 187.49 62.6871 187.67C63.0337 187.85 63.3037 188.117 63.4971 188.47C63.6904 188.823 63.7871 189.25 63.7871 189.75V193H62.6571V189.92C62.6571 189.427 62.5337 189.05 62.2871 188.79C62.0404 188.523 61.7037 188.39 61.2771 188.39C60.8504 188.39 60.5104 188.523 60.2571 188.79C60.0104 189.05 59.8871 189.427 59.8871 189.92V193H58.7471V187.49H59.8871V188.12C60.0737 187.893 60.3104 187.717 60.5971 187.59C60.8904 187.463 61.2004 187.4 61.5271 187.4ZM72.8289 187.49V193H71.6889V192.35C71.5089 192.577 71.2722 192.757 70.9789 192.89C70.6922 193.017 70.3855 193.08 70.0589 193.08C69.6255 193.08 69.2355 192.99 68.8889 192.81C68.5489 192.63 68.2789 192.363 68.0789 192.01C67.8855 191.657 67.7889 191.23 67.7889 190.73V187.49H68.9189V190.56C68.9189 191.053 69.0422 191.433 69.2889 191.7C69.5355 191.96 69.8722 192.09 70.2989 192.09C70.7255 192.09 71.0622 191.96 71.3089 191.7C71.5622 191.433 71.6889 191.053 71.6889 190.56V187.49H72.8289ZM75.473 188.3C75.6663 188.047 75.9297 187.833 76.263 187.66C76.5963 187.487 76.973 187.4 77.393 187.4C77.873 187.4 78.3097 187.52 78.703 187.76C79.103 187.993 79.4163 188.323 79.643 188.75C79.8697 189.177 79.983 189.667 79.983 190.22C79.983 190.773 79.8697 191.27 79.643 191.71C79.4163 192.143 79.103 192.483 78.703 192.73C78.3097 192.97 77.873 193.09 77.393 193.09C76.973 193.09 76.5997 193.007 76.273 192.84C75.9463 192.667 75.6797 192.453 75.473 192.2V195.62H74.333V187.49H75.473V188.3ZM78.823 190.22C78.823 189.84 78.743 189.513 78.583 189.24C78.4297 188.96 78.223 188.75 77.963 188.61C77.7097 188.463 77.4363 188.39 77.143 188.39C76.8563 188.39 76.583 188.463 76.323 188.61C76.0697 188.757 75.863 188.97 75.703 189.25C75.5497 189.53 75.473 189.86 75.473 190.24C75.473 190.62 75.5497 190.953 75.703 191.24C75.863 191.52 76.0697 191.733 76.323 191.88C76.583 192.027 76.8563 192.1 77.143 192.1C77.4363 192.1 77.7097 192.027 77.963 191.88C78.223 191.727 78.4297 191.507 78.583 191.22C78.743 190.933 78.823 190.6 78.823 190.22ZM83.328 190.22C83.328 189.667 83.4413 189.177 83.668 188.75C83.9013 188.323 84.2147 187.993 84.608 187.76C85.008 187.52 85.448 187.4 85.928 187.4C86.3613 187.4 86.738 187.487 87.058 187.66C87.3847 187.827 87.6447 188.037 87.838 188.29V187.49H88.988V193H87.838V192.18C87.6447 192.44 87.3813 192.657 87.048 192.83C86.7147 193.003 86.3347 193.09 85.908 193.09C85.4347 193.09 85.0013 192.97 84.608 192.73C84.2147 192.483 83.9013 192.143 83.668 191.71C83.4413 191.27 83.328 190.773 83.328 190.22ZM87.838 190.24C87.838 189.86 87.758 189.53 87.598 189.25C87.4447 188.97 87.2413 188.757 86.988 188.61C86.7347 188.463 86.4613 188.39 86.168 188.39C85.8747 188.39 85.6013 188.463 85.348 188.61C85.0947 188.75 84.888 188.96 84.728 189.24C84.5747 189.513 84.498 189.84 84.498 190.22C84.498 190.6 84.5747 190.933 84.728 191.22C84.888 191.507 85.0947 191.727 85.348 191.88C85.608 192.027 85.8813 192.1 86.168 192.1C86.4613 192.1 86.7347 192.027 86.988 191.88C87.2413 191.733 87.4447 191.52 87.598 191.24C87.758 190.953 87.838 190.62 87.838 190.24ZM92.4854 193.09C92.052 193.09 91.662 193.013 91.3154 192.86C90.9754 192.7 90.7054 192.487 90.5054 192.22C90.3054 191.947 90.1987 191.643 90.1854 191.31H91.3654C91.3854 191.543 91.4954 191.74 91.6954 191.9C91.902 192.053 92.1587 192.13 92.4654 192.13C92.7854 192.13 93.032 192.07 93.2054 191.95C93.3854 191.823 93.4754 191.663 93.4754 191.47C93.4754 191.263 93.3754 191.11 93.1754 191.01C92.982 190.91 92.672 190.8 92.2454 190.68C91.832 190.567 91.4954 190.457 91.2354 190.35C90.9754 190.243 90.7487 190.08 90.5554 189.86C90.3687 189.64 90.2754 189.35 90.2754 188.99C90.2754 188.697 90.362 188.43 90.5354 188.19C90.7087 187.943 90.9554 187.75 91.2754 187.61C91.602 187.47 91.9754 187.4 92.3954 187.4C93.022 187.4 93.5254 187.56 93.9054 187.88C94.292 188.193 94.4987 188.623 94.5254 189.17H93.3854C93.3654 188.923 93.2654 188.727 93.0854 188.58C92.9054 188.433 92.662 188.36 92.3554 188.36C92.0554 188.36 91.8254 188.417 91.6654 188.53C91.5054 188.643 91.4254 188.793 91.4254 188.98C91.4254 189.127 91.4787 189.25 91.5854 189.35C91.692 189.45 91.822 189.53 91.9754 189.59C92.1287 189.643 92.3554 189.713 92.6554 189.8C93.0554 189.907 93.382 190.017 93.6354 190.13C93.8954 190.237 94.1187 190.397 94.3054 190.61C94.492 190.823 94.5887 191.107 94.5954 191.46C94.5954 191.773 94.5087 192.053 94.3354 192.3C94.162 192.547 93.9154 192.74 93.5954 192.88C93.282 193.02 92.912 193.09 92.4854 193.09ZM98.0448 190.22C98.0448 189.667 98.1581 189.177 98.3848 188.75C98.6181 188.323 98.9315 187.993 99.3248 187.76C99.7248 187.52 100.165 187.4 100.645 187.4C101.078 187.4 101.455 187.487 101.775 187.66C102.101 187.827 102.361 188.037 102.555 188.29V187.49H103.705V193H102.555V192.18C102.361 192.44 102.098 192.657 101.765 192.83C101.431 193.003 101.051 193.09 100.625 193.09C100.151 193.09 99.7181 192.97 99.3248 192.73C98.9315 192.483 98.6181 192.143 98.3848 191.71C98.1581 191.27 98.0448 190.773 98.0448 190.22ZM102.555 190.24C102.555 189.86 102.475 189.53 102.315 189.25C102.161 188.97 101.958 188.757 101.705 188.61C101.451 188.463 101.178 188.39 100.885 188.39C100.591 188.39 100.318 188.463 100.065 188.61C99.8115 188.75 99.6048 188.96 99.4448 189.24C99.2915 189.513 99.2148 189.84 99.2148 190.22C99.2148 190.6 99.2915 190.933 99.4448 191.22C99.6048 191.507 99.8115 191.727 100.065 191.88C100.325 192.027 100.598 192.1 100.885 192.1C101.178 192.1 101.451 192.027 101.705 191.88C101.958 191.733 102.161 191.52 102.315 191.24C102.475 190.953 102.555 190.62 102.555 190.24ZM36.1657 208.12C36.1657 208.473 36.0823 208.807 35.9157 209.12C35.749 209.433 35.4823 209.69 35.1157 209.89C34.749 210.083 34.279 210.18 33.7057 210.18H32.4457V213H31.3057V206.05H33.7057C34.239 206.05 34.689 206.143 35.0557 206.33C35.429 206.51 35.7057 206.757 35.8857 207.07C36.0723 207.383 36.1657 207.733 36.1657 208.12ZM33.7057 209.25C34.139 209.25 34.4623 209.153 34.6757 208.96C34.889 208.76 34.9957 208.48 34.9957 208.12C34.9957 207.36 34.5657 206.98 33.7057 206.98H32.4457V209.25H33.7057ZM36.8729 210.22C36.8729 209.667 36.9863 209.177 37.2129 208.75C37.4463 208.323 37.7596 207.993 38.1529 207.76C38.5529 207.52 38.9929 207.4 39.4729 207.4C39.9063 207.4 40.2829 207.487 40.6029 207.66C40.9296 207.827 41.1896 208.037 41.3829 208.29V207.49H42.5329V213H41.3829V212.18C41.1896 212.44 40.9263 212.657 40.5929 212.83C40.2596 213.003 39.8796 213.09 39.4529 213.09C38.9796 213.09 38.5463 212.97 38.1529 212.73C37.7596 212.483 37.4463 212.143 37.2129 211.71C36.9863 211.27 36.8729 210.773 36.8729 210.22ZM41.3829 210.24C41.3829 209.86 41.3029 209.53 41.1429 209.25C40.9896 208.97 40.7863 208.757 40.5329 208.61C40.2796 208.463 40.0063 208.39 39.7129 208.39C39.4196 208.39 39.1463 208.463 38.8929 208.61C38.6396 208.75 38.4329 208.96 38.2729 209.24C38.1196 209.513 38.0429 209.84 38.0429 210.22C38.0429 210.6 38.1196 210.933 38.2729 211.22C38.4329 211.507 38.6396 211.727 38.8929 211.88C39.1529 212.027 39.4263 212.1 39.7129 212.1C40.0063 212.1 40.2796 212.027 40.5329 211.88C40.7863 211.733 40.9896 211.52 41.1429 211.24C41.3029 210.953 41.3829 210.62 41.3829 210.24ZM45.1703 208.29C45.3369 208.01 45.5569 207.793 45.8303 207.64C46.1103 207.48 46.4403 207.4 46.8203 207.4V208.58H46.5303C46.0836 208.58 45.7436 208.693 45.5103 208.92C45.2836 209.147 45.1703 209.54 45.1703 210.1V213H44.0303V207.49H45.1703V208.29ZM49.1982 208.42V211.47C49.1982 211.677 49.2448 211.827 49.3382 211.92C49.4382 212.007 49.6048 212.05 49.8382 212.05H50.5382V213H49.6382C49.1248 213 48.7315 212.88 48.4582 212.64C48.1848 212.4 48.0482 212.01 48.0482 211.47V208.42H47.3982V207.49H48.0482V206.12H49.1982V207.49H50.5382V208.42H49.1982ZM54.3689 207.4C54.8022 207.4 55.1889 207.49 55.5289 207.67C55.8755 207.85 56.1455 208.117 56.3389 208.47C56.5322 208.823 56.6289 209.25 56.6289 209.75V213H55.4989V209.92C55.4989 209.427 55.3755 209.05 55.1289 208.79C54.8822 208.523 54.5455 208.39 54.1189 208.39C53.6922 208.39 53.3522 208.523 53.0989 208.79C52.8522 209.05 52.7289 209.427 52.7289 209.92V213H51.5889V207.49H52.7289V208.12C52.9155 207.893 53.1522 207.717 53.4389 207.59C53.7322 207.463 54.0422 207.4 54.3689 207.4ZM63.133 210.11C63.133 210.317 63.1197 210.503 63.093 210.67H58.883C58.9163 211.11 59.0797 211.463 59.373 211.73C59.6663 211.997 60.0263 212.13 60.453 212.13C61.0663 212.13 61.4997 211.873 61.753 211.36H62.983C62.8163 211.867 62.513 212.283 62.073 212.61C61.6397 212.93 61.0997 213.09 60.453 213.09C59.9263 213.09 59.453 212.973 59.033 212.74C58.6197 212.5 58.293 212.167 58.053 211.74C57.8197 211.307 57.703 210.807 57.703 210.24C57.703 209.673 57.8163 209.177 58.043 208.75C58.2763 208.317 58.5997 207.983 59.013 207.75C59.433 207.517 59.913 207.4 60.453 207.4C60.973 207.4 61.4363 207.513 61.843 207.74C62.2497 207.967 62.5663 208.287 62.793 208.7C63.0197 209.107 63.133 209.577 63.133 210.11ZM61.943 209.75C61.9363 209.33 61.7863 208.993 61.493 208.74C61.1997 208.487 60.8363 208.36 60.403 208.36C60.0097 208.36 59.673 208.487 59.393 208.74C59.113 208.987 58.9463 209.323 58.893 209.75H61.943ZM65.3949 208.29C65.5615 208.01 65.7815 207.793 66.0549 207.64C66.3349 207.48 66.6649 207.4 67.0449 207.4V208.58H66.7549C66.3082 208.58 65.9682 208.693 65.7349 208.92C65.5082 209.147 65.3949 209.54 65.3949 210.1V213H64.2549V207.49H65.3949V208.29ZM78.0904 207.49L76.3804 213H75.1804L74.0704 208.93L72.9604 213H71.7604L70.0404 207.49H71.2004L72.3504 211.92L73.5204 207.49H74.7104L75.8304 211.9L76.9704 207.49H78.0904ZM79.5224 206.76C79.3157 206.76 79.1424 206.69 79.0024 206.55C78.8624 206.41 78.7924 206.237 78.7924 206.03C78.7924 205.823 78.8624 205.65 79.0024 205.51C79.1424 205.37 79.3157 205.3 79.5224 205.3C79.7224 205.3 79.8924 205.37 80.0324 205.51C80.1724 205.65 80.2424 205.823 80.2424 206.03C80.2424 206.237 80.1724 206.41 80.0324 206.55C79.8924 206.69 79.7224 206.76 79.5224 206.76ZM80.0824 207.49V213H78.9424V207.49H80.0824ZM82.9091 208.42V211.47C82.9091 211.677 82.9558 211.827 83.0491 211.92C83.1491 212.007 83.3158 212.05 83.5491 212.05H84.2491V213H83.3491C82.8358 213 82.4424 212.88 82.1691 212.64C81.8958 212.4 81.7591 212.01 81.7591 211.47V208.42H81.1091V207.49H81.7591V206.12H82.9091V207.49H84.2491V208.42H82.9091ZM88.1498 207.4C88.5698 207.4 88.9431 207.49 89.2698 207.67C89.6031 207.85 89.8631 208.117 90.0498 208.47C90.2431 208.823 90.3398 209.25 90.3398 209.75V213H89.2098V209.92C89.2098 209.427 89.0865 209.05 88.8398 208.79C88.5931 208.523 88.2565 208.39 87.8298 208.39C87.4031 208.39 87.0631 208.523 86.8098 208.79C86.5631 209.05 86.4398 209.427 86.4398 209.92V213H85.2998V205.6H86.4398V208.13C86.6331 207.897 86.8765 207.717 87.1698 207.59C87.4698 207.463 87.7965 207.4 88.1498 207.4ZM99.7716 214.26L98.5516 212.94C98.2516 213.027 97.9216 213.07 97.5616 213.07C96.9149 213.07 96.3183 212.92 95.7716 212.62C95.2316 212.313 94.8016 211.89 94.4816 211.35C94.1683 210.803 94.0116 210.19 94.0116 209.51C94.0116 208.83 94.1683 208.22 94.4816 207.68C94.8016 207.14 95.2316 206.72 95.7716 206.42C96.3183 206.113 96.9149 205.96 97.5616 205.96C98.2149 205.96 98.8116 206.113 99.3516 206.42C99.8983 206.72 100.328 207.14 100.642 207.68C100.955 208.22 101.112 208.83 101.112 209.51C101.112 210.15 100.972 210.73 100.692 211.25C100.418 211.763 100.038 212.177 99.5516 212.49L101.222 214.26H99.7716ZM95.1816 209.51C95.1816 210.023 95.2816 210.477 95.4816 210.87C95.6883 211.257 95.9716 211.557 96.3316 211.77C96.6916 211.977 97.1016 212.08 97.5616 212.08C98.0216 212.08 98.4316 211.977 98.7916 211.77C99.1516 211.557 99.4316 211.257 99.6316 210.87C99.8383 210.477 99.9416 210.023 99.9416 209.51C99.9416 208.997 99.8383 208.547 99.6316 208.16C99.4316 207.773 99.1516 207.477 98.7916 207.27C98.4316 207.063 98.0216 206.96 97.5616 206.96C97.1016 206.96 96.6916 207.063 96.3316 207.27C95.9716 207.477 95.6883 207.773 95.4816 208.16C95.2816 208.547 95.1816 208.997 95.1816 209.51ZM104.533 206.05C105.273 206.05 105.919 206.193 106.473 206.48C107.033 206.76 107.463 207.167 107.763 207.7C108.069 208.227 108.223 208.843 108.223 209.55C108.223 210.257 108.069 210.87 107.763 211.39C107.463 211.91 107.033 212.31 106.473 212.59C105.919 212.863 105.273 213 104.533 213H102.263V206.05H104.533ZM104.533 212.07C105.346 212.07 105.969 211.85 106.403 211.41C106.836 210.97 107.053 210.35 107.053 209.55C107.053 208.743 106.836 208.113 106.403 207.66C105.969 207.207 105.346 206.98 104.533 206.98H103.403V212.07H104.533ZM112.523 213.07C111.876 213.07 111.279 212.92 110.733 212.62C110.193 212.313 109.763 211.89 109.443 211.35C109.129 210.803 108.973 210.19 108.973 209.51C108.973 208.83 109.129 208.22 109.443 207.68C109.763 207.14 110.193 206.72 110.733 206.42C111.279 206.113 111.876 205.96 112.523 205.96C113.176 205.96 113.773 206.113 114.313 206.42C114.859 206.72 115.289 207.14 115.603 207.68C115.916 208.22 116.073 208.83 116.073 209.51C116.073 210.19 115.916 210.803 115.603 211.35C115.289 211.89 114.859 212.313 114.313 212.62C113.773 212.92 113.176 213.07 112.523 213.07ZM112.523 212.08C112.983 212.08 113.393 211.977 113.753 211.77C114.113 211.557 114.393 211.257 114.593 210.87C114.799 210.477 114.903 210.023 114.903 209.51C114.903 208.997 114.799 208.547 114.593 208.16C114.393 207.773 114.113 207.477 113.753 207.27C113.393 207.063 112.983 206.96 112.523 206.96C112.063 206.96 111.653 207.063 111.293 207.27C110.933 207.477 110.649 207.773 110.443 208.16C110.243 208.547 110.143 208.997 110.143 209.51C110.143 210.023 110.243 210.477 110.443 210.87C110.649 211.257 110.933 211.557 111.293 211.77C111.653 211.977 112.063 212.08 112.523 212.08Z" fill="white"/>
<rect x="164" y="201" width="32" height="32" rx="4" fill="white"/>
<path d="M184.226 209.541C184.226 209.306 184.315 209.081 184.474 208.915C184.632 208.749 184.848 208.656 185.072 208.656H186.766V206.885C186.766 206.651 186.855 206.425 187.014 206.259C187.173 206.093 187.388 206 187.613 206C187.837 206 188.053 206.093 188.212 206.259C188.37 206.425 188.46 206.651 188.46 206.885V208.656H190.153C190.378 208.656 190.593 208.749 190.752 208.915C190.911 209.081 191 209.306 191 209.541C191 209.776 190.911 210.001 190.752 210.167C190.593 210.333 190.378 210.426 190.153 210.426H188.46V212.197C188.46 212.432 188.37 212.657 188.212 212.823C188.053 212.989 187.837 213.082 187.613 213.082C187.388 213.082 187.173 212.989 187.014 212.823C186.855 212.657 186.766 212.432 186.766 212.197V210.426H185.072C184.848 210.426 184.632 210.333 184.474 210.167C184.315 210.001 184.226 209.776 184.226 209.541ZM190.848 215.592C191.234 217.996 190.88 220.467 189.837 222.647C188.793 224.827 187.114 226.604 185.041 227.721C182.968 228.839 180.609 229.238 178.305 228.863C176.001 228.487 173.871 227.356 172.222 225.632C170.573 223.908 169.491 221.681 169.131 219.272C168.772 216.863 169.154 214.397 170.223 212.23C171.292 210.063 172.991 208.307 175.077 207.216C177.162 206.125 179.525 205.755 181.825 206.159C182.045 206.2 182.24 206.33 182.369 206.52C182.498 206.711 182.549 206.947 182.513 207.177C182.476 207.407 182.353 207.613 182.172 207.749C181.991 207.886 181.766 207.942 181.545 207.906C180.21 207.671 178.841 207.743 177.535 208.117C176.229 208.491 175.016 209.159 173.981 210.073C172.947 210.987 172.115 212.126 171.545 213.41C170.974 214.694 170.678 216.093 170.677 217.509C170.675 219.893 171.513 222.194 173.031 223.973C173.975 222.542 175.303 221.435 176.848 220.791C176.018 220.108 175.413 219.171 175.116 218.112C174.819 217.052 174.845 215.922 175.191 214.879C175.537 213.836 176.185 212.931 177.045 212.291C177.906 211.651 178.935 211.306 179.992 211.306C181.048 211.306 182.078 211.651 182.938 212.291C183.798 212.931 184.446 213.836 184.792 214.879C185.138 215.922 185.164 217.052 184.867 218.112C184.57 219.171 183.965 220.108 183.135 220.791C184.68 221.435 186.008 222.542 186.952 223.973C188.47 222.194 189.308 219.893 189.306 217.509C189.306 216.965 189.263 216.421 189.177 215.884C189.158 215.769 189.16 215.651 189.185 215.537C189.209 215.423 189.255 215.315 189.319 215.219C189.384 215.124 189.466 215.043 189.561 214.98C189.655 214.918 189.761 214.876 189.871 214.857C189.982 214.838 190.095 214.841 190.204 214.868C190.312 214.895 190.415 214.943 190.506 215.012C190.597 215.08 190.674 215.167 190.732 215.266C190.791 215.366 190.83 215.477 190.848 215.592ZM179.992 220.165C180.661 220.165 181.316 219.957 181.873 219.568C182.43 219.179 182.865 218.626 183.121 217.979C183.377 217.332 183.444 216.62 183.314 215.933C183.183 215.246 182.86 214.615 182.387 214.12C181.913 213.624 181.309 213.287 180.652 213.15C179.995 213.014 179.314 213.084 178.695 213.352C178.076 213.62 177.547 214.074 177.175 214.656C176.803 215.239 176.604 215.923 176.604 216.624C176.604 217.563 176.961 218.463 177.596 219.128C178.232 219.792 179.093 220.165 179.992 220.165ZM179.992 227.247C182.059 227.249 184.068 226.529 185.699 225.2C185.086 224.198 184.242 223.374 183.245 222.803C182.248 222.232 181.129 221.933 179.992 221.933C178.854 221.933 177.735 222.232 176.738 222.803C175.741 223.374 174.897 224.198 174.284 225.2C175.915 226.529 177.924 227.249 179.992 227.247Z" fill="#FE8B3F"/>
<path d="M130.422 248.51C130.422 247.83 130.578 247.22 130.892 246.68C131.212 246.14 131.642 245.72 132.182 245.42C132.728 245.113 133.325 244.96 133.972 244.96C134.712 244.96 135.368 245.143 135.942 245.51C136.522 245.87 136.942 246.383 137.202 247.05H135.832C135.652 246.683 135.402 246.41 135.082 246.23C134.762 246.05 134.392 245.96 133.972 245.96C133.512 245.96 133.102 246.063 132.742 246.27C132.382 246.477 132.098 246.773 131.892 247.16C131.692 247.547 131.592 247.997 131.592 248.51C131.592 249.023 131.692 249.473 131.892 249.86C132.098 250.247 132.382 250.547 132.742 250.76C133.102 250.967 133.512 251.07 133.972 251.07C134.392 251.07 134.762 250.98 135.082 250.8C135.402 250.62 135.652 250.347 135.832 249.98H137.202C136.942 250.647 136.522 251.16 135.942 251.52C135.368 251.88 134.712 252.06 133.972 252.06C133.318 252.06 132.722 251.91 132.182 251.61C131.642 251.303 131.212 250.88 130.892 250.34C130.578 249.8 130.422 249.19 130.422 248.51ZM139.676 247.29C139.843 247.01 140.063 246.793 140.336 246.64C140.616 246.48 140.946 246.4 141.326 246.4V247.58H141.036C140.589 247.58 140.249 247.693 140.016 247.92C139.789 248.147 139.676 248.54 139.676 249.1V252H138.536V246.49H139.676V247.29ZM147.424 249.11C147.424 249.317 147.411 249.503 147.384 249.67H143.174C143.207 250.11 143.371 250.463 143.664 250.73C143.957 250.997 144.317 251.13 144.744 251.13C145.357 251.13 145.791 250.873 146.044 250.36H147.274C147.107 250.867 146.804 251.283 146.364 251.61C145.931 251.93 145.391 252.09 144.744 252.09C144.217 252.09 143.744 251.973 143.324 251.74C142.911 251.5 142.584 251.167 142.344 250.74C142.111 250.307 141.994 249.807 141.994 249.24C141.994 248.673 142.107 248.177 142.334 247.75C142.567 247.317 142.891 246.983 143.304 246.75C143.724 246.517 144.204 246.4 144.744 246.4C145.264 246.4 145.727 246.513 146.134 246.74C146.541 246.967 146.857 247.287 147.084 247.7C147.311 248.107 147.424 248.577 147.424 249.11ZM146.234 248.75C146.227 248.33 146.077 247.993 145.784 247.74C145.491 247.487 145.127 247.36 144.694 247.36C144.301 247.36 143.964 247.487 143.684 247.74C143.404 247.987 143.237 248.323 143.184 248.75H146.234ZM148.166 249.22C148.166 248.667 148.279 248.177 148.506 247.75C148.739 247.323 149.053 246.993 149.446 246.76C149.846 246.52 150.286 246.4 150.766 246.4C151.199 246.4 151.576 246.487 151.896 246.66C152.223 246.827 152.483 247.037 152.676 247.29V246.49H153.826V252H152.676V251.18C152.483 251.44 152.219 251.657 151.886 251.83C151.553 252.003 151.173 252.09 150.746 252.09C150.273 252.09 149.839 251.97 149.446 251.73C149.053 251.483 148.739 251.143 148.506 250.71C148.279 250.27 148.166 249.773 148.166 249.22ZM152.676 249.24C152.676 248.86 152.596 248.53 152.436 248.25C152.283 247.97 152.079 247.757 151.826 247.61C151.573 247.463 151.299 247.39 151.006 247.39C150.713 247.39 150.439 247.463 150.186 247.61C149.933 247.75 149.726 247.96 149.566 248.24C149.413 248.513 149.336 248.84 149.336 249.22C149.336 249.6 149.413 249.933 149.566 250.22C149.726 250.507 149.933 250.727 150.186 250.88C150.446 251.027 150.719 251.1 151.006 251.1C151.299 251.1 151.573 251.027 151.826 250.88C152.079 250.733 152.283 250.52 152.436 250.24C152.596 249.953 152.676 249.62 152.676 249.24ZM156.653 247.42V250.47C156.653 250.677 156.7 250.827 156.793 250.92C156.893 251.007 157.06 251.05 157.293 251.05H157.993V252H157.093C156.58 252 156.187 251.88 155.913 251.64C155.64 251.4 155.503 251.01 155.503 250.47V247.42H154.853V246.49H155.503V245.12H156.653V246.49H157.993V247.42H156.653ZM164.094 249.11C164.094 249.317 164.081 249.503 164.054 249.67H159.844C159.877 250.11 160.041 250.463 160.334 250.73C160.627 250.997 160.987 251.13 161.414 251.13C162.027 251.13 162.461 250.873 162.714 250.36H163.944C163.777 250.867 163.474 251.283 163.034 251.61C162.601 251.93 162.061 252.09 161.414 252.09C160.887 252.09 160.414 251.973 159.994 251.74C159.581 251.5 159.254 251.167 159.014 250.74C158.781 250.307 158.664 249.807 158.664 249.24C158.664 248.673 158.777 248.177 159.004 247.75C159.237 247.317 159.561 246.983 159.974 246.75C160.394 246.517 160.874 246.4 161.414 246.4C161.934 246.4 162.397 246.513 162.804 246.74C163.211 246.967 163.527 247.287 163.754 247.7C163.981 248.107 164.094 248.577 164.094 249.11ZM162.904 248.75C162.897 248.33 162.747 247.993 162.454 247.74C162.161 247.487 161.797 247.36 161.364 247.36C160.971 247.36 160.634 247.487 160.354 247.74C160.074 247.987 159.907 248.323 159.854 248.75H162.904ZM172.773 246.49L169.393 254.59H168.213L169.333 251.91L167.163 246.49H168.433L169.983 250.69L171.593 246.49H172.773ZM176.024 252.09C175.504 252.09 175.034 251.973 174.614 251.74C174.194 251.5 173.864 251.167 173.624 250.74C173.384 250.307 173.264 249.807 173.264 249.24C173.264 248.68 173.387 248.183 173.634 247.75C173.88 247.317 174.217 246.983 174.644 246.75C175.07 246.517 175.547 246.4 176.074 246.4C176.6 246.4 177.077 246.517 177.504 246.75C177.93 246.983 178.267 247.317 178.514 247.75C178.76 248.183 178.884 248.68 178.884 249.24C178.884 249.8 178.757 250.297 178.504 250.73C178.25 251.163 177.904 251.5 177.464 251.74C177.03 251.973 176.55 252.09 176.024 252.09ZM176.024 251.1C176.317 251.1 176.59 251.03 176.844 250.89C177.104 250.75 177.314 250.54 177.474 250.26C177.634 249.98 177.714 249.64 177.714 249.24C177.714 248.84 177.637 248.503 177.484 248.23C177.33 247.95 177.127 247.74 176.874 247.6C176.62 247.46 176.347 247.39 176.054 247.39C175.76 247.39 175.487 247.46 175.234 247.6C174.987 247.74 174.79 247.95 174.644 248.23C174.497 248.503 174.424 248.84 174.424 249.24C174.424 249.833 174.574 250.293 174.874 250.62C175.18 250.94 175.564 251.1 176.024 251.1ZM185.001 246.49V252H183.861V251.35C183.681 251.577 183.444 251.757 183.151 251.89C182.864 252.017 182.557 252.08 182.231 252.08C181.797 252.08 181.407 251.99 181.061 251.81C180.721 251.63 180.451 251.363 180.251 251.01C180.057 250.657 179.961 250.23 179.961 249.73V246.49H181.091V249.56C181.091 250.053 181.214 250.433 181.461 250.7C181.707 250.96 182.044 251.09 182.471 251.09C182.897 251.09 183.234 250.96 183.481 250.7C183.734 250.433 183.861 250.053 183.861 249.56V246.49H185.001ZM187.645 247.29C187.812 247.01 188.032 246.793 188.305 246.64C188.585 246.48 188.915 246.4 189.295 246.4V247.58H189.005C188.558 247.58 188.218 247.693 187.985 247.92C187.758 248.147 187.645 248.54 187.645 249.1V252H186.505V246.49H187.645V247.29ZM194.08 247.3C194.274 247.047 194.537 246.833 194.87 246.66C195.204 246.487 195.58 246.4 196 246.4C196.48 246.4 196.917 246.52 197.31 246.76C197.71 246.993 198.024 247.323 198.25 247.75C198.477 248.177 198.59 248.667 198.59 249.22C198.59 249.773 198.477 250.27 198.25 250.71C198.024 251.143 197.71 251.483 197.31 251.73C196.917 251.97 196.48 252.09 196 252.09C195.58 252.09 195.207 252.007 194.88 251.84C194.554 251.667 194.287 251.453 194.08 251.2V254.62H192.94V246.49H194.08V247.3ZM197.43 249.22C197.43 248.84 197.35 248.513 197.19 248.24C197.037 247.96 196.83 247.75 196.57 247.61C196.317 247.463 196.044 247.39 195.75 247.39C195.464 247.39 195.19 247.463 194.93 247.61C194.677 247.757 194.47 247.97 194.31 248.25C194.157 248.53 194.08 248.86 194.08 249.24C194.08 249.62 194.157 249.953 194.31 250.24C194.47 250.52 194.677 250.733 194.93 250.88C195.19 251.027 195.464 251.1 195.75 251.1C196.044 251.1 196.317 251.027 196.57 250.88C196.83 250.727 197.037 250.507 197.19 250.22C197.35 249.933 197.43 249.6 197.43 249.22ZM200.858 247.29C201.024 247.01 201.244 246.793 201.518 246.64C201.798 246.48 202.128 246.4 202.508 246.4V247.58H202.218C201.771 247.58 201.431 247.693 201.198 247.92C200.971 248.147 200.858 248.54 200.858 249.1V252H199.718V246.49H200.858V247.29ZM205.946 252.09C205.426 252.09 204.956 251.973 204.536 251.74C204.116 251.5 203.786 251.167 203.546 250.74C203.306 250.307 203.186 249.807 203.186 249.24C203.186 248.68 203.309 248.183 203.556 247.75C203.802 247.317 204.139 246.983 204.566 246.75C204.992 246.517 205.469 246.4 205.996 246.4C206.522 246.4 206.999 246.517 207.426 246.75C207.852 246.983 208.189 247.317 208.436 247.75C208.682 248.183 208.806 248.68 208.806 249.24C208.806 249.8 208.679 250.297 208.426 250.73C208.172 251.163 207.826 251.5 207.386 251.74C206.952 251.973 206.472 252.09 205.946 252.09ZM205.946 251.1C206.239 251.1 206.512 251.03 206.766 250.89C207.026 250.75 207.236 250.54 207.396 250.26C207.556 249.98 207.636 249.64 207.636 249.24C207.636 248.84 207.559 248.503 207.406 248.23C207.252 247.95 207.049 247.74 206.796 247.6C206.542 247.46 206.269 247.39 205.976 247.39C205.682 247.39 205.409 247.46 205.156 247.6C204.909 247.74 204.712 247.95 204.566 248.23C204.419 248.503 204.346 248.84 204.346 249.24C204.346 249.833 204.496 250.293 204.796 250.62C205.102 250.94 205.486 251.1 205.946 251.1ZM212.243 247.42H211.223V252H210.073V247.42H209.423V246.49H210.073V246.1C210.073 245.467 210.239 245.007 210.573 244.72C210.913 244.427 211.443 244.28 212.163 244.28V245.23C211.816 245.23 211.573 245.297 211.433 245.43C211.293 245.557 211.223 245.78 211.223 246.1V246.49H212.243V247.42ZM213.833 245.76C213.626 245.76 213.453 245.69 213.313 245.55C213.173 245.41 213.103 245.237 213.103 245.03C213.103 244.823 213.173 244.65 213.313 244.51C213.453 244.37 213.626 244.3 213.833 244.3C214.033 244.3 214.203 244.37 214.343 244.51C214.483 244.65 214.553 244.823 214.553 245.03C214.553 245.237 214.483 245.41 214.343 245.55C214.203 245.69 214.033 245.76 213.833 245.76ZM214.393 246.49V252H213.253V246.49H214.393ZM217.03 244.6V252H215.89V244.6H217.03ZM223.576 249.11C223.576 249.317 223.563 249.503 223.536 249.67H219.326C219.36 250.11 219.523 250.463 219.816 250.73C220.11 250.997 220.47 251.13 220.896 251.13C221.51 251.13 221.943 250.873 222.196 250.36H223.426C223.26 250.867 222.956 251.283 222.516 251.61C222.083 251.93 221.543 252.09 220.896 252.09C220.37 252.09 219.896 251.973 219.476 251.74C219.063 251.5 218.736 251.167 218.496 250.74C218.263 250.307 218.146 249.807 218.146 249.24C218.146 248.673 218.26 248.177 218.486 247.75C218.72 247.317 219.043 246.983 219.456 246.75C219.876 246.517 220.356 246.4 220.896 246.4C221.416 246.4 221.88 246.513 222.286 246.74C222.693 246.967 223.01 247.287 223.236 247.7C223.463 248.107 223.576 248.577 223.576 249.11ZM222.386 248.75C222.38 248.33 222.23 247.993 221.936 247.74C221.643 247.487 221.28 247.36 220.846 247.36C220.453 247.36 220.116 247.487 219.836 247.74C219.556 247.987 219.39 248.323 219.336 248.75H222.386ZM161.004 272.09C160.484 272.09 160.014 271.973 159.594 271.74C159.174 271.5 158.844 271.167 158.604 270.74C158.364 270.307 158.244 269.807 158.244 269.24C158.244 268.68 158.368 268.183 158.614 267.75C158.861 267.317 159.198 266.983 159.624 266.75C160.051 266.517 160.528 266.4 161.054 266.4C161.581 266.4 162.058 266.517 162.484 266.75C162.911 266.983 163.248 267.317 163.494 267.75C163.741 268.183 163.864 268.68 163.864 269.24C163.864 269.8 163.738 270.297 163.484 270.73C163.231 271.163 162.884 271.5 162.444 271.74C162.011 271.973 161.531 272.09 161.004 272.09ZM161.004 271.1C161.298 271.1 161.571 271.03 161.824 270.89C162.084 270.75 162.294 270.54 162.454 270.26C162.614 269.98 162.694 269.64 162.694 269.24C162.694 268.84 162.618 268.503 162.464 268.23C162.311 267.95 162.108 267.74 161.854 267.6C161.601 267.46 161.328 267.39 161.034 267.39C160.741 267.39 160.468 267.46 160.214 267.6C159.968 267.74 159.771 267.95 159.624 268.23C159.478 268.503 159.404 268.84 159.404 269.24C159.404 269.833 159.554 270.293 159.854 270.62C160.161 270.94 160.544 271.1 161.004 271.1ZM167.771 266.4C168.205 266.4 168.591 266.49 168.931 266.67C169.278 266.85 169.548 267.117 169.741 267.47C169.935 267.823 170.031 268.25 170.031 268.75V272H168.901V268.92C168.901 268.427 168.778 268.05 168.531 267.79C168.285 267.523 167.948 267.39 167.521 267.39C167.095 267.39 166.755 267.523 166.501 267.79C166.255 268.05 166.131 268.427 166.131 268.92V272H164.991V266.49H166.131V267.12C166.318 266.893 166.555 266.717 166.841 266.59C167.135 266.463 167.445 266.4 167.771 266.4ZM179.463 273.26L178.243 271.94C177.943 272.027 177.613 272.07 177.253 272.07C176.606 272.07 176.01 271.92 175.463 271.62C174.923 271.313 174.493 270.89 174.173 270.35C173.86 269.803 173.703 269.19 173.703 268.51C173.703 267.83 173.86 267.22 174.173 266.68C174.493 266.14 174.923 265.72 175.463 265.42C176.01 265.113 176.606 264.96 177.253 264.96C177.906 264.96 178.503 265.113 179.043 265.42C179.59 265.72 180.02 266.14 180.333 266.68C180.646 267.22 180.803 267.83 180.803 268.51C180.803 269.15 180.663 269.73 180.383 270.25C180.11 270.763 179.73 271.177 179.243 271.49L180.913 273.26H179.463ZM174.873 268.51C174.873 269.023 174.973 269.477 175.173 269.87C175.38 270.257 175.663 270.557 176.023 270.77C176.383 270.977 176.793 271.08 177.253 271.08C177.713 271.08 178.123 270.977 178.483 270.77C178.843 270.557 179.123 270.257 179.323 269.87C179.53 269.477 179.633 269.023 179.633 268.51C179.633 267.997 179.53 267.547 179.323 267.16C179.123 266.773 178.843 266.477 178.483 266.27C178.123 266.063 177.713 265.96 177.253 265.96C176.793 265.96 176.383 266.063 176.023 266.27C175.663 266.477 175.38 266.773 175.173 267.16C174.973 267.547 174.873 267.997 174.873 268.51ZM184.224 265.05C184.964 265.05 185.611 265.193 186.164 265.48C186.724 265.76 187.154 266.167 187.454 266.7C187.761 267.227 187.914 267.843 187.914 268.55C187.914 269.257 187.761 269.87 187.454 270.39C187.154 270.91 186.724 271.31 186.164 271.59C185.611 271.863 184.964 272 184.224 272H181.954V265.05H184.224ZM184.224 271.07C185.037 271.07 185.661 270.85 186.094 270.41C186.527 269.97 186.744 269.35 186.744 268.55C186.744 267.743 186.527 267.113 186.094 266.66C185.661 266.207 185.037 265.98 184.224 265.98H183.094V271.07H184.224ZM192.214 272.07C191.567 272.07 190.971 271.92 190.424 271.62C189.884 271.313 189.454 270.89 189.134 270.35C188.821 269.803 188.664 269.19 188.664 268.51C188.664 267.83 188.821 267.22 189.134 266.68C189.454 266.14 189.884 265.72 190.424 265.42C190.971 265.113 191.567 264.96 192.214 264.96C192.867 264.96 193.464 265.113 194.004 265.42C194.551 265.72 194.981 266.14 195.294 266.68C195.607 267.22 195.764 267.83 195.764 268.51C195.764 269.19 195.607 269.803 195.294 270.35C194.981 270.89 194.551 271.313 194.004 271.62C193.464 271.92 192.867 272.07 192.214 272.07ZM192.214 271.08C192.674 271.08 193.084 270.977 193.444 270.77C193.804 270.557 194.084 270.257 194.284 269.87C194.491 269.477 194.594 269.023 194.594 268.51C194.594 267.997 194.491 267.547 194.284 267.16C194.084 266.773 193.804 266.477 193.444 266.27C193.084 266.063 192.674 265.96 192.214 265.96C191.754 265.96 191.344 266.063 190.984 266.27C190.624 266.477 190.341 266.773 190.134 267.16C189.934 267.547 189.834 267.997 189.834 268.51C189.834 269.023 189.934 269.477 190.134 269.87C190.341 270.257 190.624 270.557 190.984 270.77C191.344 270.977 191.754 271.08 192.214 271.08Z" fill="white"/>
<rect x="278" y="142" width="32" height="32" rx="4" fill="white"/>
<path d="M304.706 167.423C304.706 167.668 304.618 167.904 304.461 168.077C304.305 168.25 304.092 168.348 303.871 168.348H283.835C283.613 168.348 283.401 168.25 283.245 168.077C283.088 167.904 283 167.668 283 167.423V148.925C283 148.68 283.088 148.444 283.245 148.271C283.401 148.097 283.613 148 283.835 148C284.056 148 284.269 148.097 284.425 148.271C284.582 148.444 284.67 148.68 284.67 148.925V161.491L289.923 155.67C290 155.584 290.093 155.516 290.194 155.469C290.295 155.422 290.404 155.398 290.514 155.398C290.623 155.398 290.732 155.422 290.833 155.469C290.935 155.516 291.027 155.584 291.104 155.67L293.853 158.716L299.351 152.625H297.192C296.971 152.625 296.759 152.527 296.602 152.354C296.445 152.18 296.357 151.945 296.357 151.7C296.357 151.454 296.445 151.219 296.602 151.046C296.759 150.872 296.971 150.775 297.192 150.775H301.366C301.588 150.775 301.8 150.872 301.957 151.046C302.113 151.219 302.201 151.454 302.201 151.7V156.324C302.201 156.569 302.113 156.805 301.957 156.978C301.8 157.152 301.588 157.249 301.366 157.249C301.145 157.249 300.933 157.152 300.776 156.978C300.62 156.805 300.532 156.569 300.532 156.324V153.932L294.444 160.678C294.366 160.764 294.274 160.832 294.173 160.879C294.071 160.925 293.963 160.949 293.853 160.949C293.743 160.949 293.635 160.925 293.533 160.879C293.432 160.832 293.34 160.764 293.262 160.678L290.514 157.632L284.67 164.106V166.498H303.871C304.092 166.498 304.305 166.595 304.461 166.769C304.618 166.942 304.706 167.178 304.706 167.423Z" fill="#FE8B3F"/>
<path d="M253.399 188.12C253.399 188.473 253.316 188.807 253.149 189.12C252.982 189.433 252.716 189.69 252.349 189.89C251.982 190.083 251.512 190.18 250.939 190.18H249.679V193H248.539V186.05H250.939C251.472 186.05 251.922 186.143 252.289 186.33C252.662 186.51 252.939 186.757 253.119 187.07C253.306 187.383 253.399 187.733 253.399 188.12ZM250.939 189.25C251.372 189.25 251.696 189.153 251.909 188.96C252.122 188.76 252.229 188.48 252.229 188.12C252.229 187.36 251.799 186.98 250.939 186.98H249.679V189.25H250.939ZM259.476 187.49V193H258.336V192.35C258.156 192.577 257.92 192.757 257.626 192.89C257.34 193.017 257.033 193.08 256.706 193.08C256.273 193.08 255.883 192.99 255.536 192.81C255.196 192.63 254.926 192.363 254.726 192.01C254.533 191.657 254.436 191.23 254.436 190.73V187.49H255.566V190.56C255.566 191.053 255.69 191.433 255.936 191.7C256.183 191.96 256.52 192.09 256.946 192.09C257.373 192.09 257.71 191.96 257.956 191.7C258.21 191.433 258.336 191.053 258.336 190.56V187.49H259.476ZM262.12 188.31C262.314 188.043 262.577 187.827 262.91 187.66C263.25 187.487 263.627 187.4 264.04 187.4C264.527 187.4 264.967 187.517 265.36 187.75C265.754 187.983 266.064 188.317 266.29 188.75C266.517 189.177 266.63 189.667 266.63 190.22C266.63 190.773 266.517 191.27 266.29 191.71C266.064 192.143 265.75 192.483 265.35 192.73C264.957 192.97 264.52 193.09 264.04 193.09C263.614 193.09 263.234 193.007 262.9 192.84C262.574 192.673 262.314 192.46 262.12 192.2V193H260.98V185.6H262.12V188.31ZM265.47 190.22C265.47 189.84 265.39 189.513 265.23 189.24C265.077 188.96 264.87 188.75 264.61 188.61C264.357 188.463 264.084 188.39 263.79 188.39C263.504 188.39 263.23 188.463 262.97 188.61C262.717 188.757 262.51 188.97 262.35 189.25C262.197 189.53 262.12 189.86 262.12 190.24C262.12 190.62 262.197 190.953 262.35 191.24C262.51 191.52 262.717 191.733 262.97 191.88C263.23 192.027 263.504 192.1 263.79 192.1C264.084 192.1 264.357 192.027 264.61 191.88C264.87 191.727 265.077 191.507 265.23 191.22C265.39 190.933 265.47 190.6 265.47 190.22ZM268.898 185.6V193H267.758V185.6H268.898ZM270.975 186.76C270.768 186.76 270.595 186.69 270.455 186.55C270.315 186.41 270.245 186.237 270.245 186.03C270.245 185.823 270.315 185.65 270.455 185.51C270.595 185.37 270.768 185.3 270.975 185.3C271.175 185.3 271.345 185.37 271.485 185.51C271.625 185.65 271.695 185.823 271.695 186.03C271.695 186.237 271.625 186.41 271.485 186.55C271.345 186.69 271.175 186.76 270.975 186.76ZM271.535 187.49V193H270.395V187.49H271.535ZM275.031 193.09C274.598 193.09 274.208 193.013 273.861 192.86C273.521 192.7 273.251 192.487 273.051 192.22C272.851 191.947 272.745 191.643 272.731 191.31H273.911C273.931 191.543 274.041 191.74 274.241 191.9C274.448 192.053 274.705 192.13 275.011 192.13C275.331 192.13 275.578 192.07 275.751 191.95C275.931 191.823 276.021 191.663 276.021 191.47C276.021 191.263 275.921 191.11 275.721 191.01C275.528 190.91 275.218 190.8 274.791 190.68C274.378 190.567 274.041 190.457 273.781 190.35C273.521 190.243 273.295 190.08 273.101 189.86C272.915 189.64 272.821 189.35 272.821 188.99C272.821 188.697 272.908 188.43 273.081 188.19C273.255 187.943 273.501 187.75 273.821 187.61C274.148 187.47 274.521 187.4 274.941 187.4C275.568 187.4 276.071 187.56 276.451 187.88C276.838 188.193 277.045 188.623 277.071 189.17H275.931C275.911 188.923 275.811 188.727 275.631 188.58C275.451 188.433 275.208 188.36 274.901 188.36C274.601 188.36 274.371 188.417 274.211 188.53C274.051 188.643 273.971 188.793 273.971 188.98C273.971 189.127 274.025 189.25 274.131 189.35C274.238 189.45 274.368 189.53 274.521 189.59C274.675 189.643 274.901 189.713 275.201 189.8C275.601 189.907 275.928 190.017 276.181 190.13C276.441 190.237 276.665 190.397 276.851 190.61C277.038 190.823 277.135 191.107 277.141 191.46C277.141 191.773 277.055 192.053 276.881 192.3C276.708 192.547 276.461 192.74 276.141 192.88C275.828 193.02 275.458 193.09 275.031 193.09ZM281.223 187.4C281.643 187.4 282.016 187.49 282.343 187.67C282.676 187.85 282.936 188.117 283.123 188.47C283.316 188.823 283.413 189.25 283.413 189.75V193H282.283V189.92C282.283 189.427 282.16 189.05 281.913 188.79C281.666 188.523 281.33 188.39 280.903 188.39C280.476 188.39 280.136 188.523 279.883 188.79C279.636 189.05 279.513 189.427 279.513 189.92V193H278.373V185.6H279.513V188.13C279.706 187.897 279.95 187.717 280.243 187.59C280.543 187.463 280.87 187.4 281.223 187.4ZM292.425 187.49L289.045 195.59H287.865L288.985 192.91L286.815 187.49H288.085L289.635 191.69L291.245 187.49H292.425ZM295.675 193.09C295.155 193.09 294.685 192.973 294.265 192.74C293.845 192.5 293.515 192.167 293.275 191.74C293.035 191.307 292.915 190.807 292.915 190.24C292.915 189.68 293.038 189.183 293.285 188.75C293.532 188.317 293.868 187.983 294.295 187.75C294.722 187.517 295.198 187.4 295.725 187.4C296.252 187.4 296.728 187.517 297.155 187.75C297.582 187.983 297.918 188.317 298.165 188.75C298.412 189.183 298.535 189.68 298.535 190.24C298.535 190.8 298.408 191.297 298.155 191.73C297.902 192.163 297.555 192.5 297.115 192.74C296.682 192.973 296.202 193.09 295.675 193.09ZM295.675 192.1C295.968 192.1 296.242 192.03 296.495 191.89C296.755 191.75 296.965 191.54 297.125 191.26C297.285 190.98 297.365 190.64 297.365 190.24C297.365 189.84 297.288 189.503 297.135 189.23C296.982 188.95 296.778 188.74 296.525 188.6C296.272 188.46 295.998 188.39 295.705 188.39C295.412 188.39 295.138 188.46 294.885 188.6C294.638 188.74 294.442 188.95 294.295 189.23C294.148 189.503 294.075 189.84 294.075 190.24C294.075 190.833 294.225 191.293 294.525 191.62C294.832 191.94 295.215 192.1 295.675 192.1ZM304.652 187.49V193H303.512V192.35C303.332 192.577 303.095 192.757 302.802 192.89C302.515 193.017 302.209 193.08 301.882 193.08C301.449 193.08 301.059 192.99 300.712 192.81C300.372 192.63 300.102 192.363 299.902 192.01C299.709 191.657 299.612 191.23 299.612 190.73V187.49H300.742V190.56C300.742 191.053 300.865 191.433 301.112 191.7C301.359 191.96 301.695 192.09 302.122 192.09C302.549 192.09 302.885 191.96 303.132 191.7C303.385 191.433 303.512 191.053 303.512 190.56V187.49H304.652ZM307.296 188.29C307.463 188.01 307.683 187.793 307.956 187.64C308.236 187.48 308.566 187.4 308.946 187.4V188.58H308.656C308.21 188.58 307.87 188.693 307.636 188.92C307.41 189.147 307.296 189.54 307.296 190.1V193H306.156V187.49H307.296V188.29ZM314.982 193.09C314.462 193.09 313.992 192.973 313.572 192.74C313.152 192.5 312.822 192.167 312.582 191.74C312.342 191.307 312.222 190.807 312.222 190.24C312.222 189.68 312.345 189.183 312.592 188.75C312.838 188.317 313.175 187.983 313.602 187.75C314.028 187.517 314.505 187.4 315.032 187.4C315.558 187.4 316.035 187.517 316.462 187.75C316.888 187.983 317.225 188.317 317.472 188.75C317.718 189.183 317.842 189.68 317.842 190.24C317.842 190.8 317.715 191.297 317.462 191.73C317.208 192.163 316.862 192.5 316.422 192.74C315.988 192.973 315.508 193.09 314.982 193.09ZM314.982 192.1C315.275 192.1 315.548 192.03 315.802 191.89C316.062 191.75 316.272 191.54 316.432 191.26C316.592 190.98 316.672 190.64 316.672 190.24C316.672 189.84 316.595 189.503 316.442 189.23C316.288 188.95 316.085 188.74 315.832 188.6C315.578 188.46 315.305 188.39 315.012 188.39C314.718 188.39 314.445 188.46 314.192 188.6C313.945 188.74 313.748 188.95 313.602 189.23C313.455 189.503 313.382 189.84 313.382 190.24C313.382 190.833 313.532 191.293 313.832 191.62C314.138 191.94 314.522 192.1 314.982 192.1ZM321.279 188.42H320.259V193H319.109V188.42H318.459V187.49H319.109V187.1C319.109 186.467 319.275 186.007 319.609 185.72C319.949 185.427 320.479 185.28 321.199 185.28V186.23C320.852 186.23 320.609 186.297 320.469 186.43C320.329 186.557 320.259 186.78 320.259 187.1V187.49H321.279V188.42ZM324.599 188.42H323.579V193H322.429V188.42H321.779V187.49H322.429V187.1C322.429 186.467 322.596 186.007 322.929 185.72C323.269 185.427 323.799 185.28 324.519 185.28V186.23C324.172 186.23 323.929 186.297 323.789 186.43C323.649 186.557 323.579 186.78 323.579 187.1V187.49H324.599V188.42ZM330.659 190.11C330.659 190.317 330.646 190.503 330.619 190.67H326.409C326.443 191.11 326.606 191.463 326.899 191.73C327.193 191.997 327.553 192.13 327.979 192.13C328.593 192.13 329.026 191.873 329.279 191.36H330.509C330.343 191.867 330.039 192.283 329.599 192.61C329.166 192.93 328.626 193.09 327.979 193.09C327.453 193.09 326.979 192.973 326.559 192.74C326.146 192.5 325.819 192.167 325.579 191.74C325.346 191.307 325.229 190.807 325.229 190.24C325.229 189.673 325.343 189.177 325.569 188.75C325.803 188.317 326.126 187.983 326.539 187.75C326.959 187.517 327.439 187.4 327.979 187.4C328.499 187.4 328.963 187.513 329.369 187.74C329.776 187.967 330.093 188.287 330.319 188.7C330.546 189.107 330.659 189.577 330.659 190.11ZM329.469 189.75C329.463 189.33 329.313 188.993 329.019 188.74C328.726 188.487 328.363 188.36 327.929 188.36C327.536 188.36 327.199 188.487 326.919 188.74C326.639 188.987 326.473 189.323 326.419 189.75H329.469ZM332.921 188.29C333.088 188.01 333.308 187.793 333.581 187.64C333.861 187.48 334.191 187.4 334.571 187.4V188.58H334.281C333.835 188.58 333.495 188.693 333.261 188.92C333.035 189.147 332.921 189.54 332.921 190.1V193H331.781V187.49H332.921V188.29ZM337.619 193.09C337.186 193.09 336.796 193.013 336.449 192.86C336.109 192.7 335.839 192.487 335.639 192.22C335.439 191.947 335.332 191.643 335.319 191.31H336.499C336.519 191.543 336.629 191.74 336.829 191.9C337.036 192.053 337.292 192.13 337.599 192.13C337.919 192.13 338.166 192.07 338.339 191.95C338.519 191.823 338.609 191.663 338.609 191.47C338.609 191.263 338.509 191.11 338.309 191.01C338.116 190.91 337.806 190.8 337.379 190.68C336.966 190.567 336.629 190.457 336.369 190.35C336.109 190.243 335.882 190.08 335.689 189.86C335.502 189.64 335.409 189.35 335.409 188.99C335.409 188.697 335.496 188.43 335.669 188.19C335.842 187.943 336.089 187.75 336.409 187.61C336.736 187.47 337.109 187.4 337.529 187.4C338.156 187.4 338.659 187.56 339.039 187.88C339.426 188.193 339.632 188.623 339.659 189.17H338.519C338.499 188.923 338.399 188.727 338.219 188.58C338.039 188.433 337.796 188.36 337.489 188.36C337.189 188.36 336.959 188.417 336.799 188.53C336.639 188.643 336.559 188.793 336.559 188.98C336.559 189.127 336.612 189.25 336.719 189.35C336.826 189.45 336.956 189.53 337.109 189.59C337.262 189.643 337.489 189.713 337.789 189.8C338.189 189.907 338.516 190.017 338.769 190.13C339.029 190.237 339.252 190.397 339.439 190.61C339.626 190.823 339.722 191.107 339.729 191.46C339.729 191.773 339.642 192.053 339.469 192.3C339.296 192.547 339.049 192.74 338.729 192.88C338.416 193.02 338.046 193.09 337.619 193.09ZM259.822 213L258.962 212.14C258.629 212.473 258.265 212.723 257.872 212.89C257.479 213.05 257.039 213.13 256.552 213.13C256.059 213.13 255.622 213.043 255.242 212.87C254.862 212.697 254.569 212.45 254.362 212.13C254.155 211.803 254.052 211.427 254.052 211C254.052 210.52 254.189 210.093 254.462 209.72C254.735 209.34 255.142 209.04 255.682 208.82C255.489 208.587 255.352 208.37 255.272 208.17C255.192 207.963 255.152 207.737 255.152 207.49C255.152 207.183 255.229 206.91 255.382 206.67C255.542 206.43 255.769 206.24 256.062 206.1C256.355 205.96 256.695 205.89 257.082 205.89C257.475 205.89 257.809 205.967 258.082 206.12C258.362 206.267 258.569 206.47 258.702 206.73C258.842 206.99 258.899 207.28 258.872 207.6H257.732C257.739 207.353 257.679 207.163 257.552 207.03C257.425 206.89 257.252 206.82 257.032 206.82C256.812 206.82 256.632 206.887 256.492 207.02C256.359 207.147 256.292 207.303 256.292 207.49C256.292 207.67 256.342 207.85 256.442 208.03C256.549 208.203 256.732 208.43 256.992 208.71L258.832 210.54L259.542 209.37H260.772L259.872 210.91L259.622 211.32L261.312 213H259.822ZM256.552 212.16C257.179 212.16 257.732 211.903 258.212 211.39L256.372 209.54C255.585 209.853 255.192 210.327 255.192 210.96C255.192 211.3 255.319 211.587 255.572 211.82C255.825 212.047 256.152 212.16 256.552 212.16ZM265.797 206.05V213H264.657V206.05H265.797ZM270.074 207.4C270.507 207.4 270.894 207.49 271.234 207.67C271.581 207.85 271.851 208.117 272.044 208.47C272.237 208.823 272.334 209.25 272.334 209.75V213H271.204V209.92C271.204 209.427 271.081 209.05 270.834 208.79C270.587 208.523 270.251 208.39 269.824 208.39C269.397 208.39 269.057 208.523 268.804 208.79C268.557 209.05 268.434 209.427 268.434 209.92V213H267.294V207.49H268.434V208.12C268.621 207.893 268.857 207.717 269.144 207.59C269.437 207.463 269.747 207.4 270.074 207.4ZM273.408 210.24C273.408 209.673 273.521 209.177 273.748 208.75C273.981 208.317 274.301 207.983 274.708 207.75C275.115 207.517 275.581 207.4 276.108 207.4C276.775 207.4 277.325 207.56 277.758 207.88C278.198 208.193 278.495 208.643 278.648 209.23H277.418C277.318 208.957 277.158 208.743 276.938 208.59C276.718 208.437 276.441 208.36 276.108 208.36C275.641 208.36 275.268 208.527 274.988 208.86C274.715 209.187 274.578 209.647 274.578 210.24C274.578 210.833 274.715 211.297 274.988 211.63C275.268 211.963 275.641 212.13 276.108 212.13C276.768 212.13 277.205 211.84 277.418 211.26H278.648C278.488 211.82 278.188 212.267 277.748 212.6C277.308 212.927 276.761 213.09 276.108 213.09C275.581 213.09 275.115 212.973 274.708 212.74C274.301 212.5 273.981 212.167 273.748 211.74C273.521 211.307 273.408 210.807 273.408 210.24ZM280.924 208.29C281.091 208.01 281.311 207.793 281.584 207.64C281.864 207.48 282.194 207.4 282.574 207.4V208.58H282.284C281.838 208.58 281.498 208.693 281.264 208.92C281.038 209.147 280.924 209.54 280.924 210.1V213H279.784V207.49H280.924V208.29ZM288.672 210.11C288.672 210.317 288.659 210.503 288.632 210.67H284.422C284.455 211.11 284.619 211.463 284.912 211.73C285.205 211.997 285.565 212.13 285.992 212.13C286.605 212.13 287.039 211.873 287.292 211.36H288.522C288.355 211.867 288.052 212.283 287.612 212.61C287.179 212.93 286.639 213.09 285.992 213.09C285.465 213.09 284.992 212.973 284.572 212.74C284.159 212.5 283.832 212.167 283.592 211.74C283.359 211.307 283.242 210.807 283.242 210.24C283.242 209.673 283.355 209.177 283.582 208.75C283.815 208.317 284.139 207.983 284.552 207.75C284.972 207.517 285.452 207.4 285.992 207.4C286.512 207.4 286.975 207.513 287.382 207.74C287.789 207.967 288.105 208.287 288.332 208.7C288.559 209.107 288.672 209.577 288.672 210.11ZM287.482 209.75C287.475 209.33 287.325 208.993 287.032 208.74C286.739 208.487 286.375 208.36 285.942 208.36C285.549 208.36 285.212 208.487 284.932 208.74C284.652 208.987 284.485 209.323 284.432 209.75H287.482ZM289.414 210.22C289.414 209.667 289.527 209.177 289.754 208.75C289.987 208.323 290.301 207.993 290.694 207.76C291.094 207.52 291.534 207.4 292.014 207.4C292.447 207.4 292.824 207.487 293.144 207.66C293.471 207.827 293.731 208.037 293.924 208.29V207.49H295.074V213H293.924V212.18C293.731 212.44 293.467 212.657 293.134 212.83C292.801 213.003 292.421 213.09 291.994 213.09C291.521 213.09 291.087 212.97 290.694 212.73C290.301 212.483 289.987 212.143 289.754 211.71C289.527 211.27 289.414 210.773 289.414 210.22ZM293.924 210.24C293.924 209.86 293.844 209.53 293.684 209.25C293.531 208.97 293.327 208.757 293.074 208.61C292.821 208.463 292.547 208.39 292.254 208.39C291.961 208.39 291.687 208.463 291.434 208.61C291.181 208.75 290.974 208.96 290.814 209.24C290.661 209.513 290.584 209.84 290.584 210.22C290.584 210.6 290.661 210.933 290.814 211.22C290.974 211.507 291.181 211.727 291.434 211.88C291.694 212.027 291.967 212.1 292.254 212.1C292.547 212.1 292.821 212.027 293.074 211.88C293.327 211.733 293.531 211.52 293.684 211.24C293.844 210.953 293.924 210.62 293.924 210.24ZM298.571 213.09C298.138 213.09 297.748 213.013 297.401 212.86C297.061 212.7 296.791 212.487 296.591 212.22C296.391 211.947 296.285 211.643 296.271 211.31H297.451C297.471 211.543 297.581 211.74 297.781 211.9C297.988 212.053 298.245 212.13 298.551 212.13C298.871 212.13 299.118 212.07 299.291 211.95C299.471 211.823 299.561 211.663 299.561 211.47C299.561 211.263 299.461 211.11 299.261 211.01C299.068 210.91 298.758 210.8 298.331 210.68C297.918 210.567 297.581 210.457 297.321 210.35C297.061 210.243 296.835 210.08 296.641 209.86C296.455 209.64 296.361 209.35 296.361 208.99C296.361 208.697 296.448 208.43 296.621 208.19C296.795 207.943 297.041 207.75 297.361 207.61C297.688 207.47 298.061 207.4 298.481 207.4C299.108 207.4 299.611 207.56 299.991 207.88C300.378 208.193 300.585 208.623 300.611 209.17H299.471C299.451 208.923 299.351 208.727 299.171 208.58C298.991 208.433 298.748 208.36 298.441 208.36C298.141 208.36 297.911 208.417 297.751 208.53C297.591 208.643 297.511 208.793 297.511 208.98C297.511 209.127 297.565 209.25 297.671 209.35C297.778 209.45 297.908 209.53 298.061 209.59C298.215 209.643 298.441 209.713 298.741 209.8C299.141 209.907 299.468 210.017 299.721 210.13C299.981 210.237 300.205 210.397 300.391 210.61C300.578 210.823 300.675 211.107 300.681 211.46C300.681 211.773 300.595 212.053 300.421 212.3C300.248 212.547 300.001 212.74 299.681 212.88C299.368 213.02 298.998 213.09 298.571 213.09ZM306.963 210.11C306.963 210.317 306.95 210.503 306.923 210.67H302.713C302.746 211.11 302.91 211.463 303.203 211.73C303.496 211.997 303.856 212.13 304.283 212.13C304.896 212.13 305.33 211.873 305.583 211.36H306.813C306.646 211.867 306.343 212.283 305.903 212.61C305.47 212.93 304.93 213.09 304.283 213.09C303.756 213.09 303.283 212.973 302.863 212.74C302.45 212.5 302.123 212.167 301.883 211.74C301.65 211.307 301.533 210.807 301.533 210.24C301.533 209.673 301.646 209.177 301.873 208.75C302.106 208.317 302.43 207.983 302.843 207.75C303.263 207.517 303.743 207.4 304.283 207.4C304.803 207.4 305.266 207.513 305.673 207.74C306.08 207.967 306.396 208.287 306.623 208.7C306.85 209.107 306.963 209.577 306.963 210.11ZM305.773 209.75C305.766 209.33 305.616 208.993 305.323 208.74C305.03 208.487 304.666 208.36 304.233 208.36C303.84 208.36 303.503 208.487 303.223 208.74C302.943 208.987 302.776 209.323 302.723 209.75H305.773ZM312.973 213.07C312.506 213.07 312.086 212.99 311.713 212.83C311.339 212.663 311.046 212.43 310.833 212.13C310.619 211.83 310.513 211.48 310.513 211.08H311.733C311.759 211.38 311.876 211.627 312.083 211.82C312.296 212.013 312.593 212.11 312.973 212.11C313.366 212.11 313.673 212.017 313.893 211.83C314.113 211.637 314.223 211.39 314.223 211.09C314.223 210.857 314.153 210.667 314.013 210.52C313.879 210.373 313.709 210.26 313.503 210.18C313.303 210.1 313.023 210.013 312.663 209.92C312.209 209.8 311.839 209.68 311.553 209.56C311.273 209.433 311.033 209.24 310.833 208.98C310.633 208.72 310.533 208.373 310.533 207.94C310.533 207.54 310.633 207.19 310.833 206.89C311.033 206.59 311.313 206.36 311.673 206.2C312.033 206.04 312.449 205.96 312.923 205.96C313.596 205.96 314.146 206.13 314.573 206.47C315.006 206.803 315.246 207.263 315.293 207.85H314.033C314.013 207.597 313.893 207.38 313.673 207.2C313.453 207.02 313.163 206.93 312.803 206.93C312.476 206.93 312.209 207.013 312.003 207.18C311.796 207.347 311.693 207.587 311.693 207.9C311.693 208.113 311.756 208.29 311.883 208.43C312.016 208.563 312.183 208.67 312.383 208.75C312.583 208.83 312.856 208.917 313.203 209.01C313.663 209.137 314.036 209.263 314.323 209.39C314.616 209.517 314.863 209.713 315.063 209.98C315.269 210.24 315.373 210.59 315.373 211.03C315.373 211.383 315.276 211.717 315.083 212.03C314.896 212.343 314.619 212.597 314.253 212.79C313.893 212.977 313.466 213.07 312.973 213.07ZM316.338 210.22C316.338 209.667 316.451 209.177 316.678 208.75C316.911 208.323 317.224 207.993 317.618 207.76C318.018 207.52 318.458 207.4 318.938 207.4C319.371 207.4 319.748 207.487 320.068 207.66C320.394 207.827 320.654 208.037 320.848 208.29V207.49H321.998V213H320.848V212.18C320.654 212.44 320.391 212.657 320.058 212.83C319.724 213.003 319.344 213.09 318.918 213.09C318.444 213.09 318.011 212.97 317.618 212.73C317.224 212.483 316.911 212.143 316.678 211.71C316.451 211.27 316.338 210.773 316.338 210.22ZM320.848 210.24C320.848 209.86 320.768 209.53 320.608 209.25C320.454 208.97 320.251 208.757 319.998 208.61C319.744 208.463 319.471 208.39 319.178 208.39C318.884 208.39 318.611 208.463 318.358 208.61C318.104 208.75 317.898 208.96 317.738 209.24C317.584 209.513 317.508 209.84 317.508 210.22C317.508 210.6 317.584 210.933 317.738 211.22C317.898 211.507 318.104 211.727 318.358 211.88C318.618 212.027 318.891 212.1 319.178 212.1C319.471 212.1 319.744 212.027 319.998 211.88C320.251 211.733 320.454 211.52 320.608 211.24C320.768 210.953 320.848 210.62 320.848 210.24ZM324.635 205.6V213H323.495V205.6H324.635ZM331.182 210.11C331.182 210.317 331.169 210.503 331.142 210.67H326.932C326.965 211.11 327.129 211.463 327.422 211.73C327.715 211.997 328.075 212.13 328.502 212.13C329.115 212.13 329.549 211.873 329.802 211.36H331.032C330.865 211.867 330.562 212.283 330.122 212.61C329.689 212.93 329.149 213.09 328.502 213.09C327.975 213.09 327.502 212.973 327.082 212.74C326.669 212.5 326.342 212.167 326.102 211.74C325.869 211.307 325.752 210.807 325.752 210.24C325.752 209.673 325.865 209.177 326.092 208.75C326.325 208.317 326.649 207.983 327.062 207.75C327.482 207.517 327.962 207.4 328.502 207.4C329.022 207.4 329.485 207.513 329.892 207.74C330.299 207.967 330.615 208.287 330.842 208.7C331.069 209.107 331.182 209.577 331.182 210.11ZM329.992 209.75C329.985 209.33 329.835 208.993 329.542 208.74C329.249 208.487 328.885 208.36 328.452 208.36C328.059 208.36 327.722 208.487 327.442 208.74C327.162 208.987 326.995 209.323 326.942 209.75H329.992ZM334.304 213.09C333.87 213.09 333.48 213.013 333.134 212.86C332.794 212.7 332.524 212.487 332.324 212.22C332.124 211.947 332.017 211.643 332.004 211.31H333.184C333.204 211.543 333.314 211.74 333.514 211.9C333.72 212.053 333.977 212.13 334.284 212.13C334.604 212.13 334.85 212.07 335.024 211.95C335.204 211.823 335.294 211.663 335.294 211.47C335.294 211.263 335.194 211.11 334.994 211.01C334.8 210.91 334.49 210.8 334.064 210.68C333.65 210.567 333.314 210.457 333.054 210.35C332.794 210.243 332.567 210.08 332.374 209.86C332.187 209.64 332.094 209.35 332.094 208.99C332.094 208.697 332.18 208.43 332.354 208.19C332.527 207.943 332.774 207.75 333.094 207.61C333.42 207.47 333.794 207.4 334.214 207.4C334.84 207.4 335.344 207.56 335.724 207.88C336.11 208.193 336.317 208.623 336.344 209.17H335.204C335.184 208.923 335.084 208.727 334.904 208.58C334.724 208.433 334.48 208.36 334.174 208.36C333.874 208.36 333.644 208.417 333.484 208.53C333.324 208.643 333.244 208.793 333.244 208.98C333.244 209.127 333.297 209.25 333.404 209.35C333.51 209.45 333.64 209.53 333.794 209.59C333.947 209.643 334.174 209.713 334.474 209.8C334.874 209.907 335.2 210.017 335.454 210.13C335.714 210.237 335.937 210.397 336.124 210.61C336.31 210.823 336.407 211.107 336.414 211.46C336.414 211.773 336.327 212.053 336.154 212.3C335.98 212.547 335.734 212.74 335.414 212.88C335.1 213.02 334.73 213.09 334.304 213.09Z" fill="white"/>
<path d="M97.7459 51.8C98.5592 51.9733 99.2125 52.38 99.7059 53.02C100.199 53.6467 100.446 54.3667 100.446 55.18C100.446 56.3533 100.033 57.2867 99.2059 57.98C98.3925 58.66 97.2525 59 95.7859 59H89.2459V44.96H95.5659C96.9925 44.96 98.1059 45.2867 98.9059 45.94C99.7192 46.5933 100.126 47.48 100.126 48.6C100.126 49.4267 99.9059 50.1133 99.4659 50.66C99.0392 51.2067 98.4659 51.5867 97.7459 51.8ZM92.6659 50.64H94.9059C95.4659 50.64 95.8925 50.52 96.1859 50.28C96.4925 50.0267 96.6459 49.66 96.6459 49.18C96.6459 48.7 96.4925 48.3333 96.1859 48.08C95.8925 47.8267 95.4659 47.7 94.9059 47.7H92.6659V50.64ZM95.1859 56.24C95.7592 56.24 96.1992 56.1133 96.5059 55.86C96.8259 55.5933 96.9859 55.2133 96.9859 54.72C96.9859 54.2267 96.8192 53.84 96.4859 53.56C96.1659 53.28 95.7192 53.14 95.1459 53.14H92.6659V56.24H95.1859ZM112.949 53.24C112.949 53.56 112.929 53.8933 112.889 54.24H105.149C105.203 54.9333 105.423 55.4667 105.809 55.84C106.209 56.2 106.696 56.38 107.269 56.38C108.123 56.38 108.716 56.02 109.049 55.3H112.689C112.503 56.0333 112.163 56.6933 111.669 57.28C111.189 57.8667 110.583 58.3267 109.849 58.66C109.116 58.9933 108.296 59.16 107.389 59.16C106.296 59.16 105.323 58.9267 104.469 58.46C103.616 57.9933 102.949 57.3267 102.469 56.46C101.989 55.5933 101.749 54.58 101.749 53.42C101.749 52.26 101.983 51.2467 102.449 50.38C102.929 49.5133 103.596 48.8467 104.449 48.38C105.303 47.9133 106.283 47.68 107.389 47.68C108.469 47.68 109.429 47.9067 110.269 48.36C111.109 48.8133 111.763 49.46 112.229 50.3C112.709 51.14 112.949 52.12 112.949 53.24ZM109.449 52.34C109.449 51.7533 109.249 51.2867 108.849 50.94C108.449 50.5933 107.949 50.42 107.349 50.42C106.776 50.42 106.289 50.5867 105.889 50.92C105.503 51.2533 105.263 51.7267 105.169 52.34H109.449ZM114.074 53.42C114.074 52.26 114.307 51.2467 114.774 50.38C115.254 49.5133 115.914 48.8467 116.754 48.38C117.607 47.9133 118.58 47.68 119.674 47.68C121.074 47.68 122.24 48.0467 123.174 48.78C124.12 49.5133 124.74 50.5467 125.034 51.88H121.394C121.087 51.0267 120.494 50.6 119.614 50.6C118.987 50.6 118.487 50.8467 118.114 51.34C117.74 51.82 117.554 52.5133 117.554 53.42C117.554 54.3267 117.74 55.0267 118.114 55.52C118.487 56 118.987 56.24 119.614 56.24C120.494 56.24 121.087 55.8133 121.394 54.96H125.034C124.74 56.2667 124.12 57.2933 123.174 58.04C122.227 58.7867 121.06 59.16 119.674 59.16C118.58 59.16 117.607 58.9267 116.754 58.46C115.914 57.9933 115.254 57.3267 114.774 56.46C114.307 55.5933 114.074 54.58 114.074 53.42ZM131.943 59.16C130.85 59.16 129.863 58.9267 128.983 58.46C128.116 57.9933 127.43 57.3267 126.923 56.46C126.43 55.5933 126.183 54.58 126.183 53.42C126.183 52.2733 126.436 51.2667 126.943 50.4C127.45 49.52 128.143 48.8467 129.023 48.38C129.903 47.9133 130.89 47.68 131.983 47.68C133.076 47.68 134.063 47.9133 134.943 48.38C135.823 48.8467 136.516 49.52 137.023 50.4C137.53 51.2667 137.783 52.2733 137.783 53.42C137.783 54.5667 137.523 55.58 137.003 56.46C136.496 57.3267 135.796 57.9933 134.903 58.46C134.023 58.9267 133.036 59.16 131.943 59.16ZM131.943 56.2C132.596 56.2 133.15 55.96 133.603 55.48C134.07 55 134.303 54.3133 134.303 53.42C134.303 52.5267 134.076 51.84 133.623 51.36C133.183 50.88 132.636 50.64 131.983 50.64C131.316 50.64 130.763 50.88 130.323 51.36C129.883 51.8267 129.663 52.5133 129.663 53.42C129.663 54.3133 129.876 55 130.303 55.48C130.743 55.96 131.29 56.2 131.943 56.2ZM153.837 47.72C155.224 47.72 156.324 48.14 157.137 48.98C157.964 49.82 158.377 50.9867 158.377 52.48V59H154.977V52.94C154.977 52.22 154.784 51.6667 154.397 51.28C154.024 50.88 153.504 50.68 152.837 50.68C152.171 50.68 151.644 50.88 151.257 51.28C150.884 51.6667 150.697 52.22 150.697 52.94V59H147.297V52.94C147.297 52.22 147.104 51.6667 146.717 51.28C146.344 50.88 145.824 50.68 145.157 50.68C144.491 50.68 143.964 50.88 143.577 51.28C143.204 51.6667 143.017 52.22 143.017 52.94V59H139.597V47.84H143.017V49.24C143.364 48.7733 143.817 48.4067 144.377 48.14C144.937 47.86 145.571 47.72 146.277 47.72C147.117 47.72 147.864 47.9 148.517 48.26C149.184 48.62 149.704 49.1333 150.077 49.8C150.464 49.1867 150.991 48.6867 151.657 48.3C152.324 47.9133 153.051 47.72 153.837 47.72ZM171.289 53.24C171.289 53.56 171.269 53.8933 171.229 54.24H163.489C163.543 54.9333 163.763 55.4667 164.149 55.84C164.549 56.2 165.036 56.38 165.609 56.38C166.463 56.38 167.056 56.02 167.389 55.3H171.029C170.843 56.0333 170.503 56.6933 170.009 57.28C169.529 57.8667 168.923 58.3267 168.189 58.66C167.456 58.9933 166.636 59.16 165.729 59.16C164.636 59.16 163.663 58.9267 162.809 58.46C161.956 57.9933 161.289 57.3267 160.809 56.46C160.329 55.5933 160.089 54.58 160.089 53.42C160.089 52.26 160.323 51.2467 160.789 50.38C161.269 49.5133 161.936 48.8467 162.789 48.38C163.643 47.9133 164.623 47.68 165.729 47.68C166.809 47.68 167.769 47.9067 168.609 48.36C169.449 48.8133 170.103 49.46 170.569 50.3C171.049 51.14 171.289 52.12 171.289 53.24ZM167.789 52.34C167.789 51.7533 167.589 51.2867 167.189 50.94C166.789 50.5933 166.289 50.42 165.689 50.42C165.116 50.42 164.629 50.5867 164.229 50.92C163.843 51.2533 163.603 51.7267 163.509 52.34H167.789ZM176.652 53.4C176.652 52.2533 176.865 51.2467 177.292 50.38C177.732 49.5133 178.325 48.8467 179.072 48.38C179.818 47.9133 180.652 47.68 181.572 47.68C182.358 47.68 183.045 47.84 183.632 48.16C184.232 48.48 184.692 48.9 185.012 49.42V47.84H188.432V59H185.012V57.42C184.678 57.94 184.212 58.36 183.612 58.68C183.025 59 182.338 59.16 181.552 59.16C180.645 59.16 179.818 58.9267 179.072 58.46C178.325 57.98 177.732 57.3067 177.292 56.44C176.865 55.56 176.652 54.5467 176.652 53.4ZM185.012 53.42C185.012 52.5667 184.772 51.8933 184.292 51.4C183.825 50.9067 183.252 50.66 182.572 50.66C181.892 50.66 181.312 50.9067 180.832 51.4C180.365 51.88 180.132 52.5467 180.132 53.4C180.132 54.2533 180.365 54.9333 180.832 55.44C181.312 55.9333 181.892 56.18 182.572 56.18C183.252 56.18 183.825 55.9333 184.292 55.44C184.772 54.9467 185.012 54.2733 185.012 53.42ZM205.844 49.48C205.844 50.2933 205.658 51.04 205.284 51.72C204.911 52.3867 204.338 52.9267 203.564 53.34C202.791 53.7533 201.831 53.96 200.684 53.96H198.564V59H195.144V44.96H200.684C201.804 44.96 202.751 45.1533 203.524 45.54C204.298 45.9267 204.878 46.46 205.264 47.14C205.651 47.82 205.844 48.6 205.844 49.48ZM200.424 51.24C201.078 51.24 201.564 51.0867 201.884 50.78C202.204 50.4733 202.364 50.04 202.364 49.48C202.364 48.92 202.204 48.4867 201.884 48.18C201.564 47.8733 201.078 47.72 200.424 47.72H198.564V51.24H200.424ZM206.945 53.4C206.945 52.2533 207.158 51.2467 207.585 50.38C208.025 49.5133 208.618 48.8467 209.365 48.38C210.111 47.9133 210.945 47.68 211.865 47.68C212.651 47.68 213.338 47.84 213.925 48.16C214.525 48.48 214.985 48.9 215.305 49.42V47.84H218.725V59H215.305V57.42C214.971 57.94 214.505 58.36 213.905 58.68C213.318 59 212.631 59.16 211.845 59.16C210.938 59.16 210.111 58.9267 209.365 58.46C208.618 57.98 208.025 57.3067 207.585 56.44C207.158 55.56 206.945 54.5467 206.945 53.4ZM215.305 53.42C215.305 52.5667 215.065 51.8933 214.585 51.4C214.118 50.9067 213.545 50.66 212.865 50.66C212.185 50.66 211.605 50.9067 211.125 51.4C210.658 51.88 210.425 52.5467 210.425 53.4C210.425 54.2533 210.658 54.9333 211.125 55.44C211.605 55.9333 212.185 56.18 212.865 56.18C213.545 56.18 214.118 55.9333 214.585 55.44C215.065 54.9467 215.305 54.2733 215.305 53.42ZM224.619 49.7C225.019 49.0867 225.519 48.6067 226.119 48.26C226.719 47.9 227.386 47.72 228.119 47.72V51.34H227.179C226.326 51.34 225.686 51.5267 225.259 51.9C224.832 52.26 224.619 52.9 224.619 53.82V59H221.199V47.84H224.619V49.7ZM235.974 56.1V59H234.234C232.994 59 232.027 58.7 231.334 58.1C230.64 57.4867 230.294 56.4933 230.294 55.12V50.68H228.934V47.84H230.294V45.12H233.714V47.84H235.954V50.68H233.714V55.16C233.714 55.4933 233.794 55.7333 233.954 55.88C234.114 56.0267 234.38 56.1 234.754 56.1H235.974ZM244.679 47.72C245.985 47.72 247.025 48.1467 247.799 49C248.585 49.84 248.979 51 248.979 52.48V59H245.579V52.94C245.579 52.1933 245.385 51.6133 244.999 51.2C244.612 50.7867 244.092 50.58 243.439 50.58C242.785 50.58 242.265 50.7867 241.879 51.2C241.492 51.6133 241.299 52.1933 241.299 52.94V59H237.879V47.84H241.299V49.32C241.645 48.8267 242.112 48.44 242.699 48.16C243.285 47.8667 243.945 47.72 244.679 47.72ZM261.875 53.24C261.875 53.56 261.855 53.8933 261.815 54.24H254.075C254.129 54.9333 254.349 55.4667 254.735 55.84C255.135 56.2 255.622 56.38 256.195 56.38C257.049 56.38 257.642 56.02 257.975 55.3H261.615C261.429 56.0333 261.089 56.6933 260.595 57.28C260.115 57.8667 259.509 58.3267 258.775 58.66C258.042 58.9933 257.222 59.16 256.315 59.16C255.222 59.16 254.249 58.9267 253.395 58.46C252.542 57.9933 251.875 57.3267 251.395 56.46C250.915 55.5933 250.675 54.58 250.675 53.42C250.675 52.26 250.909 51.2467 251.375 50.38C251.855 49.5133 252.522 48.8467 253.375 48.38C254.229 47.9133 255.209 47.68 256.315 47.68C257.395 47.68 258.355 47.9067 259.195 48.36C260.035 48.8133 260.689 49.46 261.155 50.3C261.635 51.14 261.875 52.12 261.875 53.24ZM258.375 52.34C258.375 51.7533 258.175 51.2867 257.775 50.94C257.375 50.5933 256.875 50.42 256.275 50.42C255.702 50.42 255.215 50.5867 254.815 50.92C254.429 51.2533 254.189 51.7267 254.095 52.34H258.375ZM267.099 49.7C267.499 49.0867 267.999 48.6067 268.599 48.26C269.199 47.9 269.866 47.72 270.599 47.72V51.34H269.659C268.806 51.34 268.166 51.5267 267.739 51.9C267.313 52.26 267.099 52.9 267.099 53.82V59H263.679V47.84H267.099V49.7Z" fill="white"/>
<path d="M112.362 69.016C112.032 69.016 111.754 68.904 111.53 68.68C111.306 68.456 111.194 68.1787 111.194 67.848C111.194 67.5173 111.306 67.24 111.53 67.016C111.754 66.792 112.032 66.68 112.362 66.68C112.682 66.68 112.954 66.792 113.178 67.016C113.402 67.24 113.514 67.5173 113.514 67.848C113.514 68.1787 113.402 68.456 113.178 68.68C112.954 68.904 112.682 69.016 112.362 69.016ZM113.258 70.184V79H111.434V70.184H113.258ZM120.101 70.04C120.794 70.04 121.413 70.184 121.957 70.472C122.512 70.76 122.944 71.1867 123.253 71.752C123.562 72.3173 123.717 73 123.717 73.8V79H121.909V74.072C121.909 73.2827 121.712 72.68 121.317 72.264C120.922 71.8373 120.384 71.624 119.701 71.624C119.018 71.624 118.474 71.8373 118.069 72.264C117.674 72.68 117.477 73.2827 117.477 74.072V79H115.653V70.184H117.477V71.192C117.776 70.8293 118.154 70.5467 118.613 70.344C119.082 70.1413 119.578 70.04 120.101 70.04ZM129.928 70.216C129.992 69.224 130.371 68.4507 131.064 67.896C131.768 67.3413 132.664 67.064 133.752 67.064C134.499 67.064 135.144 67.1973 135.688 67.464C136.232 67.7307 136.643 68.0933 136.92 68.552C137.197 69.0107 137.336 69.528 137.336 70.104C137.336 70.7653 137.16 71.3307 136.808 71.8C136.456 72.2693 136.035 72.584 135.544 72.744V72.808C136.173 73 136.664 73.352 137.016 73.864C137.368 74.3653 137.544 75.0107 137.544 75.8C137.544 76.4293 137.4 76.9893 137.112 77.48C136.824 77.9707 136.397 78.36 135.832 78.648C135.267 78.9253 134.589 79.064 133.8 79.064C132.648 79.064 131.699 78.7707 130.952 78.184C130.216 77.5867 129.821 76.7333 129.768 75.624H131.528C131.571 76.1893 131.789 76.6533 132.184 77.016C132.579 77.368 133.112 77.544 133.784 77.544C134.435 77.544 134.936 77.368 135.288 77.016C135.64 76.6533 135.816 76.1893 135.816 75.624C135.816 74.8773 135.576 74.3493 135.096 74.04C134.627 73.72 133.901 73.56 132.92 73.56H132.504V72.056H132.936C133.8 72.0453 134.456 71.9013 134.904 71.624C135.363 71.3467 135.592 70.9093 135.592 70.312C135.592 69.8 135.427 69.3947 135.096 69.096C134.765 68.7867 134.296 68.632 133.688 68.632C133.091 68.632 132.627 68.7867 132.296 69.096C131.965 69.3947 131.768 69.768 131.704 70.216H129.928ZM147.056 79.144C146.363 79.144 145.739 79.0213 145.184 78.776C144.64 78.52 144.208 78.1787 143.888 77.752C143.568 77.3147 143.398 76.8293 143.376 76.296H145.264C145.296 76.6693 145.472 76.984 145.792 77.24C146.123 77.4853 146.534 77.608 147.024 77.608C147.536 77.608 147.931 77.512 148.208 77.32C148.496 77.1173 148.64 76.8613 148.64 76.552C148.64 76.2213 148.48 75.976 148.16 75.816C147.851 75.656 147.355 75.48 146.672 75.288C146.011 75.1067 145.472 74.9307 145.056 74.76C144.64 74.5893 144.278 74.328 143.968 73.976C143.67 73.624 143.52 73.16 143.52 72.584C143.52 72.1147 143.659 71.688 143.936 71.304C144.214 70.9093 144.608 70.6 145.12 70.376C145.643 70.152 146.24 70.04 146.912 70.04C147.915 70.04 148.72 70.296 149.328 70.808C149.947 71.3093 150.278 71.9973 150.32 72.872H148.496C148.464 72.4773 148.304 72.1627 148.016 71.928C147.728 71.6933 147.339 71.576 146.848 71.576C146.368 71.576 146 71.6667 145.744 71.848C145.488 72.0293 145.36 72.2693 145.36 72.568C145.36 72.8027 145.446 73 145.616 73.16C145.787 73.32 145.995 73.448 146.24 73.544C146.486 73.6293 146.848 73.7413 147.328 73.88C147.968 74.0507 148.491 74.2267 148.896 74.408C149.312 74.5787 149.67 74.8347 149.968 75.176C150.267 75.5173 150.422 75.9707 150.432 76.536C150.432 77.0373 150.294 77.4853 150.016 77.88C149.739 78.2747 149.344 78.584 148.832 78.808C148.331 79.032 147.739 79.144 147.056 79.144ZM153.331 69.016C153 69.016 152.723 68.904 152.499 68.68C152.275 68.456 152.163 68.1787 152.163 67.848C152.163 67.5173 152.275 67.24 152.499 67.016C152.723 66.792 153 66.68 153.331 66.68C153.651 66.68 153.923 66.792 154.147 67.016C154.371 67.24 154.483 67.5173 154.483 67.848C154.483 68.1787 154.371 68.456 154.147 68.68C153.923 68.904 153.651 69.016 153.331 69.016ZM154.227 70.184V79H152.403V70.184H154.227ZM167.294 70.04C167.987 70.04 168.606 70.184 169.15 70.472C169.705 70.76 170.137 71.1867 170.446 71.752C170.766 72.3173 170.926 73 170.926 73.8V79H169.118V74.072C169.118 73.2827 168.921 72.68 168.526 72.264C168.131 71.8373 167.593 71.624 166.91 71.624C166.227 71.624 165.683 71.8373 165.278 72.264C164.883 72.68 164.686 73.2827 164.686 74.072V79H162.878V74.072C162.878 73.2827 162.681 72.68 162.286 72.264C161.891 71.8373 161.353 71.624 160.67 71.624C159.987 71.624 159.443 71.8373 159.038 72.264C158.643 72.68 158.446 73.2827 158.446 74.072V79H156.622V70.184H158.446V71.192C158.745 70.8293 159.123 70.5467 159.582 70.344C160.041 70.1413 160.531 70.04 161.054 70.04C161.758 70.04 162.387 70.1893 162.942 70.488C163.497 70.7867 163.923 71.2187 164.222 71.784C164.489 71.2507 164.905 70.8293 165.47 70.52C166.035 70.2 166.643 70.04 167.294 70.04ZM175.071 71.48C175.38 71.0747 175.802 70.7333 176.335 70.456C176.868 70.1787 177.471 70.04 178.143 70.04C178.911 70.04 179.61 70.232 180.239 70.616C180.879 70.9893 181.38 71.5173 181.743 72.2C182.106 72.8827 182.287 73.6667 182.287 74.552C182.287 75.4373 182.106 76.232 181.743 76.936C181.38 77.6293 180.879 78.1733 180.239 78.568C179.61 78.952 178.911 79.144 178.143 79.144C177.471 79.144 176.874 79.0107 176.351 78.744C175.828 78.4667 175.402 78.1253 175.071 77.72V83.192H173.247V70.184H175.071V71.48ZM180.431 74.552C180.431 73.944 180.303 73.4213 180.047 72.984C179.802 72.536 179.471 72.2 179.055 71.976C178.65 71.7413 178.212 71.624 177.743 71.624C177.284 71.624 176.847 71.7413 176.431 71.976C176.026 72.2107 175.695 72.552 175.439 73C175.194 73.448 175.071 73.976 175.071 74.584C175.071 75.192 175.194 75.7253 175.439 76.184C175.695 76.632 176.026 76.9733 176.431 77.208C176.847 77.4427 177.284 77.56 177.743 77.56C178.212 77.56 178.65 77.4427 179.055 77.208C179.471 76.9627 179.802 76.6107 180.047 76.152C180.303 75.6933 180.431 75.16 180.431 74.552ZM185.915 67.16V79H184.091V67.16H185.915ZM196.389 74.376C196.389 74.7067 196.368 75.0053 196.325 75.272H189.589C189.643 75.976 189.904 76.5413 190.373 76.968C190.843 77.3947 191.419 77.608 192.101 77.608C193.083 77.608 193.776 77.1973 194.181 76.376H196.149C195.883 77.1867 195.397 77.8533 194.693 78.376C194 78.888 193.136 79.144 192.101 79.144C191.259 79.144 190.501 78.9573 189.829 78.584C189.168 78.2 188.645 77.6667 188.261 76.984C187.888 76.2907 187.701 75.4907 187.701 74.584C187.701 73.6773 187.883 72.8827 188.245 72.2C188.619 71.5067 189.136 70.9733 189.797 70.6C190.469 70.2267 191.237 70.04 192.101 70.04C192.933 70.04 193.675 70.2213 194.325 70.584C194.976 70.9467 195.483 71.4587 195.845 72.12C196.208 72.7707 196.389 73.5227 196.389 74.376ZM194.485 73.8C194.475 73.128 194.235 72.5893 193.765 72.184C193.296 71.7787 192.715 71.576 192.021 71.576C191.392 71.576 190.853 71.7787 190.405 72.184C189.957 72.5787 189.691 73.1173 189.605 73.8H194.485ZM205.541 79.144C204.847 79.144 204.223 79.0213 203.669 78.776C203.125 78.52 202.693 78.1787 202.373 77.752C202.053 77.3147 201.882 76.8293 201.861 76.296H203.749C203.781 76.6693 203.957 76.984 204.277 77.24C204.607 77.4853 205.018 77.608 205.509 77.608C206.021 77.608 206.415 77.512 206.693 77.32C206.981 77.1173 207.125 76.8613 207.125 76.552C207.125 76.2213 206.965 75.976 206.645 75.816C206.335 75.656 205.839 75.48 205.157 75.288C204.495 75.1067 203.957 74.9307 203.541 74.76C203.125 74.5893 202.762 74.328 202.453 73.976C202.154 73.624 202.005 73.16 202.005 72.584C202.005 72.1147 202.143 71.688 202.421 71.304C202.698 70.9093 203.093 70.6 203.605 70.376C204.127 70.152 204.725 70.04 205.397 70.04C206.399 70.04 207.205 70.296 207.813 70.808C208.431 71.3093 208.762 71.9973 208.805 72.872H206.981C206.949 72.4773 206.789 72.1627 206.501 71.928C206.213 71.6933 205.823 71.576 205.333 71.576C204.853 71.576 204.485 71.6667 204.229 71.848C203.973 72.0293 203.845 72.2693 203.845 72.568C203.845 72.8027 203.93 73 204.101 73.16C204.271 73.32 204.479 73.448 204.725 73.544C204.97 73.6293 205.333 73.7413 205.813 73.88C206.453 74.0507 206.975 74.2267 207.381 74.408C207.797 74.5787 208.154 74.8347 208.453 75.176C208.751 75.5173 208.906 75.9707 208.917 76.536C208.917 77.0373 208.778 77.4853 208.501 77.88C208.223 78.2747 207.829 78.584 207.317 78.808C206.815 79.032 206.223 79.144 205.541 79.144ZM213.016 71.672V76.552C213.016 76.8827 213.09 77.1227 213.24 77.272C213.4 77.4107 213.666 77.48 214.04 77.48H215.16V79H213.72C212.898 79 212.269 78.808 211.832 78.424C211.394 78.04 211.176 77.416 211.176 76.552V71.672H210.136V70.184H211.176V67.992H213.016V70.184H215.16V71.672H213.016ZM224.921 74.376C224.921 74.7067 224.899 75.0053 224.857 75.272H218.121C218.174 75.976 218.435 76.5413 218.905 76.968C219.374 77.3947 219.95 77.608 220.633 77.608C221.614 77.608 222.307 77.1973 222.713 76.376H224.681C224.414 77.1867 223.929 77.8533 223.225 78.376C222.531 78.888 221.667 79.144 220.633 79.144C219.79 79.144 219.033 78.9573 218.361 78.584C217.699 78.2 217.177 77.6667 216.793 76.984C216.419 76.2907 216.233 75.4907 216.233 74.584C216.233 73.6773 216.414 72.8827 216.777 72.2C217.15 71.5067 217.667 70.9733 218.329 70.6C219.001 70.2267 219.769 70.04 220.633 70.04C221.465 70.04 222.206 70.2213 222.857 70.584C223.507 70.9467 224.014 71.4587 224.377 72.12C224.739 72.7707 224.921 73.5227 224.921 74.376ZM223.017 73.8C223.006 73.128 222.766 72.5893 222.297 72.184C221.827 71.7787 221.246 71.576 220.553 71.576C219.923 71.576 219.385 71.7787 218.937 72.184C218.489 72.5787 218.222 73.1173 218.137 73.8H223.017ZM228.54 71.48C228.849 71.0747 229.27 70.7333 229.804 70.456C230.337 70.1787 230.94 70.04 231.612 70.04C232.38 70.04 233.078 70.232 233.708 70.616C234.348 70.9893 234.849 71.5173 235.212 72.2C235.574 72.8827 235.756 73.6667 235.756 74.552C235.756 75.4373 235.574 76.232 235.212 76.936C234.849 77.6293 234.348 78.1733 233.708 78.568C233.078 78.952 232.38 79.144 231.612 79.144C230.94 79.144 230.342 79.0107 229.82 78.744C229.297 78.4667 228.87 78.1253 228.54 77.72V83.192H226.716V70.184H228.54V71.48ZM233.9 74.552C233.9 73.944 233.772 73.4213 233.516 72.984C233.27 72.536 232.94 72.2 232.524 71.976C232.118 71.7413 231.681 71.624 231.212 71.624C230.753 71.624 230.316 71.7413 229.9 71.976C229.494 72.2107 229.164 72.552 228.908 73C228.662 73.448 228.54 73.976 228.54 74.584C228.54 75.192 228.662 75.7253 228.908 76.184C229.164 76.632 229.494 76.9733 229.9 77.208C230.316 77.4427 230.753 77.56 231.212 77.56C231.681 77.56 232.118 77.4427 232.524 77.208C232.94 76.9627 233.27 76.6107 233.516 76.152C233.772 75.6933 233.9 75.16 233.9 74.552ZM240.759 79.144C240.066 79.144 239.442 79.0213 238.887 78.776C238.343 78.52 237.911 78.1787 237.591 77.752C237.271 77.3147 237.101 76.8293 237.079 76.296H238.967C238.999 76.6693 239.175 76.984 239.495 77.24C239.826 77.4853 240.237 77.608 240.727 77.608C241.239 77.608 241.634 77.512 241.911 77.32C242.199 77.1173 242.343 76.8613 242.343 76.552C242.343 76.2213 242.183 75.976 241.863 75.816C241.554 75.656 241.058 75.48 240.375 75.288C239.714 75.1067 239.175 74.9307 238.759 74.76C238.343 74.5893 237.981 74.328 237.671 73.976C237.373 73.624 237.223 73.16 237.223 72.584C237.223 72.1147 237.362 71.688 237.639 71.304C237.917 70.9093 238.311 70.6 238.823 70.376C239.346 70.152 239.943 70.04 240.615 70.04C241.618 70.04 242.423 70.296 243.031 70.808C243.65 71.3093 243.981 71.9973 244.023 72.872H242.199C242.167 72.4773 242.007 72.1627 241.719 71.928C241.431 71.6933 241.042 71.576 240.551 71.576C240.071 71.576 239.703 71.6667 239.447 71.848C239.191 72.0293 239.063 72.2693 239.063 72.568C239.063 72.8027 239.149 73 239.319 73.16C239.49 73.32 239.698 73.448 239.943 73.544C240.189 73.6293 240.551 73.7413 241.031 73.88C241.671 74.0507 242.194 74.2267 242.599 74.408C243.015 74.5787 243.373 74.8347 243.671 75.176C243.97 75.5173 244.125 75.9707 244.135 76.536C244.135 77.0373 243.997 77.4853 243.719 77.88C243.442 78.2747 243.047 78.584 242.535 78.808C242.034 79.032 241.442 79.144 240.759 79.144ZM246.842 79.112C246.512 79.112 246.234 79 246.01 78.776C245.786 78.552 245.674 78.2747 245.674 77.944C245.674 77.6133 245.786 77.336 246.01 77.112C246.234 76.888 246.512 76.776 246.842 76.776C247.162 76.776 247.434 76.888 247.658 77.112C247.882 77.336 247.994 77.6133 247.994 77.944C247.994 78.2747 247.882 78.552 247.658 78.776C247.434 79 247.162 79.112 246.842 79.112Z" fill="white"/>
<path d="M179.921 186.012C190.346 173.829 222.273 152.592 266.582 165.107" stroke="white" stroke-width="2.64597" stroke-linecap="round" stroke-dasharray="8.82 8.82"/>
<path d="M43.3425 218C51.0462 232.063 77.937 259.399 123.871 256.242" stroke="white" stroke-width="2.64597" stroke-linecap="round" stroke-dasharray="8.82 8.82"/>
</svg>
