<svg width="111" height="111" viewBox="0 0 111 111" fill="none" xmlns="http://www.w3.org/2000/svg">
<g id="Avatar/Photo">
<g id="Capa 1">
<path id="Vector" d="M82.832 82.8428C98.0198 67.655 98.0198 43.0306 82.832 27.8428C67.6442 12.6549 43.0199 12.655 27.832 27.8428C12.6442 43.0306 12.6442 67.6549 27.832 82.8428C43.0199 98.0306 67.6442 98.0306 82.832 82.8428Z" fill="#E2F3FF"/>
<g id="Clip path group">
<mask id="mask0_545_5873" style="mask-type:luminance" maskUnits="userSpaceOnUse" x="16" y="16" width="79" height="79">
<g id="clip-path">
<path id="Vector_2" d="M82.832 82.8428C98.0198 67.655 98.0198 43.0306 82.832 27.8428C67.6442 12.6549 43.0199 12.655 27.832 27.8428C12.6442 43.0306 12.6442 67.6549 27.832 82.8428C43.0199 98.0306 67.6442 98.0306 82.832 82.8428Z" fill="white"/>
</g>
</mask>
<g mask="url(#mask0_545_5873)">
<g id="Group">
<path id="Vector_3" d="M62.7762 68.1475H47.8828V78.1805H62.7762V68.1475Z" fill="#FBBCA0"/>
<g id="Vector_4" style="mix-blend-mode:multiply">
<path d="M51.4962 75.4084C53.7622 76.3181 56.1746 76.8091 58.6159 76.8576C60.0127 76.8478 61.4057 76.711 62.7778 76.4488V68.1475H47.9141V73.3498C48.9855 74.2301 50.1961 74.9259 51.4962 75.4084Z" fill="#E6E7E8"/>
</g>
<path id="Vector_5" d="M70.8789 49.5602C71.0746 49.097 71.3932 48.6961 71.8004 48.4009C72.3875 47.955 72.9821 48.4009 73.153 48.9954C73.2821 49.5362 73.3519 50.0894 73.3611 50.6453C73.4727 51.9469 73.2367 53.2549 72.6774 54.4355C72.2848 55.219 71.6959 55.8873 70.968 56.3753C70.8761 56.4319 70.7709 56.463 70.663 56.4656C70.5551 56.4682 70.4484 56.442 70.3539 56.3899C70.2594 56.3377 70.1805 56.2614 70.1252 56.1688C70.0699 56.0761 70.0401 55.9704 70.0391 55.8625C70.0391 55.8625 70.8789 49.5677 70.8789 49.5602Z" fill="#FBBCA0"/>
<path id="Vector_6" d="M70.7582 50.3558C70.7582 50.0957 71.2264 49.6646 71.4122 49.5234C71.8359 49.2039 72.2595 49.5234 72.3858 49.9471C72.4764 50.3347 72.5262 50.7307 72.5344 51.1287C72.6117 52.0603 72.4425 52.9958 72.0439 53.8413C71.7597 54.3991 71.3376 54.875 70.8177 55.2236C70.7525 55.2649 70.6774 55.2879 70.6004 55.2902C70.5233 55.2925 70.447 55.2741 70.3794 55.2369C70.3118 55.1997 70.2555 55.1451 70.2162 55.0787C70.177 55.0123 70.1563 54.9366 70.1562 54.8595L70.7582 50.3558Z" fill="#DDA78F"/>
<path id="Vector_7" d="M39.4037 49.5602C39.208 49.097 38.8894 48.6961 38.4822 48.4009C37.8951 47.955 37.3005 48.4009 37.1222 48.9954C36.9994 49.5371 36.9322 50.0899 36.9215 50.6453C36.8099 51.9469 37.0458 53.2549 37.6052 54.4355C37.9954 55.2205 38.5849 55.8894 39.3146 56.3753C39.4065 56.4319 39.5117 56.463 39.6196 56.4656C39.7275 56.4682 39.8342 56.442 39.9287 56.3899C40.0232 56.3377 40.1021 56.2614 40.1574 56.1688C40.2128 56.0761 40.2425 55.9704 40.2435 55.8625C40.2435 55.8625 39.4037 49.5677 39.4037 49.5602Z" fill="#FBBCA0"/>
<path id="Vector_8" d="M39.5249 50.3558C39.3857 50.0246 39.1598 49.7371 38.8709 49.5234C38.4473 49.2039 38.0237 49.5234 37.8973 49.9471C37.8068 50.3347 37.757 50.7307 37.7487 51.1287C37.6714 52.0603 37.8406 52.9958 38.2392 53.8413C38.5209 54.4008 38.9435 54.8773 39.4655 55.2236C39.5306 55.2649 39.6057 55.2879 39.6828 55.2902C39.7599 55.2925 39.8362 55.2741 39.9038 55.2369C39.9713 55.1997 40.0277 55.1451 40.0669 55.0787C40.1062 55.0123 40.1269 54.9366 40.1269 54.8595L39.5249 50.3558Z" fill="#DDA78F"/>
<path id="Vector_9" d="M71.362 50.75C71.4768 54.8848 70.5788 58.9849 68.746 62.693C67.0474 65.7247 64.7 68.3437 61.8715 70.3627C59.6866 71.9977 57.3455 73.8928 54.5735 73.6624C51.8014 73.432 49.4455 70.9052 47.3423 68.9432C44.3028 66.136 41.9875 62.6351 40.5942 58.7393C39.714 56.1761 39.2743 53.4823 39.2936 50.7723C39.2936 37.343 46.4728 28.9004 55.3241 28.9004C64.1754 28.9004 71.362 37.3207 71.362 50.75Z" fill="#FBBCA0"/>
<path id="Vector_10" d="M81.342 82.7212L62.7624 77.8682H47.8987L29.3191 82.7212C26.6752 83.8633 24.3902 85.7007 22.7073 88.0379C21.0244 90.3751 20.0065 93.1248 19.7617 95.9945H90.8994C90.6546 93.1248 89.6367 90.3751 87.9538 88.0379C86.2708 85.7007 83.9859 83.8633 81.342 82.7212Z" fill="#FBBCA0"/>
<path id="Vector_11" d="M81.342 82.7212L62.7624 77.8682H47.8987L29.3191 82.7212C26.6752 83.8633 24.3902 85.7007 22.7073 88.0379C21.0244 90.3751 20.0065 93.1248 19.7617 95.9945H90.8994C90.6546 93.1248 89.6367 90.3751 87.9538 88.0379C86.2708 85.7007 83.9859 83.8633 81.342 82.7212Z" fill="white"/>
<path id="Vector_12" d="M81.342 82.7215L67.6005 79.1319L55.3305 95.9947L43.1943 79.0947L29.3191 82.7215C26.6752 83.8636 24.3902 85.701 22.7073 88.0382C21.0244 90.3754 20.0065 93.1251 19.7617 95.9947H90.8994C90.6546 93.1251 89.6367 90.3754 87.9538 88.0382C86.2708 85.701 83.9859 83.8636 81.342 82.7215Z" fill="#3C0000"/>
<path id="Vector_13" d="M53.7038 87.5449L50.2852 95.9949H60.006L56.6691 87.5449H53.7038Z" fill="#14BAAB"/>
<path id="Vector_14" d="M55.109 78.0322L50.7539 83.8737L53.7787 87.5673L55.265 87.545L56.744 87.5227L59.6498 83.7325L55.109 78.0322Z" fill="#14BAAB"/>
<g id="Vector_15" style="mix-blend-mode:multiply">
<path d="M57.9847 83.108C57.4273 84.208 56.3943 85.4639 55.012 85.1518C54.6844 85.0786 54.3755 84.9383 54.1048 84.7398C53.8341 84.5412 53.6075 84.2888 53.4392 83.9983C53.2709 83.7078 53.1647 83.3857 53.1271 83.0521C53.0895 82.7185 53.1214 82.3808 53.2209 82.0602C53.5479 80.7001 54.4323 79.5631 54.9228 78.2773L50.7461 83.8735L53.7708 87.5895L56.7436 87.5449L59.6494 83.7472L58.4157 82.2088C58.2968 82.5209 58.1631 82.8108 57.9847 83.108Z" fill="#D1D3D4"/>
</g>
<path id="Vector_16" d="M55.3305 95.9948L43.1943 79.0947L33.4883 81.6364L45.892 90.3688L42.7038 91.7735L48.4412 95.9948H55.3305Z" fill="#270000"/>
<path id="Vector_17" d="M55.332 96.0172L67.4757 79.1172L77.1817 81.6589L64.7779 90.3913L67.9662 91.7959L62.2288 96.0172H55.332Z" fill="#270000"/>
<path id="Vector_18" d="M40.5781 78.2253L47.8613 74.8066L55.2783 77.9057L62.7027 74.8066L70.4839 78.2253L59.4847 85.5903L55.2783 79.5705L50.7523 85.5903L40.5781 78.2253Z" fill="#E2E3E4"/>
<path id="Vector_19" d="M64.7165 67.9397C64.7165 67.9397 68.7371 64.1346 69.6289 60.7754C69.6289 60.7754 64.88 65.0562 63.2227 64.6028L64.7165 67.9397Z" fill="#150000"/>
<path id="Vector_20" d="M47.0666 69.0767C47.0666 69.0767 42.3994 65.0784 41.1211 60.0693C41.1211 60.0693 46.4423 66.2155 48.0922 65.7621L47.0666 69.0767Z" fill="#150000"/>
<path id="Vector_21" d="M58.171 62.4547C59.5851 62.4193 60.9846 62.7468 62.2362 63.406C64.5549 64.4911 65.142 67.4638 65.142 67.4638C64.0828 68.5892 62.8955 69.5869 61.6045 70.4365C57.2197 74.0781 55.1982 73.6174 55.1982 73.6174C53.6462 73.5893 52.1487 73.0395 50.9472 72.0567L46.8374 68.8982C46.7146 67.8264 46.9022 66.7418 47.3778 65.7735C47.8534 64.8052 48.597 63.9938 49.5203 63.4358C51.4377 62.4993 51.7498 62.6257 51.7498 62.6257C51.7498 62.6257 54.6186 62.2912 55.3246 63.4283C55.3246 63.4283 56.0678 62.4845 57.9926 62.4845" fill="#1E0500"/>
<path id="Vector_22" d="M55.7521 65.5024C54.3149 64.9365 52.7125 64.9605 51.293 65.5692C51.293 65.5692 55.2764 69.7905 59.795 65.6213C59.7876 65.6213 57.3648 64.4916 55.7521 65.5024Z" fill="#FBBCA0"/>
<path id="Vector_23" d="M71.4953 30.9438C72.5434 30.1824 73.3861 29.1727 73.9478 28.0053C74.5094 26.8379 74.7725 25.5493 74.7133 24.2552C73.3218 25.6848 71.4891 26.6037 69.511 26.8637C72.6919 24.9538 71.1163 20.9703 71.1163 20.9703C70.1205 23.1998 65.6836 24.4781 65.6836 24.4781C67.8389 23.0438 66.4937 19.7738 66.4937 19.7738C65.0073 22.3229 60.5111 23.4377 60.5111 23.4377C63.4838 21.7655 63.7737 19.3799 63.7737 19.3799C61.1428 21.6912 53.9785 22.806 53.9785 22.806C53.9785 22.806 46.0784 23.5491 44.1164 30.0817C38.3418 30.9141 38.2898 40.6796 38.6912 45.9487L39.0553 52.3253H40.341C40.0228 49.9378 40.0228 47.5187 40.341 45.1312C40.8622 43.115 41.4974 41.13 42.2436 39.1858C43.611 36.213 45.744 35.2915 47.1114 35.0239L48.4046 34.9273C54.0602 34.0949 55.7249 38.1081 55.7249 38.1081C56.6019 35.8043 59.5523 35.2469 59.5523 35.2469C68.1584 34.095 69.3921 40.9025 69.3921 40.9025L70.3583 45.2279C70.6176 47.5931 70.5926 49.9809 70.2839 52.3401H71.5697L71.9338 45.9636C71.9338 45.7704 71.9338 45.5994 71.9338 45.4359C72.6027 41.8835 73.1749 36.0941 71.4953 30.9438Z" fill="#150000"/>
</g>
</g>
</g>
</g>
</g>
</svg>
