<svg width="65" height="64" viewBox="0 0 65 64" fill="none" xmlns="http://www.w3.org/2000/svg">
<rect x="0.148438" width="64" height="64" rx="10.3201" fill="white"/>
<path d="M39.2922 17.6215C39.2922 17.2132 39.4544 16.8215 39.7432 16.5328C40.0319 16.2441 40.4235 16.0818 40.8318 16.0818H43.9111V13.0026C43.9111 12.5942 44.0733 12.2026 44.3621 11.9139C44.6508 11.6251 45.0424 11.4629 45.4508 11.4629C45.8591 11.4629 46.2507 11.6251 46.5395 11.9139C46.8282 12.2026 46.9904 12.5942 46.9904 13.0026V16.0818H50.0697C50.4781 16.0818 50.8697 16.2441 51.1584 16.5328C51.4471 16.8215 51.6094 17.2132 51.6094 17.6215C51.6094 18.0298 51.4471 18.4214 51.1584 18.7102C50.8697 18.9989 50.4781 19.1611 50.0697 19.1611H46.9904V22.2404C46.9904 22.6488 46.8282 23.0404 46.5395 23.3291C46.2507 23.6179 45.8591 23.7801 45.4508 23.7801C45.0424 23.7801 44.6508 23.6179 44.3621 23.3291C44.0733 23.0404 43.9111 22.6488 43.9111 22.2404V19.1611H40.8318C40.4235 19.1611 40.0319 18.9989 39.7432 18.7102C39.4544 18.4214 39.2922 18.0298 39.2922 17.6215ZM51.3322 28.145C52.0356 32.3262 51.392 36.6227 49.4943 40.4143C47.5966 44.2059 44.5431 47.2963 40.7745 49.2393C37.0059 51.1823 32.7174 51.8773 28.528 51.2241C24.3387 50.5708 20.4654 48.6031 17.4673 45.605C14.4691 42.6069 12.5014 38.7336 11.8482 34.5442C11.195 30.3549 11.89 26.0663 13.833 22.2978C15.776 18.5292 18.8664 15.4756 22.6579 13.5779C26.4495 11.6803 30.7461 11.0367 34.9273 11.74C35.327 11.8107 35.6826 12.0364 35.9167 12.3679C36.1509 12.6994 36.2447 13.1099 36.1777 13.5102C36.1108 13.9105 35.8884 14.2682 35.5591 14.5054C35.2298 14.7427 34.8201 14.8403 34.4192 14.777C31.9907 14.3685 29.5023 14.494 27.1272 15.145C24.7522 15.7959 22.5475 16.9566 20.6666 18.5462C18.7857 20.1359 17.2738 22.1163 16.2361 24.3496C15.1984 26.583 14.6598 29.0156 14.6579 31.4783C14.6542 35.6242 16.178 39.6261 18.9381 42.7196C20.6553 40.2313 23.0698 38.3063 25.8781 37.1865C24.3696 35.9984 23.2688 34.3697 22.7288 32.527C22.1889 30.6842 22.2366 28.719 22.8653 26.9047C23.494 25.0903 24.6725 23.517 26.2369 22.4034C27.8013 21.2899 29.6738 20.6915 31.594 20.6915C33.5142 20.6915 35.3867 21.2899 36.951 22.4034C38.5154 23.517 39.6939 25.0903 40.3226 26.9047C40.9514 28.719 40.9991 30.6842 40.4591 32.527C39.9192 34.3697 38.8184 35.9984 37.3099 37.1865C40.1182 38.3063 42.5327 40.2313 44.2499 42.7196C47.01 39.6261 48.5337 35.6242 48.5301 31.4783C48.5301 30.5317 48.4516 29.5867 48.2953 28.653C48.2599 28.4528 48.2645 28.2474 48.3088 28.049C48.3532 27.8505 48.4365 27.6627 48.5538 27.4966C48.6712 27.3305 48.8203 27.1893 48.9925 27.0811C49.1648 26.9729 49.3567 26.8999 49.5573 26.8664C49.7579 26.8328 49.9632 26.8393 50.1613 26.8856C50.3593 26.9318 50.5463 27.0168 50.7113 27.1357C50.8763 27.2545 51.0162 27.405 51.1228 27.5782C51.2293 27.7514 51.3005 27.9441 51.3322 28.145ZM31.594 36.0972C32.812 36.0972 34.0027 35.736 35.0155 35.0593C36.0283 34.3826 36.8176 33.4208 37.2838 32.2954C37.7499 31.1701 37.8719 29.9318 37.6342 28.7372C37.3966 27.5425 36.81 26.4452 35.9488 25.5839C35.0875 24.7226 33.9901 24.136 32.7955 23.8984C31.6008 23.6608 30.3625 23.7827 29.2372 24.2489C28.1119 24.715 27.15 25.5043 26.4733 26.5171C25.7966 27.5299 25.4354 28.7206 25.4354 29.9386C25.4354 31.572 26.0843 33.1385 27.2392 34.2934C28.3942 35.4484 29.9606 36.0972 31.594 36.0972ZM31.594 48.4144C35.3533 48.4182 39.006 47.1649 41.9712 44.8539C40.8574 43.112 39.323 41.6785 37.5094 40.6855C35.6959 39.6925 33.6616 39.172 31.594 39.172C29.5264 39.172 27.4921 39.6925 25.6785 40.6855C23.865 41.6785 22.3306 43.112 21.2168 44.8539C24.1819 47.1649 27.8346 48.4182 31.594 48.4144Z" fill="#FF7A22"/>
</svg>
