<svg width="88" height="88" viewBox="0 0 88 88" fill="none" xmlns="http://www.w3.org/2000/svg">
<circle cx="44" cy="44" r="44" fill="#FE3152"/>
<path d="M32.8676 20.0001C28.3265 19.9837 24.6232 23.6555 24.6019 28.1933C24.5866 29.8304 25.0543 31.4353 25.9458 32.8047C26.8373 34.1741 28.1126 35.2464 29.61 35.8858C31.1075 36.5252 32.7598 36.703 34.3577 36.3966C35.9556 36.0902 37.4272 35.3134 38.5861 34.1646C39.7451 33.0158 40.5392 31.5466 40.868 29.9432C41.1968 28.3398 41.0454 26.6743 40.4331 25.1575C39.8207 23.6408 38.7749 22.341 37.4282 21.4229C36.0814 20.5048 34.4942 20.0096 32.8676 20.0001ZM34.1713 25.8475H35.5915C35.5614 25.8979 35.5414 25.932 35.5213 25.9635C35.3961 26.15 35.2834 26.3416 35.1569 26.5194C35.1224 26.5626 35.0726 26.5907 35.0179 26.5975C34.7774 26.6101 34.5357 26.6126 34.294 26.6177H34.18C33.8669 28.0383 32.8362 28.4794 31.5501 28.603L31.6503 28.729C32.5419 29.8475 33.4328 30.9656 34.3228 32.0832C34.3591 32.1403 34.3881 32.2017 34.4092 32.266L34.3779 32.3151C34.0222 32.3151 33.6666 32.3151 33.3109 32.3151C33.2605 32.3037 33.2159 32.2742 33.1857 32.232C32.4868 31.4009 31.7897 30.5694 31.0942 29.7374C30.8437 29.4374 30.5933 29.1399 30.3428 28.8362C30.3026 28.7839 30.279 28.7206 30.2752 28.6547C30.2664 28.458 30.2752 28.2626 30.2752 28.0521C30.3202 28.0521 30.3691 28.0521 30.4179 28.0521C31.0115 28.0849 31.5964 28.0521 32.155 27.8227C32.5745 27.6475 32.8888 27.3677 33.0041 26.9051C33.0195 26.8386 33.0312 26.7712 33.0391 26.7034C33.0418 26.669 33.0418 26.6344 33.0391 26.6H29.9971C30.1712 26.3404 30.3265 26.1047 30.4893 25.874C30.5081 25.8475 30.5732 25.8463 30.6145 25.8463C31.3397 25.8463 32.0648 25.8463 32.7887 25.8463H32.9414C32.8419 25.6219 32.6727 25.4361 32.4593 25.3168C32.1319 25.1243 31.7589 25.0242 31.3797 25.0269C30.9389 25.0269 30.5031 25.0269 30.0172 25.0269C30.1562 24.8177 30.2827 24.6488 30.3804 24.4723C30.4151 24.4019 30.4709 24.3441 30.5398 24.3071C30.6087 24.27 30.6873 24.2555 30.7648 24.2656C32.309 24.2656 33.8519 24.2656 35.3986 24.2568H35.6002C35.4349 24.5089 35.2871 24.7458 35.1293 24.9765C35.1105 25.003 35.0467 25.0068 35.0041 25.008H33.7805L34.1713 25.8475Z" fill="white"/>
<path d="M56.9388 47.6957C56.9388 43.3873 56.9388 39.0793 56.9388 34.7717C56.9388 33.723 57.2381 33.4192 58.2725 33.418C59.3521 33.418 60.4316 33.418 61.5124 33.418C62.3678 33.418 62.7197 33.7671 62.7209 34.6129C62.7209 43.323 62.7209 52.0335 62.7209 60.7444C62.7209 61.5839 62.3891 61.9129 61.5525 61.9166C60.4095 61.9166 59.2669 61.9166 58.1247 61.9166C57.2569 61.9166 56.94 61.5952 56.9388 60.7129C56.9371 56.3742 56.9371 52.0351 56.9388 47.6957Z" fill="white"/>
<path d="M52.0113 50.4286C52.0113 53.8243 52.0113 57.2201 52.0113 60.6159C52.0113 61.6243 51.7245 61.918 50.7351 61.918C49.608 61.918 48.4808 61.918 47.3537 61.918C46.5747 61.918 46.2266 61.5764 46.2266 60.7974C46.2266 53.8798 46.2266 46.9618 46.2266 40.0433C46.2266 39.2555 46.5923 38.8975 47.3838 38.8937C48.5259 38.887 49.6685 38.887 50.8115 38.8937C51.6593 38.8937 52.0075 39.2479 52.0087 40.1013C52.0121 43.5424 52.0129 46.9849 52.0113 50.4286Z" fill="white"/>
<path d="M35.5133 53.451C35.5133 51.0443 35.5133 48.6384 35.5133 46.2334C35.5133 45.2956 35.8177 44.9905 36.7532 44.9893C37.8953 44.9893 39.0375 44.9893 40.1809 44.9893C40.9499 44.9893 41.2955 45.3372 41.2955 46.1237C41.2955 51.0136 41.2955 55.9035 41.2955 60.7934C41.2955 61.5749 40.9499 61.914 40.1746 61.9178C38.9999 61.9237 37.826 61.9237 36.653 61.9178C35.844 61.9178 35.5158 61.5837 35.5146 60.7632C35.5112 58.3254 35.5108 55.888 35.5133 53.451Z" fill="white"/>
<path d="M43.7618 66.9894H24.1848C23.2919 66.9894 22.8298 66.3844 23.0577 65.5298C23.0999 65.3355 23.2042 65.1606 23.3546 65.0317C23.505 64.9028 23.6933 64.8272 23.8905 64.8163C23.9998 64.8107 24.1093 64.8107 24.2186 64.8163C37.2433 64.8163 50.2654 64.8121 63.285 64.8037C64.337 64.8037 64.6326 65.56 64.451 66.2747C64.4105 66.4697 64.3069 66.6456 64.1564 66.7749C64.0059 66.9043 63.817 66.9797 63.6194 66.9894C63.4635 67.0008 63.3072 67.0033 63.151 66.997L43.7618 66.9894Z" fill="white"/>
<path d="M30.5855 56.3672C30.5855 57.7978 30.5855 59.2285 30.5855 60.6604C30.5855 61.6083 30.2837 61.9209 29.3594 61.9209C28.2172 61.9209 27.0751 61.9209 25.9317 61.9209C25.1514 61.9209 24.8045 61.5793 24.8045 60.8041C24.7995 57.8487 24.7995 54.8924 24.8045 51.9352C24.8045 51.1865 25.1489 50.8209 25.8866 50.8121C27.0914 50.797 28.2966 50.797 29.5022 50.8121C30.2373 50.8222 30.5792 51.184 30.583 51.9365C30.5917 53.4113 30.5855 54.8886 30.5855 56.3672Z" fill="white"/>
</svg>
