<svg width="88" height="88" viewBox="0 0 88 88" fill="none" xmlns="http://www.w3.org/2000/svg">
<circle cx="44" cy="44" r="44" fill="#FE3152"/>
<g clip-path="url(#clip0_545_5678)">
<path d="M32.0849 56.3417C30.2491 53.1696 28.4396 50.0451 26.6094 46.8811C26.8124 46.7628 27.0016 46.6499 27.1935 46.5411C29.2644 45.3699 31.3325 44.1932 33.4089 43.0316C35.3727 41.9325 37.374 41.6006 39.5784 42.4589C42.388 43.5751 45.29 44.4543 48.2527 45.0869C50.083 45.4651 50.8507 47.6497 49.7826 49.1528C49.2569 49.8927 48.3696 50.192 47.3849 49.9403C45.4906 49.4534 43.6006 48.9555 41.7091 48.4658C41.0777 48.3026 40.6451 48.5012 40.5061 49.0099C40.3781 49.4765 40.6604 49.8682 41.2654 50.0274C43.1875 50.5361 45.1082 51.0571 47.0386 51.5373C48.5253 51.9086 49.8201 51.5522 50.8465 50.4042C50.9208 50.312 51.0107 50.2329 51.1122 50.1702C53.3662 48.946 55.6225 47.724 57.8811 46.5043C59.7893 45.4705 61.6626 44.3646 63.6209 43.4301C64.4136 43.052 65.3858 42.9228 66.2842 42.8956C67.6221 42.852 68.5734 43.6451 68.8864 44.8217C69.2327 46.1262 68.7584 47.3831 67.6472 48.055C65.3292 49.4561 63.0112 50.8531 60.6933 52.246C57.5195 54.1571 54.3249 56.037 51.1775 57.9876C49.2958 59.1534 47.364 59.4322 45.2194 58.8392C41.4518 57.7986 37.6591 56.8464 33.8832 55.8466C33.4478 55.7296 33.0821 55.7296 32.7149 55.9989C32.512 56.1253 32.3016 56.2398 32.0849 56.3417Z" fill="white"/>
<path d="M31.8762 59.2895C31.0269 57.8123 30.1734 56.3368 29.3157 54.8632C27.6579 52.0021 26.0015 49.1406 24.3465 46.2786C24.0516 45.7672 23.665 45.4298 22.9084 45.4189C22.7168 45.4579 22.5302 45.5177 22.3521 45.5971C21.4843 46.0596 20.6192 46.5289 19.7708 47.0227C18.9878 47.477 18.7973 48.1993 19.2465 48.9869C21.7925 53.4005 24.3465 57.8109 26.9083 62.2181C27.3728 63.018 28.1155 63.2098 28.9458 62.7622C29.7218 62.3542 30.491 61.923 31.2573 61.4931C32.2364 60.9477 32.4325 60.2553 31.8762 59.2895ZM22.4272 49.6711C22.1832 49.6679 21.95 49.5718 21.7773 49.4032C21.6046 49.2345 21.5059 49.0066 21.5023 48.7679C21.4963 48.5294 21.5872 48.2983 21.7551 48.1252C21.923 47.952 22.1541 47.8511 22.398 47.8443C22.5226 47.8382 22.6471 47.8568 22.7642 47.8989C22.8813 47.9411 22.9884 48.0058 23.0793 48.0894C23.1702 48.1729 23.2429 48.2736 23.2931 48.3852C23.3433 48.4969 23.37 48.6173 23.3715 48.7393C23.3723 48.8612 23.3484 48.982 23.3013 49.0949C23.2542 49.2077 23.1848 49.3104 23.0971 49.3969C23.0094 49.4835 22.905 49.5523 22.7901 49.5993C22.6751 49.6464 22.5518 49.6708 22.4272 49.6711Z" fill="white"/>
<path d="M48.115 40.233C45.8953 40.233 43.6752 40.233 41.4545 40.233C40.5352 40.233 40.2766 39.8929 40.5199 39.0169C40.9787 37.3852 41.9759 35.9475 43.3566 34.9276C44.7372 33.9076 46.4238 33.3626 48.154 33.3772C49.8932 33.3872 51.5796 33.9624 52.948 35.0124C54.3164 36.0624 55.289 37.5276 55.7128 39.1774C55.8867 39.8575 55.6016 40.2289 54.8784 40.2316C52.6239 40.237 50.3695 40.233 48.115 40.233Z" fill="white"/>
<path d="M38.6736 39.646H28.8102C27.9062 39.646 27.6447 39.3195 27.8686 38.4843C29.3387 33.0202 36.3218 30.9553 40.6513 34.7042C40.7402 34.7753 40.8331 34.8416 40.9294 34.9028C39.7412 36.2479 38.96 37.8905 38.6736 39.646Z" fill="white"/>
<path d="M55.3164 34.9392C58.3344 31.8936 63.7167 32.1398 66.6402 35.4126C67.4451 36.3068 68.0243 37.3733 68.3313 38.5262C68.5358 39.2798 68.2646 39.6403 67.4802 39.6416C64.3064 39.6416 61.1322 39.6416 57.9575 39.6416C57.7002 39.6416 57.4999 39.6416 57.4401 39.3097C57.1639 37.7834 56.4856 36.3539 55.4722 35.1623C55.4193 35.1011 55.3776 35.0276 55.3164 34.9392Z" fill="white"/>
<path d="M31.4922 27.8675C31.4931 27.3577 31.597 26.8532 31.7978 26.3827C31.9986 25.9123 32.2924 25.4853 32.6624 25.1263C33.0323 24.7672 33.4712 24.4831 33.9537 24.2904C34.4362 24.0976 34.9528 24 35.474 24.003C35.9956 24.0033 36.512 24.1046 36.9934 24.301C37.4748 24.4974 37.9117 24.785 38.279 25.1472C38.6463 25.5094 38.9366 25.9392 39.1334 26.4117C39.3301 26.8841 39.4293 27.39 39.4253 27.9001C39.4219 28.9304 39.0008 29.9172 38.2543 30.6441C37.5077 31.3709 36.4968 31.7783 35.4435 31.7769C34.3897 31.7701 33.3818 31.3545 32.641 30.6216C31.9002 29.8886 31.4871 28.8981 31.4922 27.8675Z" fill="white"/>
<path d="M60.7984 24.0026C63.0069 24.0597 64.7593 25.8308 64.7079 27.9474C64.6823 28.9772 64.2429 29.9558 63.4849 30.671C62.7268 31.3862 61.7111 31.7804 60.6579 31.7683C58.4702 31.7248 56.6956 29.9225 56.7554 27.8086C56.7762 26.7798 57.2137 25.8011 57.9717 25.0875C58.7298 24.3738 59.7464 23.9837 60.7984 24.0026Z" fill="white"/>
<path d="M52.0602 28.4607C52.0617 28.9707 51.96 29.476 51.7612 29.9475C51.5623 30.419 51.2701 30.8474 50.9013 31.208C50.5326 31.5687 50.0946 31.8545 49.6125 32.049C49.1304 32.2435 48.6138 32.3429 48.0923 32.3415C47.0392 32.3408 46.0292 31.932 45.2835 31.2047C44.5377 30.4774 44.117 29.4907 44.1133 28.4607C44.1191 27.4304 44.5403 26.444 45.2853 25.7156C46.0302 24.9872 47.0389 24.5757 48.0923 24.5703C49.1456 24.5728 50.1548 24.9838 50.8986 25.7131C51.6425 26.4424 52.0602 27.4305 52.0602 28.4607Z" fill="white"/>
</g>
<defs>
<clipPath id="clip0_545_5678">
<rect width="50" height="39" fill="white" transform="translate(19 24)"/>
</clipPath>
</defs>
</svg>
