<svg width="64" height="64" viewBox="0 0 64 64" fill="none" xmlns="http://www.w3.org/2000/svg">
<rect width="64" height="64" fill="#F5F5F5"/>
<g id="Merchant Landing Page - Desktop" clip-path="url(#clip0_0_1)">
<rect width="1440" height="4826" transform="translate(-469 -2003)" fill="white"/>
<g id="HALF SECTION">
<rect width="1456" height="2837" transform="translate(-477 -2003)" fill="url(#paint0_linear_0_1)"/>
</g>
<g id="OnBoarding Walkthrough">
<rect width="1456" height="307" transform="translate(-477 -130)" fill="#FE8B3F"/>
<g id="SignUp">
<g id="Signup logo">
<rect id="Rectangle 34624651" width="64" height="64" rx="10.3201" fill="white"/>
<path id="Vector" d="M38.2336 33.4321L38.2328 33.4328L30.2328 41.4328C29.8523 41.8134 29.3362 42.0272 28.798 42.0272C28.2598 42.0272 27.7437 41.8134 27.3632 41.4328C26.9826 41.0523 26.7688 40.5362 26.7688 39.998C26.7688 39.4598 26.9826 38.9437 27.3632 38.5632L31.265 34.6653L31.906 34.025H31H14.4C13.8629 34.025 13.3479 33.8116 12.9681 33.4319C12.5883 33.0521 12.375 32.5371 12.375 32C12.375 31.4629 12.5883 30.9479 12.9681 30.5681C13.3479 30.1883 13.8629 29.975 14.4 29.975H31H31.9047L31.2653 29.335L27.3673 25.433L27.3672 25.4328C27.1787 25.2444 27.0293 25.0207 26.9273 24.7745C26.8253 24.5283 26.7728 24.2645 26.7728 23.998C26.7728 23.4598 26.9866 22.9437 27.3672 22.5632C27.7477 22.1826 28.2638 21.9688 28.802 21.9688C29.3402 21.9688 29.8563 22.1826 30.2368 22.5632L38.2368 30.5632L38.237 30.5633C38.4255 30.7517 38.5751 30.9754 38.677 31.2216C38.7789 31.4679 38.8312 31.7319 38.8309 31.9984C38.8306 32.2649 38.7777 32.5287 38.6752 32.7748C38.5727 33.0208 38.4226 33.2442 38.2336 33.4321ZM47.575 16.8V16.425H47.2H36.8C36.2629 16.425 35.7479 16.2117 35.3681 15.8319C34.9883 15.4521 34.775 14.9371 34.775 14.4C34.775 13.8629 34.9883 13.3479 35.3681 12.9681C35.7479 12.5883 36.2629 12.375 36.8 12.375H48C48.9614 12.375 49.8834 12.7569 50.5633 13.4367C51.2431 14.1166 51.625 15.0386 51.625 16V48C51.625 48.9614 51.2431 49.8834 50.5633 50.5633C49.8834 51.2431 48.9614 51.625 48 51.625H36.8C36.2629 51.625 35.7479 51.4116 35.3681 51.0319C34.9883 50.6521 34.775 50.1371 34.775 49.6C34.775 49.0629 34.9883 48.5479 35.3681 48.1681C35.7479 47.7883 36.2629 47.575 36.8 47.575H47.2H47.575V47.2V16.8Z" fill="#FE8B3F" stroke="white" stroke-width="0.75"/>
</g>
</g>
</g>
</g>
<defs>
<linearGradient id="paint0_linear_0_1" x1="689.072" y1="2580.3" x2="689.072" y2="157.611" gradientUnits="userSpaceOnUse">
<stop stop-color="#FFD8C3"/>
<stop offset="0.492708" stop-color="#FFEDE6"/>
</linearGradient>
<clipPath id="clip0_0_1">
<rect width="1440" height="4826" fill="white" transform="translate(-469 -2003)"/>
</clipPath>
</defs>
</svg>
