<svg width="27" height="26" viewBox="0 0 27 26" fill="none" xmlns="http://www.w3.org/2000/svg">
<path d="M1.19867 4.50694L1.19864 4.50704C0.885462 5.328 0.671005 6.26611 0.606105 7.64192C0.54101 9.02695 0.530979 9.46759 0.530979 12.9975C0.530979 16.527 0.546017 16.9679 0.606111 18.3531C0.671018 19.7289 0.885472 20.6669 1.19864 21.4879C1.5216 22.3336 1.95824 23.0526 2.66378 23.7724C3.36911 24.487 4.07842 24.9292 4.91784 25.2563L4.91794 25.2564C5.728 25.5736 6.65366 25.7908 8.01134 25.8566C9.37828 25.9225 9.81313 25.9327 13.2971 25.9327C16.7807 25.9327 17.2158 25.9175 18.583 25.8566C19.9406 25.7908 20.8662 25.5736 21.6762 25.2564M1.19867 4.50694L21.6989 25.3143M1.19867 4.50694C1.5217 3.65599 1.95331 2.9373 2.66347 2.22281C3.37397 1.50798 4.08344 1.06567 4.91796 0.738538C5.72801 0.421323 6.64863 0.2041 8.01121 0.138349C9.37831 0.0774649 9.81344 0.062229 13.2971 0.062229C16.7807 0.062229 17.2158 0.0774649 18.5829 0.138349C19.9405 0.204101 20.8662 0.421336 21.6762 0.738546L21.6763 0.738583L1.19867 4.50694ZM21.6762 25.2564L21.6989 25.3143M21.6762 25.2564C21.6762 25.2564 21.6762 25.2564 21.6762 25.2564L21.6989 25.3143M21.6762 25.2564C22.5107 24.9292 23.2202 24.4869 23.9307 23.7721M21.6989 25.3143C22.5411 24.9842 23.2579 24.5372 23.9748 23.816M23.9307 23.7721C23.9306 23.7722 23.9306 23.7722 23.9305 23.7723L23.9748 23.816M23.9307 23.7721L23.9748 23.816M23.9307 23.7721L23.9748 23.816M18.4883 2.35549L18.4886 2.3555C19.7481 2.41676 20.4317 2.62629 20.8897 2.81185C21.4994 3.04872 21.9327 3.33803 22.3896 3.79585L22.3901 3.79634C22.8421 4.25942 23.1275 4.69839 23.3612 5.31612C23.539 5.77932 23.7509 6.47159 23.8064 7.74803M18.4883 2.35549L4.15439 22.1991C4.15433 22.199 4.15426 22.1989 4.1542 22.1989C4.60669 22.6624 5.03514 22.9413 5.64906 23.188L5.64945 23.1882C6.10683 23.3684 6.80021 23.5832 8.0602 23.6496L8.06046 23.6496C9.4255 23.7157 9.82771 23.7309 13.262 23.7309C16.6963 23.7309 17.0984 23.7157 18.4632 23.6547C19.7235 23.5985 20.417 23.3837 20.8745 23.2034L20.8745 23.2034C21.4739 22.9667 21.9174 22.6775 22.3698 22.2191C22.8274 21.7555 23.1025 21.3165 23.3459 20.6999L23.3461 20.6994C23.5239 20.2363 23.7358 19.5441 23.8013 18.2677L23.8013 18.2675C23.8666 16.8946 23.8816 16.4821 23.8816 13.0076C23.8816 9.53318 23.8666 9.12071 23.8064 7.74803M18.4883 2.35549C17.1361 2.2946 16.7229 2.2793 13.3169 2.27924L13.2829 2.25516L13.2668 2.24369H13.2469C9.81988 2.24369 9.41245 2.25887 8.05476 2.30944L8.04612 2.30976L8.04612 2.30975L8.04516 2.30981C6.7854 2.37618 6.1071 2.59088 5.64989 2.771L18.4883 2.35549ZM23.8064 7.74803L23.7442 7.75073L23.8064 7.74801C23.8064 7.74801 23.8064 7.74802 23.8064 7.74803ZM25.988 7.64192L26.0502 7.63899L25.988 7.64169C25.988 7.64177 25.988 7.64185 25.988 7.64192ZM25.3955 4.50706L25.453 4.48509L25.3955 4.50704C25.3955 4.50705 25.3955 4.50705 25.3955 4.50706ZM20.1499 4.56741L20.1502 4.56741C20.9618 4.56254 21.6266 5.2344 21.6266 6.06447C21.6266 6.89419 20.9621 7.56153 20.1499 7.56153C19.3329 7.56153 18.6731 6.88937 18.6731 6.06447C18.6731 5.23969 19.3378 4.56741 20.1499 4.56741ZM23.9748 2.17894L23.9304 2.2225C23.9304 2.22255 23.9305 2.2226 23.9305 2.22265L23.9748 2.17894ZM6.76717 13.0025C6.76717 9.3487 9.69275 6.38573 13.2971 6.38573C16.9014 6.38573 19.827 9.3487 19.827 13.0025C19.827 16.6564 16.9014 19.6193 13.2971 19.6193C9.69275 19.6193 6.76717 16.6564 6.76717 13.0025ZM8.95873 13.0025C8.95873 15.4284 10.9008 17.3973 13.2971 17.3973C15.6933 17.3973 17.6354 15.4284 17.6354 13.0025C17.6354 10.5767 15.6933 8.60782 13.2971 8.60782C10.9008 8.60782 8.95873 10.5767 8.95873 13.0025Z" fill="white" stroke="#FF7A22" stroke-width="0.124458"/>
</svg>
