<svg width="128" height="20" viewBox="0 0 128 20" fill="none" xmlns="http://www.w3.org/2000/svg">
<path d="M6.65575 10.8266H6.59352V10.8888V19.9378H3.08161V10.8928V10.8305H3.01938H0.062229V7.38788H3.01938H3.08161V7.32565V4.70014C3.08161 3.19099 3.53641 2.03317 4.31617 1.25272C5.09603 0.472166 6.20778 0.062229 7.53495 0.062229C8.75191 0.062229 9.80513 0.150161 10.1798 0.195478V3.25873H8.39488C7.65761 3.25873 7.20044 3.43555 6.93085 3.75978C6.66344 4.08139 6.59352 4.53353 6.59352 5.05177V7.32174V7.38397H6.65575H10.0711L9.6319 10.8266H6.65575Z" fill="#FF7A22" stroke="white" stroke-width="0.124458"/>
<path d="M46.6676 19.4146C46.0461 19.658 45.3357 19.8248 44.2927 19.8753C43.2414 19.9221 42.907 19.9339 40.2273 19.9339C37.5474 19.9339 37.2132 19.926 36.1621 19.8753C35.119 19.8248 34.4086 19.658 33.7871 19.4146L33.787 19.4146C33.1431 19.1636 32.5992 18.8246 32.0581 18.2764C31.5169 17.7242 31.182 17.1729 30.9342 16.524C30.694 15.8941 30.5293 15.1741 30.4794 14.1171C30.4332 13.0519 30.4216 12.713 30.4216 9.99805C30.4216 7.28278 30.4293 6.94412 30.4794 5.87908C30.5292 4.82208 30.694 4.10198 30.9342 3.47207L30.9343 3.47198L46.6902 19.4726M46.6676 19.4146L46.6902 19.4726M46.6676 19.4146C46.6675 19.4146 46.6675 19.4146 46.6675 19.4146L46.6902 19.4726M46.6676 19.4146C47.3077 19.1637 47.8517 18.8245 48.3968 18.2761M46.6902 19.4726C47.3381 19.2186 47.8895 18.8748 48.4409 18.32M48.3968 18.2761C48.3967 18.2762 48.3967 18.2762 48.3967 18.2763L48.4409 18.32M48.3968 18.2761C48.3968 18.2761 48.3968 18.2761 48.3968 18.2761L48.4409 18.32M48.3968 18.2761L48.4409 18.32M49.9752 5.87884C49.9752 5.87892 49.9752 5.879 49.9752 5.87908L50.0374 5.87615L49.9752 5.87884ZM49.5204 3.47207C49.5204 3.47208 49.5204 3.47208 49.5204 3.47209L49.5785 3.44989L49.5204 3.47207ZM48.3966 1.7198C48.3966 1.71981 48.3967 1.71982 48.3967 1.71982L48.4408 1.67624L48.3965 1.71967C48.3966 1.71971 48.3966 1.71976 48.3966 1.7198ZM44.2215 1.79758L44.2212 1.79757C43.1813 1.75074 42.863 1.73896 40.2471 1.7389L40.2247 1.72302L40.2086 1.71155H40.1887C37.5523 1.71155 37.2388 1.72323 36.194 1.76215L36.1876 1.76239L36.1876 1.76238L36.1866 1.76243C35.2161 1.81357 34.6928 1.97905 34.3397 2.11814C33.8638 2.29752 33.5326 2.52952 33.1841 2.88264C32.8317 3.23967 32.6067 3.57124 32.4298 4.05684C32.2884 4.41523 32.1292 4.95711 32.0788 5.93938L32.0788 5.93938L32.0787 5.94031C32.0401 7.00407 32.0286 7.32918 32.0286 9.99414C32.0286 12.6552 32.0401 12.9803 32.0787 14.0324L32.0788 14.0333C32.1292 15.0164 32.2925 15.5581 32.4298 15.9158C32.6064 16.385 32.831 16.7323 33.1841 17.0862C33.5337 17.4442 33.8649 17.6598 34.3389 17.8503L34.3393 17.8504C34.6925 17.9896 35.2274 18.1552 36.1982 18.2063L36.1985 18.2063C37.2488 18.2572 37.5585 18.2689 40.2003 18.2689C42.8422 18.2689 43.1517 18.2572 44.2019 18.2102C45.173 18.167 45.708 18.0014 46.0614 17.8622L46.0614 17.8621C46.5243 17.6793 46.8671 17.4558 47.2166 17.1017C47.57 16.7436 47.7826 16.4042 47.9705 15.9283L47.9707 15.9277C48.108 15.5701 48.2714 15.0362 48.3219 14.0528L48.3219 14.0526C48.3721 12.9962 48.3836 12.6786 48.3836 10.0059C48.3836 7.33312 48.3721 7.01561 48.3257 5.9594C48.283 4.976 48.1197 4.44196 47.9824 4.08425C47.8019 3.60717 47.5812 3.26782 47.2322 2.91023L47.2317 2.90974C46.8789 2.55624 46.544 2.33257 46.0731 2.14962C45.7192 2.00625 45.1918 1.84477 44.2215 1.79758ZM45.4987 3.52775L45.4991 3.52775C46.1151 3.52406 46.6203 4.03417 46.6203 4.66497C46.6203 5.29544 46.1154 5.8022 45.4987 5.8022C44.8784 5.8022 44.3771 5.29179 44.3771 4.66497C44.3771 4.03829 44.8821 3.52775 45.4987 3.52775ZM36.1591 0.0586052L36.1618 0.120773C36.1619 0.120771 36.1619 0.120769 36.1619 0.120767C36.162 0.120766 36.162 0.120764 36.1621 0.120762L36.1591 0.0586052ZM33.7871 0.581476L33.7644 0.523539L33.7871 0.581484C33.7871 0.581481 33.7871 0.581479 33.7871 0.581476ZM44.2956 0.0586052L44.2926 0.120761C44.2926 0.120763 44.2926 0.120765 44.2927 0.120767C44.2927 0.120769 44.2928 0.120771 44.2928 0.120773L44.2956 0.0586052ZM35.2187 10.002C35.2187 7.19906 37.4629 4.92646 40.2273 4.92646C42.9918 4.92646 45.2359 7.19906 45.2359 10.002C45.2359 12.8048 42.9918 15.0774 40.2273 15.0774C37.4629 15.0774 35.2187 12.8048 35.2187 10.002ZM36.8758 10.002C36.8758 11.8758 38.3759 13.3969 40.2273 13.3969C42.0787 13.3969 43.5788 11.8758 43.5788 10.002C43.5788 8.12815 42.0787 6.60704 40.2273 6.60704C38.3759 6.60704 36.8758 8.12815 36.8758 10.002Z" fill="#FF7A22" stroke="white" stroke-width="0.124458"/>
<path d="M76.3748 14.5871C74.6648 14.557 73.2234 13.4386 72.6866 11.8884C72.9029 11.9238 73.1205 11.9415 73.3466 11.9415C73.7182 11.9415 74.0824 11.8939 74.4275 11.7986L74.4233 11.6776C72.6182 11.3118 71.2592 9.71125 71.2343 7.78016C71.7638 8.05931 72.3614 8.22684 72.9974 8.24932L73.2135 8.25696L73.0345 8.13562C71.9674 7.41232 71.2648 6.18109 71.2648 4.78021C71.2648 4.06234 71.4419 3.40501 71.7593 2.83114C73.7592 5.2738 76.7274 6.88638 80.0688 7.04593L80.1501 7.04981L80.1325 6.97035C80.0678 6.67738 80.0299 6.36933 80.0299 6.04999C80.0299 3.82928 81.8113 2.02549 84.0051 2.02549C85.1513 2.02549 86.18 2.51762 86.9055 3.30262L86.9293 3.32838L86.9636 3.32135C87.8321 3.14388 88.6562 2.83439 89.4037 2.41237C89.0893 3.28269 88.484 4.01246 87.7093 4.48485L87.7494 4.59973C88.527 4.50311 89.2666 4.3012 89.9617 4.00392C89.4391 4.76652 88.7847 5.43966 88.0443 5.9802L88.0167 6.00038L88.0189 6.03454C88.0303 6.20798 88.0304 6.38176 88.0304 6.554C88.0304 11.9236 83.9898 18.119 76.6089 18.119C74.4279 18.119 72.4021 17.5008 70.6631 16.432C70.8981 16.4514 71.1332 16.4619 71.3684 16.4619C73.2609 16.4619 75.0252 15.8044 76.4125 14.698L76.5477 14.5902L76.3748 14.5871Z" fill="#FF7A22" stroke="white" stroke-width="0.124458"/>
<path d="M127.898 2.60827V17.6802C127.898 18.0248 127.763 18.3553 127.522 18.599C127.282 18.8426 126.955 18.9795 126.615 18.9795H111.739C111.399 18.9795 111.073 18.8426 110.833 18.599C110.592 18.3553 110.457 18.0248 110.457 17.6802V2.60827C110.457 2.26367 110.592 1.93319 110.833 1.68952C111.073 1.44585 111.399 1.30896 111.739 1.30896L126.615 1.30896C126.955 1.30896 127.282 1.44585 127.522 1.68952C127.763 1.93319 127.898 2.26367 127.898 2.60827V2.60827ZM115.587 8.06536H113.022V16.3809H115.587V8.06536ZM115.817 5.20688C115.819 5.01032 115.782 4.81541 115.709 4.63328C115.636 4.45116 115.528 4.28538 115.392 4.14543C115.256 4.00547 115.094 3.89407 114.915 3.81759C114.736 3.74111 114.544 3.70105 114.35 3.69969H114.304C113.91 3.69969 113.531 3.85848 113.252 4.14113C112.973 4.42379 112.817 4.80715 112.817 5.20688C112.817 5.60661 112.973 5.98998 113.252 6.27263C113.531 6.55528 113.91 6.71408 114.304 6.71408V6.71408C114.498 6.71891 114.691 6.68497 114.872 6.61418C115.053 6.5434 115.219 6.43716 115.359 6.30153C115.5 6.16591 115.613 6.00356 115.691 5.82376C115.77 5.64396 115.813 5.45024 115.817 5.25366V5.20688ZM125.333 11.3292C125.333 8.82935 123.763 7.85747 122.204 7.85747C121.693 7.83157 121.185 7.94175 120.729 8.17703C120.274 8.4123 119.887 8.76446 119.608 9.19835H119.536V8.06536H117.126V16.3809H119.69V11.9581C119.653 11.5051 119.794 11.0556 120.082 10.7072C120.37 10.3588 120.783 10.1397 121.229 10.0975H121.327C122.142 10.0975 122.748 10.6172 122.748 11.9269V16.3809H125.312L125.333 11.3292Z" fill="#FF7A22"/>
</svg>
